<svg width="26" height="20" viewBox="0 0 26 20" fill="none" xmlns="http://www.w3.org/2000/svg">
<path d="M22.0107 1.65906C20.3249 0.877792 18.5459 0.320502 16.7181 0.00113909C16.7015 -0.00167518 16.6845 0.000755409 16.6694 0.00809674C16.6543 0.0154381 16.6418 0.0273296 16.6336 0.0421361C16.4045 0.452106 16.151 0.988347 15.9739 1.40816C14.0037 1.10668 11.9998 1.10668 10.0297 1.40816C9.83292 0.940109 9.60938 0.484 9.36018 0.0421361C9.35202 0.0273296 9.33951 0.0154381 9.32438 0.00809674C9.30925 0.000755409 9.29223 -0.00167518 9.27568 0.00113909C7.44757 0.319276 5.66821 0.876835 3.98311 1.65906C3.96862 1.66449 3.95652 1.67495 3.94898 1.68858C0.578769 6.77057 -0.345847 11.7279 0.107523 16.623C0.110773 16.647 0.122148 16.6672 0.141648 16.6836C2.10458 18.1501 4.2996 19.2701 6.63345 19.9962C6.64993 20.0014 6.66764 20.0013 6.68401 19.9957C6.70037 19.99 6.71454 19.9793 6.72445 19.965C7.22603 19.2763 7.66911 18.5498 8.05369 17.7856C8.06168 17.7699 8.06442 17.752 8.06149 17.7345C8.05856 17.7171 8.05013 17.7011 8.03744 17.6889L8.00819 17.6708C7.30841 17.3986 6.63041 17.0724 5.98021 16.6951C5.96206 16.6847 5.94856 16.6677 5.94251 16.6476C5.93646 16.6274 5.93832 16.6057 5.94771 16.5869L5.97209 16.5557C6.10967 16.4519 6.244 16.3453 6.37508 16.236C6.38657 16.2266 6.40034 16.2206 6.41494 16.2186C6.42954 16.2166 6.44441 16.2186 6.45796 16.2245C10.7138 18.1858 15.3206 18.1858 19.5244 16.2245C19.5384 16.218 19.5539 16.2156 19.5692 16.2176C19.5844 16.2197 19.5988 16.226 19.6106 16.236C19.7416 16.3453 19.876 16.4519 20.0136 16.5557C20.025 16.5636 20.0342 16.5743 20.0404 16.5869C20.0466 16.5994 20.0495 16.6133 20.0488 16.6273C20.0482 16.6412 20.044 16.6548 20.0367 16.6667C20.0294 16.6785 20.0192 16.6883 20.0071 16.6951C19.3597 17.0783 18.6806 17.4042 17.9775 17.6692C17.9663 17.6733 17.9561 17.6798 17.9477 17.6883C17.9392 17.6968 17.9328 17.7071 17.9287 17.7184C17.9248 17.7293 17.9231 17.741 17.924 17.7526C17.9248 17.7641 17.9281 17.7754 17.9336 17.7856C18.3236 18.5482 18.7705 19.2763 19.2612 19.965C19.2711 19.9793 19.2853 19.99 19.3016 19.9957C19.318 20.0013 19.3357 20.0014 19.3522 19.9962C21.6907 19.2741 23.8895 18.1538 25.8538 16.6836C25.8635 16.6767 25.8716 16.6676 25.8775 16.6572C25.8834 16.6467 25.887 16.635 25.8879 16.623C26.4306 10.9637 24.9795 6.04738 22.0432 1.69022C22.0406 1.68278 22.0363 1.67607 22.0307 1.67064C22.025 1.66522 22.0182 1.66125 22.0107 1.65906ZM8.68906 13.6417C7.40695 13.6417 6.35233 12.4544 6.35233 10.9982C6.35233 9.54196 7.38745 8.35305 8.68906 8.35305C10.0004 8.35305 11.0453 9.55016 11.0258 10.9982C11.0258 12.4544 9.99067 13.6417 8.68906 13.6417ZM17.3275 13.6417C16.047 13.6417 14.9907 12.4544 14.9907 10.9982C14.9907 9.54196 16.0259 8.35305 17.3275 8.35305C18.6388 8.35305 19.6853 9.55016 19.6642 10.9982C19.6642 12.4544 18.6388 13.6417 17.3275 13.6417Z" fill="white"/>
</svg>
