<svg width="27" height="26" viewBox="0 0 27 26" fill="none" xmlns="http://www.w3.org/2000/svg">
<path fill-rule="evenodd" clip-rule="evenodd" d="M3.18163 0.829065C3.47689 0.545146 3.83144 0.324899 4.22177 0.182919C4.6121 0.0409389 5.02931 -0.0195318 5.44575 0.00551423C5.86218 0.0305602 6.26834 0.140551 6.63729 0.328197C7.00625 0.515844 7.32958 0.776861 7.58587 1.09395L10.6148 4.84137C11.17 5.52878 11.3658 6.4242 11.1464 7.26924L10.2233 10.8281C10.176 11.0125 10.1787 11.2055 10.2313 11.3885C10.2839 11.5716 10.3846 11.7384 10.5237 11.8731L14.6698 15.8659C14.8097 16.0001 14.9833 16.0972 15.1737 16.1479C15.3641 16.1986 15.5648 16.2011 15.7565 16.1551L19.4503 15.2662C19.8834 15.1626 20.3352 15.1548 20.7719 15.2434C21.2085 15.3321 21.6186 15.5149 21.9714 15.7781L25.8626 18.6935C27.2615 19.7417 27.3897 21.7324 26.1377 22.9366L24.3928 24.6169C23.1441 25.8195 21.2778 26.3476 19.5381 25.7577C15.0843 24.2506 11.041 21.7954 7.70905 18.5749C4.36516 15.3666 1.81573 11.4733 0.250537 7.18473C-0.360319 5.5109 0.188101 3.71195 1.43681 2.50939L3.18163 0.829065Z" fill="white"/>
</svg>
