<svg width="26" height="26" viewBox="0 0 26 26" fill="none" xmlns="http://www.w3.org/2000/svg">
<path d="M22.2015 3.77983C21.0044 2.57651 19.5785 1.62256 18.0071 0.973614C16.4357 0.324669 14.7502 -0.00627381 13.049 9.00654e-05C5.92052 9.00654e-05 0.110999 5.78182 0.10447 12.8798C0.10447 15.1532 0.701909 17.3648 1.82986 19.3229L0 26L6.86238 24.2093C8.75996 25.2399 10.8873 25.7791 13.049 25.7774H13.0555C20.1856 25.7774 25.9935 19.9956 26 12.8912C26.0014 11.198 25.6664 9.52132 25.0142 7.95759C24.3621 6.39387 23.4072 4.97403 22.2015 3.77983ZM13.049 23.5966C11.1215 23.5951 9.22965 23.0788 7.57082 22.1016L7.17905 21.8676L3.10799 22.9304L4.19513 18.9768L3.94048 18.5689C2.86282 16.8632 2.29287 14.8883 2.29671 12.8733C2.29671 6.98107 7.12355 2.17433 13.0555 2.17433C14.4687 2.17181 15.8684 2.44778 17.1739 2.98633C18.4795 3.52488 19.665 4.31536 20.6622 5.3122C21.6627 6.30531 22.4558 7.4857 22.996 8.78534C23.5361 10.085 23.8126 11.4782 23.8094 12.8847C23.8029 18.798 18.976 23.5966 13.049 23.5966ZM18.9499 15.5789C18.6283 15.418 17.0401 14.6397 16.7413 14.5292C16.4442 14.4235 16.2271 14.3683 16.0149 14.69C15.7978 15.0102 15.1775 15.7398 14.9915 15.9494C14.8054 16.1655 14.6128 16.1899 14.2895 16.0307C13.968 15.8682 12.9249 15.5302 11.6909 14.43C10.7278 13.5769 10.083 12.5207 9.89038 12.2005C9.70429 11.8788 9.87242 11.7065 10.034 11.5457C10.176 11.4027 10.3556 11.1687 10.5172 10.9834C10.6804 10.7982 10.7343 10.6617 10.8404 10.4472C10.9465 10.2294 10.8959 10.0442 10.8159 9.88331C10.7343 9.72243 10.0895 8.13481 9.81692 7.49456C9.55575 6.86244 9.28968 6.95019 9.09053 6.94207C8.90444 6.93069 8.68734 6.93069 8.47024 6.93069C8.30631 6.93484 8.14501 6.97264 7.99642 7.0417C7.84784 7.11076 7.71517 7.20961 7.60673 7.33206C7.30964 7.65381 6.47878 8.43219 6.47878 10.0198C6.47878 11.6074 7.63774 13.1333 7.80098 13.3494C7.96095 13.5655 10.0765 16.8139 13.3232 18.2114C14.0904 18.5445 14.6944 18.7411 15.1661 18.8906C15.9415 19.1376 16.6418 19.1003 17.2 19.0206C17.8203 18.9264 19.1115 18.2407 19.3841 17.4883C19.6518 16.7343 19.6518 16.0908 19.5702 15.9559C19.4902 15.8194 19.2731 15.7398 18.9499 15.5789Z" fill="white"/>
</svg>
