<svg width="26" height="26" viewBox="0 0 26 26" fill="none" xmlns="http://www.w3.org/2000/svg">
<path d="M22.2015 3.77995C21.0044 2.57663 19.5785 1.62268 18.0071 0.973736C16.4357 0.324791 14.7502 -0.00615174 13.049 0.000212136C5.92052 0.000212136 0.110999 5.78194 0.10447 12.8799C0.10447 15.1533 0.701909 17.3649 1.82986 19.323L0 26.0001L6.86238 24.2094C8.75996 25.24 10.8873 25.7792 13.049 25.7775H13.0555C20.1856 25.7775 25.9935 19.9958 26 12.8913C26.0014 11.1981 25.6664 9.52144 25.0142 7.95772C24.3621 6.394 23.4072 4.97415 22.2015 3.77995ZM13.049 23.5968C11.1215 23.5952 9.22965 23.079 7.57082 22.1018L7.17905 21.8678L3.10799 22.9305L4.19513 18.9769L3.94048 18.569C2.86282 16.8633 2.29287 14.8885 2.29671 12.8734C2.29671 6.98119 7.12355 2.17445 13.0555 2.17445C14.4687 2.17193 15.8684 2.4479 17.1739 2.98645C18.4795 3.525 19.665 4.31548 20.6622 5.31232C21.6627 6.30543 22.4558 7.48582 22.996 8.78546C23.5361 10.0851 23.8126 11.4783 23.8094 12.8848C23.8029 18.7981 18.976 23.5968 13.049 23.5968ZM18.9499 15.579C18.6283 15.4182 17.0401 14.6398 16.7413 14.5293C16.4442 14.4237 16.2271 14.3684 16.0149 14.6902C15.7978 15.0103 15.1775 15.7399 14.9915 15.9495C14.8054 16.1657 14.6128 16.19 14.2895 16.0308C13.968 15.8683 12.9249 15.5303 11.6909 14.4302C10.7278 13.577 10.083 12.5208 9.89038 12.2007C9.70429 11.8789 9.87242 11.7067 10.034 11.5458C10.176 11.4028 10.3556 11.1688 10.5172 10.9835C10.6804 10.7983 10.7343 10.6618 10.8404 10.4473C10.9465 10.2296 10.8959 10.0443 10.8159 9.88343C10.7343 9.72255 10.0895 8.13493 9.81692 7.49469C9.55575 6.86256 9.28968 6.95031 9.09053 6.94219C8.90444 6.93081 8.68734 6.93081 8.47024 6.93081C8.30631 6.93497 8.14501 6.97276 7.99642 7.04182C7.84784 7.11089 7.71517 7.20974 7.60673 7.33219C7.30964 7.65394 6.47878 8.43231 6.47878 10.0199C6.47878 11.6075 7.63774 13.1334 7.80098 13.3495C7.96095 13.5657 10.0765 16.814 13.3232 18.2115C14.0904 18.5446 14.6944 18.7413 15.1661 18.8908C15.9415 19.1378 16.6418 19.1004 17.2 19.0208C17.8203 18.9265 19.1115 18.2408 19.3841 17.4884C19.6518 16.7344 19.6518 16.0909 19.5702 15.956C19.4902 15.8195 19.2731 15.7399 18.9499 15.579Z" fill="white"/>
</svg>
