<svg width="1501" height="480" viewBox="0 0 1501 480" fill="none" xmlns="http://www.w3.org/2000/svg">
<rect width="360" height="453" transform="translate(570)" fill="white"/>
<path d="M0 21H1501V409C1501 420.046 1492.05 429 1481 429H20C8.95429 429 0 420.046 0 409V21Z" fill="url(#paint0_linear_103_1864)"/>
<g clip-path="url(#clip0_103_1864)">
<path d="M842.716 313.054L757.869 312.859L673.032 312.789L503.358 312.665L333.684 312.789L248.837 312.859L164 313.054L248.837 313.241L333.684 313.311L503.358 313.435L673.032 313.311L757.869 313.241L842.716 313.054Z" fill="#263238"/>
<path d="M664.913 381.91C666.709 382.447 717.5 380.766 719.397 379.475C720.12 378.992 720.306 371.57 720.275 362.6V362.32C720.275 360.468 714.499 329.511 714.499 329.511L680.514 330.531L687.51 363.035V363.588C687.51 363.588 668.357 372.924 666.421 374.581C664.486 376.238 663.157 381.373 664.913 381.91Z" fill="#F7A9A0"/>
<path d="M719.42 379.475C717.539 380.766 666.74 382.454 664.952 381.91C663.164 381.365 664.556 376.215 666.468 374.581C667.556 373.655 674.094 370.294 679.605 367.532C675.897 369.493 668.279 376.215 691.405 372.286C707.053 369.625 716.046 367.385 720.306 366.179C720.275 373.469 720.05 379.062 719.42 379.475Z" fill="#263238"/>
<path d="M680.654 362.359L724.037 358.741C724.037 358.741 710.9 306.366 713.263 302.826C714.297 301.27 754.073 308.63 769.177 292.261C782.99 277.284 769.177 247.051 769.177 247.051H731.865C731.865 247.051 732.262 260.184 729.984 264.992C729.004 267.054 684.121 263.117 676.698 276.662C666.826 294.75 680.654 362.359 680.654 362.359Z" fill="#37474F"/>
<path d="M718.899 350.378C714.119 350.603 709.315 350.79 704.534 351.156C699.753 351.521 694.957 351.933 690.184 352.501L686.142 352.976C685.497 353.054 684.86 353.132 684.215 353.225C683.564 353.287 682.917 353.388 682.279 353.528C682.209 353.528 682.232 353.637 682.279 353.645C683.503 353.692 684.729 353.653 685.948 353.528L689.415 353.334C691.794 353.194 694.172 353.038 696.551 352.867C701.316 352.525 706.058 352.035 710.807 351.521L718.891 350.626C719.062 350.603 719.062 350.37 718.899 350.378Z" fill="#263238"/>
<path d="M764.987 254.668C764.855 253.415 764.754 252.155 764.7 250.895C764.694 250.879 764.685 250.865 764.671 250.856C764.658 250.846 764.642 250.841 764.626 250.841C764.609 250.841 764.593 250.846 764.58 250.856C764.567 250.865 764.557 250.879 764.552 250.895C764.552 260.456 767.871 270.111 765.275 279.595C764.168 283.75 761.643 287.385 758.139 289.872C754.453 292.342 750.237 293.907 745.834 294.439C740.835 295.163 735.728 295.023 730.715 294.992L715.02 294.914H711.134C709.912 294.84 708.686 294.84 707.465 294.914C707.027 294.93 706.608 295.092 706.273 295.374C705.937 295.656 705.706 296.041 705.614 296.47C705.459 297.584 705.443 298.713 705.568 299.831C705.718 304.883 706.076 309.916 706.641 314.932C707.772 324.928 709.717 334.816 712.455 344.496C712.797 345.694 713.155 346.892 713.52 348.082C713.529 348.112 713.55 348.137 713.578 348.152C713.605 348.166 713.638 348.169 713.668 348.16C713.698 348.151 713.723 348.13 713.737 348.102C713.752 348.075 713.755 348.042 713.745 348.012C710.998 338.249 708.966 328.298 707.667 318.238C707.029 313.236 706.594 308.202 706.322 303.161C706.254 301.916 706.2 300.671 706.159 299.426C706.159 298.819 706.112 298.205 706.104 297.598C706.053 297.079 706.147 296.557 706.376 296.089C706.564 295.864 706.804 295.691 707.075 295.583C707.347 295.476 707.641 295.438 707.931 295.474C708.615 295.474 709.299 295.474 709.983 295.474H713.87L729.564 295.575C734.593 295.575 739.669 295.77 744.66 295.186C749.034 294.785 753.273 293.459 757.097 291.296C760.667 289.239 763.476 286.082 765.104 282.295C768.804 273.418 765.967 263.817 764.987 254.668Z" fill="#263238"/>
<path d="M769.177 292.261C759.849 302.375 740.999 303.433 727.784 303.153L742.903 247.082H769.177C769.177 247.082 782.99 277.284 769.177 292.261Z" fill="#263238"/>
<path d="M845.978 379.739C845.775 377.88 824.383 331.737 822.455 330.5C821.732 330.017 814.83 332.748 806.59 336.28L806.334 336.397C804.631 337.12 773.274 345.554 773.274 345.554L787.172 375.748L819.82 366.319L820.318 366.07C820.318 366.07 836.393 380.074 838.663 381.202C840.933 382.33 846.195 381.599 845.978 379.739Z" fill="#F7A9A0"/>
<path d="M810.694 334.514C817.022 331.877 821.857 330.072 822.455 330.476C824.391 331.713 845.775 377.849 845.978 379.708C846.18 381.567 840.902 382.299 838.647 381.171C837.271 380.478 830.757 375.009 825.876 370.847C829.366 373.585 836.984 376.938 825.58 357.706C818.545 345.865 813.602 338.575 810.694 334.514Z" fill="#263238"/>
<path d="M732.122 247.051C732.122 247.051 732.697 265.14 735.41 274.048C735.41 274.048 738.364 275.604 739.25 276.156C739.25 276.156 716.8 329.955 718.075 350.658C718.495 357.442 726.175 368.59 733.933 373.422C747.66 381.98 814.651 374.472 814.651 374.472L804.934 334.156C804.934 334.156 762.577 336.49 761.505 334.226C760.144 331.316 768.578 308.684 775.318 290.3C775.994 288.441 782.773 281.594 781.98 269.193C781.376 261.523 779.402 254.023 776.15 247.051H732.122Z" fill="#37474F"/>
<path d="M739.172 269.831C739.086 268.547 738.993 267.264 738.877 265.988C738.62 263.07 738.317 260.145 737.804 257.259C737.804 257.033 737.446 257.119 737.47 257.336C737.664 259.6 737.92 261.864 738.138 264.128C738.356 266.392 738.62 268.649 738.659 270.905C738.659 271.582 738.659 272.733 737.788 272.92C736.669 273.177 736.14 271.698 735.876 270.897C735.232 268.882 734.762 266.815 734.469 264.72C734.096 262.386 733.902 259.935 733.692 257.539C733.692 257.453 733.536 257.469 733.536 257.539C733.536 262.292 733.591 267.264 735.363 271.753C735.491 272.214 735.741 272.632 736.087 272.962C736.434 273.293 736.863 273.523 737.33 273.628C737.33 273.628 737.33 273.628 737.376 273.628C737.423 273.628 737.376 273.682 737.376 273.713C737.376 273.744 737.431 273.978 737.454 274.11C737.469 274.223 737.493 274.335 737.524 274.445C737.571 274.678 737.602 274.911 737.656 275.137C737.665 275.177 737.687 275.213 737.719 275.239C737.75 275.265 737.79 275.279 737.831 275.279C737.872 275.279 737.912 275.265 737.944 275.239C737.975 275.213 737.997 275.177 738.006 275.137C738.035 275.127 738.059 275.108 738.076 275.083C738.093 275.057 738.101 275.027 738.099 274.997C738.079 274.534 737.976 274.078 737.796 273.651C738.07 273.594 738.325 273.47 738.538 273.289C738.751 273.109 738.916 272.877 739.017 272.616C739.29 271.714 739.343 270.759 739.172 269.831Z" fill="#263238"/>
<path d="M735.752 274.063C739.387 275.574 742.885 277.396 746.207 279.509C746.339 279.587 746.207 279.797 746.098 279.727C742.569 278.008 738.962 276.359 735.534 274.445C735.503 274.408 735.484 274.363 735.479 274.315C735.475 274.267 735.485 274.219 735.509 274.178C735.533 274.136 735.569 274.103 735.612 274.082C735.656 274.062 735.704 274.055 735.752 274.063Z" fill="#263238"/>
<path d="M765.702 265.793C764.786 265.795 763.871 265.722 762.966 265.576C762.189 265.428 761.365 265.202 760.588 264.976C759.118 264.541 757.33 264.027 756.258 262.86C755.219 261.589 754.39 260.16 753.801 258.628C753.066 257.026 752.578 255.32 752.356 253.571C752.359 253.562 752.36 253.551 752.359 253.541C752.358 253.532 752.354 253.522 752.348 253.514C752.343 253.506 752.335 253.499 752.326 253.494C752.317 253.489 752.307 253.487 752.297 253.487C752.287 253.487 752.277 253.489 752.268 253.494C752.26 253.499 752.252 253.506 752.246 253.514C752.24 253.522 752.237 253.532 752.236 253.541C752.234 253.551 752.235 253.562 752.239 253.571C752.35 255.379 752.649 257.17 753.133 258.916C753.404 259.785 753.739 260.633 754.136 261.452C754.495 262.273 754.974 263.036 755.558 263.716C756.74 265 758.667 265.622 760.339 265.957C762.122 266.283 763.95 266.283 765.733 265.957C765.85 265.972 765.811 265.793 765.702 265.793Z" fill="#263238"/>
<path d="M793.951 338.855C784.716 338.684 780.417 339.252 771.175 339.26H760.72C759.911 339.281 759.102 339.208 758.31 339.042C757.576 338.916 756.914 338.523 756.452 337.937C755.838 337.019 756.164 335.852 756.382 334.825C756.841 332.655 757.369 330.492 757.937 328.345C760.269 319.608 763.3 311.073 766.161 302.499L770.576 289.273C770.942 288.2 771.299 287.126 771.75 286.084C772.177 285.131 772.663 284.206 773.204 283.314C774.243 281.6 775.083 279.773 775.707 277.868C778.21 269.644 775.808 261.133 772.885 253.376C772.488 252.334 772.108 251.299 771.657 250.264C771.657 250.194 771.517 250.264 771.548 250.303C774.206 258.496 777.386 267.015 775.598 275.752C775.182 277.808 774.461 279.79 773.46 281.633C772.947 282.575 772.387 283.485 771.905 284.426C771.406 285.388 770.974 286.384 770.615 287.406C769.06 291.747 767.661 296.159 766.2 300.539C763.277 309.237 760.207 317.919 757.774 326.773C757.167 328.975 756.608 331.192 756.11 333.425C755.745 335.074 754.921 337.315 756.351 338.676C757.4 339.672 759.056 339.797 760.424 339.804C762.756 339.804 765.034 339.804 767.335 339.804C776.709 339.804 792.823 339.213 793.982 339.19C794.026 339.186 794.067 339.164 794.095 339.13C794.124 339.096 794.137 339.051 794.133 339.007C794.129 338.963 794.108 338.922 794.073 338.893C794.039 338.865 793.995 338.851 793.951 338.855Z" fill="#263238"/>
<path d="M807.538 372.636C806.629 367.929 805.766 363.199 804.724 358.515C803.683 353.832 802.548 349.14 801.335 344.511C800.993 343.197 800.636 341.89 800.286 340.575C800.125 339.952 799.954 339.33 799.773 338.708C799.616 338.07 799.424 337.441 799.198 336.825C799.198 336.763 799.081 336.825 799.081 336.864C799.212 338.08 799.425 339.286 799.718 340.474C799.952 341.617 800.169 342.753 800.402 343.889C800.884 346.223 801.379 348.557 801.887 350.891C802.906 355.559 804.071 360.227 805.253 364.825C805.932 367.455 806.613 370.082 807.297 372.706C807.336 372.784 807.569 372.753 807.538 372.636Z" fill="#263238"/>
<path d="M708.638 227.578L715.005 227.741C716.874 224.156 717.588 220.079 717.049 216.071C716.94 215.145 719.109 220.436 718.238 227.85C724.962 228.021 734.104 228.247 742.095 228.364C742.25 225.252 742.538 222.358 742.538 222.358C742.79 224.404 743.222 226.424 743.828 228.395L747.023 228.442C746.979 224.002 747.179 219.563 747.622 215.145C748.198 219.776 749.529 224.281 751.563 228.48C756.631 228.48 759.973 228.426 759.756 228.185C752.091 219.37 757.711 214.305 755.543 206.549C752.931 197.259 744.932 195.773 745.173 188.795C745.36 183.115 746.075 172.815 738.908 170.605C736.97 168.704 734.517 167.416 731.853 166.903C729.189 166.39 726.432 166.673 723.928 167.719C712.595 172.044 717.065 189.565 716.287 193.128C715.183 198.208 712.758 200.006 710.947 205.802C709.136 211.598 711.724 215.573 712.066 219.557C712.408 223.54 707.363 227.57 708.638 227.578Z" fill="#263238"/>
<path d="M759.981 226.893C758.936 225.358 758.109 223.685 757.525 221.922C756.95 220.195 757.198 218.421 757.525 216.593C757.931 214.74 758.243 212.868 758.458 210.983C758.669 209.016 758.481 207.026 757.906 205.133C757.29 203.24 756.247 201.516 754.859 200.091C753.512 198.738 752.056 197.5 750.505 196.388C749.005 195.322 747.651 194.064 746.479 192.646C745.355 191.171 744.654 189.417 744.45 187.573C744.378 189.494 744.887 191.393 745.911 193.019C746.992 194.609 748.302 196.03 749.798 197.236C751.228 198.402 752.581 199.66 753.848 201.001C755.047 202.315 755.949 203.873 756.491 205.568C756.988 207.285 757.167 209.078 757.019 210.859C756.911 212.671 756.569 214.5 756.328 216.382C756.191 217.341 756.128 218.309 756.141 219.277C756.179 220.269 756.395 221.247 756.779 222.163C757.554 223.919 758.639 225.521 759.981 226.893Z" fill="#263238"/>
<path d="M717.515 174.192C716.722 176.378 716.2 178.654 715.961 180.968C715.673 183.302 715.494 185.581 715.339 187.884L715.09 191.323C715.022 192.432 714.848 193.531 714.569 194.606C713.893 196.733 712.84 198.72 711.46 200.472C710.776 201.438 710.158 202.449 709.61 203.499C709.061 204.578 708.636 205.716 708.343 206.891C708.086 208.056 707.92 209.24 707.845 210.431C707.76 211.629 707.822 212.834 708.032 214.017C708.242 215.208 708.568 216.351 708.848 217.425C709.132 218.515 709.309 219.63 709.377 220.755C709.41 221.883 709.174 223.003 708.689 224.022C708.204 225.04 707.483 225.929 706.586 226.613C707.611 226.003 708.467 225.147 709.079 224.123C709.691 223.099 710.039 221.939 710.092 220.747C710.117 219.566 710.021 218.384 709.804 217.223C709.602 216.063 709.315 214.951 709.19 213.846C708.961 211.631 709.141 209.392 709.719 207.241C710.013 206.181 710.414 205.154 710.916 204.176C711.445 203.184 712.043 202.23 712.704 201.32C713.349 200.371 714.017 199.399 714.593 198.341C715.18 197.278 715.632 196.147 715.937 194.972C716.207 193.802 716.361 192.609 716.396 191.409C716.458 190.249 716.482 189.075 716.505 187.939C716.552 185.605 716.575 183.325 716.684 181.03C716.727 178.728 717.006 176.437 717.515 174.192Z" fill="#263238"/>
<path d="M739.226 207.848C739.343 220.623 737.205 241.629 731.756 250.638C727.411 257.858 707.325 269.31 696.504 272.297C692.687 273.348 690.783 257.445 692.617 253.548C693.745 251.214 716.186 242.041 718.269 238.921C721.433 234.191 725.747 218.615 730.481 207.117C733.015 201.087 739.156 199.92 739.226 207.848Z" fill="#F7A9A0"/>
<path d="M699.334 249.938C699.334 249.938 693.34 249.214 690.635 249.479C687.93 249.743 678.198 254.434 679.123 256.589C680.273 259.375 686.414 257.772 689.314 256.589C689.314 256.589 691.98 263.031 696.636 262.813C701.293 262.596 699.334 249.938 699.334 249.938Z" fill="#F7A9A0"/>
<path d="M700.057 270.967C697.942 271.916 687.884 275.402 684.86 275.744C681.836 276.086 673.091 276.436 672.593 274.188C672.096 271.939 674.653 271.589 674.653 271.589C674.653 271.589 670.93 271.154 670.642 268.804C670.355 266.455 674.342 266.112 674.342 266.112C674.342 266.112 670.557 265.381 670.456 263C670.355 260.62 674.405 260.962 674.405 260.962C674.405 260.962 670.907 260.456 671.629 258.465C672.492 256.076 678.828 257.733 682.131 257.103C682.909 256.963 697.126 253.127 697.126 253.127L700.057 270.967Z" fill="#F7A9A0"/>
<path d="M707.402 268.011C703.904 269.752 700.263 271.191 696.52 272.313C692.633 273.69 687.005 275.495 684.86 275.736C681.844 276.078 673.091 276.428 672.593 274.18C672.096 271.932 674.653 271.582 674.653 271.582C674.653 271.582 670.93 271.146 670.642 268.796C670.417 266.976 672.772 266.361 673.837 266.174C673.775 266.104 673.798 266.011 673.915 265.996C672.928 265.731 670.533 264.883 670.432 263.016C670.331 261.149 672.764 260.962 673.876 260.962C673.898 260.951 673.922 260.946 673.946 260.946C673.97 260.946 673.994 260.951 674.016 260.962H674.063H674.366C674.366 260.962 670.868 260.456 671.591 258.464C672.259 256.605 676.255 257.196 679.543 257.251C679.357 257.063 679.209 256.841 679.107 256.597C678.213 254.442 687.922 249.751 690.62 249.486C693.258 249.407 695.898 249.532 698.517 249.86C699.295 249.455 700.111 249.043 700.958 248.615L707.402 268.011Z" fill="#DBDBDB"/>
<path d="M674.031 260.931C678.695 262.137 680.942 261.857 685.458 260.41C685.544 260.41 685.606 260.503 685.52 260.542C681.23 262.362 678.454 263.125 673.961 261.156C673.744 261.055 673.806 260.876 674.031 260.931Z" fill="#263238"/>
<path d="M673.977 265.98C678.929 266.805 681.369 266.525 686.204 265.358C686.274 265.358 686.313 265.451 686.243 265.474C681.579 267.03 678.812 267.715 673.969 266.252C673.752 266.167 673.744 265.941 673.977 265.98Z" fill="#263238"/>
<path d="M674.894 271.496C679.753 271.955 682.442 271.761 686.997 270.018C687.019 270.009 687.043 270.008 687.065 270.017C687.087 270.026 687.105 270.043 687.114 270.064C687.123 270.086 687.124 270.111 687.115 270.132C687.106 270.154 687.089 270.172 687.067 270.181C682.598 272.414 679.24 272.679 674.902 271.644C674.607 271.566 674.591 271.496 674.894 271.496Z" fill="#263238"/>
<path d="M679.683 257.251C682.567 259.033 686.274 257.251 689.174 256.302C689.217 256.287 689.262 256.283 689.307 256.289C689.352 256.295 689.394 256.312 689.431 256.337C689.468 256.363 689.499 256.397 689.52 256.437C689.542 256.477 689.554 256.521 689.555 256.566C690.853 259.196 693.441 262.518 696.496 262.977C696.515 262.977 696.533 262.984 696.546 262.997C696.559 263.011 696.566 263.028 696.566 263.047C696.566 263.066 696.559 263.083 696.546 263.097C696.533 263.11 696.515 263.117 696.496 263.117C693.154 263.07 690.34 260.005 689.104 257.041C686.142 258.044 682.341 259.686 679.667 257.282C679.683 257.266 679.683 257.243 679.683 257.251Z" fill="#263238"/>
<path d="M720.967 227.64L739.475 230.2C739.475 230.2 740.532 216.009 740.027 208.548C739.522 201.087 735.176 196.878 729.619 206.868C724.9 215.324 720.967 227.64 720.967 227.64Z" fill="#37474F"/>
<path d="M727.877 239.792L728.484 266.097C728.484 266.097 770.382 259.647 780.635 257.157C780.635 257.157 764.07 210.602 750.863 200.363C744.201 195.252 737.749 196.808 734.29 201.748C733.412 203.001 723.625 221.813 723.408 228.403C723.159 234.222 727.877 239.792 727.877 239.792Z" fill="#112C32"/>
<path d="M744.341 199.142C744.341 199.998 741.488 206.09 737.718 206.673C736.49 206.86 735.176 200.192 735.176 200.192L734.967 199.726L732.036 193.151L739.032 186.328L740.066 185.403C740.066 185.403 740.75 187.254 741.574 189.573C741.613 189.682 741.652 189.783 741.691 189.899C741.729 190.016 741.792 190.148 741.83 190.273C741.963 190.615 742.087 190.973 742.211 191.323C742.336 191.673 742.398 191.852 742.483 192.14C742.569 192.428 742.67 192.7 742.763 192.988C743.429 195.001 743.956 197.057 744.341 199.142Z" fill="#F7A9A0"/>
<path d="M741.605 189.573C741.294 191.638 740.54 193.612 739.394 195.358C738.248 197.104 736.738 198.581 734.967 199.687L732.036 193.113L739.032 186.289L740.066 185.364C740.066 185.364 740.781 187.254 741.605 189.573Z" fill="#263238"/>
<path d="M719.21 186.694C723.143 198.691 730.769 197.687 733.358 196.808C735.69 196.03 743.595 193.097 740.921 180.75C738.247 168.403 731.422 166.466 725.965 167.975C720.508 169.485 715.269 174.705 719.21 186.694Z" fill="#F7A9A0"/>
<path d="M720.57 183.154C720.842 183.03 721.068 182.866 721.348 182.718C721.634 182.602 721.874 182.394 722.032 182.127C722.064 182.034 722.065 181.932 722.034 181.838C722.004 181.743 721.942 181.662 721.861 181.606C721.682 181.519 721.483 181.482 721.284 181.498C721.086 181.515 720.896 181.584 720.734 181.699C720.376 181.885 720.1 182.195 719.956 182.571C719.934 182.654 719.934 182.743 719.958 182.826C719.982 182.91 720.027 182.985 720.09 183.045C720.153 183.105 720.231 183.146 720.315 183.166C720.4 183.185 720.488 183.181 720.57 183.154Z" fill="#263238"/>
<path d="M728.499 180.641C728.214 180.691 727.926 180.724 727.636 180.742C727.336 180.819 727.018 180.791 726.735 180.664C726.653 180.608 726.592 180.527 726.561 180.433C726.53 180.339 726.531 180.237 726.564 180.143C726.657 179.968 726.796 179.822 726.966 179.719C727.135 179.616 727.329 179.561 727.527 179.56C727.926 179.488 728.336 179.569 728.678 179.785C728.755 179.838 728.814 179.913 728.848 180C728.883 180.086 728.891 180.181 728.872 180.273C728.853 180.364 728.807 180.448 728.741 180.513C728.675 180.579 728.591 180.623 728.499 180.641Z" fill="#263238"/>
<path d="M727.877 184.197C727.877 184.197 727.955 184.197 727.963 184.251C728.188 185.084 728.585 185.994 729.409 186.048V186.095C728.484 186.243 727.971 185.021 727.877 184.197Z" fill="#263238"/>
<path d="M728.367 183.115C729.665 182.617 730.567 185.239 729.37 185.706C728.173 186.173 727.287 183.535 728.367 183.115Z" fill="#263238"/>
<path d="M728.934 183.076C729.214 183.146 729.525 183.333 729.813 183.263C730.1 183.193 730.287 182.827 730.411 182.485C730.411 182.485 730.411 182.485 730.466 182.485C730.589 182.712 730.621 182.977 730.556 183.227C730.491 183.477 730.334 183.693 730.116 183.831C729.65 184.072 729.144 183.745 728.841 183.286C728.787 183.216 728.818 183.045 728.934 183.076Z" fill="#263238"/>
<path d="M723.128 185.628C723.128 185.628 723.081 185.69 723.128 185.722C723.446 186.5 723.663 187.495 723.027 188.056C723.027 188.056 723.027 188.11 723.027 188.094C723.857 187.628 723.554 186.336 723.128 185.628Z" fill="#263238"/>
<path d="M722.11 185.037C720.765 185.402 721.589 188.055 722.832 187.713C724.076 187.371 723.213 184.733 722.11 185.037Z" fill="#263238"/>
<path d="M721.612 185.387C721.441 185.589 721.317 185.908 721.068 186.002C720.819 186.095 720.485 185.893 720.213 185.675C720.353 186.188 720.687 186.663 721.2 186.608C721.713 186.554 721.861 186.025 721.83 185.48C721.791 185.418 721.659 185.301 721.612 185.387Z" fill="#263238"/>
<path d="M725.483 189.028C725.595 189.652 725.737 190.27 725.911 190.88C725.911 190.934 726.074 190.88 726.268 190.88C726.795 190.809 727.292 190.593 727.703 190.256C728.115 189.92 728.425 189.476 728.6 188.974C728.6 188.903 728.53 188.872 728.491 188.919C727.926 189.67 727.132 190.216 726.229 190.475C726.136 190.327 725.903 188.273 725.81 188.297C725.376 188.484 724.971 188.73 724.605 189.028C724.029 186.391 723.89 183.675 723.291 181.053C723.286 181.036 723.275 181.021 723.26 181.01C723.245 180.999 723.228 180.993 723.209 180.993C723.191 180.993 723.173 180.999 723.159 181.01C723.144 181.021 723.133 181.036 723.128 181.053C723.187 183.965 723.539 186.864 724.177 189.705C724.247 189.993 725.281 189.168 725.483 189.028Z" fill="#263238"/>
<path d="M739.949 181.326C737.081 182.477 732.409 174.137 731.849 173.11C732.168 173.779 733.855 177.319 733.645 177.576C733.34 177.707 733.013 177.783 732.681 177.801C732.492 177.372 732.268 176.958 732.013 176.564C731.904 176.37 732.129 177.023 732.363 177.848L731.772 177.934C731.398 177.004 730.904 176.128 730.303 175.327C730.069 175.032 730.652 176.588 730.917 178.066C728.191 178.424 725.513 179.084 722.933 180.034C722.211 180.322 721.604 180.594 721.083 180.859C720.842 180.192 720.567 179.538 720.259 178.898C720.335 179.631 720.478 180.355 720.687 181.061L719.91 181.481C719.179 180.019 718.837 177.319 718.759 177.786C718.546 179.224 718.607 180.689 718.938 182.104C718.013 182.757 717.819 183.076 717.671 182.827C716.679 179.749 716.811 176.419 718.044 173.429C720.112 168.528 726.797 164.568 733.039 167.983C733.039 167.983 737.26 168.675 739.257 171.873C741.255 175.071 741.613 180.657 739.949 181.326Z" fill="#263238"/>
<path d="M736.98 182.493C736.98 182.493 737.757 177.739 739.771 177.825C741.784 177.91 742.437 183.979 740.89 185.605C740.707 185.833 740.478 186.022 740.219 186.157C739.96 186.293 739.675 186.374 739.383 186.395C739.091 186.415 738.798 186.375 738.522 186.276C738.246 186.178 737.994 186.023 737.781 185.823L736.98 182.493Z" fill="#F7A9A0"/>
<path d="M739.91 179.583C739.91 179.583 739.965 179.583 739.91 179.63C738.846 180.805 738.744 182.376 738.869 183.885C738.881 183.715 738.93 183.55 739.013 183.401C739.095 183.251 739.209 183.122 739.347 183.021C739.484 182.92 739.642 182.851 739.809 182.817C739.977 182.784 740.149 182.787 740.315 182.827C740.361 182.827 740.354 182.905 740.315 182.913C740.047 182.951 739.797 183.073 739.601 183.259C739.404 183.446 739.271 183.689 739.219 183.955C739.129 184.401 739.09 184.855 739.102 185.309C739.102 185.457 738.853 185.504 738.83 185.309C737.983 183.637 738.185 180.633 739.91 179.583Z" fill="#263238"/>
<path d="M726.696 231.476H675.757V287.927H726.696V231.476Z" fill="#B93800"/>
<path opacity="0.1" d="M726.696 231.476H675.757V287.927H726.696V231.476Z" fill="black"/>
<path d="M649.46 287.935H675.757V231.484H649.46V287.935Z" fill="#B93800"/>
<path d="M696.901 243.675H697.981H698.789L699.256 242.733L699.901 243.675L700.779 241.745L701.611 243.675H703.998H705.086L705.482 242.383L705.848 243.675H706.555V231.476H696.901V243.675Z" fill="white"/>
<g opacity="0.1">
<path d="M651.271 284.045C653.214 280.031 655.145 276.003 657.062 271.963L662.768 259.826L668.396 247.635C670.267 243.558 672.117 239.471 673.946 235.374C671.997 239.388 670.067 243.416 668.155 247.456L662.449 259.601L656.813 271.792C654.958 275.863 653.111 279.948 651.271 284.045Z" fill="black"/>
<path d="M651.271 235.366C653.1 239.468 654.948 243.553 656.813 247.619L662.449 259.826L668.155 271.971C670.067 276.006 671.997 280.033 673.946 284.053C672.111 279.955 670.261 275.868 668.396 271.792L662.768 259.6L657.062 247.456C655.15 243.415 653.22 239.385 651.271 235.366Z" fill="black"/>
</g>
<path d="M735.145 243.683H684.215L675.765 231.476H726.696L735.145 243.683Z" fill="#B93800"/>
<g opacity="0.2">
<path d="M735.145 243.683H684.215L675.765 231.476H726.696L735.145 243.683Z" fill="black"/>
</g>
<path d="M667.307 243.69H641.088L649.538 231.476H675.765L667.307 243.69Z" fill="#B93800"/>
<path opacity="0.1" d="M667.307 243.69H641.088L649.538 231.476H675.765L667.307 243.69Z" fill="black"/>
<path d="M755.084 208.144C760.292 219.759 769.294 244.289 766.34 253.268C762.453 265.023 744.629 277.222 739.366 280.855C737.034 282.411 725.662 267.801 726.362 264.899C727.061 261.997 745.733 250.187 746.883 248.281C748.034 246.374 745.911 221.937 745.087 211.162C744.015 197.586 750.638 198.317 755.084 208.144Z" fill="#F7A9A0"/>
<path d="M721.052 272.725C721.674 271.442 721.006 271.107 718.72 272.212C716.435 273.317 708.397 279.626 706.438 276.623C704.48 273.62 715.969 264.899 719.886 263.35C723.804 261.802 730.699 260.666 730.699 260.666C728.818 262.814 724.714 268.462 721.052 272.725Z" fill="#F7A9A0"/>
<path d="M744.885 276.281C739.327 282.139 732.759 289.763 724.006 292.269C723.042 292.571 722.005 292.54 721.06 292.183C717.173 293.373 715.417 291.887 715.417 291.887C711.444 291.887 709.882 290.121 709.882 290.121C709.882 290.121 705.28 291.475 704.005 288.83C702.56 285.866 709.299 284.551 712.556 281.556C720.034 274.701 728.748 262.884 730.707 260.666L744.885 276.281Z" fill="#F7A9A0"/>
<path d="M725.444 279.883C723.277 281.911 720.974 283.788 718.549 285.5C715.786 287.214 712.9 288.72 709.913 290.005C709.894 290.012 709.878 290.027 709.869 290.046C709.86 290.065 709.859 290.086 709.866 290.106C709.874 290.125 709.888 290.141 709.907 290.15C709.926 290.159 709.948 290.16 709.968 290.152C715.982 288.243 721.359 284.721 725.514 279.968C725.631 279.875 725.545 279.782 725.444 279.883Z" fill="#263238"/>
<path d="M730.209 283.796C727.924 285.593 723.882 288.736 715.354 291.802C715.354 291.802 715.354 291.864 715.354 291.856C720.981 290.659 726.165 287.92 730.326 283.944C730.458 283.781 730.388 283.679 730.209 283.796Z" fill="#263238"/>
<path d="M732.775 285.951C728.771 288.861 725.872 290.191 721.068 292.175C721.068 292.175 721.068 292.237 721.068 292.222C726.766 290.565 728.647 289.312 732.876 286.091C733.039 285.959 732.93 285.835 732.775 285.951Z" fill="#263238"/>
<path d="M763.433 226.325L744.932 228.955C744.932 228.955 743.82 214.772 744.302 207.311C744.784 199.85 749.114 195.641 754.703 205.584C759.453 214.033 763.433 226.325 763.433 226.325Z" fill="#37474F"/>
<path d="M638.593 350.541H574.408V411.326H638.593V350.541Z" fill="#B93800"/>
<path d="M667.719 350.541H638.593V411.334H667.719V350.541Z" fill="#B93800"/>
<path opacity="0.1" d="M667.719 350.541H638.593V411.334H667.719V350.541Z" fill="black"/>
<path d="M665.691 407.148C663.53 402.822 661.392 398.486 659.278 394.14L652.958 381.062L646.739 367.929C644.666 363.552 642.617 359.143 640.591 354.703C642.752 359.024 644.889 363.36 647.004 367.711L653.323 380.782L659.542 393.914C661.63 398.323 663.68 402.734 665.691 407.148Z" fill="#B93800"/>
<path d="M665.691 354.742C663.664 359.151 661.617 363.559 659.55 367.968L653.331 381.101L647.035 394.14C644.92 398.492 642.783 402.828 640.622 407.148C642.648 402.729 644.697 398.32 646.77 393.922L652.989 380.79L659.309 367.719C661.418 363.378 663.545 359.052 665.691 354.742Z" fill="#B93800"/>
<path d="M611.705 363.681H610.539H609.668L609.171 362.67L608.471 363.681L607.523 361.596L606.629 363.681H604.056H602.89L602.462 362.289L602.066 363.681H601.304V350.541H611.705V363.681Z" fill="white"/>
<path d="M714.119 350.541H659.278V411.326H714.119V350.541Z" fill="#B93800"/>
<path d="M742.437 350.541H714.119V411.326H742.437V350.541Z" fill="#B93800"/>
<path opacity="0.1" d="M742.437 350.541H714.119V411.326H742.437V350.541Z" fill="black"/>
<path d="M691.35 363.681H690.192H689.314L688.816 362.67L688.124 363.681L687.176 361.596L686.274 363.681H683.709H682.535L682.116 362.289L681.719 363.681H680.95V350.541H691.35V363.681Z" fill="white"/>
<path d="M740.486 407.14C738.387 402.82 736.314 398.484 734.267 394.132L728.126 381.062L722.039 367.968C720.034 363.58 718.044 359.171 716.07 354.742C718.168 359.063 720.241 363.399 722.288 367.75L728.429 380.821L734.5 393.953C736.516 398.336 738.511 402.732 740.486 407.14Z" fill="#B93800"/>
<path d="M740.486 354.742C738.511 359.151 736.521 363.559 734.516 367.968L728.445 381.101L722.304 394.171C720.231 398.528 718.158 402.864 716.085 407.179C718.06 402.771 720.05 398.362 722.055 393.953L728.126 380.821L734.267 367.75C736.314 363.388 738.387 359.052 740.486 354.742Z" fill="#B93800"/>
<path d="M680.538 289.756H625.697V350.541H680.538V289.756Z" fill="#B93800"/>
<path d="M708.856 289.756H680.538V350.541H708.856V289.756Z" fill="#B93800"/>
<path opacity="0.1" d="M708.856 289.756H680.538V350.541H708.856V289.756Z" fill="black"/>
<path d="M657.77 302.896H656.611H655.733L655.235 301.885L654.544 302.896L653.595 300.811L652.694 302.896H650.128H648.955L648.535 301.504L648.138 302.896H647.377V289.756H657.77V302.896Z" fill="white"/>
<path d="M706.889 346.355C704.816 342.035 702.743 337.699 700.671 333.347L694.53 320.277L688.459 307.144C686.453 302.756 684.463 298.347 682.489 293.918C684.562 298.238 686.635 302.575 688.707 306.926L694.848 319.997L700.919 333.129C702.935 337.538 704.925 341.946 706.889 346.355Z" fill="#B93800"/>
<path d="M706.889 293.949C704.915 298.358 702.925 302.766 700.919 307.175L694.848 320.308L688.707 333.378C686.635 337.735 684.562 342.071 682.489 346.386C684.463 341.978 686.453 337.569 688.459 333.16L694.53 320.028L700.671 306.957C702.743 302.6 704.816 298.264 706.889 293.949Z" fill="#B93800"/>
<path d="M616.586 302.904H671.427L680.53 289.756H625.697L616.586 302.904Z" fill="#B93800"/>
<path opacity="0.1" d="M616.586 302.904H671.427L680.53 289.756H625.697L616.586 302.904Z" fill="black"/>
<path d="M689.632 302.904H717.873L708.77 289.756H680.53L689.632 302.904Z" fill="#B93800"/>
<path d="M517.85 350.549H463.009V411.334H517.85V350.549Z" fill="#DBDBDB"/>
<path d="M546.168 350.549H517.85V411.334H546.168V350.549Z" fill="#C7C7C7"/>
<path d="M495.082 363.681H493.923H493.053L492.555 362.67L491.856 363.681L490.907 361.596L490.013 363.681H487.44H486.274L485.847 362.289L485.45 363.681H484.689V350.549H495.082V363.681Z" fill="white"/>
<path d="M544.217 407.148C542.144 402.822 540.071 398.486 537.998 394.14L531.857 381.062L525.771 367.968C523.76 363.591 521.767 359.182 519.793 354.742C521.892 359.063 523.965 363.399 526.012 367.75L532.16 380.821L538.224 393.953C540.25 398.336 542.248 402.734 544.217 407.148Z" fill="#DBDBDB"/>
<path d="M544.217 354.742C542.248 359.151 540.258 363.559 538.247 367.968L532.184 381.101L526.035 394.179C523.962 398.531 521.889 402.867 519.816 407.187C521.791 402.768 523.783 398.359 525.794 393.961L531.857 380.828L537.998 367.758C540.05 363.401 542.123 359.063 544.217 354.742Z" fill="#DBDBDB"/>
<path d="M507.674 289.748H452.833V350.533H507.674V289.748Z" fill="#DBDBDB"/>
<path d="M535.993 289.756H507.674V350.541H535.993V289.756Z" fill="#C7C7C7"/>
<path d="M484.906 302.888H483.748H482.877L482.38 301.877L481.68 302.888L480.732 300.811L479.838 302.888H477.265H476.099L475.672 301.504L475.275 302.888H474.513V289.756H484.906V302.888Z" fill="white"/>
<path d="M534.049 346.355C531.976 342.029 529.903 337.693 527.831 333.347L521.69 320.269L515.626 307.136C513.616 302.759 511.623 298.35 509.649 293.91C511.748 298.236 513.82 302.572 515.867 306.918L522.008 319.996L528.072 333.129C530.087 337.533 532.08 341.941 534.049 346.355Z" fill="#DBDBDB"/>
<path d="M534.049 293.941C532.075 298.35 530.082 302.759 528.072 307.167L522.008 320.3L515.867 333.378C513.795 337.725 511.722 342.061 509.649 346.386C511.623 341.978 513.616 337.569 515.626 333.16L521.69 320.028L527.831 306.949C529.872 302.603 531.945 298.267 534.049 293.941Z" fill="#DBDBDB"/>
<path d="M443.731 302.896H498.564L507.674 289.748H452.833L443.731 302.896Z" fill="#C7C7C7"/>
<path d="M516.777 302.904H545.01L535.907 289.756H507.674L516.777 302.904Z" fill="#DBDBDB"/>
<path d="M471.863 426.824C470.075 427.407 419.26 426.746 417.348 425.485C416.571 425.026 416.275 417.604 416.128 408.634C416.128 408.541 416.128 408.447 416.128 408.354C416.128 406.502 416.073 404.596 416.066 402.667C416.066 402.402 416.066 402.138 416.066 401.889L418.499 375.491L452.491 375.834L449.141 401.967L449.102 403.001L448.892 408.447V409.007C448.892 409.007 468.225 417.97 470.191 419.573C472.158 421.175 473.643 426.256 471.863 426.824Z" fill="#AD6359"/>
<path d="M471.863 426.824C470.075 427.407 419.26 426.746 417.348 425.486C416.571 425.027 416.275 417.604 416.128 408.634C416.128 408.541 416.128 408.447 416.128 408.354C416.128 406.502 416.073 404.596 416.066 402.667C416.066 402.402 416.066 402.138 416.066 401.889L449.172 401.982L449.133 403.017L448.923 408.463V409.023C448.923 409.023 468.256 417.986 470.222 419.588C472.189 421.191 473.643 426.256 471.863 426.824Z" fill="#EBEBEB"/>
<path d="M471.863 426.824C470.945 427.119 457.14 427.088 443.645 426.824C440.932 426.769 438.204 426.707 435.662 426.637C426.039 426.372 418.087 425.976 417.348 425.493C416.61 425.011 416.283 417.822 416.136 409.015C416.136 408.891 416.136 408.766 416.136 408.642C416.136 408.517 416.136 408.447 416.136 408.354L448.885 408.416V408.976C448.885 408.976 468.225 417.931 470.184 419.534C472.142 421.137 473.643 426.256 471.863 426.824Z" fill="#B93800"/>
<path d="M471.311 424.848C462.76 424.529 428.176 424.07 419.688 424.373C419.618 424.373 419.618 424.42 419.688 424.427C428.169 424.933 462.737 425.135 471.311 424.988C471.489 424.988 471.489 424.855 471.311 424.848Z" fill="#263238"/>
<path d="M452.561 408.556C449.196 407.879 445.068 408.346 442.456 410.711C442.355 410.805 442.456 410.945 442.604 410.914C445.838 409.918 449.168 409.269 452.538 408.976C452.594 408.979 452.648 408.96 452.69 408.923C452.731 408.886 452.757 408.834 452.76 408.778C452.763 408.722 452.744 408.668 452.706 408.626C452.669 408.584 452.617 408.559 452.561 408.556Z" fill="#263238"/>
<path d="M454.971 410.05C451.613 409.381 447.478 409.84 444.866 412.213C444.765 412.306 444.866 412.446 445.006 412.415C448.241 411.416 451.574 410.767 454.948 410.478C454.998 410.472 455.045 410.448 455.08 410.41C455.114 410.373 455.135 410.325 455.138 410.274C455.14 410.223 455.125 410.173 455.095 410.132C455.064 410.091 455.021 410.062 454.971 410.05Z" fill="#263238"/>
<path d="M457.365 411.536C453.999 410.859 449.872 411.326 447.26 413.699C447.159 413.792 447.26 413.932 447.4 413.901C450.642 412.902 453.984 412.257 457.365 411.98C457.424 411.98 457.48 411.956 457.522 411.915C457.564 411.873 457.587 411.817 457.587 411.758C457.587 411.699 457.564 411.643 457.522 411.601C457.48 411.559 457.424 411.536 457.365 411.536Z" fill="#263238"/>
<path d="M443.645 426.816C440.932 426.761 438.204 426.699 435.662 426.629C426.039 426.365 418.087 425.968 417.348 425.486C416.61 425.003 416.283 417.814 416.136 409.007C416.136 408.883 416.136 408.759 416.136 408.634C416.136 408.51 416.136 408.44 416.136 408.346C420.644 411.536 436.455 422.031 443.645 426.816Z" fill="#263238"/>
<path d="M451.147 408.525H414.542C414.542 408.525 421.911 322.945 421.624 321.483C421.258 319.569 419.097 310.91 416.182 299.597C415.28 296.058 414.309 292.261 413.298 288.324C410.609 277.72 407.616 266.05 404.981 255.936C401.048 240.773 397.985 228.994 397.985 228.994H429C429 228.994 432.615 240.462 437.17 255.384C444.594 279.634 454.513 313.01 455.492 321.125C457.07 334.218 451.147 408.525 451.147 408.525Z" fill="#37474F"/>
<path d="M449.522 402.278C443.933 402.161 445.534 402.114 439.945 402.06C437.209 402.06 419.237 401.873 416.68 402.301C416.625 402.301 416.625 402.402 416.68 402.418C419.237 402.838 437.209 402.682 439.945 402.651C445.534 402.605 443.933 402.558 449.522 402.441C449.592 402.433 449.592 402.278 449.522 402.278Z" fill="#263238"/>
<path d="M428.511 316.254C427.314 310.956 425.518 305.767 423.956 300.57C420.784 290.005 417.594 279.452 414.387 268.913C412.785 263.638 411.176 258.363 409.559 253.089C408.735 250.428 407.919 247.767 407.087 245.114C406.256 242.461 405.346 239.933 404.615 237.334C404.312 236.268 404.149 236.852 404.53 238.213C405.307 240.944 406.085 243.659 406.862 246.398C408.417 251.797 410.002 257.191 411.619 262.58C414.791 273.316 417.991 284.04 421.219 294.75L426.07 310.871C426.886 313.421 427.545 316.019 428.044 318.651C428.475 321.409 428.585 324.207 428.371 326.991C428.013 332.6 427.368 338.194 426.855 343.788C426.342 349.382 425.813 354.991 425.3 360.593C424.264 371.744 423.24 382.895 422.23 394.047C422.105 395.455 421.981 396.871 421.872 398.287C421.833 398.761 422.549 398.722 422.603 398.287C423.808 387.262 424.733 376.199 425.767 365.152C426.801 354.104 427.827 343.181 428.876 332.196C429.133 329.434 429.42 326.672 429.428 323.894C429.409 321.321 429.101 318.759 428.511 316.254Z" fill="#263238"/>
<path d="M425.495 228.986C423.341 245.659 419.237 276.919 416.244 299.597C409.248 272.118 398 228.986 398 228.986H425.495Z" fill="#263238"/>
<path d="M433.089 427.314C431.309 427.897 380.495 427.423 378.575 426.178C377.797 425.711 377.471 418.297 377.292 409.326C377.292 409.233 377.292 409.14 377.292 409.046C377.292 407.195 377.222 405.296 377.214 403.367C377.214 403.102 377.214 402.83 377.214 402.589C377.098 389.643 377.992 376.207 377.992 376.207L411.207 376.425L410.282 402.566V403.6L410.096 409.046V409.607C410.096 409.607 429.467 418.491 431.433 420.094C433.4 421.697 434.869 426.746 433.089 427.314Z" fill="#AD6359"/>
<path d="M433.089 427.314C431.309 427.897 380.495 427.423 378.575 426.178C377.797 425.711 377.471 418.297 377.292 409.326C377.292 409.233 377.292 409.14 377.292 409.046C377.292 407.195 377.222 405.296 377.214 403.367C377.214 403.102 377.214 402.83 377.214 402.589H410.321V403.624L410.135 409.07V409.63C410.135 409.63 429.506 418.515 431.472 420.117C433.439 421.72 434.869 426.746 433.089 427.314Z" fill="#EBEBEB"/>
<path d="M433.089 427.314C431.309 427.897 380.495 427.423 378.575 426.178C377.798 425.711 377.471 418.297 377.292 409.326C377.292 409.233 377.292 409.14 377.292 409.046L410.08 408.984V409.544C410.08 409.544 429.451 418.429 431.418 420.032C433.385 421.634 434.869 426.746 433.089 427.314Z" fill="#B93800"/>
<path d="M432.537 425.338C423.987 425.05 389.403 424.684 380.915 425.05C380.845 425.05 380.845 425.104 380.915 425.104C389.395 425.579 423.963 425.664 432.53 425.478C432.716 425.478 432.716 425.345 432.537 425.338Z" fill="#263238"/>
<path d="M413.726 409.116C410.36 408.455 406.232 408.93 403.621 411.31C403.519 411.404 403.621 411.544 403.76 411.513C406.989 410.501 410.317 409.839 413.687 409.537C413.715 409.539 413.742 409.536 413.769 409.528C413.795 409.52 413.82 409.507 413.841 409.489C413.862 409.471 413.88 409.449 413.893 409.425C413.906 409.4 413.914 409.374 413.916 409.346C413.919 409.318 413.916 409.291 413.908 409.264C413.9 409.238 413.886 409.213 413.869 409.192C413.851 409.17 413.829 409.153 413.805 409.14C413.78 409.127 413.753 409.119 413.726 409.116Z" fill="#263238"/>
<path d="M416.167 410.602C412.801 409.941 408.673 410.423 406.061 412.804C405.96 412.898 406.061 413.038 406.201 413.006C409.443 411.992 412.784 411.33 416.167 411.03C416.216 411.021 416.261 410.994 416.293 410.955C416.326 410.916 416.343 410.867 416.343 410.816C416.343 410.766 416.326 410.717 416.293 410.678C416.261 410.639 416.216 410.612 416.167 410.602Z" fill="#263238"/>
<path d="M418.561 412.096C415.195 411.435 411.067 411.909 408.456 414.29C408.354 414.384 408.456 414.524 408.595 414.492C411.826 413.48 415.157 412.82 418.53 412.524C418.581 412.519 418.628 412.496 418.664 412.459C418.699 412.422 418.721 412.374 418.725 412.323C418.728 412.272 418.714 412.221 418.684 412.18C418.654 412.138 418.61 412.109 418.561 412.096Z" fill="#263238"/>
<path d="M427.99 228.986C427.99 228.986 427.275 243.838 423.878 255.601C423.606 256.574 423.31 257.531 422.992 258.449C419.878 259.706 416.886 261.245 414.052 263.047C414.052 263.047 413.695 274.997 413.337 288.324C412.941 303.223 412.56 319.841 412.614 323.334C412.925 336.521 410.966 409.031 410.966 409.031L374.377 409.202C374.377 409.202 380.992 328.228 380.946 323.396C380.876 315.616 382.718 281.314 384.141 256.286C385.011 240.866 385.695 228.978 385.695 228.978L427.99 228.986Z" fill="#37474F"/>
<path d="M409.715 402.55C404.126 402.457 405.727 402.402 400.138 402.371C397.402 402.371 379.43 402.278 376.872 402.714C376.818 402.714 376.818 402.815 376.872 402.83C379.43 403.243 397.41 403.009 400.146 402.97C405.735 402.892 404.126 402.854 409.715 402.714C409.816 402.706 409.816 402.55 409.715 402.55Z" fill="#263238"/>
<path d="M388.805 234.292C388.128 254.722 387.413 275.16 386.473 295.583C385.532 316.005 384.319 336.552 382.586 356.998C381.63 368.419 380.728 384.485 379.477 395.898C379.477 395.976 379.585 396.007 379.593 395.898C382.259 375.631 383.744 350.572 385.034 330.173C386.325 309.774 387.328 289.39 388.019 268.944C388.408 257.391 388.711 245.83 389.053 234.276C389.061 234.152 388.805 234.152 388.805 234.292Z" fill="#263238"/>
<path d="M424.515 257.562C420.877 259.071 417.376 260.893 414.052 263.008C413.92 263.086 414.052 263.296 414.161 263.226C417.69 261.506 421.297 259.857 424.725 257.943C424.755 257.907 424.774 257.863 424.778 257.816C424.783 257.769 424.773 257.722 424.751 257.681C424.728 257.639 424.693 257.606 424.651 257.585C424.609 257.564 424.562 257.556 424.515 257.562Z" fill="#263238"/>
<path d="M413.143 182.205C414.363 200.55 421.048 219.938 423.831 222.996C428.138 227.734 449.141 233.693 457.389 234.666C460.086 234.985 463.467 216.523 461.423 214.438C459.379 212.353 436.611 208.392 435.157 207.366C434.38 206.821 426.933 192.428 421.639 183.115C416.703 174.464 412.77 176.642 413.143 182.205Z" fill="#DD6A57"/>
<path d="M454.046 212.29C454.046 212.29 460.078 208.291 463.118 207.116C466.157 205.942 479.084 205.739 479.286 208.532C479.543 212.135 472.104 213.729 468.357 214.025C468.357 214.025 468.971 222.365 463.879 224.668C458.788 226.971 454.046 212.29 454.046 212.29Z" fill="#DD6A57"/>
<path d="M457.233 234.65C459.907 235.428 472.461 237.762 476.099 237.645C479.737 237.529 490.192 236.408 490.379 233.607C490.565 230.807 487.479 230.892 487.479 230.892C487.479 230.892 491.817 229.717 491.755 226.886C491.692 224.054 486.888 224.334 486.888 224.334C486.888 224.334 491.257 222.778 490.993 219.985C490.728 217.192 485.948 218.258 485.948 218.258C485.948 218.258 490.006 217.044 488.808 214.811C487.363 212.127 480.133 215.2 476.107 215.037C475.19 214.998 457.614 212.952 457.614 212.952L457.233 234.65Z" fill="#DD6A57"/>
<path d="M487.479 230.892C487.479 230.892 490.589 230.807 490.379 233.607C490.169 236.408 479.737 237.497 476.099 237.645C472.461 237.793 460.016 235.42 457.272 234.658C454.348 234.248 451.449 233.674 448.589 232.938L451.193 211.263C452.305 211.528 453.393 211.784 454.419 212.041C455.78 211.154 460.529 208.105 463.118 207.109C466.149 205.934 479.084 205.732 479.286 208.525C479.326 209.192 479.109 209.849 478.68 210.361C476.907 213.426 472.811 213.862 469.461 214.305C472.858 214.694 475.749 215.013 476.107 215.029C480.133 215.192 487.363 212.119 488.808 214.803C489.936 216.904 486.406 218.102 485.987 218.242L486.337 218.172C486.367 218.157 486.4 218.149 486.434 218.149C486.467 218.149 486.501 218.157 486.531 218.172C487.829 217.977 490.76 217.806 490.969 220C491.179 222.194 488.521 223.633 487.378 224.147C487.503 224.147 487.534 224.248 487.471 224.349C488.762 224.349 491.677 224.691 491.731 226.901C491.817 229.717 487.479 230.892 487.479 230.892Z" fill="#DBDBDB"/>
<path d="M486.36 218.172C481.035 220.42 478.322 220.506 472.71 219.557C472.601 219.557 472.547 219.697 472.655 219.72C478.097 221.128 481.494 221.548 486.476 218.421C486.725 218.265 486.609 218.063 486.36 218.172Z" fill="#263238"/>
<path d="M487.308 224.147C481.579 225.999 478.633 226.092 472.687 225.555C472.601 225.555 472.578 225.687 472.687 225.703C478.478 226.722 481.898 227.057 487.378 224.45C487.604 224.334 487.573 224.038 487.308 224.147Z" fill="#263238"/>
<path d="M487.176 230.853C481.502 232.246 478.276 232.487 472.57 231.227C472.546 231.225 472.522 231.232 472.502 231.246C472.481 231.26 472.467 231.28 472.46 231.303C472.452 231.327 472.453 231.352 472.462 231.375C472.471 231.397 472.487 231.417 472.508 231.429C478.206 233.288 482.232 232.985 487.199 231.032C487.541 230.892 487.534 230.768 487.176 230.853Z" fill="#263238"/>
<path d="M479.03 209.544C476.9 213.006 471.956 213.084 468.341 213.652C468.287 213.657 468.235 213.675 468.19 213.705C468.145 213.735 468.108 213.776 468.083 213.824C468.057 213.871 468.044 213.925 468.045 213.979C468.045 214.033 468.059 214.086 468.085 214.134C468.085 217.643 467.113 222.606 464.089 224.746C464.071 224.758 464.058 224.777 464.053 224.798C464.049 224.819 464.052 224.841 464.063 224.86C464.074 224.879 464.091 224.893 464.112 224.899C464.133 224.905 464.155 224.903 464.175 224.894C467.735 223.042 469.103 218.242 468.839 214.399C472.554 213.877 477.506 213.582 479.076 209.567L479.03 209.544Z" fill="#263238"/>
<path d="M414.612 207.404L431.931 200.402C431.931 200.402 425.782 187.573 421.631 181.357C417.48 175.141 411.627 173.67 411.767 185.083C411.876 194.762 414.612 207.404 414.612 207.404Z" fill="#37474F"/>
<path d="M382.741 243.753C382.741 243.753 435.561 243.496 435.561 243.504C435.561 244.538 424.103 184.376 418.584 177.21C417.403 175.654 409.334 173.717 405.688 177.117C389.737 191.992 382.741 244.422 382.741 243.753Z" fill="#18424B"/>
<path d="M416.563 182.602C414.045 183.209 408.79 180.268 406.979 176.673C406.862 176.424 407.313 173.896 407.756 170.784C407.989 168.901 408.215 166.793 408.277 164.856C408.277 164.459 420.318 168.216 420.318 168.216C419.544 170.613 419.066 173.095 418.895 175.607C418.89 175.868 418.909 176.128 418.95 176.385C418.954 176.429 418.954 176.474 418.95 176.518C419.128 178.058 419.276 181.948 416.563 182.602Z" fill="#DD6A57"/>
<path d="M418.926 176.409C418.926 176.409 418.926 176.494 418.926 176.541C418.512 176.573 418.096 176.573 417.682 176.541C410.547 176.144 408.961 167.135 408.673 164.871C410.819 165.252 420.279 168.209 420.279 168.209C419.505 170.608 419.028 173.092 418.856 175.607C418.855 175.876 418.878 176.144 418.926 176.409Z" fill="#263238"/>
<path d="M406.504 149.708C405.183 154.018 407.429 166.466 410.492 169.244C414.923 173.274 422.152 173.67 425.611 168.341C428.93 163.167 425.705 146.993 422.292 144.472C417.263 140.745 408.456 143.352 406.504 149.708Z" fill="#DD6A57"/>
<path d="M418.615 157.184C418.615 157.184 418.561 157.231 418.569 157.27C418.74 158.102 418.802 159.083 418.094 159.495C418.094 159.495 418.094 159.55 418.094 159.542C419.012 159.254 418.918 157.947 418.615 157.184Z" fill="#263238"/>
<path d="M417.721 156.438C416.361 156.57 416.726 159.301 417.993 159.176C419.26 159.052 418.864 156.352 417.721 156.438Z" fill="#263238"/>
<path d="M423.52 156.655C423.52 156.655 423.59 156.655 423.598 156.718C423.683 157.566 423.924 158.523 424.733 158.702V158.748C423.777 158.74 423.466 157.472 423.52 156.655Z" fill="#263238"/>
<path d="M424.158 155.667C425.495 155.379 425.977 158.095 424.733 158.359C423.489 158.624 423.031 155.909 424.158 155.667Z" fill="#263238"/>
<path d="M416.47 155.333C416.814 155.182 417.149 155.011 417.473 154.819C417.861 154.617 418.188 154.5 418.398 154.104C418.447 153.984 418.455 153.851 418.421 153.726C418.387 153.601 418.314 153.49 418.211 153.411C417.985 153.289 417.73 153.23 417.473 153.24C417.216 153.249 416.966 153.327 416.75 153.466C416.268 153.676 415.883 154.059 415.669 154.539C415.626 154.651 415.616 154.773 415.641 154.89C415.666 155.007 415.724 155.115 415.809 155.199C415.894 155.283 416.002 155.341 416.12 155.365C416.237 155.389 416.359 155.377 416.47 155.333Z" fill="#263238"/>
<path d="M425.02 154.15C424.658 154.128 424.297 154.084 423.94 154.018C423.539 154.026 423.146 153.904 422.821 153.668C422.734 153.573 422.681 153.452 422.669 153.324C422.658 153.196 422.689 153.068 422.758 152.96C422.926 152.766 423.143 152.62 423.387 152.538C423.63 152.456 423.891 152.44 424.142 152.493C424.668 152.523 425.164 152.748 425.534 153.123C425.618 153.215 425.672 153.33 425.689 153.453C425.706 153.577 425.686 153.702 425.63 153.813C425.575 153.925 425.486 154.017 425.378 154.077C425.269 154.137 425.144 154.162 425.02 154.15Z" fill="#263238"/>
<path d="M419.447 162.475C419.707 162.779 420.027 163.027 420.387 163.202C420.746 163.378 421.138 163.477 421.538 163.494C421.888 163.513 422.239 163.482 422.58 163.401C422.645 163.39 422.71 163.374 422.774 163.354L422.953 163.3C422.998 163.284 423.037 163.255 423.063 163.216C423.09 163.176 423.103 163.129 423.1 163.082C423.105 163.053 423.105 163.025 423.1 162.996V162.918C423.031 162.273 422.836 161.292 422.836 161.292C423.085 161.378 424.391 161.759 424.305 161.417C423.831 158.494 423.063 155.627 422.012 152.859C422.002 152.844 421.987 152.833 421.97 152.827C421.953 152.821 421.935 152.821 421.918 152.826C421.9 152.831 421.885 152.842 421.874 152.856C421.863 152.87 421.857 152.888 421.857 152.905C422.284 155.605 423.178 158.211 423.645 160.919C423.186 160.777 422.71 160.701 422.23 160.693C422.144 160.693 422.65 162.584 422.657 162.879C422.131 163.007 421.584 163.026 421.05 162.937C420.515 162.847 420.004 162.65 419.548 162.358C419.447 162.35 419.385 162.413 419.447 162.475Z" fill="#263238"/>
<path d="M422.152 163.121C421.857 163.632 421.437 164.06 420.932 164.365C420.65 164.522 420.327 164.587 420.007 164.552C419.307 164.467 419.229 163.852 419.229 163.307C419.259 163.015 419.324 162.728 419.424 162.452C420.237 162.964 421.194 163.199 422.152 163.121Z" fill="#263238"/>
<path d="M420.932 164.365C420.65 164.522 420.327 164.587 420.007 164.552C419.307 164.467 419.229 163.852 419.229 163.307C419.592 163.254 419.962 163.332 420.274 163.525C420.585 163.719 420.818 164.016 420.932 164.365Z" fill="#FF99BA"/>
<path d="M424.655 148.362C424.049 147.358 423.365 146.347 422.696 146.222C422.028 146.098 421.81 147.724 420.364 148.02C418.405 148.424 417.201 146.728 414.402 146.907C410.391 147.172 409.085 150.727 409.738 156.391C410.329 161.44 407.344 162.327 407.344 162.327C407.344 162.327 404.009 151.435 406.644 147.351C409.279 143.266 416.252 140.652 421.546 143.515C423.489 144.565 424.655 148.362 424.655 148.362Z" fill="#263238"/>
<path d="M409.629 160.001C409.629 160.001 406.745 156.025 404.965 157.068C403.185 158.11 405.385 163.899 407.538 164.653C407.808 164.77 408.099 164.832 408.393 164.833C408.687 164.835 408.978 164.777 409.249 164.663C409.52 164.548 409.765 164.381 409.969 164.169C410.173 163.958 410.333 163.707 410.438 163.432L409.629 160.001Z" fill="#DD6A57"/>
<path d="M405.618 158.686V158.74C407.173 159.324 407.95 160.701 408.533 162.14C408.443 161.991 408.321 161.863 408.177 161.765C408.032 161.667 407.868 161.602 407.696 161.574C407.524 161.546 407.347 161.555 407.179 161.602C407.011 161.649 406.855 161.732 406.722 161.845C406.722 161.845 406.722 161.93 406.769 161.923C407.032 161.834 407.315 161.829 407.581 161.909C407.847 161.988 408.082 162.148 408.253 162.366C408.534 162.732 408.776 163.125 408.976 163.541C409.054 163.681 409.295 163.603 409.241 163.447V163.408C409.21 161.518 407.678 158.865 405.618 158.686Z" fill="#263238"/>
<path d="M488.77 185.62H433.929V246.405H488.77V185.62Z" fill="#B93800"/>
<path d="M517.096 185.62H488.777V246.405H517.096V185.62Z" fill="#B93800"/>
<path opacity="0.1" d="M517.096 185.62H488.777V246.405H517.096V185.62Z" fill="black"/>
<path d="M466.009 198.753H464.843H463.973L463.475 197.742L462.776 198.753L461.835 196.676L460.933 198.753H458.368H457.194L456.775 197.368L456.37 198.753H455.609V185.62H466.009V198.753Z" fill="white"/>
<path d="M515.144 242.22C513.046 237.894 510.973 233.558 508.926 229.212L502.777 216.134L496.698 203.032C494.682 198.644 492.693 194.235 490.728 189.806C492.827 194.132 494.9 198.468 496.947 202.814L503.088 215.892L509.151 229.025C511.172 233.408 513.17 237.806 515.144 242.22Z" fill="#B93800"/>
<path d="M515.145 189.806C513.17 194.215 511.178 198.623 509.167 203.032L503.104 216.157L496.963 229.235C494.89 233.587 492.817 237.923 490.744 242.243C492.708 237.829 494.698 233.421 496.714 229.017L502.777 215.885L508.926 202.806C510.968 198.46 513.041 194.127 515.145 189.806Z" fill="#B93800"/>
<path d="M401.491 189.378C401.063 202.098 402.004 228.216 408.129 235.381C416.167 244.787 437.279 249.339 443.529 250.708C446.249 251.299 451.302 233.428 449.53 231.009C447.757 228.589 426.039 224.73 424.251 223.4C422.463 222.07 415.195 198.644 411.884 188.39C407.702 175.39 401.864 178.611 401.491 189.378Z" fill="#DD6A57"/>
<path d="M457.365 236.276C456.308 235.327 456.798 234.767 459.316 234.93C461.835 235.093 471.676 237.879 472.352 234.362C473.029 230.846 459.138 227.119 454.886 227.166C450.634 227.212 443.863 228.776 443.863 228.776C446.436 230.044 452.375 233.724 457.365 236.276Z" fill="#DD6A57"/>
<path d="M436.657 248.6C444.019 251.914 452.981 256.488 462.029 255.493C463.037 255.407 463.987 254.985 464.727 254.294C468.792 253.921 469.834 251.89 469.834 251.89C473.511 250.381 474.296 248.156 474.296 248.156C474.296 248.156 479.061 247.666 479.247 244.733C479.457 241.442 472.725 242.78 468.567 241.24C459.06 237.723 446.514 230.068 443.871 228.792L436.657 248.6Z" fill="#DD6A57"/>
<path d="M456.013 244.569C458.785 245.631 461.626 246.502 464.517 247.176C467.724 247.713 470.967 248.015 474.218 248.078C474.239 248.078 474.258 248.086 474.273 248.101C474.287 248.116 474.296 248.135 474.296 248.156C474.296 248.177 474.287 248.196 474.273 248.211C474.258 248.226 474.239 248.234 474.218 248.234C467.925 248.75 461.611 247.526 455.966 244.694C455.811 244.632 455.873 244.523 456.013 244.569Z" fill="#263238"/>
<path d="M453.059 250.008C455.857 250.786 460.778 252.186 469.834 251.789C469.834 251.789 469.873 251.844 469.834 251.844C464.177 252.852 458.352 252.262 453.012 250.14C452.849 250.078 452.872 249.953 453.059 250.008Z" fill="#263238"/>
<path d="M451.528 252.964C456.331 254.139 459.511 254.271 464.703 254.279V254.333C458.803 254.948 456.588 254.505 451.489 253.12C451.287 253.073 451.333 252.917 451.528 252.964Z" fill="#263238"/>
<path d="M400.62 209.381L418.74 204.806C418.74 204.806 414.402 191.261 411.137 184.578C407.873 177.895 402.276 175.592 400.861 186.912C399.641 196.489 400.62 209.381 400.62 209.381Z" fill="#37474F"/>
</g>
<path d="M737.108 136.448C731.86 136.448 727.551 135.211 724.18 132.736C720.809 130.219 718.996 126.635 718.74 121.984H732.116C732.244 123.563 732.713 124.715 733.524 125.44C734.335 126.165 735.38 126.528 736.66 126.528C737.812 126.528 738.751 126.251 739.476 125.696C740.244 125.099 740.628 124.288 740.628 123.264C740.628 121.941 740.009 120.917 738.772 120.192C737.535 119.467 735.529 118.656 732.756 117.76C729.812 116.779 727.423 115.84 725.588 114.944C723.796 114.005 722.217 112.661 720.852 110.912C719.529 109.12 718.868 106.795 718.868 103.936C718.868 101.035 719.593 98.56 721.044 96.512C722.495 94.4213 724.5 92.8427 727.06 91.776C729.62 90.7093 732.521 90.176 735.764 90.176C741.012 90.176 745.193 91.4133 748.308 93.888C751.465 96.32 753.151 99.7547 753.364 104.192H739.732C739.689 102.827 739.263 101.803 738.452 101.12C737.684 100.437 736.681 100.096 735.444 100.096C734.505 100.096 733.737 100.373 733.14 100.928C732.543 101.483 732.244 102.272 732.244 103.296C732.244 104.149 732.564 104.896 733.204 105.536C733.887 106.133 734.719 106.667 735.7 107.136C736.681 107.563 738.132 108.117 740.052 108.8C742.911 109.781 745.257 110.763 747.092 111.744C748.969 112.683 750.569 114.027 751.892 115.776C753.257 117.483 753.94 119.659 753.94 122.304C753.94 124.992 753.257 127.403 751.892 129.536C750.569 131.669 748.628 133.355 746.068 134.592C743.551 135.829 740.564 136.448 737.108 136.448ZM796.508 100.096V136H783.9V130.88C782.833 132.501 781.361 133.824 779.484 134.848C777.606 135.829 775.452 136.32 773.02 136.32C768.838 136.32 765.532 134.955 763.1 132.224C760.71 129.451 759.516 125.696 759.516 120.96V100.096H771.996V119.36C771.996 121.408 772.529 123.029 773.596 124.224C774.705 125.376 776.156 125.952 777.948 125.952C779.782 125.952 781.233 125.376 782.3 124.224C783.366 123.029 783.9 121.408 783.9 119.36V100.096H796.508ZM801.599 118.016C801.599 114.304 802.26 111.061 803.583 108.288C804.948 105.515 806.783 103.381 809.087 101.888C811.433 100.395 814.036 99.648 816.895 99.648C819.369 99.648 821.503 100.139 823.295 101.12C825.087 102.101 826.473 103.424 827.455 105.088V100.096H839.999V136H827.455V131.008C826.473 132.672 825.065 133.995 823.231 134.976C821.439 135.957 819.327 136.448 816.895 136.448C814.036 136.448 811.433 135.701 809.087 134.208C806.783 132.715 804.948 130.581 803.583 127.808C802.26 124.992 801.599 121.728 801.599 118.016ZM827.455 118.016C827.455 115.712 826.815 113.899 825.535 112.576C824.297 111.253 822.761 110.592 820.927 110.592C819.049 110.592 817.492 111.253 816.255 112.576C815.017 113.856 814.399 115.669 814.399 118.016C814.399 120.32 815.017 122.155 816.255 123.52C817.492 124.843 819.049 125.504 820.927 125.504C822.761 125.504 824.297 124.843 825.535 123.52C826.815 122.197 827.455 120.363 827.455 118.016ZM893.701 117.632C893.701 118.613 893.637 119.595 893.509 120.576H869.765C869.893 122.539 870.426 124.011 871.365 124.992C872.346 125.931 873.583 126.4 875.077 126.4C877.167 126.4 878.661 125.461 879.557 123.584H892.933C892.378 126.059 891.29 128.277 889.669 130.24C888.09 132.16 886.085 133.675 883.653 134.784C881.221 135.893 878.533 136.448 875.589 136.448C872.047 136.448 868.89 135.701 866.117 134.208C863.386 132.715 861.231 130.581 859.653 127.808C858.117 125.035 857.349 121.771 857.349 118.016C857.349 114.261 858.117 111.019 859.653 108.288C861.189 105.515 863.322 103.381 866.053 101.888C868.826 100.395 872.005 99.648 875.589 99.648C879.13 99.648 882.266 100.373 884.997 101.824C887.727 103.275 889.861 105.365 891.397 108.096C892.933 110.784 893.701 113.963 893.701 117.632ZM880.901 114.496C880.901 112.96 880.389 111.765 879.365 110.912C878.341 110.016 877.061 109.568 875.525 109.568C873.989 109.568 872.73 109.995 871.749 110.848C870.767 111.659 870.127 112.875 869.829 114.496H880.901ZM945.746 99.776C950.269 99.776 953.81 101.141 956.37 103.872C958.973 106.603 960.274 110.336 960.274 115.072V136H947.73V116.736C947.73 114.816 947.197 113.323 946.13 112.256C945.063 111.189 943.613 110.656 941.778 110.656C939.943 110.656 938.493 111.189 937.426 112.256C936.359 113.323 935.826 114.816 935.826 116.736V136H923.282V116.736C923.282 114.816 922.749 113.323 921.682 112.256C920.658 111.189 919.229 110.656 917.394 110.656C915.517 110.656 914.045 111.189 912.978 112.256C911.911 113.323 911.378 114.816 911.378 116.736V136H898.834V100.096H911.378V104.832C912.487 103.296 913.917 102.08 915.666 101.184C917.458 100.245 919.506 99.776 921.81 99.776C924.455 99.776 926.802 100.352 928.85 101.504C930.941 102.656 932.583 104.277 933.778 106.368C935.058 104.405 936.743 102.827 938.834 101.632C940.925 100.395 943.229 99.776 945.746 99.776ZM979.691 105.088C980.672 103.424 982.059 102.101 983.851 101.12C985.643 100.139 987.755 99.648 990.187 99.648C993.045 99.648 995.627 100.395 997.931 101.888C1000.28 103.381 1002.11 105.515 1003.43 108.288C1004.8 111.061 1005.48 114.304 1005.48 118.016C1005.48 121.728 1004.8 124.992 1003.43 127.808C1002.11 130.581 1000.28 132.715 997.931 134.208C995.627 135.701 993.045 136.448 990.187 136.448C987.755 136.448 985.643 135.957 983.851 134.976C982.101 133.995 980.715 132.672 979.691 131.008V153.152H967.147V100.096H979.691V105.088ZM992.747 118.016C992.747 115.669 992.107 113.856 990.827 112.576C989.589 111.253 988.053 110.592 986.219 110.592C984.384 110.592 982.827 111.253 981.547 112.576C980.309 113.899 979.691 115.712 979.691 118.016C979.691 120.363 980.309 122.197 981.547 123.52C982.827 124.843 984.384 125.504 986.219 125.504C988.053 125.504 989.589 124.843 990.827 123.52C992.107 122.155 992.747 120.32 992.747 118.016ZM1023.19 106.432C1024.6 104.384 1026.31 102.763 1028.31 101.568C1030.32 100.373 1032.47 99.776 1034.77 99.776V113.152H1031.25C1028.52 113.152 1026.5 113.685 1025.17 114.752C1023.85 115.819 1023.19 117.675 1023.19 120.32V136H1010.65V100.096H1023.19V106.432ZM1073.58 117.632C1073.58 118.613 1073.51 119.595 1073.38 120.576H1049.64C1049.77 122.539 1050.3 124.011 1051.24 124.992C1052.22 125.931 1053.46 126.4 1054.95 126.4C1057.04 126.4 1058.54 125.461 1059.43 123.584H1072.81C1072.25 126.059 1071.16 128.277 1069.54 130.24C1067.96 132.16 1065.96 133.675 1063.53 134.784C1061.1 135.893 1058.41 136.448 1055.46 136.448C1051.92 136.448 1048.76 135.701 1045.99 134.208C1043.26 132.715 1041.11 130.581 1039.53 127.808C1037.99 125.035 1037.22 121.771 1037.22 118.016C1037.22 114.261 1037.99 111.019 1039.53 108.288C1041.06 105.515 1043.2 103.381 1045.93 101.888C1048.7 100.395 1051.88 99.648 1055.46 99.648C1059 99.648 1062.14 100.373 1064.87 101.824C1067.6 103.275 1069.74 105.365 1071.27 108.096C1072.81 110.784 1073.58 113.963 1073.58 117.632ZM1060.78 114.496C1060.78 112.96 1060.26 111.765 1059.24 110.912C1058.22 110.016 1056.94 109.568 1055.4 109.568C1053.86 109.568 1052.6 109.995 1051.62 110.848C1050.64 111.659 1050 112.875 1049.7 114.496H1060.78ZM1094.01 136.448C1090.76 136.448 1087.86 135.915 1085.3 134.848C1082.78 133.739 1080.78 132.245 1079.29 130.368C1077.83 128.448 1077.02 126.293 1076.85 123.904H1089.01C1089.18 125.056 1089.72 125.952 1090.61 126.592C1091.51 127.232 1092.62 127.552 1093.94 127.552C1094.97 127.552 1095.78 127.339 1096.37 126.912C1096.97 126.485 1097.27 125.931 1097.27 125.248C1097.27 124.352 1096.78 123.691 1095.8 123.264C1094.82 122.837 1093.19 122.368 1090.93 121.856C1088.37 121.344 1086.24 120.768 1084.53 120.128C1082.83 119.488 1081.33 118.443 1080.05 116.992C1078.82 115.541 1078.2 113.579 1078.2 111.104C1078.2 108.971 1078.77 107.051 1079.93 105.344C1081.08 103.595 1082.76 102.208 1084.98 101.184C1087.24 100.16 1089.95 99.648 1093.11 99.648C1097.8 99.648 1101.49 100.8 1104.18 103.104C1106.87 105.408 1108.43 108.437 1108.85 112.192H1097.53C1097.31 111.04 1096.8 110.165 1095.99 109.568C1095.22 108.928 1094.18 108.608 1092.85 108.608C1091.83 108.608 1091.04 108.8 1090.49 109.184C1089.97 109.568 1089.72 110.101 1089.72 110.784C1089.72 111.637 1090.21 112.299 1091.19 112.768C1092.17 113.195 1093.75 113.643 1095.93 114.112C1098.53 114.667 1100.68 115.285 1102.39 115.968C1104.14 116.651 1105.65 117.76 1106.93 119.296C1108.26 120.789 1108.92 122.837 1108.92 125.44C1108.92 127.531 1108.3 129.408 1107.06 131.072C1105.87 132.736 1104.14 134.059 1101.88 135.04C1099.66 135.979 1097.03 136.448 1094.01 136.448ZM1113.04 118.016C1113.04 114.304 1113.7 111.061 1115.02 108.288C1116.39 105.515 1118.22 103.381 1120.52 101.888C1122.87 100.395 1125.47 99.648 1128.33 99.648C1130.81 99.648 1132.94 100.139 1134.73 101.12C1136.52 102.101 1137.91 103.424 1138.89 105.088V100.096H1151.44V136H1138.89V131.008C1137.91 132.672 1136.5 133.995 1134.67 134.976C1132.88 135.957 1130.76 136.448 1128.33 136.448C1125.47 136.448 1122.87 135.701 1120.52 134.208C1118.22 132.715 1116.39 130.581 1115.02 127.808C1113.7 124.992 1113.04 121.728 1113.04 118.016ZM1138.89 118.016C1138.89 115.712 1138.25 113.899 1136.97 112.576C1135.73 111.253 1134.2 110.592 1132.36 110.592C1130.49 110.592 1128.93 111.253 1127.69 112.576C1126.45 113.856 1125.84 115.669 1125.84 118.016C1125.84 120.32 1126.45 122.155 1127.69 123.52C1128.93 124.843 1130.49 125.504 1132.36 125.504C1134.2 125.504 1135.73 124.843 1136.97 123.52C1138.25 122.197 1138.89 120.363 1138.89 118.016ZM793.832 176.648C796.264 176.648 798.376 177.139 800.168 178.12C802.003 179.101 803.411 180.424 804.392 182.088V177.096H816.936V212.616C816.936 215.987 816.296 219.016 815.016 221.704C813.736 224.435 811.731 226.611 809 228.232C806.312 229.853 802.899 230.664 798.76 230.664C793.213 230.664 788.776 229.363 785.448 226.76C782.12 224.157 780.221 220.616 779.752 216.136H792.104C792.36 217.288 793 218.184 794.024 218.824C795.048 219.464 796.371 219.784 797.992 219.784C802.259 219.784 804.392 217.395 804.392 212.616V208.008C803.411 209.672 802.003 210.995 800.168 211.976C798.376 212.957 796.264 213.448 793.832 213.448C790.973 213.448 788.371 212.701 786.024 211.208C783.72 209.715 781.885 207.581 780.52 204.808C779.197 201.992 778.536 198.728 778.536 195.016C778.536 191.304 779.197 188.061 780.52 185.288C781.885 182.515 783.72 180.381 786.024 178.888C788.371 177.395 790.973 176.648 793.832 176.648ZM804.392 195.016C804.392 192.712 803.752 190.899 802.472 189.576C801.235 188.253 799.699 187.592 797.864 187.592C795.987 187.592 794.429 188.253 793.192 189.576C791.955 190.856 791.336 192.669 791.336 195.016C791.336 197.32 791.955 199.155 793.192 200.52C794.429 201.843 795.987 202.504 797.864 202.504C799.699 202.504 801.235 201.843 802.472 200.52C803.752 199.197 804.392 197.363 804.392 195.016ZM840.788 213.448C837.204 213.448 833.983 212.701 831.124 211.208C828.308 209.715 826.089 207.581 824.468 204.808C822.847 202.035 822.036 198.771 822.036 195.016C822.036 191.304 822.847 188.061 824.468 185.288C826.132 182.515 828.372 180.381 831.188 178.888C834.047 177.395 837.268 176.648 840.852 176.648C844.436 176.648 847.636 177.395 850.452 178.888C853.311 180.381 855.551 182.515 857.172 185.288C858.836 188.061 859.668 191.304 859.668 195.016C859.668 198.728 858.836 201.992 857.172 204.808C855.551 207.581 853.311 209.715 850.452 211.208C847.593 212.701 844.372 213.448 840.788 213.448ZM840.788 202.568C842.537 202.568 843.988 201.928 845.14 200.648C846.335 199.325 846.932 197.448 846.932 195.016C846.932 192.584 846.335 190.728 845.14 189.448C843.988 188.168 842.559 187.528 840.852 187.528C839.145 187.528 837.716 188.168 836.564 189.448C835.412 190.728 834.836 192.584 834.836 195.016C834.836 197.491 835.391 199.368 836.5 200.648C837.609 201.928 839.039 202.568 840.788 202.568ZM880.068 213.448C876.825 213.448 873.924 212.915 871.364 211.848C868.846 210.739 866.841 209.245 865.348 207.368C863.897 205.448 863.086 203.293 862.916 200.904H875.076C875.246 202.056 875.78 202.952 876.676 203.592C877.572 204.232 878.681 204.552 880.003 204.552C881.028 204.552 881.838 204.339 882.436 203.912C883.033 203.485 883.332 202.931 883.332 202.248C883.332 201.352 882.841 200.691 881.86 200.264C880.878 199.837 879.257 199.368 876.996 198.856C874.436 198.344 872.302 197.768 870.595 197.128C868.889 196.488 867.396 195.443 866.116 193.992C864.878 192.541 864.26 190.579 864.26 188.104C864.26 185.971 864.836 184.051 865.988 182.344C867.14 180.595 868.825 179.208 871.044 178.184C873.305 177.16 876.014 176.648 879.172 176.648C883.865 176.648 887.556 177.8 890.244 180.104C892.932 182.408 894.489 185.437 894.916 189.192H883.588C883.374 188.04 882.862 187.165 882.052 186.568C881.284 185.928 880.238 185.608 878.916 185.608C877.892 185.608 877.102 185.8 876.548 186.184C876.036 186.568 875.78 187.101 875.78 187.784C875.78 188.637 876.27 189.299 877.252 189.768C878.233 190.195 879.812 190.643 881.988 191.112C884.59 191.667 886.745 192.285 888.452 192.968C890.201 193.651 891.716 194.76 892.996 196.296C894.318 197.789 894.979 199.837 894.979 202.44C894.979 204.531 894.361 206.408 893.124 208.072C891.929 209.736 890.201 211.059 887.94 212.04C885.721 212.979 883.097 213.448 880.068 213.448ZM922.331 202.312V213H916.891C907.717 213 903.131 208.456 903.131 199.368V187.528H898.715V177.096H903.131V168.392H915.739V177.096H922.267V187.528H915.739V199.56C915.739 200.541 915.952 201.245 916.378 201.672C916.848 202.099 917.616 202.312 918.683 202.312H922.331ZM926.036 195.016C926.036 191.304 926.697 188.061 928.02 185.288C929.385 182.515 931.22 180.381 933.524 178.888C935.871 177.395 938.473 176.648 941.332 176.648C943.807 176.648 945.94 177.139 947.732 178.12C949.524 179.101 950.911 180.424 951.892 182.088V177.096H964.436V213H951.892V208.008C950.911 209.672 949.503 210.995 947.668 211.976C945.876 212.957 943.764 213.448 941.332 213.448C938.473 213.448 935.871 212.701 933.524 211.208C931.22 209.715 929.385 207.581 928.02 204.808C926.697 201.992 926.036 198.728 926.036 195.016ZM951.892 195.016C951.892 192.712 951.252 190.899 949.972 189.576C948.735 188.253 947.199 187.592 945.364 187.592C943.487 187.592 941.929 188.253 940.692 189.576C939.455 190.856 938.836 192.669 938.836 195.016C938.836 197.32 939.455 199.155 940.692 200.52C941.929 201.843 943.487 202.504 945.364 202.504C947.199 202.504 948.735 201.843 949.972 200.52C951.252 199.197 951.892 197.363 951.892 195.016ZM984.128 183.432C985.536 181.384 987.243 179.763 989.248 178.568C991.253 177.373 993.408 176.776 995.712 176.776V190.152H992.192C989.461 190.152 987.435 190.685 986.112 191.752C984.789 192.819 984.128 194.675 984.128 197.32V213H971.584V177.096H984.128V183.432ZM1006.55 173.768C1004.33 173.768 1002.53 173.171 1001.17 171.976C999.846 170.739 999.185 169.203 999.185 167.368C999.185 165.491 999.846 163.933 1001.17 162.696C1002.53 161.459 1004.33 160.84 1006.55 160.84C1008.72 160.84 1010.47 161.459 1011.79 162.696C1013.16 163.933 1013.84 165.491 1013.84 167.368C1013.84 169.203 1013.16 170.739 1011.79 171.976C1010.47 173.171 1008.72 173.768 1006.55 173.768ZM1012.75 177.096V213H1000.21V177.096H1012.75ZM1017.85 195.016C1017.85 191.304 1018.51 188.061 1019.83 185.288C1021.2 182.515 1023.03 180.381 1025.34 178.888C1027.68 177.395 1030.29 176.648 1033.14 176.648C1035.62 176.648 1037.75 177.139 1039.54 178.12C1041.34 179.101 1042.72 180.424 1043.7 182.088V177.096H1056.25V213H1043.7V208.008C1042.72 209.672 1041.32 210.995 1039.48 211.976C1037.69 212.957 1035.58 213.448 1033.14 213.448C1030.29 213.448 1027.68 212.701 1025.34 211.208C1023.03 209.715 1021.2 207.581 1019.83 204.808C1018.51 201.992 1017.85 198.728 1017.85 195.016ZM1043.7 195.016C1043.7 192.712 1043.06 190.899 1041.78 189.576C1040.55 188.253 1039.01 187.592 1037.18 187.592C1035.3 187.592 1033.74 188.253 1032.5 189.576C1031.27 190.856 1030.65 192.669 1030.65 195.016C1030.65 197.32 1031.27 199.155 1032.5 200.52C1033.74 201.843 1035.3 202.504 1037.18 202.504C1039.01 202.504 1040.55 201.843 1041.78 200.52C1043.06 199.197 1043.7 197.363 1043.7 195.016ZM1073.6 195.016C1073.6 191.304 1074.26 188.061 1075.58 185.288C1076.95 182.515 1078.8 180.381 1081.15 178.888C1083.5 177.395 1086.1 176.648 1088.96 176.648C1091.26 176.648 1093.31 177.139 1095.1 178.12C1096.94 179.059 1098.37 180.36 1099.39 182.024V165.64H1112V213H1099.39V208.008C1098.41 209.672 1097.02 210.995 1095.23 211.976C1093.44 212.957 1091.33 213.448 1088.89 213.448C1086.04 213.448 1083.43 212.701 1081.09 211.208C1078.78 209.715 1076.95 207.581 1075.58 204.808C1074.26 201.992 1073.6 198.728 1073.6 195.016ZM1099.45 195.016C1099.45 192.712 1098.81 190.899 1097.53 189.576C1096.3 188.253 1094.76 187.592 1092.93 187.592C1091.05 187.592 1089.49 188.253 1088.25 189.576C1087.02 190.856 1086.4 192.669 1086.4 195.016C1086.4 197.32 1087.02 199.155 1088.25 200.52C1089.49 201.843 1091.05 202.504 1092.93 202.504C1094.76 202.504 1096.3 201.843 1097.53 200.52C1098.81 199.197 1099.45 197.363 1099.45 195.016ZM1153.45 194.632C1153.45 195.613 1153.39 196.595 1153.26 197.576H1129.51C1129.64 199.539 1130.18 201.011 1131.11 201.992C1132.1 202.931 1133.33 203.4 1134.83 203.4C1136.92 203.4 1138.41 202.461 1139.31 200.584H1152.68C1152.13 203.059 1151.04 205.277 1149.42 207.24C1147.84 209.16 1145.83 210.675 1143.4 211.784C1140.97 212.893 1138.28 213.448 1135.34 213.448C1131.8 213.448 1128.64 212.701 1125.87 211.208C1123.14 209.715 1120.98 207.581 1119.4 204.808C1117.87 202.035 1117.1 198.771 1117.1 195.016C1117.1 191.261 1117.87 188.019 1119.4 185.288C1120.94 182.515 1123.07 180.381 1125.8 178.888C1128.58 177.395 1131.75 176.648 1135.34 176.648C1138.88 176.648 1142.02 177.373 1144.75 178.824C1147.48 180.275 1149.61 182.365 1151.15 185.096C1152.68 187.784 1153.45 190.963 1153.45 194.632ZM1140.65 191.496C1140.65 189.96 1140.14 188.765 1139.11 187.912C1138.09 187.016 1136.81 186.568 1135.27 186.568C1133.74 186.568 1132.48 186.995 1131.5 187.848C1130.52 188.659 1129.88 189.875 1129.58 191.496H1140.65ZM885.664 264.528H880.032V290H867.424V264.528H863.52V254.096H867.424V253.776C867.424 249.168 868.768 245.648 871.456 243.216C874.186 240.741 878.09 239.504 883.168 239.504C884.192 239.504 884.981 239.525 885.536 239.568V250.256C885.194 250.213 884.725 250.192 884.128 250.192C882.762 250.192 881.76 250.512 881.12 251.152C880.48 251.749 880.117 252.731 880.032 254.096H885.664V264.528ZM888.099 272.016C888.099 268.304 888.76 265.061 890.083 262.288C891.448 259.515 893.283 257.381 895.587 255.888C897.933 254.395 900.536 253.648 903.395 253.648C905.869 253.648 908.003 254.139 909.795 255.12C911.587 256.101 912.973 257.424 913.955 259.088V254.096H926.499V290H913.955V285.008C912.973 286.672 911.565 287.995 909.731 288.976C907.939 289.957 905.827 290.448 903.395 290.448C900.536 290.448 897.933 289.701 895.587 288.208C893.283 286.715 891.448 284.581 890.083 281.808C888.76 278.992 888.099 275.728 888.099 272.016ZM913.955 272.016C913.955 269.712 913.315 267.899 912.035 266.576C910.797 265.253 909.261 264.592 907.427 264.592C905.549 264.592 903.992 265.253 902.755 266.576C901.517 267.856 900.899 269.669 900.899 272.016C900.899 274.32 901.517 276.155 902.755 277.52C903.992 278.843 905.549 279.504 907.427 279.504C909.261 279.504 910.797 278.843 912.035 277.52C913.315 276.197 913.955 274.363 913.955 272.016ZM945.551 279.568H960.847V290H931.727V280.08L945.999 264.528H931.855V254.096H960.335V264.016L945.551 279.568ZM1000.39 271.632C1000.39 272.613 1000.32 273.595 1000.2 274.576H976.452C976.58 276.539 977.113 278.011 978.052 278.992C979.033 279.931 980.271 280.4 981.764 280.4C983.855 280.4 985.348 279.461 986.244 277.584H999.62C999.065 280.059 997.977 282.277 996.356 284.24C994.777 286.16 992.772 287.675 990.34 288.784C987.908 289.893 985.22 290.448 982.276 290.448C978.735 290.448 975.577 289.701 972.804 288.208C970.073 286.715 967.919 284.581 966.34 281.808C964.804 279.035 964.036 275.771 964.036 272.016C964.036 268.261 964.804 265.019 966.34 262.288C967.876 259.515 970.009 257.381 972.74 255.888C975.513 254.395 978.692 253.648 982.276 253.648C985.817 253.648 988.953 254.373 991.684 255.824C994.415 257.275 996.548 259.365 998.084 262.096C999.62 264.784 1000.39 267.963 1000.39 271.632ZM987.588 268.496C987.588 266.96 987.076 265.765 986.052 264.912C985.028 264.016 983.748 263.568 982.212 263.568C980.676 263.568 979.417 263.995 978.436 264.848C977.455 265.659 976.815 266.875 976.516 268.496H987.588ZM1018.07 260.432C1019.47 258.384 1021.18 256.763 1023.19 255.568C1025.19 254.373 1027.35 253.776 1029.65 253.776V267.152H1026.13C1023.4 267.152 1021.37 267.685 1020.05 268.752C1018.73 269.819 1018.07 271.675 1018.07 274.32V290H1005.52V254.096H1018.07V260.432ZM1083.13 254.096V290H1070.52V284.88C1069.46 286.501 1067.99 287.824 1066.11 288.848C1064.23 289.829 1062.08 290.32 1059.64 290.32C1055.46 290.32 1052.16 288.955 1049.72 286.224C1047.34 283.451 1046.14 279.696 1046.14 274.96V254.096H1058.62V273.36C1058.62 275.408 1059.15 277.029 1060.22 278.224C1061.33 279.376 1062.78 279.952 1064.57 279.952C1066.41 279.952 1067.86 279.376 1068.92 278.224C1069.99 277.029 1070.52 275.408 1070.52 273.36V254.096H1083.13ZM1137.18 253.776C1141.71 253.776 1145.25 255.141 1147.81 257.872C1150.41 260.603 1151.71 264.336 1151.71 269.072V290H1139.17V270.736C1139.17 268.816 1138.63 267.323 1137.57 266.256C1136.5 265.189 1135.05 264.656 1133.22 264.656C1131.38 264.656 1129.93 265.189 1128.86 266.256C1127.8 267.323 1127.26 268.816 1127.26 270.736V290H1114.72V270.736C1114.72 268.816 1114.19 267.323 1113.12 266.256C1112.1 265.189 1110.67 264.656 1108.83 264.656C1106.95 264.656 1105.48 265.189 1104.42 266.256C1103.35 267.323 1102.82 268.816 1102.82 270.736V290H1090.27V254.096H1102.82V258.832C1103.92 257.296 1105.35 256.08 1107.1 255.184C1108.9 254.245 1110.94 253.776 1113.25 253.776C1115.89 253.776 1118.24 254.352 1120.29 255.504C1122.38 256.656 1124.02 258.277 1125.22 260.368C1126.5 258.405 1128.18 256.827 1130.27 255.632C1132.36 254.395 1134.67 253.776 1137.18 253.776ZM871.349 349.016C871.349 345.304 872.01 342.061 873.333 339.288C874.698 336.515 876.554 334.381 878.901 332.888C881.247 331.395 883.85 330.648 886.708 330.648C889.013 330.648 891.061 331.139 892.853 332.12C894.687 333.059 896.117 334.36 897.141 336.024V319.64H909.749V367H897.141V362.008C896.159 363.672 894.773 364.995 892.981 365.976C891.189 366.957 889.077 367.448 886.645 367.448C883.786 367.448 881.183 366.701 878.837 365.208C876.533 363.715 874.698 361.581 873.333 358.808C872.01 355.992 871.349 352.728 871.349 349.016ZM897.205 349.016C897.205 346.712 896.565 344.899 895.285 343.576C894.047 342.253 892.511 341.592 890.677 341.592C888.799 341.592 887.242 342.253 886.005 343.576C884.767 344.856 884.149 346.669 884.149 349.016C884.149 351.32 884.767 353.155 886.005 354.52C887.242 355.843 888.799 356.504 890.677 356.504C892.511 356.504 894.047 355.843 895.285 354.52C896.565 353.197 897.205 351.363 897.205 349.016ZM933.601 367.448C930.017 367.448 926.795 366.701 923.937 365.208C921.121 363.715 918.902 361.581 917.281 358.808C915.659 356.035 914.849 352.771 914.849 349.016C914.849 345.304 915.659 342.061 917.281 339.288C918.945 336.515 921.185 334.381 924.001 332.888C926.859 331.395 930.081 330.648 933.665 330.648C937.249 330.648 940.449 331.395 943.265 332.888C946.123 334.381 948.363 336.515 949.985 339.288C951.649 342.061 952.481 345.304 952.481 349.016C952.481 352.728 951.649 355.992 949.985 358.808C948.363 361.581 946.123 363.715 943.265 365.208C940.406 366.701 937.185 367.448 933.601 367.448ZM933.601 356.568C935.35 356.568 936.801 355.928 937.953 354.648C939.147 353.325 939.745 351.448 939.745 349.016C939.745 346.584 939.147 344.728 937.953 343.448C936.801 342.168 935.371 341.528 933.665 341.528C931.958 341.528 930.529 342.168 929.377 343.448C928.225 344.728 927.649 346.584 927.649 349.016C927.649 351.491 928.203 353.368 929.312 354.648C930.422 355.928 931.851 356.568 933.601 356.568ZM955.536 349.016C955.536 345.304 956.197 342.061 957.52 339.288C958.885 336.515 960.72 334.381 963.024 332.888C965.371 331.395 967.973 330.648 970.832 330.648C973.307 330.648 975.44 331.139 977.232 332.12C979.024 333.101 980.411 334.424 981.392 336.088V331.096H993.936V367H981.392V362.008C980.411 363.672 979.003 364.995 977.168 365.976C975.376 366.957 973.264 367.448 970.832 367.448C967.973 367.448 965.371 366.701 963.024 365.208C960.72 363.715 958.885 361.581 957.52 358.808C956.197 355.992 955.536 352.728 955.536 349.016ZM981.392 349.016C981.392 346.712 980.752 344.899 979.472 343.576C978.235 342.253 976.699 341.592 974.864 341.592C972.987 341.592 971.429 342.253 970.192 343.576C968.955 344.856 968.336 346.669 968.336 349.016C968.336 351.32 968.955 353.155 970.192 354.52C971.429 355.843 972.987 356.504 974.864 356.504C976.699 356.504 978.235 355.843 979.472 354.52C980.752 353.197 981.392 351.363 981.392 349.016ZM1016.96 356.76C1019.22 356.76 1020.71 355.587 1021.44 353.24H1034.75C1033.98 357.037 1032.38 360.152 1029.95 362.584C1027.56 364.973 1024.55 366.488 1020.92 367.128V369.368C1023.01 369.368 1024.91 369.987 1026.62 371.224C1028.37 372.461 1029.24 374.36 1029.24 376.92C1029.24 379.523 1028.33 381.443 1026.49 382.68C1024.66 383.917 1022.48 384.536 1019.96 384.536H1009.53V377.944H1018.49C1019.9 377.944 1020.6 377.496 1020.6 376.6C1020.6 375.704 1019.9 375.256 1018.49 375.256H1013.5V367.128C1009.11 366.403 1005.59 364.44 1002.94 361.24C1000.34 358.04 999.036 353.965 999.036 349.016C999.036 345.304 999.804 342.061 1001.34 339.288C1002.88 336.515 1005.01 334.381 1007.74 332.888C1010.51 331.395 1013.67 330.648 1017.21 330.648C1021.78 330.648 1025.62 331.907 1028.73 334.424C1031.85 336.899 1033.85 340.376 1034.75 344.856H1021.44C1020.67 342.509 1019.17 341.336 1016.96 341.336C1015.38 341.336 1014.12 341.997 1013.18 343.32C1012.28 344.6 1011.84 346.499 1011.84 349.016C1011.84 351.533 1012.28 353.453 1013.18 354.776C1014.12 356.099 1015.38 356.76 1016.96 356.76ZM1037.91 349.016C1037.91 345.304 1038.57 342.061 1039.9 339.288C1041.26 336.515 1043.1 334.381 1045.4 332.888C1047.75 331.395 1050.35 330.648 1053.21 330.648C1055.68 330.648 1057.82 331.139 1059.61 332.12C1061.4 333.101 1062.79 334.424 1063.77 336.088V331.096H1076.31V367H1063.77V362.008C1062.79 363.672 1061.38 364.995 1059.54 365.976C1057.75 366.957 1055.64 367.448 1053.21 367.448C1050.35 367.448 1047.75 366.701 1045.4 365.208C1043.1 363.715 1041.26 361.581 1039.9 358.808C1038.57 355.992 1037.91 352.728 1037.91 349.016ZM1063.77 349.016C1063.77 346.712 1063.13 344.899 1061.85 343.576C1060.61 342.253 1059.07 341.592 1057.24 341.592C1055.36 341.592 1053.8 342.253 1052.57 343.576C1051.33 344.856 1050.71 346.669 1050.71 349.016C1050.71 351.32 1051.33 353.155 1052.57 354.52C1053.8 355.843 1055.36 356.504 1057.24 356.504C1059.07 356.504 1060.61 355.843 1061.85 354.52C1063.13 353.197 1063.77 351.363 1063.77 349.016ZM1044.5 328.408C1045.7 321.453 1048.9 317.976 1054.1 317.976C1055.08 317.976 1055.96 318.125 1056.73 318.424C1057.54 318.723 1058.46 319.149 1059.48 319.704C1060.2 320.088 1060.82 320.387 1061.34 320.6C1061.85 320.813 1062.36 320.92 1062.87 320.92C1064.45 320.92 1065.39 319.939 1065.69 317.976H1072.02C1071.43 321.603 1070.3 324.248 1068.63 325.912C1067.01 327.533 1064.94 328.344 1062.42 328.344C1061.48 328.344 1060.63 328.216 1059.86 327.96C1059.1 327.661 1058.16 327.235 1057.05 326.68C1056.32 326.296 1055.7 325.997 1055.19 325.784C1054.68 325.571 1054.17 325.464 1053.66 325.464C1052.12 325.464 1051.16 326.445 1050.78 328.408H1044.5ZM1100.16 367.448C1096.58 367.448 1093.36 366.701 1090.5 365.208C1087.68 363.715 1085.46 361.581 1083.84 358.808C1082.22 356.035 1081.41 352.771 1081.41 349.016C1081.41 345.304 1082.22 342.061 1083.84 339.288C1085.51 336.515 1087.75 334.381 1090.56 332.888C1093.42 331.395 1096.64 330.648 1100.23 330.648C1103.81 330.648 1107.01 331.395 1109.83 332.888C1112.69 334.381 1114.93 336.515 1116.55 339.288C1118.21 342.061 1119.04 345.304 1119.04 349.016C1119.04 352.728 1118.21 355.992 1116.55 358.808C1114.93 361.581 1112.69 363.715 1109.83 365.208C1106.97 366.701 1103.75 367.448 1100.16 367.448ZM1100.16 356.568C1101.91 356.568 1103.36 355.928 1104.52 354.648C1105.71 353.325 1106.31 351.448 1106.31 349.016C1106.31 346.584 1105.71 344.728 1104.52 343.448C1103.36 342.168 1101.93 341.528 1100.23 341.528C1098.52 341.528 1097.09 342.168 1095.94 343.448C1094.79 344.728 1094.21 346.584 1094.21 349.016C1094.21 351.491 1094.77 353.368 1095.88 354.648C1096.98 355.928 1098.41 356.568 1100.16 356.568ZM1137.84 318.552C1142.49 318.552 1146.23 319.747 1149.04 322.136C1151.86 324.525 1153.27 327.939 1153.27 332.376C1153.27 336.259 1151.97 339.331 1149.36 341.592C1146.8 343.853 1143.41 345.027 1139.19 345.112L1138.87 349.784H1127.79L1127.41 337.048H1132.02C1134.92 337.048 1137.14 336.728 1138.67 336.088C1140.21 335.405 1140.98 334.211 1140.98 332.504C1140.98 331.352 1140.66 330.456 1140.02 329.816C1139.42 329.133 1138.59 328.792 1137.52 328.792C1136.33 328.792 1135.41 329.155 1134.77 329.88C1134.17 330.563 1133.87 331.501 1133.87 332.696H1122.03C1121.95 330.093 1122.48 327.725 1123.63 325.592C1124.83 323.416 1126.62 321.709 1129.01 320.472C1131.4 319.192 1134.34 318.552 1137.84 318.552ZM1133.43 367.512C1131.21 367.512 1129.42 366.915 1128.05 365.72C1126.73 364.483 1126.07 362.925 1126.07 361.048C1126.07 359.171 1126.73 357.613 1128.05 356.376C1129.42 355.139 1131.21 354.52 1133.43 354.52C1135.6 354.52 1137.35 355.139 1138.67 356.376C1140.04 357.613 1140.72 359.171 1140.72 361.048C1140.72 362.883 1140.04 364.419 1138.67 365.656C1137.35 366.893 1135.6 367.512 1133.43 367.512Z" fill="#B93800"/>
<defs>
<linearGradient id="paint0_linear_103_1864" x1="750.5" y1="21" x2="750.5" y2="429" gradientUnits="userSpaceOnUse">
<stop stop-color="#F2F2F2" stop-opacity="0"/>
<stop offset="0.730769" stop-color="#F2F2F2"/>
</linearGradient>
<clipPath id="clip0_103_1864">
<rect width="583" height="389" fill="white" transform="translate(319 91)"/>
</clipPath>
</defs>
</svg>
