<svg width="1501" height="408" viewBox="0 0 1501 408" fill="none" xmlns="http://www.w3.org/2000/svg">
<path d="M0 0H1501V388C1501 399.046 1492.05 408 1481 408H20C8.95429 408 0 399.046 0 388V0Z" fill="#F2F2F2"/>
<path d="M903.717 261.389L818.869 261.194L734.033 261.124L564.359 261L394.685 261.124L309.837 261.194L225 261.389L309.837 261.576L394.685 261.646L564.359 261.77L734.033 261.646L818.869 261.576L903.717 261.389Z" fill="#263238"/>
<path d="M532.862 375.824C531.075 376.407 480.26 375.746 478.348 374.485C477.571 374.026 477.275 366.604 477.128 357.634C477.128 357.541 477.128 357.447 477.128 357.354C477.128 355.502 477.073 353.596 477.065 351.667C477.065 351.402 477.065 351.138 477.065 350.889L479.498 324.491L513.491 324.834L510.141 350.967L510.102 352.001L509.892 357.447V358.007C509.892 358.007 529.224 366.97 531.191 368.573C533.158 370.175 534.643 375.256 532.862 375.824Z" fill="#AD6359"/>
<path d="M532.862 375.824C531.075 376.407 480.26 375.746 478.348 374.485C477.571 374.026 477.275 366.604 477.128 357.634C477.128 357.541 477.128 357.447 477.128 357.354C477.128 355.502 477.073 353.596 477.065 351.667C477.065 351.402 477.065 351.138 477.065 350.889L510.172 350.982L510.133 352.017L509.923 357.463V358.023C509.923 358.023 529.256 366.985 531.222 368.588C533.189 370.191 534.643 375.256 532.862 375.824Z" fill="#EBEBEB"/>
<path d="M532.862 375.823C531.945 376.119 518.14 376.088 504.645 375.823C501.932 375.769 499.204 375.707 496.662 375.637C487.038 375.372 479.086 374.975 478.348 374.493C477.609 374.011 477.283 366.822 477.135 358.015C477.135 357.891 477.135 357.766 477.135 357.642C477.135 357.517 477.135 357.447 477.135 357.354L509.884 357.416V357.976C509.884 357.976 529.224 366.931 531.183 368.534C533.142 370.136 534.642 375.256 532.862 375.823Z" fill="#B93800"/>
<path d="M532.31 373.848C523.76 373.529 489.176 373.07 480.688 373.373C480.618 373.373 480.618 373.42 480.688 373.427C489.168 373.933 523.736 374.135 532.31 373.988C532.489 373.988 532.489 373.855 532.31 373.848Z" fill="#263238"/>
<path d="M513.561 357.556C510.195 356.879 506.068 357.346 503.456 359.711C503.355 359.805 503.456 359.945 503.603 359.914C506.837 358.918 510.167 358.269 513.538 357.976C513.593 357.979 513.648 357.96 513.69 357.923C513.731 357.886 513.756 357.834 513.759 357.778C513.762 357.722 513.743 357.668 513.706 357.626C513.669 357.584 513.617 357.559 513.561 357.556Z" fill="#263238"/>
<path d="M515.971 359.05C512.613 358.381 508.477 358.84 505.866 361.213C505.765 361.306 505.866 361.446 506.006 361.415C509.241 360.416 512.574 359.767 515.948 359.478C515.998 359.471 516.045 359.447 516.079 359.41C516.114 359.373 516.135 359.324 516.137 359.273C516.14 359.223 516.125 359.172 516.095 359.131C516.064 359.091 516.02 359.062 515.971 359.05Z" fill="#263238"/>
<path d="M518.365 360.536C514.999 359.859 510.872 360.326 508.26 362.699C508.159 362.792 508.26 362.932 508.4 362.901C511.642 361.901 514.984 361.257 518.365 360.979C518.424 360.979 518.48 360.956 518.522 360.914C518.563 360.873 518.587 360.816 518.587 360.758C518.587 360.699 518.563 360.642 518.522 360.601C518.48 360.559 518.424 360.536 518.365 360.536Z" fill="#263238"/>
<path d="M504.645 375.816C501.932 375.761 499.204 375.699 496.662 375.629C487.038 375.365 479.086 374.968 478.348 374.486C477.609 374.003 477.283 366.814 477.135 358.007C477.135 357.883 477.135 357.759 477.135 357.634C477.135 357.51 477.135 357.44 477.135 357.346C481.644 360.536 497.455 371.031 504.645 375.816Z" fill="#263238"/>
<path d="M510.522 351.278C504.933 351.161 506.534 351.114 500.945 351.06C498.209 351.06 480.237 350.873 477.679 351.301C477.625 351.301 477.625 351.402 477.679 351.418C480.237 351.838 498.209 351.682 500.945 351.651C506.534 351.604 504.933 351.558 510.522 351.441C510.592 351.433 510.592 351.278 510.522 351.278Z" fill="#263238"/>
<path d="M494.089 376.314C492.309 376.897 441.494 376.423 439.574 375.178C438.797 374.711 438.471 367.297 438.292 358.326C438.292 358.233 438.292 358.14 438.292 358.046C438.292 356.195 438.222 354.296 438.214 352.367C438.214 352.102 438.214 351.83 438.214 351.589C438.098 338.643 438.991 325.207 438.991 325.207L472.207 325.425L471.282 351.565V352.6L471.095 358.046V358.606C471.095 358.606 490.466 367.491 492.433 369.094C494.4 370.696 495.869 375.746 494.089 376.314Z" fill="#AD6359"/>
<path d="M494.089 376.314C492.309 376.897 441.495 376.423 439.575 375.178C438.797 374.711 438.471 367.297 438.292 358.326C438.292 358.233 438.292 358.14 438.292 358.046C438.292 356.195 438.222 354.296 438.214 352.367C438.214 352.102 438.214 351.83 438.214 351.589H471.321V352.624L471.134 358.07V358.63C471.134 358.63 490.506 367.515 492.472 369.117C494.439 370.72 495.869 375.746 494.089 376.314Z" fill="#EBEBEB"/>
<path d="M494.089 376.314C492.309 376.897 441.495 376.423 439.575 375.178C438.797 374.711 438.471 367.297 438.292 358.326C438.292 358.233 438.292 358.14 438.292 358.046L471.08 357.984V358.544C471.08 358.544 490.451 367.429 492.418 369.032C494.384 370.634 495.869 375.746 494.089 376.314Z" fill="#B93800"/>
<path d="M493.537 374.338C484.986 374.05 450.403 373.684 441.914 374.05C441.844 374.05 441.844 374.104 441.914 374.104C450.395 374.579 484.963 374.664 493.529 374.478C493.716 374.478 493.716 374.345 493.537 374.338Z" fill="#263238"/>
<path d="M474.725 358.116C471.36 357.455 467.232 357.93 464.62 360.31C464.519 360.404 464.62 360.544 464.76 360.513C467.989 359.501 471.317 358.839 474.687 358.536C474.714 358.539 474.742 358.536 474.768 358.528C474.795 358.52 474.819 358.506 474.841 358.489C474.862 358.471 474.879 358.449 474.892 358.425C474.905 358.4 474.913 358.373 474.916 358.346C474.918 358.318 474.915 358.29 474.907 358.264C474.899 358.238 474.886 358.213 474.868 358.192C474.85 358.17 474.829 358.153 474.804 358.14C474.78 358.127 474.753 358.119 474.725 358.116Z" fill="#263238"/>
<path d="M477.166 359.602C473.8 358.941 469.673 359.423 467.061 361.804C466.96 361.897 467.061 362.037 467.201 362.006C470.442 360.992 473.783 360.329 477.166 360.03C477.216 360.021 477.261 359.994 477.293 359.955C477.325 359.916 477.343 359.867 477.343 359.816C477.343 359.766 477.325 359.717 477.293 359.677C477.261 359.638 477.216 359.612 477.166 359.602Z" fill="#263238"/>
<path d="M479.561 361.096C476.195 360.435 472.067 360.909 469.455 363.29C469.354 363.383 469.455 363.523 469.595 363.492C472.826 362.48 476.157 361.82 479.53 361.524C479.581 361.519 479.628 361.496 479.664 361.459C479.699 361.422 479.721 361.374 479.725 361.323C479.728 361.272 479.714 361.221 479.684 361.18C479.654 361.138 479.61 361.109 479.561 361.096Z" fill="#263238"/>
<path d="M470.715 351.55C465.126 351.457 466.727 351.402 461.138 351.371C458.402 351.371 440.43 351.278 437.872 351.713C437.818 351.713 437.818 351.814 437.872 351.83C440.43 352.242 458.41 352.009 461.146 351.97C466.735 351.892 465.126 351.853 470.715 351.713C470.816 351.705 470.816 351.55 470.715 351.55Z" fill="#263238"/>
<path d="M780.42 328.474C778.539 329.766 727.74 331.454 725.952 330.91C724.164 330.365 725.556 325.215 727.468 323.581C728.556 322.655 735.093 319.294 740.605 316.532C736.897 318.493 729.279 325.215 752.405 321.286C768.052 318.625 777.046 316.384 781.306 315.178C781.275 322.468 781.049 328.062 780.42 328.474Z" fill="#263238"/>
<path d="M451.146 387.525H414.542C414.542 387.525 421.911 301.945 421.623 300.482C421.258 298.568 419.097 289.909 416.182 278.597C415.28 275.057 414.308 271.261 413.298 267.324C410.608 256.72 407.616 245.05 404.98 234.936C401.047 219.773 397.984 207.994 397.984 207.994H429C429 207.994 432.615 219.461 437.17 234.383C444.593 258.634 454.512 292.01 455.491 300.124C457.069 313.218 451.146 387.525 451.146 387.525Z" fill="#37474F"/>
<path d="M428.51 295.254C427.313 289.956 425.518 284.767 423.955 279.57C420.784 269.005 417.594 258.452 414.386 247.913C412.785 242.638 411.176 237.363 409.559 232.089C408.735 229.428 407.919 226.767 407.087 224.114C406.255 221.461 405.346 218.933 404.615 216.334C404.312 215.268 404.149 215.852 404.53 217.213C405.307 219.944 406.084 222.659 406.862 225.398C408.416 230.797 410.002 236.191 411.619 241.58C414.79 252.316 417.99 263.04 421.219 273.75L426.069 289.871C426.885 292.421 427.545 295.019 428.044 297.651C428.475 300.409 428.584 303.207 428.37 305.991C428.013 311.6 427.368 317.194 426.855 322.788C426.342 328.382 425.813 333.991 425.3 339.593C424.263 350.744 423.24 361.895 422.229 373.047C422.105 374.455 421.981 375.871 421.872 377.287C421.833 377.761 422.548 377.722 422.603 377.287C423.807 366.262 424.732 355.199 425.766 344.152C426.8 333.104 427.826 322.181 428.876 311.196C429.132 308.434 429.42 305.672 429.428 302.894C429.409 300.321 429.101 297.759 428.51 295.254Z" fill="#263238"/>
<path d="M425.494 207.986C423.341 224.659 419.237 255.919 416.244 278.597C409.248 251.118 398 207.986 398 207.986H425.494Z" fill="#263238"/>
<path d="M427.99 207.986C427.99 207.986 427.274 222.838 423.878 234.601C423.605 235.574 423.31 236.531 422.991 237.449C419.878 238.706 416.886 240.245 414.052 242.047C414.052 242.047 413.694 253.997 413.337 267.324C412.94 282.223 412.56 298.841 412.614 302.334C412.925 315.521 410.966 388.031 410.966 388.031L374.377 388.202C374.377 388.202 380.992 307.228 380.945 302.396C380.875 294.616 382.718 260.314 384.14 235.286C385.011 219.866 385.695 207.978 385.695 207.978L427.99 207.986Z" fill="#37474F"/>
<path d="M388.804 213.292C388.128 233.722 387.413 254.16 386.472 274.583C385.532 295.005 384.319 315.552 382.585 335.998C381.629 347.419 380.728 363.485 379.476 374.898C379.476 374.976 379.585 375.007 379.593 374.898C382.259 354.631 383.744 329.572 385.034 309.173C386.324 288.773 387.327 268.39 388.019 247.944C388.408 236.391 388.711 224.83 389.053 213.276C389.061 213.152 388.804 213.152 388.804 213.292Z" fill="#263238"/>
<path d="M424.515 236.562C420.876 238.071 417.375 239.893 414.052 242.008C413.92 242.086 414.052 242.296 414.161 242.226C417.69 240.506 421.297 238.857 424.725 236.943C424.755 236.907 424.774 236.863 424.778 236.816C424.783 236.769 424.773 236.722 424.75 236.681C424.728 236.639 424.693 236.606 424.651 236.585C424.609 236.564 424.561 236.556 424.515 236.562Z" fill="#263238"/>
<path d="M413.143 161.205C414.363 179.55 421.048 198.938 423.831 201.995C428.137 206.733 449.141 212.693 457.389 213.665C460.086 213.984 463.467 195.522 461.423 193.437C459.378 191.352 436.61 187.392 435.157 186.365C434.379 185.821 426.933 171.428 421.639 162.115C416.703 153.464 412.77 155.642 413.143 161.205Z" fill="#DD6A57"/>
<path d="M454.046 191.29C454.046 191.29 460.078 187.291 463.117 186.116C466.157 184.942 479.084 184.739 479.286 187.532C479.542 191.135 472.103 192.729 468.357 193.025C468.357 193.025 468.971 201.365 463.879 203.668C458.788 205.971 454.046 191.29 454.046 191.29Z" fill="#DD6A57"/>
<path d="M457.233 213.65C459.907 214.428 472.461 216.762 476.099 216.645C479.737 216.528 490.192 215.408 490.378 212.607C490.565 209.807 487.479 209.892 487.479 209.892C487.479 209.892 491.816 208.717 491.754 205.885C491.692 203.053 486.888 203.334 486.888 203.334C486.888 203.334 491.257 201.778 490.992 198.985C490.728 196.192 485.948 197.257 485.948 197.257C485.948 197.257 490.005 196.044 488.808 193.811C487.362 191.127 480.133 194.2 476.107 194.036C475.189 193.998 457.614 191.951 457.614 191.951L457.233 213.65Z" fill="#DD6A57"/>
<path d="M487.479 209.892C487.479 209.892 490.588 209.807 490.378 212.607C490.168 215.408 479.737 216.497 476.099 216.645C472.461 216.793 460.016 214.42 457.272 213.658C454.347 213.248 451.449 212.674 448.589 211.938L451.193 190.263C452.305 190.528 453.393 190.784 454.419 191.041C455.779 190.154 460.529 187.105 463.117 186.109C466.149 184.934 479.084 184.732 479.286 187.525C479.326 188.192 479.109 188.849 478.679 189.361C476.907 192.426 472.811 192.862 469.46 193.305C472.857 193.694 475.749 194.013 476.106 194.029C480.133 194.192 487.362 191.119 488.808 193.803C489.935 195.904 486.406 197.102 485.986 197.242L486.336 197.172C486.366 197.157 486.4 197.149 486.433 197.149C486.467 197.149 486.5 197.157 486.531 197.172C487.829 196.977 490.759 196.806 490.969 199C491.179 201.194 488.52 202.633 487.378 203.147C487.502 203.147 487.533 203.248 487.471 203.349C488.761 203.349 491.676 203.691 491.731 205.901C491.816 208.717 487.479 209.892 487.479 209.892Z" fill="#DBDBDB"/>
<path d="M486.359 197.172C481.035 199.42 478.322 199.506 472.709 198.557C472.601 198.557 472.546 198.697 472.655 198.72C478.096 200.128 481.493 200.548 486.476 197.421C486.725 197.265 486.608 197.063 486.359 197.172Z" fill="#263238"/>
<path d="M487.308 203.147C481.579 204.998 478.633 205.092 472.686 204.555C472.601 204.555 472.578 204.687 472.686 204.703C478.478 205.722 481.898 206.056 487.378 203.45C487.603 203.333 487.572 203.038 487.308 203.147Z" fill="#263238"/>
<path d="M487.176 209.853C481.501 211.246 478.275 211.487 472.57 210.227C472.546 210.225 472.521 210.232 472.501 210.246C472.481 210.26 472.467 210.28 472.459 210.303C472.452 210.327 472.453 210.352 472.462 210.375C472.471 210.397 472.487 210.417 472.508 210.429C478.206 212.288 482.232 211.985 487.199 210.032C487.541 209.892 487.534 209.768 487.176 209.853Z" fill="#263238"/>
<path d="M479.029 188.544C476.899 192.006 471.955 192.084 468.341 192.652C468.287 192.656 468.235 192.675 468.19 192.705C468.145 192.735 468.108 192.776 468.082 192.823C468.057 192.871 468.044 192.925 468.044 192.979C468.044 193.033 468.058 193.086 468.084 193.134C468.084 196.643 467.113 201.606 464.089 203.746C464.071 203.758 464.058 203.776 464.053 203.798C464.048 203.819 464.051 203.841 464.062 203.86C464.073 203.879 464.091 203.893 464.112 203.899C464.132 203.905 464.155 203.903 464.174 203.894C467.734 202.042 469.103 197.242 468.838 193.398C472.554 192.877 477.506 192.582 479.076 188.567L479.029 188.544Z" fill="#263238"/>
<path d="M414.612 186.404L431.931 179.402C431.931 179.402 425.782 166.573 421.631 160.357C417.48 154.141 411.627 152.67 411.767 164.083C411.875 173.762 414.612 186.404 414.612 186.404Z" fill="#37474F"/>
<path d="M382.741 222.752C382.741 222.752 435.561 222.496 435.561 222.503C435.561 223.538 424.103 163.375 418.584 156.21C417.403 154.654 409.334 152.717 405.688 156.117C389.737 170.992 382.741 223.421 382.741 222.752Z" fill="#18424B"/>
<path d="M416.563 161.602C414.044 162.209 408.789 159.268 406.978 155.673C406.862 155.424 407.312 152.896 407.755 149.784C407.989 147.901 408.214 145.793 408.276 143.856C408.276 143.459 420.317 147.216 420.317 147.216C419.543 149.613 419.066 152.095 418.895 154.607C418.89 154.868 418.908 155.128 418.949 155.385C418.954 155.429 418.954 155.474 418.949 155.518C419.128 157.058 419.276 160.948 416.563 161.602Z" fill="#DD6A57"/>
<path d="M418.926 155.409C418.926 155.409 418.926 155.494 418.926 155.541C418.512 155.573 418.096 155.573 417.682 155.541C410.546 155.144 408.96 146.135 408.673 143.871C410.818 144.252 420.278 147.209 420.278 147.209C419.505 149.608 419.027 152.092 418.856 154.607C418.854 154.876 418.878 155.144 418.926 155.409Z" fill="#263238"/>
<path d="M406.504 128.708C405.182 133.018 407.429 145.466 410.492 148.243C414.922 152.273 422.152 152.67 425.611 147.341C428.93 142.167 425.704 125.993 422.292 123.472C417.262 119.745 408.455 122.352 406.504 128.708Z" fill="#DD6A57"/>
<path d="M418.615 136.184C418.615 136.184 418.561 136.231 418.568 136.27C418.739 137.102 418.802 138.083 418.094 138.495C418.094 138.495 418.094 138.549 418.094 138.542C419.011 138.254 418.918 136.947 418.615 136.184Z" fill="#263238"/>
<path d="M417.721 135.438C416.361 135.57 416.726 138.301 417.993 138.176C419.26 138.052 418.864 135.352 417.721 135.438Z" fill="#263238"/>
<path d="M423.52 135.655C423.52 135.655 423.59 135.655 423.598 135.718C423.683 136.566 423.924 137.522 424.733 137.701V137.748C423.777 137.74 423.466 136.472 423.52 135.655Z" fill="#263238"/>
<path d="M424.157 134.667C425.494 134.379 425.976 137.095 424.733 137.359C423.489 137.624 423.03 134.909 424.157 134.667Z" fill="#263238"/>
<path d="M416.469 134.333C416.814 134.182 417.149 134.01 417.472 133.819C417.861 133.617 418.187 133.5 418.397 133.104C418.446 132.984 418.455 132.851 418.421 132.726C418.387 132.601 418.313 132.49 418.211 132.411C417.984 132.289 417.729 132.23 417.473 132.24C417.216 132.249 416.966 132.327 416.749 132.466C416.268 132.676 415.883 133.059 415.669 133.539C415.625 133.651 415.615 133.773 415.64 133.89C415.665 134.007 415.724 134.115 415.809 134.199C415.894 134.283 416.002 134.341 416.119 134.365C416.237 134.388 416.358 134.377 416.469 134.333Z" fill="#263238"/>
<path d="M425.02 133.15C424.658 133.128 424.297 133.083 423.94 133.018C423.539 133.026 423.146 132.903 422.82 132.668C422.734 132.573 422.68 132.452 422.669 132.324C422.658 132.196 422.689 132.068 422.758 131.96C422.926 131.765 423.143 131.62 423.386 131.538C423.63 131.455 423.891 131.44 424.142 131.493C424.668 131.523 425.164 131.748 425.533 132.123C425.617 132.215 425.672 132.33 425.689 132.453C425.706 132.576 425.686 132.702 425.63 132.813C425.574 132.925 425.486 133.016 425.377 133.077C425.269 133.137 425.144 133.162 425.02 133.15Z" fill="#263238"/>
<path d="M419.447 141.475C419.707 141.779 420.027 142.027 420.386 142.202C420.746 142.377 421.138 142.477 421.538 142.494C421.888 142.513 422.238 142.482 422.579 142.401C422.645 142.39 422.71 142.374 422.774 142.354L422.953 142.299C422.998 142.284 423.036 142.255 423.063 142.215C423.09 142.176 423.103 142.129 423.1 142.082C423.105 142.053 423.105 142.024 423.1 141.996V141.918C423.03 141.272 422.836 140.292 422.836 140.292C423.085 140.378 424.391 140.759 424.305 140.417C423.831 137.494 423.062 134.627 422.012 131.859C422.002 131.844 421.987 131.833 421.97 131.827C421.953 131.821 421.935 131.821 421.917 131.826C421.9 131.831 421.885 131.842 421.874 131.856C421.863 131.87 421.857 131.887 421.856 131.905C422.284 134.605 423.178 137.211 423.644 139.919C423.186 139.777 422.709 139.701 422.23 139.693C422.144 139.693 422.649 141.584 422.657 141.879C422.131 142.007 421.584 142.026 421.049 141.937C420.515 141.847 420.004 141.65 419.548 141.358C419.447 141.35 419.385 141.413 419.447 141.475Z" fill="#263238"/>
<path d="M422.152 142.12C421.857 142.632 421.437 143.06 420.931 143.365C420.65 143.522 420.327 143.587 420.006 143.552C419.307 143.466 419.229 142.852 419.229 142.307C419.258 142.015 419.323 141.728 419.423 141.451C420.237 141.964 421.194 142.198 422.152 142.12Z" fill="#263238"/>
<path d="M420.931 143.365C420.65 143.522 420.327 143.587 420.006 143.552C419.307 143.466 419.229 142.852 419.229 142.307C419.592 142.254 419.962 142.332 420.273 142.525C420.585 142.719 420.818 143.016 420.931 143.365Z" fill="#FF99BA"/>
<path d="M424.655 127.362C424.049 126.358 423.365 125.347 422.696 125.222C422.028 125.098 421.81 126.724 420.364 127.02C418.405 127.424 417.2 125.728 414.402 125.907C410.391 126.171 409.085 129.727 409.738 135.391C410.329 140.44 407.344 141.327 407.344 141.327C407.344 141.327 404.009 130.435 406.644 126.35C409.279 122.266 416.252 119.652 421.546 122.515C423.489 123.565 424.655 127.362 424.655 127.362Z" fill="#263238"/>
<path d="M409.629 139.001C409.629 139.001 406.745 135.025 404.965 136.068C403.185 137.11 405.385 142.898 407.538 143.653C407.808 143.77 408.098 143.831 408.392 143.833C408.686 143.835 408.978 143.777 409.249 143.662C409.52 143.548 409.765 143.38 409.969 143.169C410.173 142.957 410.333 142.706 410.438 142.432L409.629 139.001Z" fill="#DD6A57"/>
<path d="M405.618 137.686V137.74C407.173 138.324 407.95 139.701 408.533 141.14C408.443 140.991 408.321 140.862 408.177 140.765C408.032 140.667 407.868 140.602 407.696 140.573C407.524 140.545 407.347 140.555 407.179 140.602C407.011 140.649 406.855 140.731 406.722 140.844C406.722 140.844 406.722 140.93 406.769 140.922C407.032 140.834 407.315 140.829 407.581 140.908C407.847 140.988 408.082 141.148 408.253 141.366C408.534 141.731 408.776 142.125 408.976 142.541C409.054 142.681 409.295 142.603 409.241 142.447V142.408C409.209 140.518 407.678 137.865 405.618 137.686Z" fill="#263238"/>
<path d="M488.769 164.62H433.928V225.405H488.769V164.62Z" fill="#B93800"/>
<path d="M517.096 164.62H488.777V225.405H517.096V164.62Z" fill="#B93800"/>
<path opacity="0.1" d="M517.096 164.62H488.777V225.405H517.096V164.62Z" fill="black"/>
<path d="M466.009 177.753H464.843H463.973L463.475 176.742L462.775 177.753L461.835 175.676L460.933 177.753H458.368H457.194L456.774 176.368L456.37 177.753H455.608V164.62H466.009V177.753Z" fill="white"/>
<path d="M515.144 221.22C513.045 216.894 510.972 212.558 508.925 208.212L502.777 195.133L496.698 182.032C494.682 177.644 492.692 173.235 490.728 168.806C492.827 173.132 494.9 177.468 496.947 181.814L503.088 194.892L509.151 208.025C511.172 212.408 513.17 216.806 515.144 221.22Z" fill="#B93800"/>
<path d="M515.144 168.806C513.17 173.215 511.177 177.623 509.166 182.032L503.103 195.157L496.962 208.235C494.889 212.587 492.817 216.923 490.744 221.243C492.708 216.829 494.698 212.421 496.714 208.017L502.777 194.884L508.925 181.806C510.967 177.46 513.04 173.126 515.144 168.806Z" fill="#B93800"/>
<path d="M401.49 168.378C401.063 181.098 402.003 207.216 408.129 214.381C416.166 223.787 437.279 228.338 443.529 229.708C446.249 230.299 451.302 212.428 449.53 210.009C447.757 207.589 426.039 203.73 424.251 202.4C422.463 201.07 415.195 177.644 411.883 167.39C407.701 154.39 401.863 157.61 401.49 168.378Z" fill="#DD6A57"/>
<path d="M457.365 215.276C456.308 214.327 456.798 213.767 459.316 213.93C461.835 214.093 471.676 216.879 472.352 213.362C473.028 209.845 459.137 206.119 454.885 206.165C450.633 206.212 443.863 207.776 443.863 207.776C446.436 209.044 452.375 212.724 457.365 215.276Z" fill="#DD6A57"/>
<path d="M436.657 227.599C444.018 230.914 452.981 235.488 462.029 234.492C463.037 234.407 463.987 233.985 464.726 233.294C468.792 232.921 469.833 230.89 469.833 230.89C473.51 229.381 474.295 227.156 474.295 227.156C474.295 227.156 479.06 226.666 479.247 223.733C479.457 220.442 472.725 221.78 468.566 220.24C459.059 216.723 446.513 209.067 443.87 207.792L436.657 227.599Z" fill="#DD6A57"/>
<path d="M456.013 223.569C458.785 224.631 461.626 225.502 464.517 226.176C467.724 226.713 470.967 227.015 474.218 227.078C474.239 227.078 474.258 227.086 474.273 227.101C474.287 227.116 474.296 227.135 474.296 227.156C474.296 227.177 474.287 227.196 474.273 227.211C474.258 227.226 474.239 227.234 474.218 227.234C467.925 227.75 461.611 226.526 455.966 223.694C455.811 223.632 455.873 223.523 456.013 223.569Z" fill="#263238"/>
<path d="M453.059 229.008C455.857 229.786 460.778 231.186 469.833 230.789C469.833 230.789 469.872 230.844 469.833 230.844C464.177 231.852 458.352 231.262 453.012 229.14C452.849 229.078 452.872 228.953 453.059 229.008Z" fill="#263238"/>
<path d="M451.527 231.964C456.331 233.139 459.51 233.271 464.703 233.279V233.333C458.803 233.948 456.588 233.504 451.488 232.12C451.286 232.073 451.333 231.917 451.527 231.964Z" fill="#263238"/>
<path d="M400.62 188.38L418.74 183.806C418.74 183.806 414.402 170.261 411.137 163.578C407.872 156.895 402.276 154.592 400.861 165.912C399.64 175.489 400.62 188.38 400.62 188.38Z" fill="#37474F"/>
<path d="M664.913 360.91C666.709 361.447 717.5 359.766 719.397 358.475C720.12 357.992 720.306 350.57 720.275 341.6V341.32C720.275 339.468 714.5 308.511 714.5 308.511L680.514 309.531L687.51 342.035V342.588C687.51 342.588 668.357 351.924 666.421 353.581C664.486 355.238 663.157 360.373 664.913 360.91Z" fill="#F7A9A0"/>
<path d="M680.654 341.358L724.037 337.741C724.037 337.741 710.9 285.366 713.264 281.826C714.297 280.27 754.074 287.63 769.177 271.261C782.99 256.284 769.177 226.051 769.177 226.051H731.865C731.865 226.051 732.262 239.184 729.984 243.992C729.005 246.053 684.121 242.117 676.698 255.662C666.826 273.75 680.654 341.358 680.654 341.358Z" fill="#37474F"/>
<path d="M718.899 329.377C714.119 329.603 709.315 329.79 704.534 330.155C699.753 330.521 694.957 330.933 690.185 331.501L686.142 331.976C685.497 332.054 684.86 332.131 684.215 332.225C683.564 332.287 682.917 332.388 682.279 332.528C682.209 332.528 682.232 332.637 682.279 332.645C683.503 332.692 684.729 332.653 685.948 332.528L689.415 332.334C691.794 332.194 694.172 332.038 696.551 331.867C701.316 331.525 706.058 331.035 710.807 330.521L718.891 329.626C719.062 329.603 719.062 329.37 718.899 329.377Z" fill="#263238"/>
<path d="M764.987 233.668C764.855 232.415 764.754 231.155 764.7 229.895C764.694 229.879 764.685 229.865 764.671 229.856C764.658 229.846 764.642 229.841 764.626 229.841C764.609 229.841 764.593 229.846 764.58 229.856C764.567 229.865 764.557 229.879 764.552 229.895C764.552 239.456 767.871 249.111 765.275 258.595C764.168 262.75 761.643 266.385 758.139 268.872C754.453 271.342 750.237 272.907 745.834 273.439C740.835 274.163 735.728 274.023 730.715 273.992L715.02 273.914H711.133C709.912 273.84 708.686 273.84 707.464 273.914C707.027 273.93 706.608 274.092 706.272 274.374C705.937 274.656 705.706 275.041 705.614 275.47C705.459 276.584 705.443 277.713 705.568 278.831C705.718 283.883 706.076 288.916 706.641 293.932C707.772 303.928 709.716 313.816 712.455 323.496C712.797 324.694 713.155 325.892 713.52 327.082C713.529 327.112 713.55 327.137 713.578 327.152C713.605 327.166 713.638 327.169 713.668 327.16C713.697 327.151 713.722 327.13 713.737 327.102C713.752 327.075 713.755 327.042 713.745 327.012C710.998 317.249 708.966 307.298 707.667 297.238C707.029 292.236 706.594 287.202 706.322 282.161C706.254 280.916 706.2 279.671 706.159 278.426C706.159 277.819 706.112 277.205 706.104 276.598C706.053 276.079 706.147 275.557 706.376 275.089C706.563 274.864 706.804 274.691 707.075 274.583C707.347 274.476 707.641 274.438 707.931 274.474C708.615 274.474 709.299 274.474 709.983 274.474H713.87L729.564 274.575C734.593 274.575 739.669 274.77 744.66 274.186C749.034 273.785 753.273 272.459 757.097 270.296C760.667 268.239 763.476 265.082 765.104 261.295C768.804 252.418 765.967 242.817 764.987 233.668Z" fill="#263238"/>
<path d="M769.177 271.261C759.849 281.375 740.998 282.433 727.784 282.153L742.903 226.082H769.177C769.177 226.082 782.99 256.284 769.177 271.261Z" fill="#263238"/>
<path d="M845.977 358.739C845.775 356.88 824.383 310.736 822.455 309.499C821.732 309.017 814.83 311.748 806.59 315.28L806.333 315.397C804.631 316.12 773.273 324.554 773.273 324.554L787.172 354.748L819.82 345.319L820.318 345.07C820.318 345.07 836.393 359.074 838.663 360.202C840.933 361.33 846.195 360.599 845.977 358.739Z" fill="#F7A9A0"/>
<path d="M810.694 313.514C817.022 310.876 821.857 309.072 822.455 309.476C824.391 310.713 845.775 356.849 845.978 358.708C846.18 360.567 840.902 361.299 838.647 360.171C837.271 359.478 830.757 354.009 825.876 349.847C829.366 352.585 836.984 355.938 825.58 336.706C818.545 324.865 813.602 317.575 810.694 313.514Z" fill="#263238"/>
<path d="M732.121 226.051C732.121 226.051 732.696 244.14 735.409 253.048C735.409 253.048 738.363 254.604 739.249 255.156C739.249 255.156 716.8 308.955 718.075 329.657C718.495 336.441 726.175 347.59 733.932 352.422C747.66 360.98 814.651 353.472 814.651 353.472L804.934 313.156C804.934 313.156 762.577 315.49 761.504 313.226C760.144 310.316 768.578 287.684 775.318 269.3C775.994 267.441 782.772 260.594 781.979 248.193C781.376 240.523 779.401 233.023 776.149 226.051H732.121Z" fill="#37474F"/>
<path d="M739.172 248.831C739.086 247.547 738.993 246.263 738.876 244.988C738.62 242.07 738.317 239.145 737.804 236.258C737.804 236.033 737.446 236.118 737.469 236.336C737.664 238.6 737.92 240.864 738.138 243.128C738.356 245.392 738.62 247.648 738.659 249.905C738.659 250.581 738.659 251.733 737.788 251.92C736.669 252.176 736.14 250.698 735.876 249.897C735.232 247.881 734.761 245.815 734.469 243.719C734.096 241.385 733.901 238.935 733.692 236.538C733.692 236.453 733.536 236.468 733.536 236.538C733.536 241.292 733.591 246.263 735.363 250.753C735.49 251.214 735.741 251.632 736.087 251.962C736.433 252.292 736.863 252.522 737.329 252.628C737.329 252.628 737.329 252.628 737.376 252.628C737.423 252.628 737.376 252.682 737.376 252.713C737.376 252.744 737.431 252.978 737.454 253.11C737.469 253.223 737.492 253.335 737.524 253.444C737.57 253.678 737.602 253.911 737.656 254.137C737.664 254.177 737.686 254.213 737.718 254.239C737.75 254.265 737.79 254.279 737.831 254.279C737.872 254.279 737.912 254.265 737.943 254.239C737.975 254.213 737.997 254.177 738.006 254.137C738.034 254.127 738.059 254.108 738.076 254.082C738.093 254.057 738.101 254.027 738.099 253.997C738.079 253.534 737.976 253.078 737.796 252.651C738.07 252.594 738.325 252.47 738.538 252.289C738.751 252.108 738.916 251.877 739.016 251.616C739.289 250.713 739.343 249.758 739.172 248.831Z" fill="#263238"/>
<path d="M735.752 253.063C739.387 254.574 742.885 256.396 746.207 258.509C746.339 258.587 746.207 258.797 746.098 258.727C742.569 257.008 738.962 255.358 735.534 253.445C735.503 253.408 735.484 253.363 735.48 253.315C735.475 253.267 735.485 253.219 735.509 253.177C735.533 253.136 735.569 253.102 735.613 253.082C735.656 253.062 735.705 253.055 735.752 253.063Z" fill="#263238"/>
<path d="M765.702 244.793C764.786 244.795 763.871 244.722 762.966 244.575C762.189 244.427 761.365 244.202 760.587 243.976C759.118 243.541 757.33 243.027 756.258 241.86C755.219 240.589 754.39 239.16 753.801 237.628C753.065 236.025 752.578 234.32 752.355 232.571C752.359 232.561 752.36 232.551 752.359 232.541C752.357 232.531 752.354 232.522 752.348 232.514C752.342 232.505 752.335 232.499 752.326 232.494C752.317 232.489 752.307 232.487 752.297 232.487C752.287 232.487 752.277 232.489 752.268 232.494C752.259 232.499 752.252 232.505 752.246 232.514C752.24 232.522 752.237 232.531 752.235 232.541C752.234 232.551 752.235 232.561 752.239 232.571C752.349 234.379 752.649 236.17 753.133 237.916C753.403 238.785 753.739 239.633 754.135 240.452C754.495 241.273 754.974 242.036 755.558 242.716C756.739 244 758.667 244.622 760.339 244.956C762.122 245.283 763.95 245.283 765.733 244.956C765.85 244.972 765.811 244.793 765.702 244.793Z" fill="#263238"/>
<path d="M793.95 317.855C784.716 317.684 780.417 318.252 771.175 318.26H760.719C759.911 318.281 759.102 318.207 758.31 318.042C757.575 317.916 756.914 317.522 756.452 316.937C755.838 316.019 756.164 314.852 756.382 313.825C756.841 311.654 757.369 309.492 757.937 307.344C760.269 298.607 763.3 290.073 766.161 281.499L770.576 268.273C770.941 267.2 771.299 266.126 771.75 265.083C772.177 264.131 772.662 263.206 773.203 262.314C774.243 260.6 775.083 258.773 775.707 256.868C778.21 248.644 775.808 240.133 772.885 232.376C772.488 231.334 772.107 230.299 771.657 229.264C771.657 229.194 771.517 229.264 771.548 229.303C774.206 237.495 777.386 246.015 775.598 254.751C775.181 256.808 774.461 258.79 773.46 260.633C772.947 261.575 772.387 262.485 771.905 263.426C771.405 264.388 770.974 265.383 770.615 266.406C769.06 270.747 767.661 275.158 766.2 279.539C763.277 288.237 760.206 296.919 757.773 305.773C757.167 307.974 756.607 310.192 756.11 312.425C755.745 314.074 754.921 316.315 756.351 317.676C757.4 318.672 759.056 318.796 760.424 318.804C762.756 318.804 765.034 318.804 767.335 318.804C776.709 318.804 792.823 318.213 793.982 318.19C794.026 318.185 794.067 318.164 794.095 318.13C794.124 318.095 794.137 318.051 794.133 318.007C794.129 317.962 794.107 317.922 794.073 317.893C794.039 317.865 793.995 317.851 793.95 317.855Z" fill="#263238"/>
<path d="M807.538 351.636C806.629 346.929 805.766 342.199 804.725 337.515C803.683 332.832 802.548 328.14 801.335 323.511C800.993 322.196 800.636 320.889 800.286 319.574C800.125 318.952 799.954 318.33 799.773 317.707C799.617 317.069 799.425 316.441 799.198 315.825C799.198 315.762 799.081 315.824 799.081 315.863C799.212 317.08 799.425 318.286 799.718 319.473C799.952 320.617 800.169 321.753 800.403 322.889C800.884 325.223 801.379 327.557 801.887 329.891C802.906 334.559 804.072 339.227 805.253 343.825C805.932 346.454 806.613 349.081 807.297 351.706C807.336 351.784 807.57 351.753 807.538 351.636Z" fill="#263238"/>
<path d="M708.638 206.578L715.004 206.741C716.874 203.156 717.588 199.079 717.049 195.071C716.94 194.145 719.109 199.436 718.238 206.85C724.962 207.021 734.104 207.247 742.095 207.364C742.25 204.252 742.538 201.357 742.538 201.357C742.79 203.404 743.222 205.424 743.828 207.395L747.023 207.441C746.979 203.002 747.179 198.563 747.621 194.145C748.197 198.776 749.529 203.281 751.562 207.48C756.631 207.48 759.973 207.426 759.756 207.185C752.091 198.37 757.711 193.305 755.542 185.548C752.931 176.259 744.932 174.773 745.173 167.795C745.359 162.115 746.075 151.814 738.907 149.605C736.97 147.704 734.516 146.416 731.852 145.903C729.188 145.39 726.432 145.673 723.928 146.718C712.595 151.044 717.064 168.565 716.287 172.128C715.183 177.208 712.758 179.005 710.947 184.802C709.136 190.598 711.724 194.573 712.066 198.557C712.408 202.54 707.363 206.57 708.638 206.578Z" fill="#263238"/>
<path d="M759.981 205.893C758.936 204.358 758.109 202.685 757.525 200.922C756.95 199.195 757.198 197.421 757.525 195.592C757.931 193.74 758.243 191.868 758.458 189.983C758.669 188.016 758.482 186.026 757.906 184.132C757.29 182.24 756.247 180.515 754.859 179.091C753.512 177.738 752.056 176.5 750.506 175.388C749.005 174.322 747.652 173.064 746.479 171.646C745.355 170.17 744.654 168.417 744.45 166.573C744.378 168.494 744.887 170.393 745.912 172.019C746.993 173.609 748.302 175.029 749.798 176.236C751.228 177.402 752.581 178.66 753.848 180.001C755.047 181.315 755.949 182.873 756.491 184.568C756.988 186.285 757.167 188.078 757.02 189.859C756.911 191.671 756.569 193.5 756.328 195.382C756.191 196.341 756.129 197.308 756.141 198.277C756.179 199.269 756.395 200.247 756.779 201.163C757.554 202.919 758.639 204.521 759.981 205.893Z" fill="#263238"/>
<path d="M717.515 153.191C716.722 155.378 716.2 157.654 715.961 159.968C715.673 162.302 715.494 164.581 715.339 166.884L715.09 170.323C715.022 171.432 714.848 172.531 714.569 173.606C713.893 175.733 712.84 177.72 711.46 179.472C710.775 180.438 710.157 181.449 709.61 182.499C709.061 183.578 708.636 184.716 708.343 185.891C708.086 187.056 707.919 188.24 707.845 189.431C707.76 190.629 707.822 191.834 708.032 193.017C708.242 194.208 708.568 195.351 708.848 196.425C709.132 197.515 709.309 198.63 709.377 199.755C709.41 200.883 709.174 202.003 708.689 203.022C708.204 204.04 707.483 204.929 706.586 205.613C707.61 205.003 708.467 204.147 709.079 203.123C709.691 202.099 710.039 200.939 710.092 199.747C710.117 198.565 710.021 197.384 709.804 196.223C709.602 195.063 709.314 193.951 709.19 192.846C708.961 190.63 709.14 188.392 709.719 186.241C710.012 185.181 710.413 184.154 710.916 183.176C711.445 182.184 712.043 181.23 712.704 180.32C713.349 179.371 714.017 178.399 714.592 177.341C715.18 176.278 715.632 175.147 715.937 173.972C716.207 172.802 716.36 171.608 716.396 170.409C716.458 169.249 716.481 168.075 716.505 166.939C716.551 164.605 716.575 162.325 716.684 160.03C716.727 157.728 717.006 155.437 717.515 153.191Z" fill="#263238"/>
<path d="M739.226 186.848C739.343 199.623 737.205 220.629 731.756 229.638C727.411 236.858 707.325 248.31 696.504 251.297C692.687 252.348 690.783 236.445 692.617 232.547C693.745 230.213 716.186 221.041 718.269 217.921C721.433 213.191 725.747 197.615 730.481 186.116C733.015 180.087 739.156 178.92 739.226 186.848Z" fill="#F7A9A0"/>
<path d="M699.333 228.938C699.333 228.938 693.34 228.214 690.635 228.479C687.93 228.743 678.198 233.434 679.123 235.589C680.273 238.375 686.414 236.772 689.314 235.589C689.314 235.589 691.98 242.031 696.636 241.813C701.292 241.596 699.333 228.938 699.333 228.938Z" fill="#F7A9A0"/>
<path d="M700.056 249.967C697.942 250.916 687.883 254.402 684.859 254.744C681.836 255.086 673.091 255.436 672.593 253.188C672.096 250.939 674.653 250.589 674.653 250.589C674.653 250.589 670.93 250.154 670.642 247.804C670.354 245.455 674.342 245.112 674.342 245.112C674.342 245.112 670.557 244.381 670.455 242C670.354 239.62 674.404 239.962 674.404 239.962C674.404 239.962 670.906 239.456 671.629 237.465C672.492 235.076 678.827 236.733 682.131 236.103C682.908 235.963 697.126 232.127 697.126 232.127L700.056 249.967Z" fill="#F7A9A0"/>
<path d="M707.402 247.011C703.904 248.752 700.263 250.191 696.52 251.313C692.633 252.69 687.005 254.495 684.86 254.736C681.844 255.078 673.091 255.428 672.593 253.18C672.096 250.932 674.653 250.582 674.653 250.582C674.653 250.582 670.93 250.146 670.642 247.796C670.417 245.976 672.772 245.361 673.837 245.174C673.775 245.104 673.798 245.011 673.915 244.996C672.927 244.731 670.533 243.883 670.432 242.016C670.331 240.149 672.764 239.962 673.876 239.962C673.898 239.951 673.922 239.946 673.946 239.946C673.97 239.946 673.994 239.951 674.016 239.962H674.062H674.366C674.366 239.962 670.868 239.456 671.59 237.464C672.259 235.605 676.254 236.196 679.543 236.251C679.357 236.063 679.209 235.841 679.107 235.597C678.213 233.442 687.922 228.751 690.62 228.486C693.258 228.407 695.898 228.532 698.517 228.86C699.295 228.455 700.111 228.043 700.958 227.615L707.402 247.011Z" fill="#DBDBDB"/>
<path d="M674.031 239.931C678.695 241.137 680.942 240.857 685.458 239.409C685.544 239.409 685.606 239.503 685.52 239.542C681.23 241.362 678.454 242.125 673.961 240.156C673.744 240.055 673.806 239.876 674.031 239.931Z" fill="#263238"/>
<path d="M673.977 244.98C678.928 245.805 681.369 245.524 686.204 244.357C686.274 244.357 686.313 244.451 686.243 244.474C681.579 246.03 678.812 246.715 673.969 245.252C673.751 245.167 673.743 244.941 673.977 244.98Z" fill="#263238"/>
<path d="M674.894 250.496C679.752 250.955 682.442 250.76 686.997 249.018C687.019 249.008 687.043 249.008 687.065 249.017C687.087 249.026 687.104 249.043 687.114 249.064C687.123 249.086 687.123 249.11 687.115 249.132C687.106 249.154 687.089 249.172 687.067 249.181C682.597 251.414 679.239 251.678 674.902 250.644C674.606 250.566 674.591 250.496 674.894 250.496Z" fill="#263238"/>
<path d="M679.683 236.251C682.566 238.032 686.274 236.251 689.174 235.301C689.216 235.287 689.262 235.282 689.307 235.289C689.351 235.295 689.394 235.311 689.431 235.337C689.468 235.363 689.499 235.397 689.52 235.437C689.542 235.477 689.553 235.521 689.555 235.566C690.853 238.196 693.441 241.518 696.496 241.977C696.515 241.977 696.533 241.984 696.546 241.997C696.559 242.01 696.566 242.028 696.566 242.047C696.566 242.065 696.559 242.083 696.546 242.096C696.533 242.109 696.515 242.117 696.496 242.117C693.154 242.07 690.34 239.005 689.104 236.041C686.142 237.044 682.341 238.686 679.667 236.282C679.683 236.266 679.683 236.243 679.683 236.251Z" fill="#263238"/>
<path d="M720.967 206.64L739.475 209.2C739.475 209.2 740.532 195.009 740.027 187.548C739.522 180.087 735.176 175.878 729.619 185.867C724.9 194.324 720.967 206.64 720.967 206.64Z" fill="#37474F"/>
<path d="M727.877 218.792L728.483 245.097C728.483 245.097 770.382 238.647 780.635 236.157C780.635 236.157 764.07 189.602 750.863 179.363C744.201 174.252 737.749 175.808 734.29 180.748C733.412 182.001 723.625 200.813 723.407 207.403C723.159 213.222 727.877 218.792 727.877 218.792Z" fill="#112C32"/>
<path d="M744.341 178.142C744.341 178.998 741.489 185.089 737.718 185.673C736.49 185.86 735.177 179.192 735.177 179.192L734.967 178.725L732.036 172.151L739.032 165.328L740.066 164.402C740.066 164.402 740.75 166.254 741.574 168.572C741.613 168.681 741.652 168.782 741.691 168.899C741.73 169.016 741.792 169.148 741.831 169.273C741.963 169.615 742.087 169.973 742.211 170.323C742.336 170.673 742.398 170.852 742.483 171.14C742.569 171.428 742.67 171.7 742.763 171.988C743.429 174.001 743.956 176.057 744.341 178.142Z" fill="#F7A9A0"/>
<path d="M741.605 168.573C741.295 170.638 740.54 172.612 739.394 174.358C738.248 176.104 736.738 177.581 734.967 178.687L732.036 172.112L739.032 165.289L740.066 164.364C740.066 164.364 740.781 166.254 741.605 168.573Z" fill="#263238"/>
<path d="M719.21 165.694C723.143 177.691 730.769 176.687 733.357 175.808C735.689 175.03 743.595 172.097 740.921 159.75C738.247 147.403 731.422 145.466 725.965 146.975C720.508 148.484 715.269 153.705 719.21 165.694Z" fill="#F7A9A0"/>
<path d="M720.57 162.154C720.842 162.029 721.068 161.866 721.348 161.718C721.634 161.601 721.874 161.394 722.032 161.127C722.064 161.033 722.065 160.932 722.035 160.837C722.004 160.743 721.943 160.662 721.861 160.606C721.682 160.519 721.483 160.482 721.284 160.498C721.086 160.515 720.896 160.584 720.734 160.699C720.377 160.884 720.1 161.194 719.956 161.57C719.934 161.654 719.935 161.743 719.958 161.826C719.982 161.91 720.027 161.985 720.09 162.045C720.153 162.105 720.231 162.146 720.315 162.165C720.4 162.185 720.488 162.181 720.57 162.154Z" fill="#263238"/>
<path d="M728.499 159.641C728.213 159.691 727.925 159.724 727.636 159.742C727.335 159.819 727.018 159.791 726.734 159.664C726.653 159.608 726.591 159.527 726.561 159.433C726.53 159.339 726.531 159.237 726.563 159.143C726.657 158.968 726.796 158.822 726.965 158.719C727.135 158.616 727.329 158.561 727.527 158.56C727.925 158.488 728.336 158.569 728.678 158.785C728.754 158.838 728.814 158.913 728.848 159C728.883 159.086 728.891 159.181 728.872 159.272C728.853 159.364 728.807 159.447 728.741 159.513C728.674 159.579 728.59 159.623 728.499 159.641Z" fill="#263238"/>
<path d="M727.877 163.197C727.877 163.197 727.955 163.197 727.962 163.251C728.188 164.083 728.584 164.994 729.408 165.048V165.095C728.483 165.243 727.97 164.021 727.877 163.197Z" fill="#263238"/>
<path d="M728.367 162.115C729.665 161.617 730.567 164.239 729.37 164.706C728.172 165.173 727.286 162.535 728.367 162.115Z" fill="#263238"/>
<path d="M728.934 162.076C729.214 162.146 729.525 162.333 729.813 162.263C730.1 162.193 730.287 161.827 730.411 161.485C730.411 161.485 730.411 161.485 730.466 161.485C730.588 161.712 730.621 161.977 730.556 162.227C730.491 162.477 730.334 162.693 730.116 162.831C729.649 163.072 729.144 162.745 728.841 162.286C728.786 162.216 728.818 162.045 728.934 162.076Z" fill="#263238"/>
<path d="M723.128 164.628C723.128 164.628 723.081 164.69 723.128 164.721C723.446 165.499 723.663 166.495 723.027 167.055C723.027 167.055 723.027 167.11 723.027 167.094C723.857 166.627 723.555 165.336 723.128 164.628Z" fill="#263238"/>
<path d="M722.109 164.037C720.764 164.402 721.588 167.055 722.832 166.713C724.076 166.371 723.213 163.733 722.109 164.037Z" fill="#263238"/>
<path d="M721.612 164.387C721.441 164.589 721.316 164.908 721.068 165.002C720.819 165.095 720.485 164.893 720.213 164.675C720.353 165.188 720.687 165.663 721.2 165.608C721.713 165.554 721.861 165.025 721.829 164.48C721.791 164.418 721.658 164.301 721.612 164.387Z" fill="#263238"/>
<path d="M725.483 168.028C725.595 168.652 725.737 169.27 725.911 169.88C725.911 169.934 726.074 169.88 726.268 169.88C726.795 169.809 727.292 169.593 727.703 169.256C728.115 168.92 728.426 168.476 728.6 167.974C728.6 167.903 728.53 167.872 728.492 167.919C727.926 168.67 727.132 169.216 726.229 169.475C726.136 169.327 725.903 167.273 725.81 167.297C725.377 167.484 724.971 167.73 724.605 168.028C724.03 165.391 723.89 162.675 723.291 160.053C723.286 160.036 723.275 160.021 723.26 160.01C723.246 159.999 723.228 159.993 723.21 159.993C723.191 159.993 723.174 159.999 723.159 160.01C723.144 160.021 723.133 160.036 723.128 160.053C723.187 162.965 723.539 165.864 724.177 168.705C724.247 168.993 725.281 168.168 725.483 168.028Z" fill="#263238"/>
<path d="M739.949 160.326C737.081 161.477 732.409 153.137 731.85 152.11C732.168 152.779 733.855 156.319 733.645 156.576C733.34 156.707 733.013 156.783 732.681 156.801C732.492 156.372 732.268 155.958 732.013 155.564C731.904 155.37 732.129 156.023 732.363 156.848L731.772 156.934C731.398 156.004 730.904 155.128 730.303 154.327C730.069 154.032 730.652 155.588 730.917 157.066C728.191 157.424 725.513 158.084 722.934 159.034C722.211 159.322 721.604 159.594 721.083 159.859C720.842 159.192 720.567 158.538 720.26 157.898C720.335 158.631 720.478 159.355 720.687 160.061L719.91 160.481C719.179 159.019 718.837 156.319 718.759 156.786C718.546 158.224 718.607 159.689 718.938 161.104C718.013 161.757 717.819 162.076 717.671 161.827C716.679 158.749 716.812 155.419 718.044 152.429C720.112 147.528 726.797 143.568 733.039 146.983C733.039 146.983 737.26 147.675 739.258 150.873C741.255 154.071 741.613 159.657 739.949 160.326Z" fill="#263238"/>
<path d="M736.98 161.493C736.98 161.493 737.757 156.739 739.771 156.825C741.784 156.91 742.437 162.979 740.89 164.605C740.707 164.833 740.478 165.021 740.219 165.157C739.96 165.293 739.675 165.374 739.383 165.394C739.091 165.415 738.798 165.374 738.522 165.276C738.246 165.178 737.994 165.023 737.781 164.822L736.98 161.493Z" fill="#F7A9A0"/>
<path d="M739.91 158.583C739.91 158.583 739.965 158.583 739.91 158.63C738.845 159.804 738.744 161.376 738.869 162.885C738.881 162.715 738.93 162.55 739.012 162.4C739.095 162.251 739.209 162.122 739.347 162.021C739.484 161.92 739.642 161.851 739.809 161.817C739.976 161.784 740.149 161.787 740.314 161.827C740.361 161.827 740.353 161.905 740.314 161.913C740.046 161.951 739.797 162.072 739.6 162.259C739.404 162.446 739.271 162.689 739.218 162.955C739.129 163.401 739.09 163.855 739.102 164.309C739.102 164.457 738.853 164.504 738.83 164.309C737.982 162.636 738.185 159.633 739.91 158.583Z" fill="#263238"/>
<path d="M726.695 210.476H675.757V266.927H726.695V210.476Z" fill="#B93800"/>
<path opacity="0.1" d="M726.695 210.476H675.757V266.927H726.695V210.476Z" fill="black"/>
<path d="M649.46 266.935H675.757V210.483H649.46V266.935Z" fill="#B93800"/>
<path d="M696.9 222.675H697.981H698.789L699.256 221.733L699.901 222.675L700.779 220.745L701.611 222.675H703.997H705.086L705.482 221.383L705.848 222.675H706.555V210.476H696.9V222.675Z" fill="white"/>
<g opacity="0.1">
<path d="M651.271 263.045C653.214 259.03 655.145 255.003 657.062 250.963L662.768 238.826L668.396 226.635C670.266 222.558 672.116 218.471 673.946 214.373C671.997 218.388 670.067 222.415 668.155 226.456L662.449 238.6L656.813 250.791C654.958 254.863 653.111 258.948 651.271 263.045Z" fill="black"/>
<path d="M651.271 214.365C653.1 218.468 654.948 222.553 656.813 226.619L662.449 238.826L668.155 250.97C670.067 255.006 671.997 259.033 673.946 263.053C672.111 258.955 670.261 254.868 668.396 250.791L662.768 238.6L657.062 226.456C655.15 222.415 653.22 218.385 651.271 214.365Z" fill="black"/>
</g>
<path d="M735.145 222.682H684.214L675.765 210.476H726.696L735.145 222.682Z" fill="#B93800"/>
<g opacity="0.2">
<path d="M735.145 222.682H684.214L675.765 210.476H726.696L735.145 222.682Z" fill="black"/>
</g>
<path d="M667.307 222.69H641.088L649.537 210.476H675.765L667.307 222.69Z" fill="#B93800"/>
<path opacity="0.1" d="M667.307 222.69H641.088L649.537 210.476H675.765L667.307 222.69Z" fill="black"/>
<path d="M755.084 187.143C760.292 198.759 769.294 223.289 766.34 232.267C762.453 244.023 744.629 256.222 739.366 259.855C737.034 261.411 725.662 246.8 726.362 243.898C727.061 240.996 745.733 229.186 746.883 227.28C748.034 225.374 745.911 200.937 745.087 190.162C744.015 176.586 750.638 177.317 755.084 187.143Z" fill="#F7A9A0"/>
<path d="M721.052 251.725C721.674 250.441 721.005 250.107 718.72 251.212C716.435 252.316 708.397 258.626 706.438 255.623C704.479 252.62 715.968 243.898 719.886 242.35C723.804 240.802 730.699 239.666 730.699 239.666C728.818 241.813 724.713 247.462 721.052 251.725Z" fill="#F7A9A0"/>
<path d="M744.885 255.28C739.327 261.139 732.759 268.763 724.006 271.268C723.042 271.57 722.005 271.54 721.06 271.183C717.173 272.373 715.416 270.887 715.416 270.887C711.444 270.887 709.882 269.121 709.882 269.121C709.882 269.121 705.28 270.475 704.005 267.83C702.559 264.865 709.299 263.551 712.556 260.555C720.034 253.701 728.748 241.883 730.707 239.666L744.885 255.28Z" fill="#F7A9A0"/>
<path d="M725.444 258.883C723.277 260.911 720.973 262.788 718.549 264.5C715.786 266.214 712.899 267.719 709.913 269.004C709.893 269.012 709.877 269.026 709.869 269.045C709.86 269.064 709.859 269.086 709.866 269.106C709.873 269.125 709.888 269.141 709.907 269.15C709.926 269.159 709.948 269.159 709.967 269.152C715.982 267.243 721.359 263.721 725.514 258.968C725.631 258.875 725.545 258.782 725.444 258.883Z" fill="#263238"/>
<path d="M730.209 262.796C727.924 264.593 723.882 267.736 715.354 270.802C715.354 270.802 715.354 270.864 715.354 270.856C720.981 269.659 726.165 266.92 730.326 262.944C730.458 262.78 730.388 262.679 730.209 262.796Z" fill="#263238"/>
<path d="M732.775 264.951C728.771 267.861 725.872 269.191 721.068 271.175C721.068 271.175 721.068 271.237 721.068 271.222C726.766 269.565 728.647 268.312 732.876 265.091C733.039 264.959 732.93 264.835 732.775 264.951Z" fill="#263238"/>
<path d="M763.432 205.325L744.932 207.955C744.932 207.955 743.82 193.772 744.302 186.311C744.784 178.85 749.114 174.641 754.703 184.584C759.453 193.033 763.432 205.325 763.432 205.325Z" fill="#37474F"/>
<path d="M638.593 329.541H574.409V390.326H638.593V329.541Z" fill="#B93800"/>
<path d="M667.719 329.541H638.593V390.334H667.719V329.541Z" fill="#B93800"/>
<path opacity="0.1" d="M667.719 329.541H638.593V390.334H667.719V329.541Z" fill="black"/>
<path d="M665.691 386.148C663.53 381.822 661.392 377.486 659.278 373.14L652.958 360.062L646.74 346.929C644.667 342.552 642.617 338.143 640.591 333.703C642.752 338.024 644.889 342.36 647.004 346.711L653.324 359.782L659.542 372.914C661.631 377.323 663.68 381.734 665.691 386.148Z" fill="#B93800"/>
<path d="M665.691 333.742C663.664 338.151 661.617 342.559 659.55 346.968L653.331 360.101L647.035 373.14C644.92 377.491 642.783 381.828 640.622 386.148C642.648 381.729 644.697 377.32 646.77 372.922L652.989 359.789L659.309 346.719C661.418 342.378 663.545 338.052 665.691 333.742Z" fill="#B93800"/>
<path d="M611.705 342.681H610.539H609.668L609.171 341.67L608.471 342.681L607.523 340.596L606.629 342.681H604.056H602.89L602.462 341.289L602.066 342.681H601.304V329.541H611.705V342.681Z" fill="white"/>
<path d="M714.119 329.541H659.278V390.326H714.119V329.541Z" fill="#B93800"/>
<path d="M742.437 329.541H714.119V390.326H742.437V329.541Z" fill="#B93800"/>
<path opacity="0.1" d="M742.437 329.541H714.119V390.326H742.437V329.541Z" fill="black"/>
<path d="M691.35 342.681H690.192H689.314L688.816 341.67L688.124 342.681L687.176 340.596L686.274 342.681H683.709H682.535L682.116 341.289L681.719 342.681H680.95V329.541H691.35V342.681Z" fill="white"/>
<path d="M740.486 386.14C738.387 381.82 736.314 377.484 734.267 373.132L728.126 360.062L722.04 346.968C720.034 342.58 718.044 338.171 716.07 333.742C718.169 338.062 720.242 342.398 722.288 346.75L728.429 359.82L734.5 372.953C736.516 377.336 738.511 381.732 740.486 386.14Z" fill="#B93800"/>
<path d="M740.486 333.742C738.512 338.151 736.522 342.559 734.516 346.968L728.445 360.101L722.304 373.171C720.231 377.528 718.158 381.864 716.085 386.179C718.06 381.77 720.05 377.362 722.055 372.953L728.126 359.82L734.267 346.75C736.314 342.388 738.387 338.052 740.486 333.742Z" fill="#B93800"/>
<path d="M680.538 268.756H625.697V329.541H680.538V268.756Z" fill="#B93800"/>
<path d="M708.856 268.756H680.538V329.541H708.856V268.756Z" fill="#B93800"/>
<path opacity="0.1" d="M708.856 268.756H680.538V329.541H708.856V268.756Z" fill="black"/>
<path d="M657.77 281.896H656.612H655.733L655.236 280.885L654.544 281.896L653.596 279.811L652.694 281.896H650.129H648.955L648.535 280.503L648.139 281.896H647.377V268.756H657.77V281.896Z" fill="white"/>
<path d="M706.889 325.355C704.816 321.035 702.743 316.699 700.671 312.347L694.53 299.277L688.459 286.144C686.453 281.756 684.463 277.347 682.489 272.918C684.562 277.238 686.635 281.575 688.707 285.926L694.848 298.997L700.919 312.129C702.935 316.538 704.925 320.946 706.889 325.355Z" fill="#B93800"/>
<path d="M706.889 272.949C704.915 277.358 702.925 281.766 700.919 286.175L694.848 299.308L688.707 312.378C686.635 316.735 684.562 321.071 682.489 325.386C684.463 320.978 686.453 316.569 688.459 312.16L694.53 299.028L700.671 285.957C702.743 281.6 704.816 277.264 706.889 272.949Z" fill="#B93800"/>
<path d="M616.586 281.904H671.427L680.53 268.756H625.697L616.586 281.904Z" fill="#B93800"/>
<path opacity="0.1" d="M616.586 281.904H671.427L680.53 268.756H625.697L616.586 281.904Z" fill="black"/>
<path d="M689.632 281.904H717.873L708.77 268.756H680.53L689.632 281.904Z" fill="#B93800"/>
<path d="M517.85 329.549H463.009V390.334H517.85V329.549Z" fill="#DBDBDB"/>
<path d="M546.168 329.549H517.85V390.334H546.168V329.549Z" fill="#C7C7C7"/>
<path d="M495.081 342.681H493.923H493.053L492.555 341.67L491.855 342.681L490.907 340.596L490.013 342.681H487.44H486.274L485.847 341.289L485.45 342.681H484.688V329.549H495.081V342.681Z" fill="white"/>
<path d="M544.217 386.148C542.144 381.822 540.071 377.486 537.998 373.14L531.857 360.062L525.771 346.968C523.76 342.59 521.767 338.182 519.793 333.742C521.892 338.062 523.965 342.398 526.012 346.75L532.16 359.82L538.224 372.953C540.25 377.336 542.248 381.734 544.217 386.148Z" fill="#DBDBDB"/>
<path d="M544.217 333.742C542.248 338.151 540.258 342.559 538.247 346.968L532.184 360.101L526.035 373.179C523.962 377.53 521.889 381.866 519.816 386.187C521.791 381.768 523.783 377.359 525.794 372.961L531.857 359.828L537.998 346.758C540.05 342.401 542.123 338.062 544.217 333.742Z" fill="#DBDBDB"/>
<path d="M507.674 268.748H452.833V329.533H507.674V268.748Z" fill="#DBDBDB"/>
<path d="M535.993 268.756H507.674V329.541H535.993V268.756Z" fill="#C7C7C7"/>
<path d="M484.906 281.888H483.748H482.877L482.38 280.877L481.68 281.888L480.732 279.811L479.838 281.888H477.265H476.099L475.671 280.503L475.275 281.888H474.513V268.756H484.906V281.888Z" fill="white"/>
<path d="M534.049 325.355C531.977 321.029 529.904 316.693 527.831 312.347L521.69 299.269L515.627 286.136C513.616 281.759 511.623 277.35 509.649 272.91C511.748 277.236 513.821 281.572 515.868 285.918L522.009 298.996L528.072 312.129C530.088 316.533 532.08 320.941 534.049 325.355Z" fill="#DBDBDB"/>
<path d="M534.049 272.941C532.075 277.35 530.082 281.758 528.072 286.167L522.009 299.3L515.868 312.378C513.795 316.724 511.722 321.06 509.649 325.386C511.623 320.977 513.616 316.569 515.627 312.16L521.69 299.028L527.831 285.949C529.873 281.603 531.945 277.267 534.049 272.941Z" fill="#DBDBDB"/>
<path d="M443.731 281.896H498.564L507.674 268.748H452.834L443.731 281.896Z" fill="#C7C7C7"/>
<path d="M516.777 281.904H545.01L535.907 268.756H507.674L516.777 281.904Z" fill="#DBDBDB"/>
<path d="M737.108 115.448C731.86 115.448 727.551 114.211 724.18 111.736C720.809 109.219 718.996 105.635 718.74 100.984H732.116C732.244 102.563 732.713 103.715 733.524 104.44C734.335 105.165 735.38 105.528 736.66 105.528C737.812 105.528 738.751 105.251 739.476 104.696C740.244 104.099 740.628 103.288 740.628 102.264C740.628 100.941 740.009 99.9173 738.772 99.192C737.535 98.4667 735.529 97.656 732.756 96.76C729.812 95.7787 727.423 94.84 725.588 93.944C723.796 93.0053 722.217 91.6613 720.852 89.912C719.529 88.12 718.868 85.7947 718.868 82.936C718.868 80.0347 719.593 77.56 721.044 75.512C722.495 73.4213 724.5 71.8427 727.06 70.776C729.62 69.7093 732.521 69.176 735.764 69.176C741.012 69.176 745.193 70.4133 748.308 72.888C751.465 75.32 753.151 78.7547 753.364 83.192H739.732C739.689 81.8267 739.263 80.8027 738.452 80.12C737.684 79.4373 736.681 79.096 735.444 79.096C734.505 79.096 733.737 79.3733 733.14 79.928C732.543 80.4827 732.244 81.272 732.244 82.296C732.244 83.1493 732.564 83.896 733.204 84.536C733.887 85.1333 734.719 85.6667 735.7 86.136C736.681 86.5627 738.132 87.1173 740.052 87.8C742.911 88.7813 745.257 89.7627 747.092 90.744C748.969 91.6827 750.569 93.0267 751.892 94.776C753.257 96.4827 753.94 98.6587 753.94 101.304C753.94 103.992 753.257 106.403 751.892 108.536C750.569 110.669 748.628 112.355 746.068 113.592C743.551 114.829 740.564 115.448 737.108 115.448ZM796.508 79.096V115H783.9V109.88C782.833 111.501 781.361 112.824 779.484 113.848C777.606 114.829 775.452 115.32 773.02 115.32C768.838 115.32 765.532 113.955 763.1 111.224C760.71 108.451 759.516 104.696 759.516 99.96V79.096H771.996V98.36C771.996 100.408 772.529 102.029 773.596 103.224C774.705 104.376 776.156 104.952 777.948 104.952C779.782 104.952 781.233 104.376 782.3 103.224C783.366 102.029 783.9 100.408 783.9 98.36V79.096H796.508ZM801.599 97.016C801.599 93.304 802.26 90.0613 803.583 87.288C804.948 84.5147 806.783 82.3813 809.087 80.888C811.433 79.3947 814.036 78.648 816.895 78.648C819.369 78.648 821.503 79.1387 823.295 80.12C825.087 81.1013 826.473 82.424 827.455 84.088V79.096H839.999V115H827.455V110.008C826.473 111.672 825.065 112.995 823.231 113.976C821.439 114.957 819.327 115.448 816.895 115.448C814.036 115.448 811.433 114.701 809.087 113.208C806.783 111.715 804.948 109.581 803.583 106.808C802.26 103.992 801.599 100.728 801.599 97.016ZM827.455 97.016C827.455 94.712 826.815 92.8987 825.535 91.576C824.297 90.2533 822.761 89.592 820.927 89.592C819.049 89.592 817.492 90.2533 816.255 91.576C815.017 92.856 814.399 94.6693 814.399 97.016C814.399 99.32 815.017 101.155 816.255 102.52C817.492 103.843 819.049 104.504 820.927 104.504C822.761 104.504 824.297 103.843 825.535 102.52C826.815 101.197 827.455 99.3627 827.455 97.016ZM893.701 96.632C893.701 97.6133 893.637 98.5947 893.509 99.576H869.765C869.893 101.539 870.426 103.011 871.365 103.992C872.346 104.931 873.583 105.4 875.077 105.4C877.167 105.4 878.661 104.461 879.557 102.584H892.933C892.378 105.059 891.29 107.277 889.669 109.24C888.09 111.16 886.085 112.675 883.653 113.784C881.221 114.893 878.533 115.448 875.589 115.448C872.047 115.448 868.89 114.701 866.117 113.208C863.386 111.715 861.231 109.581 859.653 106.808C858.117 104.035 857.349 100.771 857.349 97.016C857.349 93.2613 858.117 90.0187 859.653 87.288C861.189 84.5147 863.322 82.3813 866.053 80.888C868.826 79.3947 872.005 78.648 875.589 78.648C879.13 78.648 882.266 79.3733 884.997 80.824C887.727 82.2747 889.861 84.3653 891.397 87.096C892.933 89.784 893.701 92.9627 893.701 96.632ZM880.901 93.496C880.901 91.96 880.389 90.7653 879.365 89.912C878.341 89.016 877.061 88.568 875.525 88.568C873.989 88.568 872.73 88.9947 871.749 89.848C870.767 90.6587 870.127 91.8747 869.829 93.496H880.901ZM945.746 78.776C950.269 78.776 953.81 80.1413 956.37 82.872C958.973 85.6027 960.274 89.336 960.274 94.072V115H947.73V95.736C947.73 93.816 947.197 92.3227 946.13 91.256C945.063 90.1893 943.613 89.656 941.778 89.656C939.943 89.656 938.493 90.1893 937.426 91.256C936.359 92.3227 935.826 93.816 935.826 95.736V115H923.282V95.736C923.282 93.816 922.749 92.3227 921.682 91.256C920.658 90.1893 919.229 89.656 917.394 89.656C915.517 89.656 914.045 90.1893 912.978 91.256C911.911 92.3227 911.378 93.816 911.378 95.736V115H898.834V79.096H911.378V83.832C912.487 82.296 913.917 81.08 915.666 80.184C917.458 79.2453 919.506 78.776 921.81 78.776C924.455 78.776 926.802 79.352 928.85 80.504C930.941 81.656 932.583 83.2773 933.778 85.368C935.058 83.4053 936.743 81.8267 938.834 80.632C940.925 79.3947 943.229 78.776 945.746 78.776ZM979.691 84.088C980.672 82.424 982.059 81.1013 983.851 80.12C985.643 79.1387 987.755 78.648 990.187 78.648C993.045 78.648 995.627 79.3947 997.931 80.888C1000.28 82.3813 1002.11 84.5147 1003.43 87.288C1004.8 90.0613 1005.48 93.304 1005.48 97.016C1005.48 100.728 1004.8 103.992 1003.43 106.808C1002.11 109.581 1000.28 111.715 997.931 113.208C995.627 114.701 993.045 115.448 990.187 115.448C987.755 115.448 985.643 114.957 983.851 113.976C982.101 112.995 980.715 111.672 979.691 110.008V132.152H967.147V79.096H979.691V84.088ZM992.747 97.016C992.747 94.6693 992.107 92.856 990.827 91.576C989.589 90.2533 988.053 89.592 986.219 89.592C984.384 89.592 982.827 90.2533 981.547 91.576C980.309 92.8987 979.691 94.712 979.691 97.016C979.691 99.3627 980.309 101.197 981.547 102.52C982.827 103.843 984.384 104.504 986.219 104.504C988.053 104.504 989.589 103.843 990.827 102.52C992.107 101.155 992.747 99.32 992.747 97.016ZM1023.19 85.432C1024.6 83.384 1026.31 81.7627 1028.31 80.568C1030.32 79.3733 1032.47 78.776 1034.77 78.776V92.152H1031.25C1028.52 92.152 1026.5 92.6853 1025.17 93.752C1023.85 94.8187 1023.19 96.6747 1023.19 99.32V115H1010.65V79.096H1023.19V85.432ZM1073.58 96.632C1073.58 97.6133 1073.51 98.5947 1073.38 99.576H1049.64C1049.77 101.539 1050.3 103.011 1051.24 103.992C1052.22 104.931 1053.46 105.4 1054.95 105.4C1057.04 105.4 1058.54 104.461 1059.43 102.584H1072.81C1072.25 105.059 1071.16 107.277 1069.54 109.24C1067.96 111.16 1065.96 112.675 1063.53 113.784C1061.1 114.893 1058.41 115.448 1055.46 115.448C1051.92 115.448 1048.76 114.701 1045.99 113.208C1043.26 111.715 1041.11 109.581 1039.53 106.808C1037.99 104.035 1037.22 100.771 1037.22 97.016C1037.22 93.2613 1037.99 90.0187 1039.53 87.288C1041.06 84.5147 1043.2 82.3813 1045.93 80.888C1048.7 79.3947 1051.88 78.648 1055.46 78.648C1059 78.648 1062.14 79.3733 1064.87 80.824C1067.6 82.2747 1069.74 84.3653 1071.27 87.096C1072.81 89.784 1073.58 92.9627 1073.58 96.632ZM1060.78 93.496C1060.78 91.96 1060.26 90.7653 1059.24 89.912C1058.22 89.016 1056.94 88.568 1055.4 88.568C1053.86 88.568 1052.6 88.9947 1051.62 89.848C1050.64 90.6587 1050 91.8747 1049.7 93.496H1060.78ZM1094.01 115.448C1090.76 115.448 1087.86 114.915 1085.3 113.848C1082.78 112.739 1080.78 111.245 1079.29 109.368C1077.83 107.448 1077.02 105.293 1076.85 102.904H1089.01C1089.18 104.056 1089.72 104.952 1090.61 105.592C1091.51 106.232 1092.62 106.552 1093.94 106.552C1094.97 106.552 1095.78 106.339 1096.37 105.912C1096.97 105.485 1097.27 104.931 1097.27 104.248C1097.27 103.352 1096.78 102.691 1095.8 102.264C1094.82 101.837 1093.19 101.368 1090.93 100.856C1088.37 100.344 1086.24 99.768 1084.53 99.128C1082.83 98.488 1081.33 97.4427 1080.05 95.992C1078.82 94.5413 1078.2 92.5787 1078.2 90.104C1078.2 87.9707 1078.77 86.0507 1079.93 84.344C1081.08 82.5947 1082.76 81.208 1084.98 80.184C1087.24 79.16 1089.95 78.648 1093.11 78.648C1097.8 78.648 1101.49 79.8 1104.18 82.104C1106.87 84.408 1108.43 87.4373 1108.85 91.192H1097.53C1097.31 90.04 1096.8 89.1653 1095.99 88.568C1095.22 87.928 1094.18 87.608 1092.85 87.608C1091.83 87.608 1091.04 87.8 1090.49 88.184C1089.97 88.568 1089.72 89.1013 1089.72 89.784C1089.72 90.6373 1090.21 91.2987 1091.19 91.768C1092.17 92.1947 1093.75 92.6427 1095.93 93.112C1098.53 93.6667 1100.68 94.2853 1102.39 94.968C1104.14 95.6507 1105.65 96.76 1106.93 98.296C1108.26 99.7893 1108.92 101.837 1108.92 104.44C1108.92 106.531 1108.3 108.408 1107.06 110.072C1105.87 111.736 1104.14 113.059 1101.88 114.04C1099.66 114.979 1097.03 115.448 1094.01 115.448ZM1113.04 97.016C1113.04 93.304 1113.7 90.0613 1115.02 87.288C1116.39 84.5147 1118.22 82.3813 1120.52 80.888C1122.87 79.3947 1125.47 78.648 1128.33 78.648C1130.81 78.648 1132.94 79.1387 1134.73 80.12C1136.52 81.1013 1137.91 82.424 1138.89 84.088V79.096H1151.44V115H1138.89V110.008C1137.91 111.672 1136.5 112.995 1134.67 113.976C1132.88 114.957 1130.76 115.448 1128.33 115.448C1125.47 115.448 1122.87 114.701 1120.52 113.208C1118.22 111.715 1116.39 109.581 1115.02 106.808C1113.7 103.992 1113.04 100.728 1113.04 97.016ZM1138.89 97.016C1138.89 94.712 1138.25 92.8987 1136.97 91.576C1135.73 90.2533 1134.2 89.592 1132.36 89.592C1130.49 89.592 1128.93 90.2533 1127.69 91.576C1126.45 92.856 1125.84 94.6693 1125.84 97.016C1125.84 99.32 1126.45 101.155 1127.69 102.52C1128.93 103.843 1130.49 104.504 1132.36 104.504C1134.2 104.504 1135.73 103.843 1136.97 102.52C1138.25 101.197 1138.89 99.3627 1138.89 97.016ZM793.832 155.648C796.264 155.648 798.376 156.139 800.168 157.12C802.003 158.101 803.411 159.424 804.392 161.088V156.096H816.936V191.616C816.936 194.987 816.296 198.016 815.016 200.704C813.736 203.435 811.731 205.611 809 207.232C806.312 208.853 802.899 209.664 798.76 209.664C793.213 209.664 788.776 208.363 785.448 205.76C782.12 203.157 780.221 199.616 779.752 195.136H792.104C792.36 196.288 793 197.184 794.024 197.824C795.048 198.464 796.371 198.784 797.992 198.784C802.259 198.784 804.392 196.395 804.392 191.616V187.008C803.411 188.672 802.003 189.995 800.168 190.976C798.376 191.957 796.264 192.448 793.832 192.448C790.973 192.448 788.371 191.701 786.024 190.208C783.72 188.715 781.885 186.581 780.52 183.808C779.197 180.992 778.536 177.728 778.536 174.016C778.536 170.304 779.197 167.061 780.52 164.288C781.885 161.515 783.72 159.381 786.024 157.888C788.371 156.395 790.973 155.648 793.832 155.648ZM804.392 174.016C804.392 171.712 803.752 169.899 802.472 168.576C801.235 167.253 799.699 166.592 797.864 166.592C795.987 166.592 794.429 167.253 793.192 168.576C791.955 169.856 791.336 171.669 791.336 174.016C791.336 176.32 791.955 178.155 793.192 179.52C794.429 180.843 795.987 181.504 797.864 181.504C799.699 181.504 801.235 180.843 802.472 179.52C803.752 178.197 804.392 176.363 804.392 174.016ZM840.788 192.448C837.204 192.448 833.983 191.701 831.124 190.208C828.308 188.715 826.089 186.581 824.468 183.808C822.847 181.035 822.036 177.771 822.036 174.016C822.036 170.304 822.847 167.061 824.468 164.288C826.132 161.515 828.372 159.381 831.188 157.888C834.047 156.395 837.268 155.648 840.852 155.648C844.436 155.648 847.636 156.395 850.452 157.888C853.311 159.381 855.551 161.515 857.172 164.288C858.836 167.061 859.668 170.304 859.668 174.016C859.668 177.728 858.836 180.992 857.172 183.808C855.551 186.581 853.311 188.715 850.452 190.208C847.593 191.701 844.372 192.448 840.788 192.448ZM840.788 181.568C842.537 181.568 843.988 180.928 845.14 179.648C846.335 178.325 846.932 176.448 846.932 174.016C846.932 171.584 846.335 169.728 845.14 168.448C843.988 167.168 842.559 166.528 840.852 166.528C839.145 166.528 837.716 167.168 836.564 168.448C835.412 169.728 834.836 171.584 834.836 174.016C834.836 176.491 835.391 178.368 836.5 179.648C837.609 180.928 839.039 181.568 840.788 181.568ZM880.068 192.448C876.825 192.448 873.924 191.915 871.364 190.848C868.846 189.739 866.841 188.245 865.348 186.368C863.897 184.448 863.086 182.293 862.916 179.904H875.076C875.246 181.056 875.78 181.952 876.676 182.592C877.572 183.232 878.681 183.552 880.003 183.552C881.028 183.552 881.838 183.339 882.436 182.912C883.033 182.485 883.332 181.931 883.332 181.248C883.332 180.352 882.841 179.691 881.86 179.264C880.878 178.837 879.257 178.368 876.996 177.856C874.436 177.344 872.302 176.768 870.595 176.128C868.889 175.488 867.396 174.443 866.116 172.992C864.878 171.541 864.26 169.579 864.26 167.104C864.26 164.971 864.836 163.051 865.988 161.344C867.14 159.595 868.825 158.208 871.044 157.184C873.305 156.16 876.014 155.648 879.172 155.648C883.865 155.648 887.556 156.8 890.244 159.104C892.932 161.408 894.489 164.437 894.916 168.192H883.588C883.374 167.04 882.862 166.165 882.052 165.568C881.284 164.928 880.238 164.608 878.916 164.608C877.892 164.608 877.102 164.8 876.548 165.184C876.036 165.568 875.78 166.101 875.78 166.784C875.78 167.637 876.27 168.299 877.252 168.768C878.233 169.195 879.812 169.643 881.988 170.112C884.59 170.667 886.745 171.285 888.452 171.968C890.201 172.651 891.716 173.76 892.996 175.296C894.318 176.789 894.979 178.837 894.979 181.44C894.979 183.531 894.361 185.408 893.124 187.072C891.929 188.736 890.201 190.059 887.94 191.04C885.721 191.979 883.097 192.448 880.068 192.448ZM922.331 181.312V192H916.891C907.717 192 903.131 187.456 903.131 178.368V166.528H898.715V156.096H903.131V147.392H915.739V156.096H922.267V166.528H915.739V178.56C915.739 179.541 915.952 180.245 916.378 180.672C916.848 181.099 917.616 181.312 918.683 181.312H922.331ZM926.036 174.016C926.036 170.304 926.697 167.061 928.02 164.288C929.385 161.515 931.22 159.381 933.524 157.888C935.871 156.395 938.473 155.648 941.332 155.648C943.807 155.648 945.94 156.139 947.732 157.12C949.524 158.101 950.911 159.424 951.892 161.088V156.096H964.436V192H951.892V187.008C950.911 188.672 949.503 189.995 947.668 190.976C945.876 191.957 943.764 192.448 941.332 192.448C938.473 192.448 935.871 191.701 933.524 190.208C931.22 188.715 929.385 186.581 928.02 183.808C926.697 180.992 926.036 177.728 926.036 174.016ZM951.892 174.016C951.892 171.712 951.252 169.899 949.972 168.576C948.735 167.253 947.199 166.592 945.364 166.592C943.487 166.592 941.929 167.253 940.692 168.576C939.455 169.856 938.836 171.669 938.836 174.016C938.836 176.32 939.455 178.155 940.692 179.52C941.929 180.843 943.487 181.504 945.364 181.504C947.199 181.504 948.735 180.843 949.972 179.52C951.252 178.197 951.892 176.363 951.892 174.016ZM984.128 162.432C985.536 160.384 987.243 158.763 989.248 157.568C991.253 156.373 993.408 155.776 995.712 155.776V169.152H992.192C989.461 169.152 987.435 169.685 986.112 170.752C984.789 171.819 984.128 173.675 984.128 176.32V192H971.584V156.096H984.128V162.432ZM1006.55 152.768C1004.33 152.768 1002.53 152.171 1001.17 150.976C999.846 149.739 999.185 148.203 999.185 146.368C999.185 144.491 999.846 142.933 1001.17 141.696C1002.53 140.459 1004.33 139.84 1006.55 139.84C1008.72 139.84 1010.47 140.459 1011.79 141.696C1013.16 142.933 1013.84 144.491 1013.84 146.368C1013.84 148.203 1013.16 149.739 1011.79 150.976C1010.47 152.171 1008.72 152.768 1006.55 152.768ZM1012.75 156.096V192H1000.21V156.096H1012.75ZM1017.85 174.016C1017.85 170.304 1018.51 167.061 1019.83 164.288C1021.2 161.515 1023.03 159.381 1025.34 157.888C1027.68 156.395 1030.29 155.648 1033.14 155.648C1035.62 155.648 1037.75 156.139 1039.54 157.12C1041.34 158.101 1042.72 159.424 1043.7 161.088V156.096H1056.25V192H1043.7V187.008C1042.72 188.672 1041.32 189.995 1039.48 190.976C1037.69 191.957 1035.58 192.448 1033.14 192.448C1030.29 192.448 1027.68 191.701 1025.34 190.208C1023.03 188.715 1021.2 186.581 1019.83 183.808C1018.51 180.992 1017.85 177.728 1017.85 174.016ZM1043.7 174.016C1043.7 171.712 1043.06 169.899 1041.78 168.576C1040.55 167.253 1039.01 166.592 1037.18 166.592C1035.3 166.592 1033.74 167.253 1032.5 168.576C1031.27 169.856 1030.65 171.669 1030.65 174.016C1030.65 176.32 1031.27 178.155 1032.5 179.52C1033.74 180.843 1035.3 181.504 1037.18 181.504C1039.01 181.504 1040.55 180.843 1041.78 179.52C1043.06 178.197 1043.7 176.363 1043.7 174.016ZM1073.6 174.016C1073.6 170.304 1074.26 167.061 1075.58 164.288C1076.95 161.515 1078.8 159.381 1081.15 157.888C1083.5 156.395 1086.1 155.648 1088.96 155.648C1091.26 155.648 1093.31 156.139 1095.1 157.12C1096.94 158.059 1098.37 159.36 1099.39 161.024V144.64H1112V192H1099.39V187.008C1098.41 188.672 1097.02 189.995 1095.23 190.976C1093.44 191.957 1091.33 192.448 1088.89 192.448C1086.04 192.448 1083.43 191.701 1081.09 190.208C1078.78 188.715 1076.95 186.581 1075.58 183.808C1074.26 180.992 1073.6 177.728 1073.6 174.016ZM1099.45 174.016C1099.45 171.712 1098.81 169.899 1097.53 168.576C1096.3 167.253 1094.76 166.592 1092.93 166.592C1091.05 166.592 1089.49 167.253 1088.25 168.576C1087.02 169.856 1086.4 171.669 1086.4 174.016C1086.4 176.32 1087.02 178.155 1088.25 179.52C1089.49 180.843 1091.05 181.504 1092.93 181.504C1094.76 181.504 1096.3 180.843 1097.53 179.52C1098.81 178.197 1099.45 176.363 1099.45 174.016ZM1153.45 173.632C1153.45 174.613 1153.39 175.595 1153.26 176.576H1129.51C1129.64 178.539 1130.18 180.011 1131.11 180.992C1132.1 181.931 1133.33 182.4 1134.83 182.4C1136.92 182.4 1138.41 181.461 1139.31 179.584H1152.68C1152.13 182.059 1151.04 184.277 1149.42 186.24C1147.84 188.16 1145.83 189.675 1143.4 190.784C1140.97 191.893 1138.28 192.448 1135.34 192.448C1131.8 192.448 1128.64 191.701 1125.87 190.208C1123.14 188.715 1120.98 186.581 1119.4 183.808C1117.87 181.035 1117.1 177.771 1117.1 174.016C1117.1 170.261 1117.87 167.019 1119.4 164.288C1120.94 161.515 1123.07 159.381 1125.8 157.888C1128.58 156.395 1131.75 155.648 1135.34 155.648C1138.88 155.648 1142.02 156.373 1144.75 157.824C1147.48 159.275 1149.61 161.365 1151.15 164.096C1152.68 166.784 1153.45 169.963 1153.45 173.632ZM1140.65 170.496C1140.65 168.96 1140.14 167.765 1139.11 166.912C1138.09 166.016 1136.81 165.568 1135.27 165.568C1133.74 165.568 1132.48 165.995 1131.5 166.848C1130.52 167.659 1129.88 168.875 1129.58 170.496H1140.65ZM885.664 243.528H880.032V269H867.424V243.528H863.52V233.096H867.424V232.776C867.424 228.168 868.768 224.648 871.456 222.216C874.186 219.741 878.09 218.504 883.168 218.504C884.192 218.504 884.981 218.525 885.536 218.568V229.256C885.194 229.213 884.725 229.192 884.128 229.192C882.762 229.192 881.76 229.512 881.12 230.152C880.48 230.749 880.117 231.731 880.032 233.096H885.664V243.528ZM888.099 251.016C888.099 247.304 888.76 244.061 890.083 241.288C891.448 238.515 893.283 236.381 895.587 234.888C897.933 233.395 900.536 232.648 903.395 232.648C905.869 232.648 908.003 233.139 909.795 234.12C911.587 235.101 912.973 236.424 913.955 238.088V233.096H926.499V269H913.955V264.008C912.973 265.672 911.565 266.995 909.731 267.976C907.939 268.957 905.827 269.448 903.395 269.448C900.536 269.448 897.933 268.701 895.587 267.208C893.283 265.715 891.448 263.581 890.083 260.808C888.76 257.992 888.099 254.728 888.099 251.016ZM913.955 251.016C913.955 248.712 913.315 246.899 912.035 245.576C910.797 244.253 909.261 243.592 907.427 243.592C905.549 243.592 903.992 244.253 902.755 245.576C901.517 246.856 900.899 248.669 900.899 251.016C900.899 253.32 901.517 255.155 902.755 256.52C903.992 257.843 905.549 258.504 907.427 258.504C909.261 258.504 910.797 257.843 912.035 256.52C913.315 255.197 913.955 253.363 913.955 251.016ZM945.551 258.568H960.847V269H931.727V259.08L945.999 243.528H931.855V233.096H960.335V243.016L945.551 258.568ZM1000.39 250.632C1000.39 251.613 1000.32 252.595 1000.2 253.576H976.452C976.58 255.539 977.113 257.011 978.052 257.992C979.033 258.931 980.271 259.4 981.764 259.4C983.855 259.4 985.348 258.461 986.244 256.584H999.62C999.065 259.059 997.977 261.277 996.356 263.24C994.777 265.16 992.772 266.675 990.34 267.784C987.908 268.893 985.22 269.448 982.276 269.448C978.735 269.448 975.577 268.701 972.804 267.208C970.073 265.715 967.919 263.581 966.34 260.808C964.804 258.035 964.036 254.771 964.036 251.016C964.036 247.261 964.804 244.019 966.34 241.288C967.876 238.515 970.009 236.381 972.74 234.888C975.513 233.395 978.692 232.648 982.276 232.648C985.817 232.648 988.953 233.373 991.684 234.824C994.415 236.275 996.548 238.365 998.084 241.096C999.62 243.784 1000.39 246.963 1000.39 250.632ZM987.588 247.496C987.588 245.96 987.076 244.765 986.052 243.912C985.028 243.016 983.748 242.568 982.212 242.568C980.676 242.568 979.417 242.995 978.436 243.848C977.455 244.659 976.815 245.875 976.516 247.496H987.588ZM1018.07 239.432C1019.47 237.384 1021.18 235.763 1023.19 234.568C1025.19 233.373 1027.35 232.776 1029.65 232.776V246.152H1026.13C1023.4 246.152 1021.37 246.685 1020.05 247.752C1018.73 248.819 1018.07 250.675 1018.07 253.32V269H1005.52V233.096H1018.07V239.432ZM1083.13 233.096V269H1070.52V263.88C1069.46 265.501 1067.99 266.824 1066.11 267.848C1064.23 268.829 1062.08 269.32 1059.64 269.32C1055.46 269.32 1052.16 267.955 1049.72 265.224C1047.34 262.451 1046.14 258.696 1046.14 253.96V233.096H1058.62V252.36C1058.62 254.408 1059.15 256.029 1060.22 257.224C1061.33 258.376 1062.78 258.952 1064.57 258.952C1066.41 258.952 1067.86 258.376 1068.92 257.224C1069.99 256.029 1070.52 254.408 1070.52 252.36V233.096H1083.13ZM1137.18 232.776C1141.71 232.776 1145.25 234.141 1147.81 236.872C1150.41 239.603 1151.71 243.336 1151.71 248.072V269H1139.17V249.736C1139.17 247.816 1138.63 246.323 1137.57 245.256C1136.5 244.189 1135.05 243.656 1133.22 243.656C1131.38 243.656 1129.93 244.189 1128.86 245.256C1127.8 246.323 1127.26 247.816 1127.26 249.736V269H1114.72V249.736C1114.72 247.816 1114.19 246.323 1113.12 245.256C1112.1 244.189 1110.67 243.656 1108.83 243.656C1106.95 243.656 1105.48 244.189 1104.42 245.256C1103.35 246.323 1102.82 247.816 1102.82 249.736V269H1090.27V233.096H1102.82V237.832C1103.92 236.296 1105.35 235.08 1107.1 234.184C1108.9 233.245 1110.94 232.776 1113.25 232.776C1115.89 232.776 1118.24 233.352 1120.29 234.504C1122.38 235.656 1124.02 237.277 1125.22 239.368C1126.5 237.405 1128.18 235.827 1130.27 234.632C1132.36 233.395 1134.67 232.776 1137.18 232.776ZM871.349 328.016C871.349 324.304 872.01 321.061 873.333 318.288C874.698 315.515 876.554 313.381 878.901 311.888C881.247 310.395 883.85 309.648 886.708 309.648C889.013 309.648 891.061 310.139 892.853 311.12C894.687 312.059 896.117 313.36 897.141 315.024V298.64H909.749V346H897.141V341.008C896.159 342.672 894.773 343.995 892.981 344.976C891.189 345.957 889.077 346.448 886.645 346.448C883.786 346.448 881.183 345.701 878.837 344.208C876.533 342.715 874.698 340.581 873.333 337.808C872.01 334.992 871.349 331.728 871.349 328.016ZM897.205 328.016C897.205 325.712 896.565 323.899 895.285 322.576C894.047 321.253 892.511 320.592 890.677 320.592C888.799 320.592 887.242 321.253 886.005 322.576C884.767 323.856 884.149 325.669 884.149 328.016C884.149 330.32 884.767 332.155 886.005 333.52C887.242 334.843 888.799 335.504 890.677 335.504C892.511 335.504 894.047 334.843 895.285 333.52C896.565 332.197 897.205 330.363 897.205 328.016ZM933.601 346.448C930.017 346.448 926.795 345.701 923.937 344.208C921.121 342.715 918.902 340.581 917.281 337.808C915.659 335.035 914.849 331.771 914.849 328.016C914.849 324.304 915.659 321.061 917.281 318.288C918.945 315.515 921.185 313.381 924.001 311.888C926.859 310.395 930.081 309.648 933.665 309.648C937.249 309.648 940.449 310.395 943.265 311.888C946.123 313.381 948.363 315.515 949.985 318.288C951.649 321.061 952.481 324.304 952.481 328.016C952.481 331.728 951.649 334.992 949.985 337.808C948.363 340.581 946.123 342.715 943.265 344.208C940.406 345.701 937.185 346.448 933.601 346.448ZM933.601 335.568C935.35 335.568 936.801 334.928 937.953 333.648C939.147 332.325 939.745 330.448 939.745 328.016C939.745 325.584 939.147 323.728 937.953 322.448C936.801 321.168 935.371 320.528 933.665 320.528C931.958 320.528 930.529 321.168 929.377 322.448C928.225 323.728 927.649 325.584 927.649 328.016C927.649 330.491 928.203 332.368 929.312 333.648C930.422 334.928 931.851 335.568 933.601 335.568ZM955.536 328.016C955.536 324.304 956.197 321.061 957.52 318.288C958.885 315.515 960.72 313.381 963.024 311.888C965.371 310.395 967.973 309.648 970.832 309.648C973.307 309.648 975.44 310.139 977.232 311.12C979.024 312.101 980.411 313.424 981.392 315.088V310.096H993.936V346H981.392V341.008C980.411 342.672 979.003 343.995 977.168 344.976C975.376 345.957 973.264 346.448 970.832 346.448C967.973 346.448 965.371 345.701 963.024 344.208C960.72 342.715 958.885 340.581 957.52 337.808C956.197 334.992 955.536 331.728 955.536 328.016ZM981.392 328.016C981.392 325.712 980.752 323.899 979.472 322.576C978.235 321.253 976.699 320.592 974.864 320.592C972.987 320.592 971.429 321.253 970.192 322.576C968.955 323.856 968.336 325.669 968.336 328.016C968.336 330.32 968.955 332.155 970.192 333.52C971.429 334.843 972.987 335.504 974.864 335.504C976.699 335.504 978.235 334.843 979.472 333.52C980.752 332.197 981.392 330.363 981.392 328.016ZM1016.96 335.76C1019.22 335.76 1020.71 334.587 1021.44 332.24H1034.75C1033.98 336.037 1032.38 339.152 1029.95 341.584C1027.56 343.973 1024.55 345.488 1020.92 346.128V348.368C1023.01 348.368 1024.91 348.987 1026.62 350.224C1028.37 351.461 1029.24 353.36 1029.24 355.92C1029.24 358.523 1028.33 360.443 1026.49 361.68C1024.66 362.917 1022.48 363.536 1019.96 363.536H1009.53V356.944H1018.49C1019.9 356.944 1020.6 356.496 1020.6 355.6C1020.6 354.704 1019.9 354.256 1018.49 354.256H1013.5V346.128C1009.11 345.403 1005.59 343.44 1002.94 340.24C1000.34 337.04 999.036 332.965 999.036 328.016C999.036 324.304 999.804 321.061 1001.34 318.288C1002.88 315.515 1005.01 313.381 1007.74 311.888C1010.51 310.395 1013.67 309.648 1017.21 309.648C1021.78 309.648 1025.62 310.907 1028.73 313.424C1031.85 315.899 1033.85 319.376 1034.75 323.856H1021.44C1020.67 321.509 1019.17 320.336 1016.96 320.336C1015.38 320.336 1014.12 320.997 1013.18 322.32C1012.28 323.6 1011.84 325.499 1011.84 328.016C1011.84 330.533 1012.28 332.453 1013.18 333.776C1014.12 335.099 1015.38 335.76 1016.96 335.76ZM1037.91 328.016C1037.91 324.304 1038.57 321.061 1039.9 318.288C1041.26 315.515 1043.1 313.381 1045.4 311.888C1047.75 310.395 1050.35 309.648 1053.21 309.648C1055.68 309.648 1057.82 310.139 1059.61 311.12C1061.4 312.101 1062.79 313.424 1063.77 315.088V310.096H1076.31V346H1063.77V341.008C1062.79 342.672 1061.38 343.995 1059.54 344.976C1057.75 345.957 1055.64 346.448 1053.21 346.448C1050.35 346.448 1047.75 345.701 1045.4 344.208C1043.1 342.715 1041.26 340.581 1039.9 337.808C1038.57 334.992 1037.91 331.728 1037.91 328.016ZM1063.77 328.016C1063.77 325.712 1063.13 323.899 1061.85 322.576C1060.61 321.253 1059.07 320.592 1057.24 320.592C1055.36 320.592 1053.8 321.253 1052.57 322.576C1051.33 323.856 1050.71 325.669 1050.71 328.016C1050.71 330.32 1051.33 332.155 1052.57 333.52C1053.8 334.843 1055.36 335.504 1057.24 335.504C1059.07 335.504 1060.61 334.843 1061.85 333.52C1063.13 332.197 1063.77 330.363 1063.77 328.016ZM1044.5 307.408C1045.7 300.453 1048.9 296.976 1054.1 296.976C1055.08 296.976 1055.96 297.125 1056.73 297.424C1057.54 297.723 1058.46 298.149 1059.48 298.704C1060.2 299.088 1060.82 299.387 1061.34 299.6C1061.85 299.813 1062.36 299.92 1062.87 299.92C1064.45 299.92 1065.39 298.939 1065.69 296.976H1072.02C1071.43 300.603 1070.3 303.248 1068.63 304.912C1067.01 306.533 1064.94 307.344 1062.42 307.344C1061.48 307.344 1060.63 307.216 1059.86 306.96C1059.1 306.661 1058.16 306.235 1057.05 305.68C1056.32 305.296 1055.7 304.997 1055.19 304.784C1054.68 304.571 1054.17 304.464 1053.66 304.464C1052.12 304.464 1051.16 305.445 1050.78 307.408H1044.5ZM1100.16 346.448C1096.58 346.448 1093.36 345.701 1090.5 344.208C1087.68 342.715 1085.46 340.581 1083.84 337.808C1082.22 335.035 1081.41 331.771 1081.41 328.016C1081.41 324.304 1082.22 321.061 1083.84 318.288C1085.51 315.515 1087.75 313.381 1090.56 311.888C1093.42 310.395 1096.64 309.648 1100.23 309.648C1103.81 309.648 1107.01 310.395 1109.83 311.888C1112.69 313.381 1114.93 315.515 1116.55 318.288C1118.21 321.061 1119.04 324.304 1119.04 328.016C1119.04 331.728 1118.21 334.992 1116.55 337.808C1114.93 340.581 1112.69 342.715 1109.83 344.208C1106.97 345.701 1103.75 346.448 1100.16 346.448ZM1100.16 335.568C1101.91 335.568 1103.36 334.928 1104.52 333.648C1105.71 332.325 1106.31 330.448 1106.31 328.016C1106.31 325.584 1105.71 323.728 1104.52 322.448C1103.36 321.168 1101.93 320.528 1100.23 320.528C1098.52 320.528 1097.09 321.168 1095.94 322.448C1094.79 323.728 1094.21 325.584 1094.21 328.016C1094.21 330.491 1094.77 332.368 1095.88 333.648C1096.98 334.928 1098.41 335.568 1100.16 335.568ZM1137.84 297.552C1142.49 297.552 1146.23 298.747 1149.04 301.136C1151.86 303.525 1153.27 306.939 1153.27 311.376C1153.27 315.259 1151.97 318.331 1149.36 320.592C1146.8 322.853 1143.41 324.027 1139.19 324.112L1138.87 328.784H1127.79L1127.41 316.048H1132.02C1134.92 316.048 1137.14 315.728 1138.67 315.088C1140.21 314.405 1140.98 313.211 1140.98 311.504C1140.98 310.352 1140.66 309.456 1140.02 308.816C1139.42 308.133 1138.59 307.792 1137.52 307.792C1136.33 307.792 1135.41 308.155 1134.77 308.88C1134.17 309.563 1133.87 310.501 1133.87 311.696H1122.03C1121.95 309.093 1122.48 306.725 1123.63 304.592C1124.83 302.416 1126.62 300.709 1129.01 299.472C1131.4 298.192 1134.34 297.552 1137.84 297.552ZM1133.43 346.512C1131.21 346.512 1129.42 345.915 1128.05 344.72C1126.73 343.483 1126.07 341.925 1126.07 340.048C1126.07 338.171 1126.73 336.613 1128.05 335.376C1129.42 334.139 1131.21 333.52 1133.43 333.52C1135.6 333.52 1137.35 334.139 1138.67 335.376C1140.04 336.613 1140.72 338.171 1140.72 340.048C1140.72 341.883 1140.04 343.419 1138.67 344.656C1137.35 345.893 1135.6 346.512 1133.43 346.512Z" fill="#B93800"/>
</svg>
