<svg width="360" height="309" viewBox="0 0 360 309" fill="none" xmlns="http://www.w3.org/2000/svg">
<rect width="360" height="309" fill="white"/>
<path d="M23 34H335V274C335 285.046 326.046 294 315 294H43C31.9543 294 23 285.046 23 274V34Z" fill="url(#paint0_linear_56_1031)"/>
<g clip-path="url(#clip0_56_1031)">
<path d="M23 196.179L62.0036 196.09L101.002 196.057L179 196L256.998 196.057L296.001 196.09L335 196.179L296.001 196.265L256.998 196.297L179 196.354L101.002 196.297L62.0036 196.265L23 196.179Z" fill="#263238"/>
<path d="M208.013 227.863C208.839 228.11 232.187 227.337 233.059 226.743C233.391 226.521 233.477 223.105 233.463 218.978V218.849C233.463 217.997 230.808 203.752 230.808 203.752L215.185 204.221L218.401 219.178V219.432C218.401 219.432 209.596 223.728 208.707 224.491C207.817 225.253 207.206 227.616 208.013 227.863Z" fill="#F7A9A0"/>
<path d="M233.07 226.743C232.205 227.337 208.853 228.114 208.031 227.863C207.209 227.613 207.849 225.243 208.728 224.491C209.228 224.065 212.233 222.518 214.767 221.247C213.062 222.15 209.561 225.243 220.191 223.435C227.384 222.211 231.519 221.179 233.477 220.625C233.463 223.979 233.359 226.553 233.07 226.743Z" fill="#263238"/>
<path d="M215.249 218.867L235.192 217.202C235.192 217.202 229.153 193.102 230.239 191.473C230.715 190.757 248.999 194.143 255.942 186.611C262.292 179.719 255.942 165.808 255.942 165.808H238.79C238.79 165.808 238.973 171.851 237.926 174.063C237.475 175.012 216.843 173.2 213.431 179.433C208.892 187.757 215.249 218.867 215.249 218.867Z" fill="#37474F"/>
<path d="M232.83 213.354C230.633 213.457 228.424 213.543 226.227 213.712C224.029 213.88 221.824 214.07 219.63 214.331L217.772 214.549C217.476 214.585 217.183 214.621 216.886 214.664C216.587 214.692 216.29 214.739 215.996 214.803C215.964 214.803 215.975 214.854 215.996 214.857C216.559 214.879 217.123 214.861 217.683 214.803L219.276 214.714C220.37 214.65 221.463 214.578 222.557 214.499C224.747 214.342 226.927 214.116 229.11 213.88L232.827 213.468C232.905 213.457 232.905 213.35 232.83 213.354Z" fill="#263238"/>
<path d="M254.016 169.312C253.956 168.736 253.909 168.156 253.884 167.576C253.882 167.569 253.877 167.563 253.871 167.558C253.865 167.554 253.858 167.552 253.85 167.552C253.843 167.552 253.835 167.554 253.829 167.558C253.823 167.563 253.819 167.569 253.816 167.576C253.816 171.976 255.342 176.419 254.149 180.783C253.64 182.694 252.479 184.368 250.868 185.512C249.174 186.648 247.236 187.368 245.212 187.613C242.914 187.946 240.566 187.882 238.262 187.868L231.047 187.832H229.26C228.699 187.798 228.135 187.798 227.574 187.832C227.373 187.839 227.18 187.914 227.026 188.043C226.872 188.173 226.765 188.351 226.723 188.548C226.652 189.06 226.645 189.58 226.702 190.094C226.771 192.419 226.935 194.735 227.195 197.043C227.715 201.643 228.609 206.193 229.868 210.647C230.025 211.198 230.189 211.75 230.357 212.298C230.362 212.311 230.371 212.323 230.384 212.329C230.397 212.336 230.412 212.338 230.425 212.333C230.439 212.329 230.451 212.319 230.457 212.307C230.464 212.294 230.465 212.279 230.461 212.265C229.198 207.773 228.264 203.194 227.667 198.565C227.374 196.263 227.174 193.946 227.048 191.627C227.018 191.054 226.993 190.481 226.973 189.908C226.973 189.629 226.952 189.346 226.948 189.067C226.925 188.828 226.968 188.588 227.073 188.372C227.16 188.269 227.27 188.189 227.395 188.14C227.52 188.09 227.655 188.073 227.788 188.09C228.103 188.09 228.417 188.09 228.732 188.09H230.518L237.733 188.136C240.045 188.136 242.378 188.226 244.672 187.957C246.683 187.772 248.632 187.162 250.39 186.167C252.031 185.221 253.322 183.768 254.07 182.025C255.771 177.94 254.467 173.523 254.016 169.312Z" fill="#263238"/>
<path d="M255.942 186.611C251.654 191.265 242.989 191.752 236.914 191.623L243.865 165.822H255.942C255.942 165.822 262.292 179.719 255.942 186.611Z" fill="#263238"/>
<path d="M291.247 226.865C291.154 226.009 281.32 204.776 280.434 204.207C280.102 203.985 276.929 205.241 273.141 206.867L273.023 206.92C272.24 207.253 257.826 211.134 257.826 211.134L264.215 225.028L279.223 220.689L279.451 220.574C279.451 220.574 286.841 227.018 287.884 227.538C288.928 228.057 291.347 227.72 291.247 226.865Z" fill="#F7A9A0"/>
<path d="M275.028 206.054C277.936 204.84 280.159 204.01 280.434 204.196C281.324 204.765 291.154 225.995 291.247 226.85C291.34 227.706 288.914 228.042 287.877 227.523C287.245 227.205 284.25 224.688 282.006 222.773C283.611 224.033 287.113 225.576 281.871 216.726C278.637 211.277 276.364 207.923 275.028 206.054Z" fill="#263238"/>
<path d="M238.908 165.808C238.908 165.808 239.173 174.131 240.42 178.23C240.42 178.23 241.778 178.946 242.185 179.2C242.185 179.2 231.865 203.956 232.451 213.482C232.644 216.604 236.175 221.734 239.741 223.958C246.051 227.896 276.846 224.441 276.846 224.441L272.38 205.889C272.38 205.889 252.909 206.963 252.416 205.922C251.79 204.583 255.667 194.168 258.765 185.709C259.076 184.853 262.192 181.703 261.828 175.996C261.55 172.467 260.643 169.016 259.148 165.808H238.908Z" fill="#37474F"/>
<path d="M242.149 176.29C242.11 175.699 242.067 175.108 242.014 174.521C241.896 173.179 241.756 171.833 241.52 170.505C241.52 170.401 241.356 170.44 241.367 170.54C241.456 171.582 241.574 172.624 241.674 173.666C241.774 174.707 241.896 175.746 241.914 176.784C241.914 177.095 241.914 177.625 241.513 177.711C240.999 177.829 240.756 177.149 240.634 176.78C240.338 175.853 240.122 174.902 239.988 173.938C239.816 172.864 239.727 171.736 239.63 170.633C239.63 170.594 239.559 170.601 239.559 170.633C239.559 172.821 239.584 175.108 240.398 177.174C240.457 177.386 240.572 177.579 240.731 177.731C240.891 177.883 241.088 177.989 241.302 178.037C241.302 178.037 241.302 178.037 241.324 178.037C241.345 178.037 241.324 178.062 241.324 178.076C241.324 178.091 241.349 178.198 241.36 178.259C241.367 178.311 241.377 178.362 241.392 178.413C241.413 178.52 241.428 178.628 241.453 178.731C241.456 178.75 241.467 178.766 241.481 178.778C241.496 178.79 241.514 178.797 241.533 178.797C241.552 178.797 241.57 178.79 241.585 178.778C241.599 178.766 241.609 178.75 241.613 178.731C241.627 178.727 241.638 178.718 241.646 178.706C241.653 178.695 241.657 178.681 241.656 178.667C241.647 178.454 241.6 178.244 241.517 178.048C241.643 178.022 241.76 177.964 241.858 177.881C241.956 177.798 242.032 177.692 242.078 177.571C242.203 177.156 242.228 176.717 242.149 176.29Z" fill="#263238"/>
<path d="M240.577 178.237C242.248 178.932 243.856 179.771 245.383 180.743C245.444 180.779 245.383 180.876 245.333 180.844C243.711 180.052 242.053 179.293 240.477 178.413C240.463 178.396 240.454 178.375 240.452 178.353C240.45 178.331 240.455 178.309 240.466 178.29C240.477 178.271 240.493 178.255 240.513 178.246C240.533 178.237 240.555 178.234 240.577 178.237Z" fill="#263238"/>
<path d="M254.345 174.432C253.924 174.433 253.503 174.399 253.087 174.332C252.73 174.264 252.351 174.16 251.994 174.056C251.319 173.855 250.497 173.619 250.004 173.082C249.526 172.497 249.145 171.84 248.874 171.135C248.536 170.397 248.312 169.613 248.21 168.808C248.211 168.803 248.212 168.799 248.211 168.794C248.211 168.79 248.209 168.785 248.206 168.781C248.204 168.778 248.2 168.774 248.196 168.772C248.192 168.77 248.188 168.769 248.183 168.769C248.178 168.769 248.174 168.77 248.17 168.772C248.166 168.774 248.162 168.778 248.159 168.781C248.157 168.785 248.155 168.79 248.155 168.794C248.154 168.799 248.155 168.803 248.156 168.808C248.207 169.64 248.345 170.464 248.567 171.267C248.692 171.667 248.846 172.057 249.028 172.434C249.193 172.812 249.414 173.163 249.682 173.476C250.225 174.067 251.111 174.353 251.88 174.507C252.699 174.657 253.54 174.657 254.359 174.507C254.413 174.514 254.395 174.432 254.345 174.432Z" fill="#263238"/>
<path d="M267.331 208.052C263.086 207.973 261.11 208.234 256.861 208.238H252.055C251.683 208.247 251.311 208.214 250.947 208.138C250.609 208.08 250.305 207.898 250.093 207.629C249.811 207.207 249.961 206.67 250.061 206.197C250.272 205.198 250.515 204.203 250.775 203.215C251.847 199.195 253.241 195.267 254.556 191.322L256.586 185.236C256.754 184.742 256.918 184.248 257.125 183.768C257.322 183.33 257.545 182.905 257.793 182.494C258.271 181.705 258.657 180.865 258.944 179.988C260.095 176.204 258.991 172.287 257.647 168.718C257.465 168.238 257.29 167.762 257.082 167.286C257.082 167.254 257.018 167.286 257.032 167.304C258.254 171.074 259.716 174.994 258.894 179.014C258.703 179.96 258.372 180.873 257.911 181.721C257.676 182.154 257.418 182.573 257.197 183.006C256.967 183.448 256.769 183.907 256.604 184.377C255.889 186.375 255.246 188.405 254.574 190.42C253.23 194.423 251.819 198.418 250.7 202.492C250.422 203.505 250.164 204.525 249.936 205.553C249.768 206.312 249.389 207.343 250.046 207.969C250.529 208.427 251.29 208.485 251.919 208.488C252.991 208.488 254.038 208.488 255.096 208.488C259.405 208.488 266.813 208.216 267.345 208.206C267.365 208.204 267.384 208.194 267.397 208.178C267.41 208.162 267.417 208.142 267.415 208.121C267.413 208.101 267.403 208.082 267.387 208.069C267.371 208.056 267.351 208.05 267.331 208.052Z" fill="#263238"/>
<path d="M273.577 223.596C273.159 221.43 272.762 219.253 272.283 217.098C271.804 214.943 271.283 212.784 270.725 210.654C270.568 210.049 270.404 209.448 270.243 208.843C270.169 208.556 270.09 208.27 270.007 207.984C269.935 207.69 269.847 207.401 269.743 207.117C269.743 207.089 269.689 207.117 269.689 207.135C269.749 207.695 269.847 208.25 269.982 208.796C270.089 209.323 270.189 209.845 270.297 210.368C270.518 211.442 270.746 212.516 270.979 213.59C271.447 215.738 271.983 217.886 272.526 220.002C272.838 221.212 273.152 222.421 273.466 223.628C273.484 223.664 273.591 223.65 273.577 223.596Z" fill="#263238"/>
<path d="M228.113 156.847L231.04 156.922C231.899 155.272 232.228 153.396 231.98 151.552C231.93 151.126 232.927 153.56 232.526 156.972C235.617 157.051 239.82 157.155 243.493 157.208C243.564 155.776 243.697 154.445 243.697 154.445C243.813 155.386 244.011 156.316 244.29 157.223L245.758 157.244C245.738 155.201 245.83 153.159 246.034 151.126C246.298 153.257 246.91 155.33 247.845 157.262C250.175 157.262 251.712 157.237 251.612 157.126C248.088 153.07 250.672 150.739 249.675 147.17C248.474 142.896 244.797 142.212 244.908 139.001C244.994 136.387 245.323 131.647 242.028 130.631C241.137 129.756 240.009 129.163 238.785 128.927C237.56 128.691 236.293 128.821 235.142 129.302C229.932 131.293 231.987 139.355 231.629 140.995C231.122 143.332 230.007 144.159 229.175 146.826C228.342 149.494 229.532 151.323 229.689 153.156C229.846 154.989 227.527 156.843 228.113 156.847Z" fill="#263238"/>
<path d="M251.715 156.532C251.235 155.826 250.855 155.056 250.586 154.244C250.322 153.449 250.436 152.633 250.586 151.792C250.773 150.939 250.916 150.078 251.015 149.211C251.112 148.305 251.026 147.39 250.761 146.519C250.478 145.648 249.999 144.854 249.36 144.199C248.742 143.576 248.072 143.006 247.359 142.495C246.67 142.004 246.047 141.425 245.508 140.773C244.992 140.094 244.669 139.287 244.576 138.439C244.542 139.323 244.777 140.196 245.247 140.945C245.744 141.676 246.346 142.33 247.034 142.885C247.691 143.422 248.313 144 248.896 144.618C249.447 145.222 249.862 145.939 250.111 146.719C250.339 147.509 250.421 148.334 250.354 149.153C250.304 149.988 250.147 150.829 250.036 151.695C249.973 152.136 249.944 152.582 249.95 153.027C249.967 153.484 250.067 153.934 250.243 154.355C250.599 155.163 251.098 155.901 251.715 156.532Z" fill="#263238"/>
<path d="M232.194 132.281C231.83 133.287 231.59 134.334 231.479 135.399C231.347 136.473 231.265 137.522 231.194 138.582L231.079 140.164C231.048 140.674 230.968 141.18 230.84 141.675C230.529 142.653 230.045 143.568 229.41 144.374C229.096 144.819 228.812 145.284 228.56 145.767C228.308 146.263 228.112 146.787 227.978 147.328C227.859 147.864 227.783 148.408 227.749 148.957C227.709 149.508 227.738 150.062 227.835 150.607C227.931 151.155 228.081 151.681 228.21 152.175C228.34 152.677 228.422 153.19 228.453 153.707C228.468 154.226 228.36 154.742 228.137 155.21C227.914 155.679 227.582 156.088 227.17 156.403C227.641 156.122 228.035 155.728 228.316 155.257C228.597 154.786 228.757 154.252 228.782 153.704C228.793 153.16 228.749 152.616 228.649 152.082C228.556 151.548 228.424 151.037 228.367 150.528C228.262 149.509 228.344 148.478 228.61 147.489C228.745 147.001 228.929 146.528 229.16 146.078C229.404 145.622 229.678 145.183 229.982 144.764C230.279 144.328 230.586 143.88 230.851 143.393C231.12 142.904 231.328 142.384 231.469 141.843C231.593 141.305 231.663 140.756 231.68 140.203C231.708 139.67 231.719 139.129 231.73 138.607C231.751 137.533 231.762 136.484 231.812 135.428C231.832 134.368 231.96 133.314 232.194 132.281Z" fill="#263238"/>
<path d="M242.174 147.768C242.228 153.646 241.245 163.312 238.74 167.458C236.743 170.78 227.509 176.05 222.535 177.425C220.781 177.908 219.905 170.59 220.749 168.797C221.267 167.723 231.583 163.502 232.541 162.066C233.995 159.89 235.978 152.723 238.154 147.431C239.319 144.657 242.142 144.12 242.174 147.768Z" fill="#F7A9A0"/>
<path d="M223.836 167.136C223.836 167.136 221.081 166.803 219.837 166.925C218.594 167.046 214.12 169.205 214.545 170.197C215.074 171.478 217.897 170.741 219.23 170.197C219.23 170.197 220.456 173.161 222.596 173.061C224.737 172.96 223.836 167.136 223.836 167.136Z" fill="#F7A9A0"/>
<path d="M224.168 176.813C223.196 177.249 218.573 178.853 217.183 179.011C215.792 179.168 211.772 179.329 211.544 178.295C211.315 177.26 212.491 177.099 212.491 177.099C212.491 177.099 210.779 176.898 210.647 175.817C210.515 174.736 212.348 174.579 212.348 174.579C212.348 174.579 210.608 174.242 210.561 173.147C210.515 172.051 212.376 172.209 212.376 172.209C212.376 172.209 210.768 171.976 211.101 171.059C211.497 169.96 214.41 170.723 215.928 170.433C216.286 170.369 222.821 168.604 222.821 168.604L224.168 176.813Z" fill="#F7A9A0"/>
<path d="M227.545 175.452C225.937 176.253 224.263 176.916 222.543 177.432C220.756 178.066 218.169 178.896 217.183 179.007C215.796 179.165 211.772 179.326 211.544 178.291C211.315 177.256 212.491 177.095 212.491 177.095C212.491 177.095 210.779 176.895 210.647 175.814C210.543 174.976 211.626 174.693 212.116 174.607C212.087 174.575 212.098 174.532 212.151 174.525C211.697 174.403 210.597 174.013 210.55 173.154C210.504 172.295 211.622 172.209 212.133 172.209C212.143 172.204 212.154 172.201 212.166 172.201C212.177 172.201 212.188 172.204 212.198 172.209H212.219H212.359C212.359 172.209 210.751 171.976 211.083 171.06C211.39 170.204 213.227 170.476 214.738 170.501C214.653 170.415 214.585 170.313 214.538 170.2C214.127 169.209 218.59 167.05 219.83 166.928C221.043 166.892 222.257 166.949 223.461 167.1C223.818 166.914 224.193 166.724 224.583 166.527L227.545 175.452Z" fill="#DBDBDB"/>
<path d="M212.205 172.194C214.349 172.749 215.382 172.62 217.458 171.954C217.497 171.954 217.526 171.997 217.486 172.015C215.514 172.853 214.238 173.204 212.173 172.298C212.073 172.252 212.101 172.169 212.205 172.194Z" fill="#263238"/>
<path d="M212.18 174.518C214.456 174.897 215.578 174.768 217.801 174.231C217.833 174.231 217.851 174.274 217.819 174.285C215.675 175.001 214.402 175.316 212.176 174.643C212.076 174.604 212.073 174.5 212.18 174.518Z" fill="#263238"/>
<path d="M212.601 177.056C214.835 177.267 216.071 177.178 218.165 176.376C218.175 176.371 218.186 176.371 218.196 176.375C218.206 176.379 218.215 176.387 218.219 176.397C218.223 176.407 218.223 176.418 218.219 176.429C218.215 176.439 218.207 176.447 218.197 176.451C216.143 177.478 214.599 177.6 212.605 177.124C212.469 177.088 212.462 177.056 212.601 177.056Z" fill="#263238"/>
<path d="M214.803 170.501C216.128 171.321 217.833 170.501 219.166 170.064C219.185 170.057 219.206 170.055 219.227 170.058C219.247 170.061 219.267 170.069 219.284 170.081C219.301 170.093 219.315 170.108 219.325 170.127C219.335 170.145 219.34 170.165 219.341 170.186C219.938 171.396 221.127 172.925 222.532 173.136C222.54 173.136 222.548 173.139 222.555 173.145C222.561 173.151 222.564 173.16 222.564 173.168C222.564 173.177 222.561 173.185 222.555 173.191C222.548 173.197 222.54 173.2 222.532 173.2C220.995 173.179 219.702 171.768 219.134 170.404C217.772 170.866 216.025 171.622 214.796 170.515C214.803 170.508 214.803 170.497 214.803 170.501Z" fill="#263238"/>
<path d="M233.781 156.876L242.289 158.053C242.289 158.053 242.775 151.523 242.542 148.09C242.31 144.657 240.313 142.72 237.758 147.317C235.589 151.208 233.781 156.876 233.781 156.876Z" fill="#37474F"/>
<path d="M236.957 162.467L237.236 174.571C237.236 174.571 256.496 171.604 261.21 170.458C261.21 170.458 253.595 149.035 247.524 144.324C244.461 141.972 241.495 142.688 239.905 144.961C239.502 145.538 235.003 154.194 234.903 157.226C234.788 159.904 236.957 162.467 236.957 162.467Z" fill="#112C32"/>
<path d="M244.526 143.762C244.526 144.156 243.214 146.959 241.481 147.227C240.917 147.313 240.313 144.245 240.313 144.245L240.216 144.03L238.869 141.005L242.085 137.866L242.56 137.44C242.56 137.44 242.875 138.292 243.254 139.359C243.271 139.409 243.289 139.455 243.307 139.509C243.325 139.563 243.354 139.623 243.371 139.681C243.432 139.838 243.489 140.003 243.547 140.164C243.604 140.325 243.632 140.408 243.672 140.54C243.711 140.672 243.757 140.798 243.8 140.93C244.106 141.856 244.349 142.803 244.526 143.762Z" fill="#F7A9A0"/>
<path d="M243.268 139.359C243.125 140.309 242.778 141.217 242.252 142.021C241.725 142.824 241.03 143.504 240.216 144.013L238.869 140.987L242.085 137.848L242.56 137.422C242.56 137.422 242.889 138.292 243.268 139.359Z" fill="#263238"/>
<path d="M232.973 138.034C234.781 143.554 238.287 143.092 239.477 142.688C240.549 142.33 244.183 140.98 242.953 135.299C241.724 129.617 238.587 128.726 236.078 129.42C233.57 130.115 231.161 132.517 232.973 138.034Z" fill="#F7A9A0"/>
<path d="M233.598 136.405C233.723 136.348 233.827 136.273 233.956 136.205C234.087 136.151 234.198 136.055 234.27 135.932C234.285 135.889 234.286 135.843 234.271 135.799C234.257 135.756 234.229 135.718 234.192 135.693C234.109 135.653 234.018 135.636 233.927 135.643C233.836 135.651 233.748 135.683 233.673 135.736C233.509 135.821 233.382 135.964 233.316 136.137C233.306 136.175 233.306 136.216 233.317 136.254C233.328 136.293 233.349 136.327 233.378 136.355C233.406 136.382 233.442 136.402 233.481 136.41C233.52 136.419 233.56 136.417 233.598 136.405Z" fill="#263238"/>
<path d="M237.243 135.249C237.112 135.272 236.98 135.287 236.847 135.295C236.708 135.331 236.562 135.318 236.432 135.26C236.394 135.234 236.366 135.196 236.352 135.153C236.338 135.11 236.338 135.063 236.353 135.02C236.396 134.939 236.46 134.872 236.538 134.824C236.616 134.777 236.705 134.752 236.797 134.751C236.98 134.718 237.168 134.755 237.325 134.855C237.361 134.879 237.388 134.914 237.404 134.954C237.42 134.993 237.423 135.037 237.415 135.079C237.406 135.121 237.385 135.16 237.354 135.19C237.324 135.22 237.285 135.24 237.243 135.249Z" fill="#263238"/>
<path d="M236.957 136.885C236.957 136.885 236.993 136.885 236.997 136.91C237.1 137.293 237.282 137.712 237.661 137.737V137.758C237.236 137.826 237 137.264 236.957 136.885Z" fill="#263238"/>
<path d="M237.182 136.387C237.779 136.158 238.194 137.365 237.643 137.579C237.093 137.794 236.686 136.581 237.182 136.387Z" fill="#263238"/>
<path d="M237.443 136.369C237.572 136.401 237.715 136.487 237.847 136.455C237.979 136.423 238.065 136.255 238.122 136.097C238.122 136.097 238.122 136.097 238.147 136.097C238.204 136.202 238.219 136.324 238.189 136.439C238.159 136.554 238.087 136.653 237.986 136.717C237.772 136.827 237.54 136.677 237.4 136.466C237.375 136.434 237.39 136.355 237.443 136.369Z" fill="#263238"/>
<path d="M234.774 137.544C234.774 137.544 234.753 137.572 234.774 137.586C234.921 137.944 235.021 138.403 234.728 138.66C234.728 138.66 234.728 138.686 234.728 138.678C235.11 138.464 234.971 137.869 234.774 137.544Z" fill="#263238"/>
<path d="M234.306 137.271C233.688 137.44 234.067 138.66 234.638 138.503C235.21 138.345 234.813 137.132 234.306 137.271Z" fill="#263238"/>
<path d="M234.077 137.433C233.999 137.526 233.941 137.672 233.827 137.715C233.713 137.758 233.559 137.665 233.434 137.565C233.498 137.801 233.652 138.02 233.888 137.995C234.124 137.97 234.192 137.726 234.177 137.475C234.159 137.447 234.099 137.393 234.077 137.433Z" fill="#263238"/>
<path d="M235.857 139.108C235.908 139.395 235.974 139.679 236.053 139.96C236.053 139.985 236.128 139.96 236.218 139.96C236.46 139.927 236.688 139.828 236.877 139.673C237.067 139.518 237.209 139.314 237.29 139.083C237.29 139.051 237.257 139.036 237.24 139.058C236.98 139.403 236.615 139.655 236.2 139.774C236.157 139.706 236.05 138.761 236.007 138.771C235.808 138.858 235.621 138.971 235.453 139.108C235.189 137.894 235.124 136.645 234.849 135.438C234.847 135.43 234.842 135.423 234.835 135.418C234.828 135.414 234.82 135.411 234.812 135.411C234.803 135.411 234.795 135.414 234.788 135.418C234.782 135.423 234.777 135.43 234.774 135.438C234.801 136.778 234.963 138.112 235.256 139.419C235.289 139.552 235.764 139.172 235.857 139.108Z" fill="#263238"/>
<path d="M242.507 135.564C241.188 136.094 239.041 132.256 238.783 131.783C238.93 132.091 239.705 133.72 239.609 133.838C239.468 133.899 239.318 133.934 239.166 133.942C239.079 133.744 238.976 133.554 238.858 133.373C238.808 133.283 238.912 133.584 239.019 133.963L238.748 134.003C238.576 133.575 238.349 133.172 238.072 132.804C237.965 132.668 238.233 133.384 238.354 134.064C237.101 134.228 235.871 134.532 234.685 134.969C234.352 135.102 234.074 135.227 233.834 135.349C233.723 135.042 233.597 134.741 233.455 134.447C233.49 134.784 233.556 135.117 233.652 135.442L233.295 135.635C232.959 134.962 232.802 133.72 232.766 133.935C232.668 134.596 232.696 135.271 232.848 135.922C232.423 136.222 232.333 136.369 232.266 136.255C231.81 134.838 231.87 133.306 232.437 131.93C233.388 129.675 236.461 127.852 239.33 129.424C239.33 129.424 241.27 129.743 242.189 131.214C243.107 132.685 243.271 135.256 242.507 135.564Z" fill="#263238"/>
<path d="M241.142 136.101C241.142 136.101 241.499 133.913 242.425 133.953C243.35 133.992 243.65 136.785 242.939 137.533C242.855 137.638 242.75 137.725 242.631 137.787C242.511 137.85 242.381 137.887 242.246 137.896C242.112 137.906 241.977 137.887 241.851 137.842C241.724 137.796 241.608 137.725 241.51 137.633L241.142 136.101Z" fill="#F7A9A0"/>
<path d="M242.489 134.762C242.489 134.762 242.514 134.762 242.489 134.783C241.999 135.324 241.953 136.047 242.01 136.742C242.016 136.663 242.038 136.587 242.076 136.518C242.114 136.45 242.166 136.39 242.23 136.344C242.293 136.298 242.366 136.266 242.442 136.25C242.519 136.235 242.598 136.236 242.675 136.255C242.696 136.255 242.693 136.291 242.675 136.294C242.551 136.312 242.437 136.368 242.346 136.453C242.256 136.539 242.195 136.651 242.171 136.774C242.13 136.979 242.112 137.188 242.117 137.397C242.117 137.465 242.003 137.486 241.992 137.397C241.603 136.627 241.696 135.245 242.489 134.762Z" fill="#263238"/>
<path d="M236.414 158.64H212.998V184.617H236.414V158.64Z" fill="#B93800"/>
<path opacity="0.1" d="M236.414 158.64H212.998V184.617H236.414V158.64Z" fill="black"/>
<path d="M200.91 184.621H212.998V158.644H200.91V184.621Z" fill="#B93800"/>
<path d="M222.718 164.254H223.214H223.586L223.8 163.821L224.097 164.254L224.501 163.366L224.883 164.254H225.98H226.48L226.663 163.66L226.831 164.254H227.156V158.64H222.718V164.254Z" fill="white"/>
<g opacity="0.1">
<path d="M201.742 182.831C202.635 180.983 203.523 179.13 204.404 177.271L207.027 171.686L209.614 166.076C210.474 164.2 211.325 162.32 212.166 160.434C211.27 162.282 210.382 164.135 209.503 165.994L206.881 171.582L204.29 177.192C203.437 179.066 202.588 180.945 201.742 182.831Z" fill="black"/>
<path d="M201.742 160.43C202.583 162.318 203.432 164.198 204.29 166.069L206.881 171.686L209.503 177.274C210.382 179.131 211.27 180.984 212.166 182.834C211.322 180.949 210.472 179.068 209.614 177.192L207.027 171.582L204.404 165.994C203.525 164.135 202.638 162.28 201.742 160.43Z" fill="black"/>
</g>
<path d="M240.298 164.257H216.886L213.002 158.64H236.414L240.298 164.257Z" fill="#B93800"/>
<g opacity="0.2">
<path d="M240.298 164.257H216.886L213.002 158.64H236.414L240.298 164.257Z" fill="black"/>
</g>
<path d="M209.114 164.261H197.061L200.945 158.64H213.002L209.114 164.261Z" fill="#B93800"/>
<path opacity="0.1" d="M209.114 164.261H197.061L200.945 158.64H213.002L209.114 164.261Z" fill="black"/>
<path d="M249.464 147.904C251.858 153.249 255.996 164.537 254.638 168.668C252.852 174.077 244.658 179.691 242.239 181.363C241.167 182.079 235.939 175.355 236.261 174.02C236.582 172.685 245.165 167.25 245.694 166.373C246.223 165.496 245.247 154.251 244.869 149.293C244.376 143.046 247.42 143.383 249.464 147.904Z" fill="#F7A9A0"/>
<path d="M233.82 177.622C234.106 177.031 233.798 176.877 232.748 177.385C231.697 177.894 228.003 180.797 227.102 179.415C226.202 178.033 231.483 174.02 233.284 173.308C235.085 172.595 238.254 172.073 238.254 172.073C237.39 173.061 235.503 175.66 233.82 177.622Z" fill="#F7A9A0"/>
<path d="M244.776 179.258C242.221 181.953 239.201 185.462 235.178 186.615C234.735 186.754 234.258 186.74 233.824 186.575C232.037 187.123 231.229 186.439 231.229 186.439C229.403 186.439 228.685 185.627 228.685 185.627C228.685 185.627 226.57 186.249 225.984 185.032C225.319 183.668 228.417 183.063 229.914 181.685C233.352 178.531 237.358 173.093 238.258 172.073L244.776 179.258Z" fill="#F7A9A0"/>
<path d="M235.839 180.915C234.843 181.849 233.784 182.712 232.669 183.5C231.399 184.289 230.072 184.982 228.699 185.573C228.69 185.576 228.683 185.583 228.679 185.592C228.675 185.6 228.675 185.61 228.678 185.619C228.681 185.628 228.688 185.636 228.697 185.64C228.705 185.644 228.715 185.644 228.724 185.641C231.489 184.762 233.961 183.142 235.871 180.955C235.925 180.912 235.885 180.869 235.839 180.915Z" fill="#263238"/>
<path d="M238.029 182.716C236.979 183.543 235.121 184.989 231.201 186.4C231.201 186.4 231.201 186.428 231.201 186.425C233.787 185.874 236.17 184.613 238.083 182.784C238.144 182.709 238.112 182.662 238.029 182.716Z" fill="#263238"/>
<path d="M239.209 183.708C237.368 185.047 236.035 185.659 233.827 186.572C233.827 186.572 233.827 186.6 233.827 186.593C236.446 185.831 237.311 185.254 239.255 183.772C239.33 183.711 239.28 183.654 239.209 183.708Z" fill="#263238"/>
<path d="M253.302 156.27L244.797 157.481C244.797 157.481 244.286 150.954 244.508 147.521C244.729 144.088 246.72 142.151 249.289 146.726C251.472 150.614 253.302 156.27 253.302 156.27Z" fill="#37474F"/>
<path d="M195.914 213.429H166.409V241.399H195.914V213.429Z" fill="#B93800"/>
<path d="M209.303 213.429H195.914V241.403H209.303V213.429Z" fill="#B93800"/>
<path opacity="0.1" d="M209.303 213.429H195.914V241.403H209.303V213.429Z" fill="black"/>
<path d="M208.371 239.477C207.377 237.486 206.395 235.491 205.423 233.491L202.518 227.473L199.659 221.43C198.706 219.416 197.764 217.387 196.832 215.344C197.826 217.332 198.808 219.327 199.78 221.33L202.685 227.344L205.544 233.387C206.504 235.416 207.446 237.446 208.371 239.477Z" fill="#B93800"/>
<path d="M208.371 215.362C207.439 217.391 206.498 219.419 205.548 221.448L202.689 227.491L199.795 233.491C198.823 235.494 197.84 237.489 196.847 239.477C197.778 237.443 198.72 235.415 199.673 233.391L202.532 227.348L205.437 221.333C206.407 219.336 207.384 217.345 208.371 215.362Z" fill="#B93800"/>
<path d="M183.554 219.475H183.018H182.618L182.389 219.01L182.067 219.475L181.631 218.516L181.22 219.475H180.038H179.502L179.305 218.835L179.123 219.475H178.773V213.429H183.554V219.475Z" fill="white"/>
<path d="M230.633 213.429H205.423V241.399H230.633V213.429Z" fill="#B93800"/>
<path d="M243.65 213.429H230.633V241.399H243.65V213.429Z" fill="#B93800"/>
<path opacity="0.1" d="M243.65 213.429H230.633V241.399H243.65V213.429Z" fill="black"/>
<path d="M220.166 219.475H219.634H219.23L219.001 219.01L218.683 219.475L218.247 218.516L217.833 219.475H216.654H216.114L215.921 218.835L215.739 219.475H215.385V213.429H220.166V219.475Z" fill="white"/>
<path d="M242.753 239.473C241.788 237.485 240.836 235.49 239.895 233.488L237.072 227.473L234.274 221.448C233.352 219.429 232.437 217.4 231.529 215.362C232.494 217.35 233.447 219.345 234.388 221.348L237.211 227.362L240.002 233.405C240.929 235.422 241.846 237.445 242.753 239.473Z" fill="#B93800"/>
<path d="M242.753 215.362C241.846 217.391 240.931 219.419 240.009 221.448L237.218 227.491L234.395 233.505C233.442 235.51 232.489 237.506 231.537 239.491C232.444 237.463 233.359 235.434 234.281 233.405L237.072 227.362L239.895 221.348C240.836 219.341 241.788 217.345 242.753 215.362Z" fill="#B93800"/>
<path d="M215.196 185.458H189.986V213.429H215.196V185.458Z" fill="#B93800"/>
<path d="M228.213 185.458H215.196V213.429H228.213V185.458Z" fill="#B93800"/>
<path opacity="0.1" d="M228.213 185.458H215.196V213.429H228.213V185.458Z" fill="black"/>
<path d="M204.729 191.505H204.197H203.793L203.565 191.04L203.247 191.505L202.811 190.545L202.396 191.505H201.217H200.677L200.484 190.864L200.302 191.505H199.952V185.458H204.729V191.505Z" fill="white"/>
<path d="M227.309 211.503C226.356 209.515 225.404 207.519 224.451 205.517L221.628 199.503L218.837 193.46C217.915 191.44 217 189.412 216.093 187.374C217.046 189.362 217.998 191.357 218.951 193.359L221.774 199.374L224.565 205.417C225.492 207.445 226.406 209.474 227.309 211.503Z" fill="#B93800"/>
<path d="M227.309 187.388C226.402 189.417 225.487 191.445 224.565 193.474L221.774 199.517L218.951 205.531C217.998 207.536 217.046 209.531 216.093 211.517C217 209.488 217.915 207.46 218.837 205.431L221.628 199.388L224.451 193.374C225.404 191.369 226.356 189.374 227.309 187.388Z" fill="#B93800"/>
<path d="M185.798 191.509H211.008L215.192 185.458H189.986L185.798 191.509Z" fill="#B93800"/>
<path opacity="0.1" d="M185.798 191.509H211.008L215.192 185.458H189.986L185.798 191.509Z" fill="black"/>
<path d="M219.377 191.509H232.358L228.174 185.458H215.192L219.377 191.509Z" fill="#B93800"/>
<path d="M140.409 213.432H115.2V241.403H140.409V213.432Z" fill="#DBDBDB"/>
<path d="M153.427 213.432H140.409V241.403H153.427V213.432Z" fill="#C7C7C7"/>
<path d="M129.943 219.475H129.411H129.011L128.782 219.01L128.46 219.475L128.024 218.516L127.613 219.475H126.431H125.895L125.698 218.835L125.516 219.475H125.166V213.432H129.943V219.475Z" fill="white"/>
<path d="M152.53 239.477C151.577 237.486 150.624 235.491 149.672 233.491L146.849 227.473L144.051 221.448C143.126 219.434 142.21 217.405 141.303 215.362C142.268 217.35 143.22 219.345 144.161 221.348L146.988 227.362L149.775 233.405C150.707 235.422 151.625 237.446 152.53 239.477Z" fill="#DBDBDB"/>
<path d="M152.53 215.362C151.625 217.391 150.71 219.419 149.786 221.448L146.999 227.491L144.172 233.509C143.219 235.511 142.266 237.507 141.313 239.495C142.221 237.461 143.137 235.433 144.061 233.409L146.849 227.366L149.672 221.351C150.615 219.347 151.568 217.35 152.53 215.362Z" fill="#DBDBDB"/>
<path d="M135.732 185.455H110.522V213.425H135.732V185.455Z" fill="#DBDBDB"/>
<path d="M148.75 185.458H135.732V213.429H148.75V185.458Z" fill="#C7C7C7"/>
<path d="M125.266 191.501H124.733H124.333L124.104 191.036L123.783 191.501L123.347 190.545L122.936 191.501H121.753H121.217L121.021 190.864L120.838 191.501H120.488V185.458H125.266V191.501Z" fill="white"/>
<path d="M147.856 211.503C146.903 209.512 145.95 207.517 144.998 205.517L142.175 199.499L139.387 193.456C138.463 191.442 137.547 189.413 136.64 187.37C137.604 189.36 138.557 191.356 139.498 193.356L142.321 199.374L145.108 205.417C146.035 207.443 146.951 209.472 147.856 211.503Z" fill="#DBDBDB"/>
<path d="M147.856 187.384C146.949 189.413 146.033 191.442 145.108 193.47L142.321 199.513L139.498 205.531C138.545 207.531 137.592 209.527 136.64 211.517C137.547 209.488 138.463 207.46 139.387 205.431L142.175 199.388L144.998 193.37C145.936 191.37 146.889 189.375 147.856 187.384Z" fill="#DBDBDB"/>
<path d="M106.338 191.505H131.544L135.732 185.455H110.522L106.338 191.505Z" fill="#C7C7C7"/>
<path d="M139.916 191.509H152.895L148.71 185.458H135.732L139.916 191.509Z" fill="#DBDBDB"/>
<path d="M119.27 248.531C118.448 248.799 95.0889 248.495 94.2098 247.915C93.8525 247.704 93.7167 244.288 93.6488 240.161C93.6488 240.118 93.6488 240.075 93.6488 240.032C93.6488 239.18 93.6238 238.303 93.6202 237.415C93.6202 237.293 93.6202 237.171 93.6202 237.057L94.7387 224.91L110.365 225.067L108.825 237.093L108.807 237.569L108.71 240.075V240.332C108.71 240.332 117.597 244.457 118.501 245.194C119.405 245.932 120.088 248.269 119.27 248.531Z" fill="#AD6359"/>
<path d="M119.27 248.531C118.448 248.799 95.0889 248.495 94.2098 247.915C93.8525 247.704 93.7167 244.288 93.6488 240.161C93.6488 240.118 93.6488 240.075 93.6488 240.032C93.6488 239.18 93.6238 238.303 93.6202 237.415C93.6202 237.293 93.6202 237.171 93.6202 237.057L108.839 237.1L108.821 237.576L108.725 240.082V240.34C108.725 240.34 117.612 244.464 118.516 245.201C119.42 245.939 120.088 248.269 119.27 248.531Z" fill="#EBEBEB"/>
<path d="M119.27 248.531C118.848 248.667 112.502 248.652 106.298 248.531C105.051 248.506 103.797 248.477 102.629 248.445C98.2048 248.323 94.5493 248.14 94.2098 247.918C93.8703 247.697 93.7203 244.389 93.6524 240.336C93.6524 240.279 93.6524 240.221 93.6524 240.164C93.6524 240.107 93.6524 240.075 93.6524 240.032L108.707 240.06V240.318C108.707 240.318 117.597 244.439 118.498 245.176C119.398 245.914 120.088 248.269 119.27 248.531Z" fill="#B93800"/>
<path d="M119.016 247.621C115.085 247.475 99.1875 247.263 95.2854 247.403C95.2532 247.403 95.2532 247.424 95.2854 247.428C99.1839 247.661 115.075 247.754 119.016 247.686C119.098 247.686 119.098 247.625 119.016 247.621Z" fill="#263238"/>
<path d="M110.397 240.125C108.85 239.813 106.952 240.028 105.752 241.117C105.705 241.159 105.752 241.224 105.82 241.21C107.306 240.752 108.837 240.453 110.386 240.318C110.412 240.32 110.437 240.311 110.456 240.294C110.475 240.277 110.487 240.253 110.488 240.227C110.49 240.201 110.481 240.176 110.464 240.157C110.447 240.138 110.423 240.126 110.397 240.125Z" fill="#263238"/>
<path d="M111.505 240.812C109.961 240.504 108.06 240.716 106.859 241.807C106.813 241.85 106.859 241.915 106.924 241.901C108.411 241.441 109.943 241.142 111.494 241.009C111.517 241.006 111.539 240.995 111.555 240.978C111.571 240.961 111.58 240.939 111.581 240.915C111.583 240.892 111.576 240.869 111.562 240.85C111.548 240.831 111.528 240.818 111.505 240.812Z" fill="#263238"/>
<path d="M112.605 241.496C111.058 241.185 109.161 241.399 107.96 242.491C107.914 242.534 107.96 242.599 108.024 242.584C109.515 242.124 111.051 241.828 112.605 241.7C112.632 241.7 112.658 241.689 112.677 241.67C112.696 241.651 112.707 241.625 112.707 241.598C112.707 241.571 112.696 241.545 112.677 241.526C112.658 241.507 112.632 241.496 112.605 241.496Z" fill="#263238"/>
<path d="M106.298 248.527C105.051 248.502 103.797 248.473 102.629 248.441C98.2048 248.319 94.5493 248.137 94.2098 247.915C93.8703 247.693 93.7203 244.385 93.6524 240.333C93.6524 240.275 93.6524 240.218 93.6524 240.161C93.6524 240.103 93.6524 240.071 93.6524 240.028C95.7249 241.496 102.993 246.325 106.298 248.527Z" fill="#263238"/>
<path d="M109.747 240.11H92.9198C92.9198 240.11 96.3074 200.73 96.1751 200.057C96.0072 199.177 95.0138 195.192 93.6738 189.987C93.2593 188.358 92.8126 186.611 92.3481 184.799C91.1117 179.92 89.736 174.55 88.5246 169.896C86.7165 162.919 85.3086 157.498 85.3086 157.498H99.5662C99.5662 157.498 101.228 162.775 103.322 169.642C106.734 180.801 111.294 196.159 111.744 199.893C112.47 205.918 109.747 240.11 109.747 240.11Z" fill="#37474F"/>
<path d="M109 237.236C106.431 237.182 107.167 237.161 104.597 237.136C103.34 237.136 95.0781 237.05 93.9025 237.247C93.8775 237.247 93.8775 237.293 93.9025 237.3C95.0781 237.494 103.34 237.422 104.597 237.408C107.167 237.386 106.431 237.365 109 237.311C109.032 237.307 109.032 237.236 109 237.236Z" fill="#263238"/>
<path d="M99.3411 197.652C98.7908 195.214 97.9654 192.826 97.2471 190.434C95.7892 185.573 94.323 180.717 92.8484 175.867C92.1123 173.44 91.3726 171.013 90.6293 168.586C90.2506 167.361 89.8754 166.137 89.493 164.916C89.1107 163.695 88.6926 162.532 88.3567 161.336C88.2173 160.846 88.1423 161.114 88.3174 161.741C88.6747 162.997 89.0321 164.247 89.3894 165.507C90.1041 167.991 90.833 170.474 91.5763 172.953C93.0342 177.894 94.5052 182.828 95.9893 187.757L98.2191 195.174C98.5942 196.348 98.8973 197.544 99.1267 198.754C99.3248 200.024 99.3752 201.311 99.2768 202.592C99.1124 205.173 98.8158 207.747 98.58 210.321C98.3442 212.895 98.1012 215.477 97.8653 218.054C97.3889 223.186 96.9184 228.317 96.4539 233.448C96.3967 234.096 96.3395 234.748 96.2895 235.399C96.2716 235.618 96.6004 235.6 96.6254 235.399C97.1793 230.326 97.6045 225.236 98.0797 220.152C98.555 215.068 99.0267 210.042 99.5091 204.987C99.627 203.716 99.7592 202.445 99.7628 201.167C99.754 199.983 99.6126 198.804 99.3411 197.652Z" fill="#263238"/>
<path d="M97.9547 157.495C96.9649 165.167 95.0781 179.551 93.7024 189.987C90.4864 177.342 85.3158 157.495 85.3158 157.495H97.9547Z" fill="#263238"/>
<path d="M101.446 248.756C100.628 249.025 77.2686 248.806 76.386 248.234C76.0287 248.019 75.8786 244.607 75.7964 240.479C75.7964 240.436 75.7964 240.393 75.7964 240.35C75.7964 239.498 75.7643 238.625 75.7607 237.737C75.7607 237.615 75.7607 237.49 75.7607 237.379C75.7071 231.422 76.118 225.239 76.118 225.239L91.3869 225.339L90.9617 237.368V237.844L90.8759 240.35V240.608C90.8759 240.608 99.7806 244.696 100.685 245.434C101.589 246.171 102.264 248.495 101.446 248.756Z" fill="#AD6359"/>
<path d="M101.446 248.756C100.628 249.025 77.2686 248.806 76.386 248.234C76.0287 248.019 75.8786 244.607 75.7964 240.479C75.7964 240.436 75.7964 240.393 75.7964 240.35C75.7964 239.498 75.7643 238.625 75.7607 237.737C75.7607 237.615 75.7607 237.49 75.7607 237.379H90.9795V237.855L90.8938 240.361V240.619C90.8938 240.619 99.7985 244.707 100.703 245.445C101.607 246.182 102.264 248.495 101.446 248.756Z" fill="#EBEBEB"/>
<path d="M101.446 248.756C100.628 249.025 77.2686 248.806 76.386 248.234C76.0287 248.019 75.8786 244.607 75.7964 240.479C75.7964 240.436 75.7964 240.393 75.7964 240.35L90.8687 240.322V240.579C90.8687 240.579 99.7735 244.668 100.678 245.405C101.582 246.143 102.264 248.495 101.446 248.756Z" fill="#B93800"/>
<path d="M101.192 247.847C97.2614 247.714 81.3637 247.546 77.4616 247.714C77.4294 247.714 77.4294 247.739 77.4616 247.739C81.3601 247.958 97.2507 247.997 101.189 247.911C101.274 247.911 101.274 247.85 101.192 247.847Z" fill="#263238"/>
<path d="M92.5446 240.383C90.9974 240.078 89.0999 240.297 87.8993 241.392C87.8529 241.435 87.8993 241.5 87.9636 241.485C89.4479 241.02 90.9777 240.715 92.5268 240.576C92.5394 240.577 92.5522 240.576 92.5644 240.572C92.5765 240.568 92.5878 240.562 92.5976 240.554C92.6074 240.546 92.6155 240.536 92.6214 240.525C92.6274 240.513 92.631 240.501 92.6322 240.488C92.6334 240.476 92.632 240.463 92.6283 240.451C92.6245 240.438 92.6184 240.427 92.6102 240.417C92.6021 240.407 92.5921 240.399 92.5809 240.393C92.5696 240.387 92.5573 240.384 92.5446 240.383Z" fill="#263238"/>
<path d="M93.6667 241.066C92.1194 240.762 90.222 240.984 89.0213 242.08C88.9749 242.122 89.0213 242.187 89.0857 242.173C90.5757 241.706 92.1115 241.401 93.6667 241.263C93.6895 241.259 93.7101 241.247 93.725 241.229C93.7398 241.211 93.7479 241.188 93.7479 241.165C93.7479 241.142 93.7398 241.119 93.725 241.101C93.7101 241.083 93.6895 241.071 93.6667 241.066Z" fill="#263238"/>
<path d="M94.7673 241.754C93.22 241.449 91.3226 241.668 90.1219 242.763C90.0755 242.806 90.1219 242.871 90.1862 242.856C91.6714 242.39 93.2026 242.087 94.753 241.951C94.7764 241.948 94.7982 241.938 94.8145 241.921C94.8309 241.904 94.8408 241.882 94.8425 241.858C94.8442 241.835 94.8376 241.811 94.8239 241.792C94.8101 241.773 94.7901 241.76 94.7673 241.754Z" fill="#263238"/>
<path d="M99.1017 157.495C99.1017 157.495 98.773 164.329 97.2114 169.742C97.0863 170.19 96.9506 170.63 96.8041 171.052C95.3729 171.631 93.9974 172.339 92.6947 173.168C92.6947 173.168 92.5303 178.667 92.366 184.8C92.1837 191.655 92.0086 199.302 92.0337 200.91C92.1766 206.978 91.2761 240.343 91.2761 240.343L74.4564 240.422C74.4564 240.422 77.4973 203.161 77.4759 200.938C77.4437 197.358 78.2906 181.574 78.9445 170.057C79.3447 162.962 79.6592 157.491 79.6592 157.491L99.1017 157.495Z" fill="#37474F"/>
<path d="M90.7008 237.361C88.1316 237.318 88.8677 237.293 86.2985 237.279C85.0406 237.279 76.7791 237.236 75.6035 237.436C75.5785 237.436 75.5785 237.483 75.6035 237.49C76.7791 237.68 85.0442 237.572 86.302 237.554C88.8713 237.519 88.1316 237.501 90.7008 237.436C90.7473 237.433 90.7473 237.361 90.7008 237.361Z" fill="#263238"/>
<path d="M81.0885 159.936C80.7777 169.337 80.4489 178.742 80.0165 188.14C79.5842 197.537 79.0267 206.992 78.2299 216.4C77.7903 221.656 77.3758 229.048 76.8005 234.3C76.8005 234.336 76.8506 234.35 76.8541 234.3C78.0798 224.974 78.7623 213.443 79.3555 204.056C79.9486 194.67 80.4096 185.29 80.7276 175.882C80.9063 170.565 81.0457 165.246 81.2029 159.929C81.2065 159.872 81.0885 159.872 81.0885 159.936Z" fill="#263238"/>
<path d="M97.5044 170.644C95.8318 171.338 94.2225 172.177 92.6947 173.15C92.634 173.186 92.6947 173.283 92.7447 173.25C94.367 172.459 96.0251 171.7 97.6009 170.82C97.6148 170.803 97.6233 170.783 97.6254 170.761C97.6275 170.739 97.6231 170.718 97.6126 170.699C97.6022 170.68 97.5863 170.664 97.567 170.655C97.5477 170.645 97.5259 170.641 97.5044 170.644Z" fill="#263238"/>
<path d="M92.2766 135.968C92.8377 144.41 95.9107 153.331 97.19 154.738C99.1696 156.918 108.825 159.661 112.616 160.108C113.856 160.255 115.41 151.76 114.471 150.8C113.531 149.841 103.065 148.019 102.396 147.546C102.039 147.295 98.6157 140.672 96.1823 136.387C93.9132 132.406 92.1051 133.409 92.2766 135.968Z" fill="#DD6A57"/>
<path d="M111.08 149.812C111.08 149.812 113.852 147.972 115.25 147.432C116.647 146.891 122.589 146.798 122.682 148.083C122.8 149.741 119.38 150.475 117.658 150.611C117.658 150.611 117.94 154.448 115.6 155.508C113.259 156.568 111.08 149.812 111.08 149.812Z" fill="#DD6A57"/>
<path d="M112.545 160.101C113.774 160.459 119.545 161.533 121.217 161.479C122.889 161.426 127.696 160.91 127.781 159.621C127.867 158.333 126.448 158.372 126.448 158.372C126.448 158.372 128.442 157.831 128.414 156.528C128.385 155.225 126.177 155.354 126.177 155.354C126.177 155.354 128.185 154.638 128.064 153.353C127.942 152.068 125.744 152.558 125.744 152.558C125.744 152.558 127.61 152 127.059 150.972C126.395 149.737 123.072 151.151 121.221 151.076C120.799 151.058 112.72 150.116 112.72 150.116L112.545 160.101Z" fill="#DD6A57"/>
<path d="M126.448 158.372C126.448 158.372 127.878 158.333 127.781 159.621C127.685 160.91 122.889 161.411 121.217 161.479C119.545 161.547 113.824 160.456 112.562 160.105C111.218 159.916 109.886 159.652 108.571 159.314L109.768 149.34C110.279 149.461 110.779 149.579 111.251 149.698C111.876 149.29 114.06 147.886 115.25 147.428C116.643 146.887 122.589 146.794 122.682 148.079C122.7 148.386 122.601 148.689 122.403 148.924C121.589 150.335 119.706 150.535 118.165 150.739C119.727 150.918 121.056 151.065 121.221 151.072C123.072 151.148 126.395 149.733 127.059 150.969C127.578 151.935 125.955 152.486 125.762 152.551L125.923 152.519C125.937 152.512 125.952 152.508 125.968 152.508C125.983 152.508 125.999 152.512 126.012 152.519C126.609 152.429 127.956 152.35 128.053 153.36C128.149 154.37 126.927 155.032 126.402 155.268C126.459 155.268 126.473 155.315 126.445 155.361C127.038 155.361 128.378 155.519 128.403 156.535C128.442 157.831 126.448 158.372 126.448 158.372Z" fill="#DBDBDB"/>
<path d="M125.934 152.519C123.486 153.553 122.239 153.593 119.659 153.156C119.609 153.156 119.584 153.22 119.634 153.231C122.135 153.879 123.697 154.072 125.987 152.633C126.102 152.562 126.048 152.469 125.934 152.519Z" fill="#263238"/>
<path d="M126.37 155.268C123.736 156.12 122.382 156.163 119.648 155.916C119.609 155.916 119.598 155.977 119.648 155.984C122.311 156.453 123.883 156.607 126.402 155.408C126.506 155.354 126.491 155.218 126.37 155.268Z" fill="#263238"/>
<path d="M126.309 158.354C123.701 158.995 122.218 159.106 119.595 158.526C119.584 158.525 119.573 158.528 119.563 158.535C119.554 158.541 119.547 158.55 119.544 158.561C119.541 158.572 119.541 158.583 119.545 158.594C119.549 158.604 119.557 158.613 119.566 158.619C122.185 159.475 124.036 159.335 126.32 158.436C126.477 158.372 126.473 158.315 126.309 158.354Z" fill="#263238"/>
<path d="M122.564 148.548C121.585 150.142 119.312 150.177 117.651 150.439C117.626 150.441 117.602 150.449 117.582 150.463C117.561 150.477 117.544 150.496 117.532 150.518C117.52 150.54 117.514 150.564 117.515 150.589C117.515 150.614 117.521 150.639 117.533 150.661C117.533 152.275 117.086 154.559 115.696 155.544C115.688 155.549 115.682 155.558 115.68 155.568C115.678 155.577 115.679 155.588 115.684 155.596C115.689 155.605 115.697 155.611 115.707 155.614C115.716 155.617 115.727 155.616 115.736 155.612C117.372 154.76 118.001 152.551 117.88 150.782C119.588 150.543 121.864 150.406 122.586 148.559L122.564 148.548Z" fill="#263238"/>
<path d="M92.952 147.564L100.913 144.342C100.913 144.342 98.0869 138.439 96.1787 135.578C94.2706 132.718 91.5798 132.041 91.6442 137.293C91.6942 141.746 92.952 147.564 92.952 147.564Z" fill="#37474F"/>
<path d="M78.3013 164.29C78.3013 164.29 102.582 164.172 102.582 164.175C102.582 164.651 97.315 136.967 94.778 133.67C94.2348 132.954 90.5257 132.063 88.8498 133.627C81.5173 140.472 78.3013 164.598 78.3013 164.29Z" fill="#18424B"/>
<path d="M93.8489 136.151C92.6911 136.43 90.2756 135.077 89.443 133.423C89.3894 133.308 89.5966 132.145 89.8003 130.713C89.9075 129.847 90.0111 128.876 90.0397 127.985C90.0397 127.802 95.5748 129.531 95.5748 129.531C95.2191 130.634 94.9995 131.776 94.9209 132.932C94.9187 133.052 94.9271 133.172 94.9459 133.29C94.9481 133.311 94.9481 133.331 94.9459 133.351C95.0281 134.06 95.096 135.85 93.8489 136.151Z" fill="#DD6A57"/>
<path d="M94.9352 133.301C94.9352 133.301 94.9352 133.341 94.9352 133.362C94.7449 133.377 94.5538 133.377 94.3635 133.362C91.0831 133.179 90.3542 129.034 90.222 127.992C91.2082 128.167 95.557 129.528 95.557 129.528C95.2014 130.632 94.9818 131.775 94.903 132.932C94.9023 133.056 94.9131 133.18 94.9352 133.301Z" fill="#263238"/>
<path d="M89.225 121.015C88.6175 122.998 89.6502 128.726 91.0581 130.004C93.0949 131.858 96.4181 132.041 98.0083 129.589C99.5341 127.208 98.0511 119.765 96.4825 118.605C94.1705 116.891 90.1219 118.09 89.225 121.015Z" fill="#DD6A57"/>
<path d="M94.7923 124.455C94.7923 124.455 94.7673 124.476 94.7708 124.494C94.8494 124.877 94.878 125.329 94.5529 125.518C94.5529 125.518 94.5529 125.543 94.5529 125.54C94.9745 125.407 94.9316 124.806 94.7923 124.455Z" fill="#263238"/>
<path d="M94.3813 124.111C93.756 124.172 93.9239 125.429 94.5064 125.372C95.0889 125.314 94.9066 124.072 94.3813 124.111Z" fill="#263238"/>
<path d="M97.047 124.212C97.047 124.212 97.0792 124.212 97.0828 124.24C97.1221 124.63 97.2329 125.071 97.6045 125.153V125.175C97.165 125.171 97.022 124.588 97.047 124.212Z" fill="#263238"/>
<path d="M97.3401 123.757C97.9547 123.624 98.1762 124.874 97.6045 124.996C97.0327 125.117 96.8219 123.868 97.3401 123.757Z" fill="#263238"/>
<path d="M93.806 123.603C93.9643 123.534 94.1182 123.455 94.267 123.367C94.4457 123.274 94.5957 123.22 94.6922 123.037C94.7147 122.982 94.7185 122.921 94.7031 122.864C94.6876 122.806 94.6536 122.755 94.6065 122.719C94.5024 122.663 94.3852 122.636 94.2672 122.64C94.1491 122.644 94.0343 122.68 93.9347 122.744C93.7134 122.841 93.5363 123.017 93.438 123.238C93.418 123.289 93.4135 123.345 93.4249 123.399C93.4363 123.453 93.4633 123.503 93.5024 123.541C93.5415 123.58 93.5911 123.607 93.645 123.618C93.699 123.629 93.7549 123.624 93.806 123.603Z" fill="#263238"/>
<path d="M97.7367 123.059C97.5701 123.048 97.4042 123.028 97.24 122.998C97.0555 123.002 96.8749 122.945 96.7254 122.837C96.6855 122.793 96.6611 122.738 96.6559 122.679C96.6508 122.62 96.6651 122.561 96.6969 122.511C96.7741 122.422 96.8738 122.355 96.9856 122.317C97.0975 122.279 97.2174 122.272 97.3329 122.296C97.5746 122.31 97.8026 122.413 97.9725 122.586C98.0112 122.628 98.0361 122.681 98.044 122.738C98.0519 122.795 98.0425 122.853 98.0169 122.904C97.9914 122.955 97.9509 122.997 97.9009 123.025C97.8508 123.053 97.7936 123.064 97.7367 123.059Z" fill="#263238"/>
<path d="M95.1746 126.889C95.2941 127.03 95.4412 127.143 95.6065 127.224C95.7719 127.305 95.9521 127.351 96.1358 127.358C96.2967 127.367 96.458 127.353 96.6147 127.315C96.6449 127.31 96.6748 127.303 96.704 127.294L96.7862 127.269C96.8069 127.262 96.8247 127.248 96.837 127.23C96.8492 127.212 96.8552 127.191 96.8541 127.169C96.8561 127.156 96.8561 127.142 96.8541 127.129V127.094C96.8219 126.796 96.7326 126.345 96.7326 126.345C96.8469 126.385 97.4473 126.56 97.4079 126.403C97.1899 125.058 96.8367 123.738 96.3538 122.465C96.3491 122.458 96.3423 122.453 96.3345 122.45C96.3267 122.447 96.3183 122.447 96.3103 122.449C96.3024 122.452 96.2955 122.457 96.2904 122.463C96.2854 122.47 96.2826 122.478 96.2824 122.486C96.4789 123.728 96.8898 124.928 97.1042 126.173C96.8935 126.108 96.6745 126.073 96.4539 126.07C96.4146 126.07 96.6468 126.94 96.6504 127.076C96.4083 127.134 96.1569 127.143 95.9113 127.102C95.6656 127.061 95.4309 126.97 95.2211 126.836C95.1746 126.832 95.146 126.861 95.1746 126.889Z" fill="#263238"/>
<path d="M96.4181 127.187C96.2825 127.422 96.0895 127.619 95.8571 127.759C95.7277 127.831 95.5791 127.862 95.4319 127.845C95.1103 127.806 95.0746 127.523 95.0746 127.273C95.088 127.138 95.118 127.006 95.1639 126.879C95.5378 127.114 95.9778 127.222 96.4181 127.187Z" fill="#263238"/>
<path d="M95.8571 127.759C95.7277 127.831 95.5791 127.861 95.4319 127.845C95.1103 127.806 95.0746 127.523 95.0746 127.272C95.2414 127.248 95.4114 127.284 95.5546 127.373C95.6978 127.462 95.8049 127.599 95.8571 127.759Z" fill="#FF99BA"/>
<path d="M97.5687 120.395C97.29 119.934 96.9756 119.468 96.6683 119.411C96.361 119.354 96.2609 120.102 95.5963 120.238C94.6958 120.424 94.1419 119.644 92.8555 119.726C91.0117 119.848 90.4114 121.484 90.7115 124.09C90.9831 126.413 89.6109 126.821 89.6109 126.821C89.6109 126.821 88.078 121.809 89.2893 119.93C90.5007 118.05 93.706 116.848 96.1394 118.165C97.0327 118.648 97.5687 120.395 97.5687 120.395Z" fill="#263238"/>
<path d="M90.6615 125.751C90.6615 125.751 89.3358 123.922 88.5175 124.401C87.6992 124.881 88.7105 127.545 89.7003 127.892C89.8242 127.946 89.9578 127.974 90.093 127.975C90.2281 127.975 90.362 127.949 90.4866 127.896C90.6111 127.844 90.7238 127.766 90.8177 127.669C90.9116 127.572 90.9849 127.456 91.0331 127.33L90.6615 125.751Z" fill="#DD6A57"/>
<path d="M88.8177 125.146V125.171C89.5323 125.44 89.8897 126.073 90.1577 126.736C90.1162 126.667 90.0603 126.608 89.9938 126.563C89.9273 126.518 89.8519 126.488 89.7727 126.475C89.6936 126.462 89.6125 126.466 89.5352 126.488C89.4579 126.509 89.3862 126.547 89.3251 126.599C89.3251 126.599 89.3251 126.639 89.3465 126.635C89.4674 126.595 89.5979 126.592 89.72 126.629C89.8422 126.665 89.9501 126.739 90.029 126.839C90.158 127.008 90.2694 127.189 90.3613 127.38C90.3971 127.444 90.5078 127.409 90.4828 127.337V127.319C90.4685 126.449 89.7646 125.228 88.8177 125.146Z" fill="#263238"/>
<path d="M127.042 137.54H101.832V165.51H127.042V137.54Z" fill="#B93800"/>
<path d="M140.063 137.54H127.045V165.51H140.063V137.54Z" fill="#B93800"/>
<path opacity="0.1" d="M140.063 137.54H127.045V165.51H140.063V137.54Z" fill="black"/>
<path d="M116.579 143.583H116.043H115.643L115.414 143.118L115.092 143.583L114.66 142.627L114.245 143.583H113.066H112.527L112.334 142.946L112.148 143.583H111.798V137.54H116.579V143.583Z" fill="white"/>
<path d="M139.166 163.584C138.201 161.594 137.248 159.599 136.307 157.599L133.481 151.581L130.686 145.552C129.76 143.533 128.845 141.504 127.942 139.466C128.907 141.456 129.86 143.452 130.801 145.452L133.624 151.47L136.411 157.513C137.34 159.53 138.258 161.553 139.166 163.584Z" fill="#B93800"/>
<path d="M139.166 139.466C138.258 141.495 137.342 143.523 136.418 145.552L133.631 151.591L130.808 157.609C129.855 159.612 128.902 161.607 127.949 163.595C128.852 161.564 129.767 159.535 130.694 157.509L133.481 151.466L136.307 145.448C137.246 143.448 138.199 141.454 139.166 139.466Z" fill="#B93800"/>
<path d="M86.9202 139.269C86.7237 145.122 87.1561 157.14 89.9718 160.438C93.6667 164.766 103.372 166.86 106.245 167.49C107.495 167.762 109.818 159.539 109.003 158.426C108.189 157.312 98.2048 155.537 97.3829 154.924C96.5611 154.312 93.22 143.533 91.6978 138.814C89.7753 132.832 87.0917 134.314 86.9202 139.269Z" fill="#DD6A57"/>
<path d="M112.605 160.849C112.119 160.413 112.344 160.155 113.502 160.23C114.66 160.305 119.184 161.587 119.495 159.969C119.806 158.35 113.42 156.636 111.465 156.657C109.511 156.679 106.398 157.398 106.398 157.398C107.581 157.982 110.311 159.675 112.605 160.849Z" fill="#DD6A57"/>
<path d="M103.086 166.52C106.47 168.045 110.59 170.15 114.749 169.692C115.213 169.653 115.649 169.459 115.989 169.141C117.858 168.969 118.337 168.034 118.337 168.034C120.027 167.34 120.388 166.316 120.388 166.316C120.388 166.316 122.579 166.09 122.664 164.741C122.761 163.226 119.666 163.842 117.755 163.133C113.384 161.515 107.617 157.993 106.402 157.405L103.086 166.52Z" fill="#DD6A57"/>
<path d="M111.984 164.666C113.258 165.154 114.564 165.555 115.893 165.865C117.367 166.112 118.858 166.251 120.352 166.28C120.362 166.28 120.371 166.284 120.378 166.291C120.384 166.297 120.388 166.306 120.388 166.316C120.388 166.325 120.384 166.335 120.378 166.341C120.371 166.348 120.362 166.352 120.352 166.352C117.459 166.589 114.557 166.026 111.962 164.723C111.891 164.694 111.919 164.644 111.984 164.666Z" fill="#263238"/>
<path d="M110.626 167.168C111.912 167.526 114.174 168.17 118.337 167.988C118.337 167.988 118.355 168.013 118.337 168.013C115.737 168.477 113.059 168.205 110.604 167.229C110.529 167.2 110.54 167.143 110.626 167.168Z" fill="#263238"/>
<path d="M109.922 168.528C112.13 169.069 113.592 169.13 115.979 169.133V169.159C113.266 169.441 112.248 169.237 109.904 168.6C109.811 168.579 109.832 168.507 109.922 168.528Z" fill="#263238"/>
<path d="M86.52 148.473L94.8494 146.368C94.8494 146.368 92.8555 140.135 91.3547 137.06C89.8539 133.985 87.2811 132.925 86.6308 138.134C86.0698 142.541 86.52 148.473 86.52 148.473Z" fill="#37474F"/>
</g>
<path d="M53.185 57.3387C51.217 57.3387 49.601 56.8747 48.337 55.9467C47.073 55.0027 46.393 53.6587 46.297 51.9147H51.313C51.361 52.5067 51.537 52.9387 51.841 53.2107C52.145 53.4827 52.537 53.6187 53.017 53.6187C53.449 53.6187 53.801 53.5147 54.073 53.3067C54.361 53.0827 54.505 52.7787 54.505 52.3947C54.505 51.8987 54.273 51.5147 53.809 51.2427C53.345 50.9707 52.593 50.6667 51.553 50.3307C50.449 49.9627 49.553 49.6107 48.865 49.2747C48.193 48.9227 47.601 48.4187 47.089 47.7627C46.593 47.0907 46.345 46.2187 46.345 45.1467C46.345 44.0587 46.617 43.1307 47.161 42.3627C47.705 41.5787 48.457 40.9867 49.417 40.5867C50.377 40.1867 51.465 39.9867 52.681 39.9867C54.649 39.9867 56.217 40.4507 57.385 41.3787C58.569 42.2907 59.201 43.5787 59.281 45.2427H54.169C54.153 44.7307 53.993 44.3467 53.689 44.0907C53.401 43.8347 53.025 43.7067 52.561 43.7067C52.209 43.7067 51.921 43.8107 51.697 44.0187C51.473 44.2267 51.361 44.5227 51.361 44.9067C51.361 45.2267 51.481 45.5067 51.721 45.7467C51.977 45.9707 52.289 46.1707 52.657 46.3467C53.025 46.5067 53.569 46.7147 54.289 46.9707C55.361 47.3387 56.241 47.7067 56.929 48.0747C57.633 48.4267 58.233 48.9307 58.729 49.5867C59.241 50.2267 59.497 51.0427 59.497 52.0347C59.497 53.0427 59.241 53.9467 58.729 54.7467C58.233 55.5467 57.505 56.1787 56.545 56.6427C55.601 57.1067 54.481 57.3387 53.185 57.3387ZM75.4598 43.7067V57.1707H70.7318V55.2507C70.3318 55.8587 69.7798 56.3547 69.0758 56.7387C68.3718 57.1067 67.5638 57.2907 66.6518 57.2907C65.0838 57.2907 63.8438 56.7787 62.9318 55.7547C62.0358 54.7147 61.5878 53.3067 61.5878 51.5307V43.7067H66.2678V50.9307C66.2678 51.6987 66.4678 52.3067 66.8678 52.7547C67.2838 53.1867 67.8278 53.4027 68.4998 53.4027C69.1878 53.4027 69.7318 53.1867 70.1318 52.7547C70.5318 52.3067 70.7318 51.6987 70.7318 50.9307V43.7067H75.4598ZM77.369 50.4267C77.369 49.0347 77.617 47.8187 78.113 46.7787C78.625 45.7387 79.313 44.9387 80.177 44.3787C81.057 43.8187 82.033 43.5387 83.105 43.5387C84.033 43.5387 84.833 43.7227 85.505 44.0907C86.177 44.4587 86.697 44.9547 87.065 45.5787V43.7067H91.769V57.1707H87.065V55.2987C86.697 55.9227 86.169 56.4187 85.481 56.7867C84.809 57.1547 84.017 57.3387 83.105 57.3387C82.033 57.3387 81.057 57.0587 80.177 56.4987C79.313 55.9387 78.625 55.1387 78.113 54.0987C77.617 53.0427 77.369 51.8187 77.369 50.4267ZM87.065 50.4267C87.065 49.5627 86.825 48.8827 86.345 48.3867C85.881 47.8907 85.305 47.6427 84.617 47.6427C83.913 47.6427 83.329 47.8907 82.865 48.3867C82.401 48.8667 82.169 49.5467 82.169 50.4267C82.169 51.2907 82.401 51.9787 82.865 52.4907C83.329 52.9867 83.913 53.2347 84.617 53.2347C85.305 53.2347 85.881 52.9867 86.345 52.4907C86.825 51.9947 87.065 51.3067 87.065 50.4267ZM111.907 50.2827C111.907 50.6507 111.883 51.0187 111.835 51.3867H102.931C102.979 52.1227 103.179 52.6747 103.531 53.0427C103.899 53.3947 104.363 53.5707 104.923 53.5707C105.707 53.5707 106.267 53.2187 106.603 52.5147H111.619C111.411 53.4427 111.003 54.2747 110.395 55.0107C109.803 55.7307 109.051 56.2987 108.139 56.7147C107.227 57.1307 106.219 57.3387 105.115 57.3387C103.787 57.3387 102.603 57.0587 101.563 56.4987C100.539 55.9387 99.7312 55.1387 99.1392 54.0987C98.5632 53.0587 98.2752 51.8347 98.2752 50.4267C98.2752 49.0187 98.5632 47.8027 99.1392 46.7787C99.7152 45.7387 100.515 44.9387 101.539 44.3787C102.579 43.8187 103.771 43.5387 105.115 43.5387C106.443 43.5387 107.619 43.8107 108.643 44.3547C109.667 44.8987 110.467 45.6827 111.043 46.7067C111.619 47.7147 111.907 48.9067 111.907 50.2827ZM107.107 49.1067C107.107 48.5307 106.915 48.0827 106.531 47.7627C106.147 47.4267 105.667 47.2587 105.091 47.2587C104.515 47.2587 104.043 47.4187 103.675 47.7387C103.307 48.0427 103.067 48.4987 102.955 49.1067H107.107ZM131.424 43.5867C133.12 43.5867 134.448 44.0987 135.408 45.1227C136.384 46.1467 136.872 47.5467 136.872 49.3227V57.1707H132.168V49.9467C132.168 49.2267 131.968 48.6667 131.568 48.2667C131.168 47.8667 130.624 47.6667 129.936 47.6667C129.248 47.6667 128.704 47.8667 128.304 48.2667C127.904 48.6667 127.704 49.2267 127.704 49.9467V57.1707H123V49.9467C123 49.2267 122.8 48.6667 122.4 48.2667C122.016 47.8667 121.48 47.6667 120.792 47.6667C120.088 47.6667 119.536 47.8667 119.136 48.2667C118.736 48.6667 118.536 49.2267 118.536 49.9467V57.1707H113.832V43.7067H118.536V45.4827C118.952 44.9067 119.488 44.4507 120.144 44.1147C120.816 43.7627 121.584 43.5867 122.448 43.5867C123.44 43.5867 124.32 43.8027 125.088 44.2347C125.872 44.6667 126.488 45.2747 126.936 46.0587C127.416 45.3227 128.048 44.7307 128.832 44.2827C129.616 43.8187 130.48 43.5867 131.424 43.5867ZM144.153 45.5787C144.521 44.9547 145.041 44.4587 145.713 44.0907C146.385 43.7227 147.177 43.5387 148.089 43.5387C149.161 43.5387 150.129 43.8187 150.993 44.3787C151.873 44.9387 152.561 45.7387 153.057 46.7787C153.569 47.8187 153.825 49.0347 153.825 50.4267C153.825 51.8187 153.569 53.0427 153.057 54.0987C152.561 55.1387 151.873 55.9387 150.993 56.4987C150.129 57.0587 149.161 57.3387 148.089 57.3387C147.177 57.3387 146.385 57.1547 145.713 56.7867C145.057 56.4187 144.537 55.9227 144.153 55.2987V63.6027H139.449V43.7067H144.153V45.5787ZM149.049 50.4267C149.049 49.5467 148.809 48.8667 148.329 48.3867C147.865 47.8907 147.289 47.6427 146.601 47.6427C145.913 47.6427 145.329 47.8907 144.849 48.3867C144.385 48.8827 144.153 49.5627 144.153 50.4267C144.153 51.3067 144.385 51.9947 144.849 52.4907C145.329 52.9867 145.913 53.2347 146.601 53.2347C147.289 53.2347 147.865 52.9867 148.329 52.4907C148.809 51.9787 149.049 51.2907 149.049 50.4267ZM160.466 46.0827C160.994 45.3147 161.634 44.7067 162.386 44.2587C163.138 43.8107 163.946 43.5867 164.81 43.5867V48.6027H163.49C162.466 48.6027 161.706 48.8027 161.21 49.2027C160.714 49.6027 160.466 50.2987 160.466 51.2907V57.1707H155.762V43.7067H160.466V46.0827ZM179.36 50.2827C179.36 50.6507 179.336 51.0187 179.288 51.3867H170.384C170.432 52.1227 170.632 52.6747 170.984 53.0427C171.352 53.3947 171.816 53.5707 172.376 53.5707C173.16 53.5707 173.72 53.2187 174.056 52.5147H179.072C178.864 53.4427 178.456 54.2747 177.848 55.0107C177.256 55.7307 176.504 56.2987 175.592 56.7147C174.68 57.1307 173.672 57.3387 172.568 57.3387C171.24 57.3387 170.056 57.0587 169.016 56.4987C167.992 55.9387 167.184 55.1387 166.592 54.0987C166.016 53.0587 165.728 51.8347 165.728 50.4267C165.728 49.0187 166.016 47.8027 166.592 46.7787C167.168 45.7387 167.968 44.9387 168.992 44.3787C170.032 43.8187 171.224 43.5387 172.568 43.5387C173.896 43.5387 175.072 43.8107 176.096 44.3547C177.12 44.8987 177.92 45.6827 178.496 46.7067C179.072 47.7147 179.36 48.9067 179.36 50.2827ZM174.56 49.1067C174.56 48.5307 174.368 48.0827 173.984 47.7627C173.6 47.4267 173.12 47.2587 172.544 47.2587C171.968 47.2587 171.496 47.4187 171.128 47.7387C170.76 48.0427 170.52 48.4987 170.408 49.1067H174.56ZM187.021 57.3387C185.805 57.3387 184.717 57.1387 183.757 56.7387C182.813 56.3227 182.061 55.7627 181.501 55.0587C180.957 54.3387 180.653 53.5307 180.589 52.6347H185.149C185.213 53.0667 185.413 53.4027 185.749 53.6427C186.085 53.8827 186.501 54.0027 186.997 54.0027C187.381 54.0027 187.685 53.9227 187.909 53.7627C188.133 53.6027 188.245 53.3947 188.245 53.1387C188.245 52.8027 188.061 52.5547 187.693 52.3947C187.325 52.2347 186.717 52.0587 185.869 51.8667C184.909 51.6747 184.109 51.4587 183.469 51.2187C182.829 50.9787 182.269 50.5867 181.789 50.0427C181.325 49.4987 181.093 48.7627 181.093 47.8347C181.093 47.0347 181.309 46.3147 181.741 45.6747C182.173 45.0187 182.805 44.4987 183.637 44.1147C184.485 43.7307 185.501 43.5387 186.685 43.5387C188.445 43.5387 189.829 43.9707 190.837 44.8347C191.845 45.6987 192.429 46.8347 192.589 48.2427H188.341C188.261 47.8107 188.069 47.4827 187.765 47.2587C187.477 47.0187 187.085 46.8987 186.589 46.8987C186.205 46.8987 185.909 46.9707 185.701 47.1147C185.509 47.2587 185.413 47.4587 185.413 47.7147C185.413 48.0347 185.597 48.2827 185.965 48.4587C186.333 48.6187 186.925 48.7867 187.741 48.9627C188.717 49.1707 189.525 49.4027 190.165 49.6587C190.821 49.9147 191.389 50.3307 191.869 50.9067C192.365 51.4667 192.613 52.2347 192.613 53.2107C192.613 53.9947 192.381 54.6987 191.917 55.3227C191.469 55.9467 190.821 56.4427 189.973 56.8107C189.141 57.1627 188.157 57.3387 187.021 57.3387ZM194.158 50.4267C194.158 49.0347 194.406 47.8187 194.902 46.7787C195.414 45.7387 196.102 44.9387 196.966 44.3787C197.846 43.8187 198.822 43.5387 199.894 43.5387C200.822 43.5387 201.622 43.7227 202.294 44.0907C202.966 44.4587 203.486 44.9547 203.854 45.5787V43.7067H208.558V57.1707H203.854V55.2987C203.486 55.9227 202.958 56.4187 202.27 56.7867C201.598 57.1547 200.806 57.3387 199.894 57.3387C198.822 57.3387 197.846 57.0587 196.966 56.4987C196.102 55.9387 195.414 55.1387 194.902 54.0987C194.406 53.0427 194.158 51.8187 194.158 50.4267ZM203.854 50.4267C203.854 49.5627 203.614 48.8827 203.134 48.3867C202.67 47.8907 202.094 47.6427 201.406 47.6427C200.702 47.6427 200.118 47.8907 199.654 48.3867C199.19 48.8667 198.958 49.5467 198.958 50.4267C198.958 51.2907 199.19 51.9787 199.654 52.4907C200.118 52.9867 200.702 53.2347 201.406 53.2347C202.094 53.2347 202.67 52.9867 203.134 52.4907C203.614 51.9947 203.854 51.3067 203.854 50.4267ZM220.8 43.5387C221.712 43.5387 222.504 43.7227 223.176 44.0907C223.864 44.4587 224.392 44.9547 224.76 45.5787V43.7067H229.464V57.0267C229.464 58.2907 229.224 59.4267 228.744 60.4347C228.264 61.4587 227.512 62.2747 226.488 62.8827C225.48 63.4907 224.2 63.7947 222.648 63.7947C220.568 63.7947 218.904 63.3067 217.656 62.3307C216.408 61.3547 215.696 60.0267 215.52 58.3467H220.152C220.248 58.7787 220.488 59.1147 220.872 59.3547C221.256 59.5947 221.752 59.7147 222.36 59.7147C223.96 59.7147 224.76 58.8187 224.76 57.0267V55.2987C224.392 55.9227 223.864 56.4187 223.176 56.7867C222.504 57.1547 221.712 57.3387 220.8 57.3387C219.728 57.3387 218.752 57.0587 217.872 56.4987C217.008 55.9387 216.32 55.1387 215.808 54.0987C215.312 53.0427 215.064 51.8187 215.064 50.4267C215.064 49.0347 215.312 47.8187 215.808 46.7787C216.32 45.7387 217.008 44.9387 217.872 44.3787C218.752 43.8187 219.728 43.5387 220.8 43.5387ZM224.76 50.4267C224.76 49.5627 224.52 48.8827 224.04 48.3867C223.576 47.8907 223 47.6427 222.312 47.6427C221.608 47.6427 221.024 47.8907 220.56 48.3867C220.096 48.8667 219.864 49.5467 219.864 50.4267C219.864 51.2907 220.096 51.9787 220.56 52.4907C221.024 52.9867 221.608 53.2347 222.312 53.2347C223 53.2347 223.576 52.9867 224.04 52.4907C224.52 51.9947 224.76 51.3067 224.76 50.4267ZM238.409 57.3387C237.065 57.3387 235.857 57.0587 234.785 56.4987C233.729 55.9387 232.897 55.1387 232.289 54.0987C231.681 53.0587 231.377 51.8347 231.377 50.4267C231.377 49.0347 231.681 47.8187 232.289 46.7787C232.913 45.7387 233.753 44.9387 234.809 44.3787C235.881 43.8187 237.089 43.5387 238.433 43.5387C239.777 43.5387 240.977 43.8187 242.033 44.3787C243.105 44.9387 243.945 45.7387 244.553 46.7787C245.177 47.8187 245.489 49.0347 245.489 50.4267C245.489 51.8187 245.177 53.0427 244.553 54.0987C243.945 55.1387 243.105 55.9387 242.033 56.4987C240.961 57.0587 239.753 57.3387 238.409 57.3387ZM238.409 53.2587C239.065 53.2587 239.609 53.0187 240.041 52.5387C240.489 52.0427 240.713 51.3387 240.713 50.4267C240.713 49.5147 240.489 48.8187 240.041 48.3387C239.609 47.8587 239.073 47.6187 238.433 47.6187C237.793 47.6187 237.257 47.8587 236.825 48.3387C236.393 48.8187 236.177 49.5147 236.177 50.4267C236.177 51.3547 236.385 52.0587 236.801 52.5387C237.217 53.0187 237.753 53.2587 238.409 53.2587ZM253.139 57.3387C251.923 57.3387 250.835 57.1387 249.875 56.7387C248.931 56.3227 248.179 55.7627 247.619 55.0587C247.075 54.3387 246.771 53.5307 246.707 52.6347H251.267C251.331 53.0667 251.531 53.4027 251.867 53.6427C252.203 53.8827 252.619 54.0027 253.115 54.0027C253.499 54.0027 253.803 53.9227 254.027 53.7627C254.251 53.6027 254.363 53.3947 254.363 53.1387C254.363 52.8027 254.179 52.5547 253.811 52.3947C253.443 52.2347 252.835 52.0587 251.987 51.8667C251.027 51.6747 250.227 51.4587 249.587 51.2187C248.947 50.9787 248.387 50.5867 247.907 50.0427C247.443 49.4987 247.211 48.7627 247.211 47.8347C247.211 47.0347 247.427 46.3147 247.859 45.6747C248.291 45.0187 248.923 44.4987 249.755 44.1147C250.603 43.7307 251.619 43.5387 252.803 43.5387C254.563 43.5387 255.947 43.9707 256.955 44.8347C257.963 45.6987 258.547 46.8347 258.707 48.2427H254.459C254.379 47.8107 254.187 47.4827 253.883 47.2587C253.595 47.0187 253.203 46.8987 252.707 46.8987C252.323 46.8987 252.027 46.9707 251.819 47.1147C251.627 47.2587 251.531 47.4587 251.531 47.7147C251.531 48.0347 251.715 48.2827 252.083 48.4587C252.451 48.6187 253.043 48.7867 253.859 48.9627C254.835 49.1707 255.643 49.4027 256.283 49.6587C256.939 49.9147 257.507 50.3307 257.987 50.9067C258.483 51.4667 258.731 52.2347 258.731 53.2107C258.731 53.9947 258.499 54.6987 258.035 55.3227C257.587 55.9467 256.939 56.4427 256.091 56.8107C255.259 57.1627 254.275 57.3387 253.139 57.3387ZM268.987 53.1627V57.1707H266.947C263.507 57.1707 261.787 55.4667 261.787 52.0587V47.6187H260.131V43.7067H261.787V40.4427H266.515V43.7067H268.963V47.6187H266.515V52.1307C266.515 52.4987 266.595 52.7627 266.755 52.9227C266.931 53.0827 267.219 53.1627 267.619 53.1627H268.987ZM270.377 50.4267C270.377 49.0347 270.625 47.8187 271.121 46.7787C271.633 45.7387 272.321 44.9387 273.185 44.3787C274.065 43.8187 275.041 43.5387 276.113 43.5387C277.041 43.5387 277.841 43.7227 278.513 44.0907C279.185 44.4587 279.705 44.9547 280.073 45.5787V43.7067H284.777V57.1707H280.073V55.2987C279.705 55.9227 279.177 56.4187 278.489 56.7867C277.817 57.1547 277.025 57.3387 276.113 57.3387C275.041 57.3387 274.065 57.0587 273.185 56.4987C272.321 55.9387 271.633 55.1387 271.121 54.0987C270.625 53.0427 270.377 51.8187 270.377 50.4267ZM280.073 50.4267C280.073 49.5627 279.833 48.8827 279.353 48.3867C278.889 47.8907 278.313 47.6427 277.625 47.6427C276.921 47.6427 276.337 47.8907 275.873 48.3867C275.409 48.8667 275.177 49.5467 275.177 50.4267C275.177 51.2907 275.409 51.9787 275.873 52.4907C276.337 52.9867 276.921 53.2347 277.625 53.2347C278.313 53.2347 278.889 52.9867 279.353 52.4907C279.833 51.9947 280.073 51.3067 280.073 50.4267ZM292.161 46.0827C292.689 45.3147 293.329 44.7067 294.081 44.2587C294.833 43.8107 295.641 43.5867 296.505 43.5867V48.6027H295.185C294.161 48.6027 293.401 48.8027 292.905 49.2027C292.409 49.6027 292.161 50.2987 292.161 51.2907V57.1707H287.457V43.7067H292.161V46.0827ZM300.568 42.4587C299.736 42.4587 299.064 42.2347 298.552 41.7867C298.056 41.3227 297.808 40.7467 297.808 40.0587C297.808 39.3547 298.056 38.7707 298.552 38.3067C299.064 37.8427 299.736 37.6107 300.568 37.6107C301.384 37.6107 302.04 37.8427 302.536 38.3067C303.048 38.7707 303.304 39.3547 303.304 40.0587C303.304 40.7467 303.048 41.3227 302.536 41.7867C302.04 42.2347 301.384 42.4587 300.568 42.4587ZM302.896 43.7067V57.1707H298.192V43.7067H302.896ZM304.806 50.4267C304.806 49.0347 305.054 47.8187 305.55 46.7787C306.062 45.7387 306.75 44.9387 307.614 44.3787C308.494 43.8187 309.47 43.5387 310.542 43.5387C311.47 43.5387 312.27 43.7227 312.942 44.0907C313.614 44.4587 314.134 44.9547 314.502 45.5787V43.7067H319.206V57.1707H314.502V55.2987C314.134 55.9227 313.606 56.4187 312.918 56.7867C312.246 57.1547 311.454 57.3387 310.542 57.3387C309.47 57.3387 308.494 57.0587 307.614 56.4987C306.75 55.9387 306.062 55.1387 305.55 54.0987C305.054 53.0427 304.806 51.8187 304.806 50.4267ZM314.502 50.4267C314.502 49.5627 314.262 48.8827 313.782 48.3867C313.318 47.8907 312.742 47.6427 312.054 47.6427C311.35 47.6427 310.766 47.8907 310.302 48.3867C309.838 48.8667 309.606 49.5467 309.606 50.4267C309.606 51.2907 309.838 51.9787 310.302 52.4907C310.766 52.9867 311.35 53.2347 312.054 53.2347C312.742 53.2347 313.318 52.9867 313.782 52.4907C314.262 51.9947 314.502 51.3067 314.502 50.4267ZM55.1502 79.4267C55.1502 78.0347 55.3982 76.8187 55.8942 75.7787C56.4062 74.7387 57.1022 73.9387 57.9822 73.3787C58.8622 72.8187 59.8382 72.5387 60.9102 72.5387C61.7742 72.5387 62.5422 72.7227 63.2142 73.0907C63.9022 73.4427 64.4382 73.9307 64.8222 74.5547V68.4107H69.5502V86.1707H64.8222V84.2987C64.4542 84.9227 63.9342 85.4187 63.2622 85.7867C62.5902 86.1547 61.7982 86.3387 60.8862 86.3387C59.8142 86.3387 58.8382 86.0587 57.9582 85.4987C57.0942 84.9387 56.4062 84.1387 55.8942 83.0987C55.3982 82.0427 55.1502 80.8187 55.1502 79.4267ZM64.8462 79.4267C64.8462 78.5627 64.6062 77.8827 64.1262 77.3867C63.6622 76.8907 63.0862 76.6427 62.3982 76.6427C61.6942 76.6427 61.1102 76.8907 60.6462 77.3867C60.1822 77.8667 59.9502 78.5467 59.9502 79.4267C59.9502 80.2907 60.1822 80.9787 60.6462 81.4907C61.1102 81.9867 61.6942 82.2347 62.3982 82.2347C63.0862 82.2347 63.6622 81.9867 64.1262 81.4907C64.6062 80.9947 64.8462 80.3067 64.8462 79.4267ZM85.0947 79.2827C85.0947 79.6507 85.0707 80.0187 85.0227 80.3867H76.1187C76.1667 81.1227 76.3667 81.6747 76.7187 82.0427C77.0867 82.3947 77.5507 82.5707 78.1107 82.5707C78.8947 82.5707 79.4547 82.2187 79.7907 81.5147H84.8067C84.5987 82.4427 84.1907 83.2747 83.5827 84.0107C82.9907 84.7307 82.2387 85.2987 81.3267 85.7147C80.4147 86.1307 79.4067 86.3387 78.3027 86.3387C76.9747 86.3387 75.7907 86.0587 74.7507 85.4987C73.7267 84.9387 72.9187 84.1387 72.3267 83.0987C71.7507 82.0587 71.4627 80.8347 71.4627 79.4267C71.4627 78.0187 71.7507 76.8027 72.3267 75.7787C72.9027 74.7387 73.7027 73.9387 74.7267 73.3787C75.7667 72.8187 76.9587 72.5387 78.3027 72.5387C79.6307 72.5387 80.8067 72.8107 81.8307 73.3547C82.8547 73.8987 83.6547 74.6827 84.2307 75.7067C84.8067 76.7147 85.0947 77.9067 85.0947 79.2827ZM80.2947 78.1067C80.2947 77.5307 80.1027 77.0827 79.7187 76.7627C79.3347 76.4267 78.8547 76.2587 78.2787 76.2587C77.7027 76.2587 77.2307 76.4187 76.8627 76.7387C76.4947 77.0427 76.2547 77.4987 76.1427 78.1067H80.2947ZM98.8855 76.6187H96.7735V86.1707H92.0455V76.6187H90.5815V72.7067H92.0455V72.5867C92.0455 70.8587 92.5495 69.5387 93.5575 68.6267C94.5815 67.6987 96.0455 67.2347 97.9495 67.2347C98.3335 67.2347 98.6295 67.2427 98.8375 67.2587V71.2667C98.7095 71.2507 98.5335 71.2427 98.3095 71.2427C97.7975 71.2427 97.4215 71.3627 97.1815 71.6027C96.9415 71.8267 96.8055 72.1947 96.7735 72.7067H98.8855V76.6187ZM99.7987 79.4267C99.7987 78.0347 100.047 76.8187 100.543 75.7787C101.055 74.7387 101.743 73.9387 102.607 73.3787C103.487 72.8187 104.463 72.5387 105.535 72.5387C106.463 72.5387 107.263 72.7227 107.935 73.0907C108.607 73.4587 109.127 73.9547 109.495 74.5787V72.7067H114.199V86.1707H109.495V84.2987C109.127 84.9227 108.599 85.4187 107.911 85.7867C107.239 86.1547 106.447 86.3387 105.535 86.3387C104.463 86.3387 103.487 86.0587 102.607 85.4987C101.743 84.9387 101.055 84.1387 100.543 83.0987C100.047 82.0427 99.7987 80.8187 99.7987 79.4267ZM109.495 79.4267C109.495 78.5627 109.255 77.8827 108.775 77.3867C108.311 76.8907 107.735 76.6427 107.047 76.6427C106.343 76.6427 105.759 76.8907 105.295 77.3867C104.831 77.8667 104.599 78.5467 104.599 79.4267C104.599 80.2907 104.831 80.9787 105.295 81.4907C105.759 81.9867 106.343 82.2347 107.047 82.2347C107.735 82.2347 108.311 81.9867 108.775 81.4907C109.255 80.9947 109.495 80.3067 109.495 79.4267ZM121.343 82.2587H127.079V86.1707H116.159V82.4507L121.511 76.6187H116.207V72.7067H126.887V76.4267L121.343 82.2587ZM141.907 79.2827C141.907 79.6507 141.883 80.0187 141.835 80.3867H132.931C132.979 81.1227 133.179 81.6747 133.531 82.0427C133.899 82.3947 134.363 82.5707 134.923 82.5707C135.707 82.5707 136.267 82.2187 136.603 81.5147H141.619C141.411 82.4427 141.003 83.2747 140.395 84.0107C139.803 84.7307 139.051 85.2987 138.139 85.7147C137.227 86.1307 136.219 86.3387 135.115 86.3387C133.787 86.3387 132.603 86.0587 131.563 85.4987C130.539 84.9387 129.731 84.1387 129.139 83.0987C128.563 82.0587 128.275 80.8347 128.275 79.4267C128.275 78.0187 128.563 76.8027 129.139 75.7787C129.715 74.7387 130.515 73.9387 131.539 73.3787C132.579 72.8187 133.771 72.5387 135.115 72.5387C136.443 72.5387 137.619 72.8107 138.643 73.3547C139.667 73.8987 140.467 74.6827 141.043 75.7067C141.619 76.7147 141.907 77.9067 141.907 79.2827ZM137.107 78.1067C137.107 77.5307 136.915 77.0827 136.531 76.7627C136.147 76.4267 135.667 76.2587 135.091 76.2587C134.515 76.2587 134.043 76.4187 133.675 76.7387C133.307 77.0427 133.067 77.4987 132.955 78.1067H137.107ZM148.536 75.0827C149.064 74.3147 149.704 73.7067 150.456 73.2587C151.208 72.8107 152.016 72.5867 152.88 72.5867V77.6027H151.56C150.536 77.6027 149.776 77.8027 149.28 78.2027C148.784 78.6027 148.536 79.2987 148.536 80.2907V86.1707H143.832V72.7067H148.536V75.0827ZM172.936 72.7067V86.1707H168.208V84.2507C167.808 84.8587 167.256 85.3547 166.552 85.7387C165.848 86.1067 165.04 86.2907 164.128 86.2907C162.56 86.2907 161.32 85.7787 160.408 84.7547C159.512 83.7147 159.064 82.3067 159.064 80.5307V72.7067H163.744V79.9307C163.744 80.6987 163.944 81.3067 164.344 81.7547C164.76 82.1867 165.304 82.4027 165.976 82.4027C166.664 82.4027 167.208 82.1867 167.608 81.7547C168.008 81.3067 168.208 80.6987 168.208 79.9307V72.7067H172.936ZM193.206 72.5867C194.902 72.5867 196.23 73.0987 197.19 74.1227C198.166 75.1467 198.654 76.5467 198.654 78.3227V86.1707H193.95V78.9467C193.95 78.2267 193.75 77.6667 193.35 77.2667C192.95 76.8667 192.406 76.6667 191.718 76.6667C191.03 76.6667 190.486 76.8667 190.086 77.2667C189.686 77.6667 189.486 78.2267 189.486 78.9467V86.1707H184.782V78.9467C184.782 78.2267 184.582 77.6667 184.182 77.2667C183.798 76.8667 183.262 76.6667 182.574 76.6667C181.87 76.6667 181.318 76.8667 180.918 77.2667C180.518 77.6667 180.318 78.2267 180.318 78.9467V86.1707H175.614V72.7067H180.318V74.4827C180.734 73.9067 181.27 73.4507 181.926 73.1147C182.598 72.7627 183.366 72.5867 184.23 72.5867C185.222 72.5867 186.102 72.8027 186.87 73.2347C187.654 73.6667 188.27 74.2747 188.718 75.0587C189.198 74.3227 189.83 73.7307 190.614 73.2827C191.398 72.8187 192.262 72.5867 193.206 72.5867ZM205.056 79.4267C205.056 78.0347 205.304 76.8187 205.8 75.7787C206.312 74.7387 207.008 73.9387 207.888 73.3787C208.768 72.8187 209.744 72.5387 210.816 72.5387C211.68 72.5387 212.448 72.7227 213.12 73.0907C213.808 73.4427 214.344 73.9307 214.728 74.5547V68.4107H219.456V86.1707H214.728V84.2987C214.36 84.9227 213.84 85.4187 213.168 85.7867C212.496 86.1547 211.704 86.3387 210.792 86.3387C209.72 86.3387 208.744 86.0587 207.864 85.4987C207 84.9387 206.312 84.1387 205.8 83.0987C205.304 82.0427 205.056 80.8187 205.056 79.4267ZM214.752 79.4267C214.752 78.5627 214.512 77.8827 214.032 77.3867C213.568 76.8907 212.992 76.6427 212.304 76.6427C211.6 76.6427 211.016 76.8907 210.552 77.3867C210.088 77.8667 209.856 78.5467 209.856 79.4267C209.856 80.2907 210.088 80.9787 210.552 81.4907C211.016 81.9867 211.6 82.2347 212.304 82.2347C212.992 82.2347 213.568 81.9867 214.032 81.4907C214.512 80.9947 214.752 80.3067 214.752 79.4267ZM228.401 86.3387C227.057 86.3387 225.849 86.0587 224.777 85.4987C223.721 84.9387 222.889 84.1387 222.281 83.0987C221.673 82.0587 221.369 80.8347 221.369 79.4267C221.369 78.0347 221.673 76.8187 222.281 75.7787C222.905 74.7387 223.745 73.9387 224.801 73.3787C225.873 72.8187 227.081 72.5387 228.425 72.5387C229.769 72.5387 230.969 72.8187 232.025 73.3787C233.097 73.9387 233.937 74.7387 234.545 75.7787C235.169 76.8187 235.481 78.0347 235.481 79.4267C235.481 80.8187 235.169 82.0427 234.545 83.0987C233.937 84.1387 233.097 84.9387 232.025 85.4987C230.953 86.0587 229.745 86.3387 228.401 86.3387ZM228.401 82.2587C229.057 82.2587 229.601 82.0187 230.033 81.5387C230.481 81.0427 230.705 80.3387 230.705 79.4267C230.705 78.5147 230.481 77.8187 230.033 77.3387C229.601 76.8587 229.065 76.6187 228.425 76.6187C227.785 76.6187 227.249 76.8587 226.817 77.3387C226.385 77.8187 226.169 78.5147 226.169 79.4267C226.169 80.3547 226.377 81.0587 226.793 81.5387C227.209 82.0187 227.745 82.2587 228.401 82.2587ZM236.627 79.4267C236.627 78.0347 236.875 76.8187 237.371 75.7787C237.883 74.7387 238.571 73.9387 239.435 73.3787C240.315 72.8187 241.291 72.5387 242.363 72.5387C243.291 72.5387 244.091 72.7227 244.763 73.0907C245.435 73.4587 245.955 73.9547 246.323 74.5787V72.7067H251.027V86.1707H246.323V84.2987C245.955 84.9227 245.427 85.4187 244.739 85.7867C244.067 86.1547 243.275 86.3387 242.363 86.3387C241.291 86.3387 240.315 86.0587 239.435 85.4987C238.571 84.9387 237.883 84.1387 237.371 83.0987C236.875 82.0427 236.627 80.8187 236.627 79.4267ZM246.323 79.4267C246.323 78.5627 246.083 77.8827 245.603 77.3867C245.139 76.8907 244.563 76.6427 243.875 76.6427C243.171 76.6427 242.587 76.8907 242.123 77.3867C241.659 77.8667 241.427 78.5467 241.427 79.4267C241.427 80.2907 241.659 80.9787 242.123 81.4907C242.587 81.9867 243.171 82.2347 243.875 82.2347C244.563 82.2347 245.139 81.9867 245.603 81.4907C246.083 80.9947 246.323 80.3067 246.323 79.4267ZM259.659 82.3307C260.507 82.3307 261.067 81.8907 261.339 81.0107H266.331C266.043 82.4347 265.443 83.6027 264.531 84.5147C263.635 85.4107 262.507 85.9787 261.147 86.2187V87.0587C261.931 87.0587 262.643 87.2907 263.283 87.7547C263.939 88.2187 264.267 88.9307 264.267 89.8907C264.267 90.8667 263.923 91.5867 263.235 92.0507C262.547 92.5147 261.731 92.7467 260.787 92.7467H256.875V90.2747H260.235C260.763 90.2747 261.027 90.1067 261.027 89.7707C261.027 89.4347 260.763 89.2667 260.235 89.2667H258.363V86.2187C256.715 85.9467 255.395 85.2107 254.403 84.0107C253.427 82.8107 252.939 81.2827 252.939 79.4267C252.939 78.0347 253.227 76.8187 253.803 75.7787C254.379 74.7387 255.179 73.9387 256.203 73.3787C257.243 72.8187 258.427 72.5387 259.755 72.5387C261.467 72.5387 262.907 73.0107 264.075 73.9547C265.243 74.8827 265.995 76.1867 266.331 77.8667H261.339C261.051 76.9867 260.491 76.5467 259.659 76.5467C259.067 76.5467 258.595 76.7947 258.243 77.2907C257.907 77.7707 257.739 78.4827 257.739 79.4267C257.739 80.3707 257.907 81.0907 258.243 81.5867C258.595 82.0827 259.067 82.3307 259.659 82.3307ZM267.517 79.4267C267.517 78.0347 267.765 76.8187 268.261 75.7787C268.773 74.7387 269.461 73.9387 270.325 73.3787C271.205 72.8187 272.181 72.5387 273.253 72.5387C274.181 72.5387 274.981 72.7227 275.653 73.0907C276.325 73.4587 276.845 73.9547 277.213 74.5787V72.7067H281.917V86.1707H277.213V84.2987C276.845 84.9227 276.317 85.4187 275.629 85.7867C274.957 86.1547 274.165 86.3387 273.253 86.3387C272.181 86.3387 271.205 86.0587 270.325 85.4987C269.461 84.9387 268.773 84.1387 268.261 83.0987C267.765 82.0427 267.517 80.8187 267.517 79.4267ZM277.213 79.4267C277.213 78.5627 276.973 77.8827 276.493 77.3867C276.029 76.8907 275.453 76.6427 274.765 76.6427C274.061 76.6427 273.477 76.8907 273.013 77.3867C272.549 77.8667 272.317 78.5467 272.317 79.4267C272.317 80.2907 272.549 80.9787 273.013 81.4907C273.477 81.9867 274.061 82.2347 274.765 82.2347C275.453 82.2347 276.029 81.9867 276.493 81.4907C276.973 80.9947 277.213 80.3067 277.213 79.4267ZM269.989 71.6987C270.437 69.0907 271.637 67.7867 273.589 67.7867C273.957 67.7867 274.285 67.8427 274.573 67.9547C274.877 68.0667 275.221 68.2267 275.605 68.4347C275.877 68.5787 276.109 68.6907 276.301 68.7707C276.493 68.8507 276.685 68.8907 276.877 68.8907C277.469 68.8907 277.821 68.5227 277.933 67.7867H280.309C280.085 69.1467 279.661 70.1387 279.037 70.7627C278.429 71.3707 277.653 71.6747 276.709 71.6747C276.357 71.6747 276.037 71.6267 275.749 71.5307C275.461 71.4187 275.109 71.2587 274.693 71.0507C274.421 70.9067 274.189 70.7947 273.997 70.7147C273.805 70.6347 273.613 70.5947 273.421 70.5947C272.845 70.5947 272.485 70.9627 272.341 71.6987H269.989ZM290.862 86.3387C289.518 86.3387 288.31 86.0587 287.238 85.4987C286.182 84.9387 285.35 84.1387 284.742 83.0987C284.134 82.0587 283.83 80.8347 283.83 79.4267C283.83 78.0347 284.134 76.8187 284.742 75.7787C285.366 74.7387 286.206 73.9387 287.262 73.3787C288.334 72.8187 289.542 72.5387 290.886 72.5387C292.23 72.5387 293.43 72.8187 294.486 73.3787C295.558 73.9387 296.398 74.7387 297.006 75.7787C297.63 76.8187 297.942 78.0347 297.942 79.4267C297.942 80.8187 297.63 82.0427 297.006 83.0987C296.398 84.1387 295.558 84.9387 294.486 85.4987C293.414 86.0587 292.206 86.3387 290.862 86.3387ZM290.862 82.2587C291.518 82.2587 292.062 82.0187 292.494 81.5387C292.942 81.0427 293.166 80.3387 293.166 79.4267C293.166 78.5147 292.942 77.8187 292.494 77.3387C292.062 76.8587 291.526 76.6187 290.886 76.6187C290.246 76.6187 289.71 76.8587 289.278 77.3387C288.846 77.8187 288.63 78.5147 288.63 79.4267C288.63 80.3547 288.838 81.0587 289.254 81.5387C289.67 82.0187 290.206 82.2587 290.862 82.2587ZM304.992 68.0027C306.736 68.0027 308.136 68.4507 309.192 69.3467C310.248 70.2427 310.776 71.5227 310.776 73.1867C310.776 74.6427 310.288 75.7947 309.312 76.6427C308.352 77.4907 307.08 77.9307 305.496 77.9627L305.376 79.7147H301.224L301.08 74.9387H302.808C303.896 74.9387 304.728 74.8187 305.304 74.5787C305.88 74.3227 306.168 73.8747 306.168 73.2347C306.168 72.8027 306.048 72.4667 305.808 72.2267C305.584 71.9707 305.272 71.8427 304.872 71.8427C304.424 71.8427 304.08 71.9787 303.84 72.2507C303.616 72.5067 303.504 72.8587 303.504 73.3067H299.064C299.032 72.3307 299.232 71.4427 299.664 70.6427C300.112 69.8267 300.784 69.1867 301.68 68.7227C302.576 68.2427 303.68 68.0027 304.992 68.0027ZM303.336 86.3627C302.504 86.3627 301.832 86.1387 301.32 85.6907C300.824 85.2267 300.576 84.6427 300.576 83.9387C300.576 83.2347 300.824 82.6507 301.32 82.1867C301.832 81.7227 302.504 81.4907 303.336 81.4907C304.152 81.4907 304.808 81.7227 305.304 82.1867C305.816 82.6507 306.072 83.2347 306.072 83.9387C306.072 84.6267 305.816 85.2027 305.304 85.6667C304.808 86.1307 304.152 86.3627 303.336 86.3627Z" fill="#B93800"/>
<defs>
<linearGradient id="paint0_linear_56_1031" x1="179" y1="34" x2="179" y2="294" gradientUnits="userSpaceOnUse">
<stop stop-color="#F2F2F2" stop-opacity="0"/>
<stop offset="0.730769" stop-color="#F2F2F2"/>
</linearGradient>
<clipPath id="clip0_56_1031">
<rect width="268" height="179" fill="white" transform="translate(49 94)"/>
</clipPath>
</defs>
</svg>
