<svg width="319" height="279" viewBox="0 0 319 279" fill="none" xmlns="http://www.w3.org/2000/svg">
<rect width="319" height="278.829" rx="10" fill="#F2F2F2"/>
<path d="M0 18.8291H312V258.829C312 269.875 303.046 278.829 292 278.829H20C8.95431 278.829 0 269.875 0 258.829V18.8291Z" fill="url(#paint0_linear_36_2514)"/>
<g clip-path="url(#clip0_36_2514)">
<rect width="268" height="179" transform="translate(26 78.8291)" fill="#F2F2F2"/>
<path d="M0 181.008L39.0036 180.919L78.0024 180.886L156 180.829L233.998 180.886L273.001 180.919L312 181.008L273.001 181.094L233.998 181.126L156 181.184L78.0024 181.126L39.0036 181.094L0 181.008Z" fill="#263238"/>
<path d="M185.013 212.692C185.839 212.939 209.187 212.166 210.059 211.572C210.391 211.35 210.477 207.935 210.463 203.807V203.678C210.463 202.826 207.808 188.581 207.808 188.581L192.185 189.05L195.401 204.007V204.261C195.401 204.261 186.596 208.557 185.706 209.32C184.817 210.083 184.206 212.445 185.013 212.692Z" fill="#F7A9A0"/>
<path d="M210.07 211.572C209.205 212.166 185.853 212.943 185.031 212.692C184.209 212.442 184.849 210.072 185.728 209.32C186.228 208.894 189.233 207.347 191.767 206.077C190.062 206.979 186.561 210.072 197.191 208.264C204.384 207.04 208.519 206.009 210.477 205.454C210.463 208.808 210.359 211.382 210.07 211.572Z" fill="#263238"/>
<path d="M192.249 203.696L212.192 202.031C212.192 202.031 206.153 177.931 207.239 176.302C207.715 175.586 225.999 178.972 232.942 171.44C239.292 164.549 232.942 150.637 232.942 150.637H215.79C215.79 150.637 215.973 156.68 214.926 158.892C214.475 159.841 193.843 158.029 190.43 164.262C185.892 172.586 192.249 203.696 192.249 203.696Z" fill="#37474F"/>
<path d="M209.83 198.183C207.633 198.287 205.424 198.372 203.227 198.541C201.029 198.709 198.824 198.899 196.63 199.16L194.772 199.378C194.475 199.414 194.182 199.45 193.886 199.493C193.587 199.521 193.29 199.568 192.996 199.633C192.964 199.633 192.975 199.683 192.996 199.686C193.559 199.708 194.122 199.69 194.683 199.633L196.276 199.543C197.37 199.479 198.463 199.407 199.557 199.328C201.747 199.171 203.927 198.945 206.11 198.709L209.827 198.297C209.905 198.287 209.905 198.179 209.83 198.183Z" fill="#263238"/>
<path d="M231.016 154.142C230.956 153.565 230.909 152.985 230.884 152.405C230.882 152.398 230.877 152.392 230.871 152.388C230.865 152.383 230.858 152.381 230.85 152.381C230.843 152.381 230.835 152.383 230.829 152.388C230.823 152.392 230.819 152.398 230.816 152.405C230.816 156.805 232.342 161.248 231.149 165.612C230.64 167.524 229.479 169.197 227.868 170.341C226.174 171.478 224.236 172.198 222.212 172.443C219.914 172.776 217.566 172.711 215.262 172.697L208.047 172.661H206.26C205.699 172.627 205.135 172.627 204.574 172.661C204.373 172.669 204.18 172.743 204.026 172.873C203.872 173.003 203.765 173.18 203.723 173.377C203.652 173.89 203.645 174.409 203.702 174.924C203.771 177.248 203.935 179.565 204.195 181.872C204.715 186.472 205.609 191.022 206.868 195.476C207.025 196.028 207.189 196.579 207.357 197.127C207.362 197.141 207.371 197.152 207.384 197.159C207.397 197.166 207.411 197.167 207.425 197.163C207.439 197.158 207.45 197.149 207.457 197.136C207.464 197.123 207.465 197.108 207.461 197.095C206.198 192.602 205.264 188.023 204.667 183.394C204.374 181.092 204.173 178.776 204.048 176.456C204.017 175.883 203.992 175.31 203.973 174.738C203.973 174.458 203.952 174.175 203.948 173.896C203.925 173.658 203.968 173.417 204.073 173.202C204.16 173.099 204.27 173.019 204.395 172.969C204.52 172.92 204.655 172.903 204.788 172.919C205.103 172.919 205.417 172.919 205.731 172.919H207.518L214.733 172.965C217.045 172.965 219.378 173.055 221.672 172.786C223.683 172.602 225.632 171.992 227.389 170.996C229.03 170.05 230.322 168.597 231.07 166.854C232.771 162.77 231.467 158.352 231.016 154.142Z" fill="#263238"/>
<path d="M232.942 171.44C228.654 176.094 219.989 176.581 213.914 176.452L220.865 150.651H232.942C232.942 150.651 239.292 164.548 232.942 171.44Z" fill="#263238"/>
<path d="M268.247 211.694C268.154 210.838 258.32 189.605 257.434 189.036C257.102 188.814 253.929 190.07 250.141 191.696L250.023 191.749C249.24 192.082 234.826 195.963 234.826 195.963L241.215 209.857L256.223 205.518L256.451 205.403C256.451 205.403 263.841 211.847 264.884 212.367C265.928 212.886 268.347 212.549 268.247 211.694Z" fill="#F7A9A0"/>
<path d="M252.028 190.883C254.936 189.669 257.159 188.839 257.434 189.025C258.324 189.594 268.154 210.824 268.247 211.679C268.34 212.535 265.914 212.871 264.877 212.352C264.245 212.034 261.25 209.517 259.006 207.602C260.611 208.862 264.113 210.405 258.871 201.555C255.637 196.106 253.364 192.752 252.028 190.883Z" fill="#263238"/>
<path d="M215.908 150.637C215.908 150.637 216.173 158.96 217.42 163.059C217.42 163.059 218.778 163.775 219.185 164.03C219.185 164.03 208.865 188.785 209.451 198.312C209.644 201.433 213.175 206.563 216.741 208.787C223.051 212.725 253.846 209.27 253.846 209.27L249.38 190.718C249.38 190.718 229.909 191.792 229.416 190.751C228.79 189.412 232.667 178.997 235.765 170.538C236.076 169.682 239.192 166.532 238.828 160.825C238.55 157.296 237.643 153.845 236.148 150.637H215.908Z" fill="#37474F"/>
<path d="M219.149 161.119C219.11 160.528 219.067 159.937 219.014 159.35C218.896 158.008 218.756 156.662 218.52 155.334C218.52 155.23 218.356 155.269 218.367 155.369C218.456 156.411 218.574 157.453 218.674 158.495C218.774 159.537 218.896 160.575 218.914 161.613C218.914 161.924 218.914 162.454 218.513 162.54C217.999 162.658 217.756 161.978 217.634 161.609C217.338 160.682 217.122 159.731 216.987 158.767C216.816 157.693 216.727 156.565 216.63 155.462C216.63 155.423 216.559 155.43 216.559 155.462C216.559 157.65 216.584 159.937 217.398 162.003C217.457 162.215 217.572 162.408 217.731 162.56C217.891 162.712 218.088 162.818 218.302 162.866C218.302 162.866 218.302 162.866 218.324 162.866C218.345 162.866 218.324 162.891 218.324 162.905C218.324 162.92 218.349 163.027 218.36 163.088C218.367 163.14 218.377 163.191 218.392 163.242C218.413 163.349 218.428 163.457 218.453 163.56C218.456 163.579 218.467 163.595 218.481 163.607C218.496 163.619 218.514 163.626 218.533 163.626C218.552 163.626 218.57 163.619 218.585 163.607C218.599 163.595 218.609 163.579 218.613 163.56C218.627 163.556 218.638 163.547 218.646 163.535C218.653 163.524 218.657 163.51 218.656 163.496C218.647 163.283 218.6 163.073 218.517 162.877C218.643 162.851 218.76 162.793 218.858 162.71C218.956 162.627 219.032 162.521 219.078 162.401C219.203 161.985 219.228 161.546 219.149 161.119Z" fill="#263238"/>
<path d="M217.577 163.067C219.248 163.762 220.856 164.6 222.383 165.573C222.444 165.608 222.383 165.705 222.333 165.673C220.711 164.882 219.053 164.123 217.477 163.242C217.463 163.225 217.454 163.204 217.452 163.182C217.45 163.16 217.455 163.138 217.466 163.119C217.476 163.1 217.493 163.085 217.513 163.075C217.533 163.066 217.555 163.063 217.577 163.067Z" fill="#263238"/>
<path d="M231.345 159.261C230.924 159.262 230.503 159.228 230.087 159.161C229.73 159.093 229.351 158.989 228.994 158.885C228.318 158.685 227.497 158.448 227.003 157.911C226.526 157.326 226.145 156.669 225.874 155.964C225.536 155.226 225.312 154.442 225.21 153.637C225.211 153.632 225.212 153.628 225.211 153.623C225.211 153.619 225.209 153.614 225.206 153.61C225.204 153.607 225.2 153.604 225.196 153.601C225.192 153.599 225.187 153.598 225.183 153.598C225.178 153.598 225.174 153.599 225.17 153.601C225.166 153.604 225.162 153.607 225.159 153.61C225.157 153.614 225.155 153.619 225.155 153.623C225.154 153.628 225.154 153.632 225.156 153.637C225.207 154.469 225.345 155.293 225.567 156.096C225.691 156.496 225.846 156.886 226.028 157.263C226.193 157.641 226.413 157.992 226.682 158.305C227.225 158.896 228.111 159.182 228.879 159.336C229.699 159.486 230.54 159.486 231.359 159.336C231.413 159.343 231.395 159.261 231.345 159.261Z" fill="#263238"/>
<path d="M244.331 192.881C240.086 192.802 238.11 193.063 233.861 193.067H229.055C228.683 193.077 228.311 193.043 227.947 192.967C227.609 192.909 227.305 192.728 227.093 192.458C226.811 192.036 226.961 191.499 227.061 191.026C227.272 190.027 227.515 189.032 227.775 188.044C228.847 184.024 230.241 180.097 231.556 176.151L233.586 170.065C233.754 169.571 233.918 169.077 234.125 168.598C234.322 168.159 234.545 167.734 234.793 167.323C235.271 166.535 235.657 165.694 235.944 164.817C237.095 161.033 235.991 157.117 234.647 153.547C234.465 153.068 234.29 152.591 234.082 152.115C234.082 152.083 234.018 152.115 234.032 152.133C235.254 155.903 236.716 159.823 235.894 163.843C235.703 164.789 235.372 165.702 234.911 166.55C234.676 166.983 234.418 167.402 234.197 167.835C233.967 168.278 233.769 168.736 233.604 169.206C232.889 171.204 232.246 173.234 231.574 175.249C230.23 179.252 228.819 183.247 227.7 187.321C227.422 188.334 227.164 189.354 226.936 190.382C226.768 191.141 226.389 192.172 227.046 192.798C227.529 193.257 228.29 193.314 228.919 193.318C229.991 193.318 231.038 193.318 232.096 193.318C236.405 193.318 243.813 193.045 244.345 193.035C244.365 193.033 244.384 193.023 244.397 193.007C244.41 192.991 244.417 192.971 244.415 192.951C244.413 192.93 244.403 192.911 244.387 192.898C244.371 192.885 244.351 192.879 244.331 192.881Z" fill="#263238"/>
<path d="M250.577 208.425C250.159 206.259 249.762 204.082 249.283 201.927C248.804 199.772 248.283 197.613 247.725 195.483C247.568 194.878 247.404 194.277 247.243 193.672C247.169 193.385 247.09 193.099 247.007 192.813C246.935 192.519 246.847 192.23 246.743 191.946C246.743 191.918 246.689 191.946 246.689 191.964C246.749 192.524 246.847 193.079 246.982 193.625C247.089 194.152 247.189 194.674 247.296 195.197C247.518 196.271 247.745 197.345 247.979 198.419C248.447 200.567 248.983 202.715 249.526 204.831C249.838 206.041 250.152 207.25 250.466 208.457C250.484 208.493 250.591 208.479 250.577 208.425Z" fill="#263238"/>
<path d="M205.113 141.676L208.04 141.751C208.899 140.101 209.228 138.225 208.98 136.381C208.93 135.955 209.927 138.39 209.526 141.801C212.617 141.88 216.82 141.984 220.493 142.038C220.564 140.606 220.697 139.274 220.697 139.274C220.813 140.216 221.011 141.145 221.29 142.052L222.758 142.073C222.738 140.031 222.83 137.988 223.034 135.955C223.298 138.086 223.91 140.159 224.845 142.091C227.175 142.091 228.712 142.066 228.612 141.955C225.088 137.899 227.672 135.569 226.675 131.999C225.474 127.725 221.797 127.041 221.908 123.83C221.994 121.216 222.323 116.476 219.028 115.46C218.137 114.585 217.009 113.992 215.785 113.756C214.56 113.52 213.293 113.651 212.142 114.132C206.932 116.122 208.987 124.184 208.629 125.824C208.122 128.162 207.007 128.989 206.175 131.656C205.342 134.323 206.532 136.152 206.689 137.985C206.846 139.818 204.527 141.672 205.113 141.676Z" fill="#263238"/>
<path d="M228.715 141.361C228.235 140.655 227.854 139.885 227.586 139.073C227.322 138.279 227.436 137.462 227.586 136.621C227.773 135.768 227.916 134.907 228.015 134.04C228.112 133.134 228.026 132.219 227.761 131.348C227.478 130.477 226.999 129.683 226.36 129.028C225.741 128.405 225.072 127.835 224.359 127.324C223.67 126.833 223.047 126.255 222.508 125.602C221.992 124.923 221.669 124.116 221.576 123.268C221.542 124.152 221.777 125.025 222.247 125.774C222.744 126.505 223.346 127.159 224.034 127.714C224.691 128.251 225.313 128.829 225.896 129.447C226.447 130.051 226.862 130.768 227.111 131.548C227.339 132.338 227.421 133.163 227.354 133.983C227.304 134.817 227.146 135.658 227.036 136.524C226.973 136.965 226.944 137.411 226.95 137.856C226.967 138.313 227.067 138.763 227.243 139.184C227.599 139.992 228.098 140.73 228.715 141.361Z" fill="#263238"/>
<path d="M209.194 117.11C208.829 118.116 208.589 119.163 208.479 120.228C208.347 121.302 208.265 122.351 208.193 123.411L208.079 124.993C208.048 125.503 207.968 126.009 207.84 126.504C207.529 127.482 207.045 128.397 206.41 129.203C206.096 129.648 205.812 130.113 205.56 130.596C205.308 131.092 205.112 131.616 204.977 132.157C204.859 132.693 204.783 133.237 204.749 133.786C204.709 134.337 204.738 134.891 204.835 135.436C204.931 135.984 205.081 136.51 205.21 137.004C205.34 137.506 205.422 138.019 205.453 138.536C205.468 139.055 205.36 139.571 205.137 140.039C204.914 140.508 204.582 140.917 204.17 141.232C204.641 140.951 205.035 140.557 205.316 140.086C205.597 139.615 205.757 139.081 205.781 138.533C205.793 137.989 205.749 137.445 205.649 136.911C205.556 136.377 205.424 135.865 205.367 135.357C205.262 134.338 205.344 133.307 205.61 132.318C205.745 131.83 205.929 131.357 206.16 130.907C206.404 130.451 206.678 130.012 206.982 129.593C207.279 129.157 207.586 128.709 207.85 128.222C208.12 127.733 208.328 127.213 208.469 126.672C208.593 126.134 208.663 125.585 208.679 125.032C208.708 124.499 208.719 123.958 208.729 123.436C208.751 122.362 208.762 121.313 208.812 120.257C208.832 119.197 208.96 118.143 209.194 117.11Z" fill="#263238"/>
<path d="M219.174 132.597C219.228 138.476 218.245 148.142 215.74 152.287C213.743 155.61 204.509 160.879 199.535 162.254C197.781 162.737 196.905 155.42 197.749 153.626C198.267 152.552 208.583 148.331 209.541 146.896C210.995 144.719 212.978 137.552 215.154 132.261C216.319 129.486 219.142 128.949 219.174 132.597Z" fill="#F7A9A0"/>
<path d="M200.836 151.965C200.836 151.965 198.081 151.632 196.837 151.754C195.594 151.876 191.12 154.034 191.545 155.026C192.074 156.308 194.897 155.57 196.23 155.026C196.23 155.026 197.456 157.99 199.596 157.89C201.736 157.79 200.836 151.965 200.836 151.965Z" fill="#F7A9A0"/>
<path d="M201.168 161.642C200.196 162.078 195.572 163.682 194.182 163.84C192.792 163.997 188.772 164.158 188.544 163.124C188.315 162.089 189.491 161.928 189.491 161.928C189.491 161.928 187.779 161.727 187.647 160.646C187.515 159.565 189.348 159.408 189.348 159.408C189.348 159.408 187.607 159.071 187.561 157.976C187.515 156.88 189.376 157.038 189.376 157.038C189.376 157.038 187.768 156.805 188.101 155.888C188.497 154.789 191.41 155.552 192.928 155.262C193.286 155.198 199.821 153.433 199.821 153.433L201.168 161.642Z" fill="#F7A9A0"/>
<path d="M204.545 160.281C202.937 161.083 201.263 161.745 199.542 162.261C197.756 162.895 195.169 163.725 194.182 163.836C192.796 163.994 188.772 164.155 188.544 163.12C188.315 162.086 189.491 161.925 189.491 161.925C189.491 161.925 187.779 161.724 187.647 160.643C187.543 159.805 188.626 159.522 189.115 159.437C189.087 159.404 189.098 159.361 189.151 159.354C188.697 159.232 187.597 158.842 187.55 157.983C187.504 157.124 188.622 157.038 189.133 157.038C189.143 157.033 189.154 157.031 189.165 157.031C189.177 157.031 189.188 157.033 189.198 157.038H189.219H189.358C189.358 157.038 187.75 156.805 188.083 155.889C188.39 155.033 190.227 155.305 191.738 155.33C191.653 155.244 191.585 155.142 191.538 155.03C191.127 154.038 195.59 151.879 196.83 151.757C198.043 151.721 199.257 151.778 200.461 151.929C200.818 151.743 201.193 151.553 201.583 151.356L204.545 160.281Z" fill="#DBDBDB"/>
<path d="M189.205 157.024C191.349 157.578 192.382 157.45 194.458 156.784C194.497 156.784 194.526 156.827 194.486 156.845C192.514 157.682 191.238 158.033 189.173 157.127C189.073 157.081 189.101 156.998 189.205 157.024Z" fill="#263238"/>
<path d="M189.18 159.347C191.456 159.726 192.578 159.598 194.801 159.061C194.833 159.061 194.851 159.104 194.819 159.114C192.675 159.83 191.402 160.145 189.176 159.472C189.076 159.433 189.073 159.329 189.18 159.347Z" fill="#263238"/>
<path d="M189.601 161.885C191.835 162.096 193.071 162.007 195.165 161.205C195.175 161.201 195.186 161.201 195.196 161.205C195.206 161.209 195.214 161.216 195.219 161.226C195.223 161.236 195.223 161.248 195.219 161.258C195.215 161.268 195.207 161.276 195.197 161.28C193.143 162.308 191.599 162.429 189.605 161.953C189.469 161.917 189.462 161.885 189.601 161.885Z" fill="#263238"/>
<path d="M191.803 155.33C193.128 156.15 194.833 155.33 196.166 154.893C196.185 154.887 196.206 154.885 196.227 154.887C196.247 154.89 196.267 154.898 196.284 154.91C196.301 154.922 196.315 154.937 196.325 154.956C196.335 154.974 196.34 154.994 196.341 155.015C196.938 156.225 198.127 157.754 199.532 157.965C199.54 157.965 199.549 157.968 199.555 157.974C199.561 157.981 199.564 157.989 199.564 157.997C199.564 158.006 199.561 158.014 199.555 158.02C199.549 158.026 199.54 158.029 199.532 158.029C197.995 158.008 196.702 156.597 196.134 155.234C194.772 155.695 193.025 156.451 191.796 155.344C191.803 155.337 191.803 155.327 191.803 155.33Z" fill="#263238"/>
<path d="M210.781 141.705L219.289 142.882C219.289 142.882 219.775 136.353 219.542 132.919C219.31 129.486 217.313 127.549 214.758 132.146C212.589 136.037 210.781 141.705 210.781 141.705Z" fill="#37474F"/>
<path d="M213.957 147.297L214.236 159.401C214.236 159.401 233.496 156.433 238.21 155.287C238.21 155.287 230.595 133.864 224.524 129.153C221.461 126.801 218.495 127.517 216.905 129.79C216.502 130.367 212.003 139.023 211.903 142.055C211.788 144.733 213.957 147.297 213.957 147.297Z" fill="#112C32"/>
<path d="M221.526 128.591C221.526 128.985 220.214 131.788 218.481 132.057C217.917 132.143 217.313 129.075 217.313 129.075L217.216 128.86L215.869 125.835L219.085 122.695L219.56 122.269C219.56 122.269 219.875 123.121 220.254 124.188C220.271 124.238 220.289 124.285 220.307 124.338C220.325 124.392 220.354 124.453 220.371 124.51C220.432 124.668 220.489 124.832 220.547 124.993C220.604 125.155 220.632 125.237 220.672 125.369C220.711 125.502 220.757 125.627 220.8 125.76C221.106 126.686 221.349 127.632 221.526 128.591Z" fill="#F7A9A0"/>
<path d="M220.268 124.188C220.125 125.138 219.778 126.047 219.251 126.85C218.725 127.654 218.03 128.333 217.216 128.842L215.869 125.817L219.085 122.677L219.56 122.251C219.56 122.251 219.889 123.121 220.268 124.188Z" fill="#263238"/>
<path d="M209.973 122.863C211.781 128.384 215.287 127.922 216.477 127.517C217.549 127.159 221.183 125.81 219.953 120.128C218.724 114.447 215.587 113.555 213.078 114.25C210.57 114.944 208.161 117.346 209.973 122.863Z" fill="#F7A9A0"/>
<path d="M210.598 121.234C210.723 121.177 210.827 121.102 210.956 121.034C211.087 120.98 211.198 120.884 211.27 120.762C211.285 120.719 211.286 120.672 211.271 120.629C211.257 120.585 211.229 120.548 211.192 120.522C211.109 120.482 211.018 120.465 210.927 120.472C210.836 120.48 210.748 120.512 210.673 120.565C210.509 120.65 210.382 120.793 210.316 120.966C210.306 121.004 210.306 121.045 210.317 121.083C210.328 121.122 210.349 121.157 210.378 121.184C210.406 121.212 210.442 121.231 210.481 121.24C210.52 121.248 210.56 121.247 210.598 121.234Z" fill="#263238"/>
<path d="M214.243 120.078C214.112 120.1 213.979 120.116 213.847 120.124C213.708 120.159 213.562 120.147 213.432 120.088C213.394 120.063 213.366 120.025 213.352 119.982C213.338 119.938 213.338 119.892 213.353 119.849C213.396 119.768 213.46 119.701 213.538 119.653C213.616 119.606 213.705 119.581 213.796 119.58C213.98 119.547 214.168 119.584 214.325 119.684C214.361 119.708 214.388 119.743 214.404 119.783C214.42 119.822 214.423 119.866 214.415 119.908C214.406 119.95 214.385 119.989 214.354 120.019C214.324 120.049 214.285 120.069 214.243 120.078Z" fill="#263238"/>
<path d="M213.957 121.714C213.957 121.714 213.993 121.714 213.997 121.739C214.1 122.122 214.282 122.541 214.661 122.566V122.587C214.236 122.655 214 122.093 213.957 121.714Z" fill="#263238"/>
<path d="M214.182 121.216C214.779 120.987 215.194 122.194 214.643 122.408C214.093 122.623 213.686 121.41 214.182 121.216Z" fill="#263238"/>
<path d="M214.443 121.198C214.572 121.231 214.715 121.316 214.847 121.284C214.979 121.252 215.065 121.084 215.122 120.926C215.122 120.926 215.122 120.926 215.147 120.926C215.204 121.031 215.218 121.153 215.189 121.268C215.159 121.383 215.087 121.482 214.986 121.546C214.772 121.657 214.54 121.506 214.4 121.295C214.375 121.263 214.39 121.184 214.443 121.198Z" fill="#263238"/>
<path d="M211.774 122.373C211.774 122.373 211.753 122.401 211.774 122.416C211.921 122.774 212.021 123.232 211.728 123.49C211.728 123.49 211.728 123.515 211.728 123.507C212.11 123.293 211.971 122.698 211.774 122.373Z" fill="#263238"/>
<path d="M211.306 122.101C210.688 122.269 211.066 123.49 211.638 123.332C212.21 123.175 211.813 121.961 211.306 122.101Z" fill="#263238"/>
<path d="M211.077 122.261C210.999 122.355 210.941 122.501 210.827 122.544C210.713 122.587 210.559 122.494 210.434 122.394C210.498 122.63 210.652 122.849 210.888 122.824C211.124 122.798 211.191 122.555 211.177 122.304C211.159 122.276 211.099 122.222 211.077 122.261Z" fill="#263238"/>
<path d="M212.857 123.937C212.908 124.224 212.974 124.509 213.053 124.789C213.053 124.814 213.128 124.789 213.218 124.789C213.46 124.757 213.688 124.657 213.877 124.503C214.067 124.348 214.209 124.143 214.29 123.912C214.29 123.88 214.258 123.866 214.24 123.887C213.98 124.233 213.615 124.484 213.2 124.603C213.157 124.535 213.05 123.59 213.007 123.601C212.808 123.687 212.621 123.8 212.453 123.937C212.189 122.724 212.124 121.474 211.849 120.268C211.847 120.26 211.842 120.253 211.835 120.248C211.828 120.243 211.82 120.24 211.812 120.24C211.803 120.24 211.795 120.243 211.788 120.248C211.782 120.253 211.777 120.26 211.774 120.268C211.801 121.608 211.963 122.941 212.256 124.249C212.289 124.381 212.764 124.002 212.857 123.937Z" fill="#263238"/>
<path d="M219.507 120.393C218.188 120.923 216.041 117.085 215.783 116.612C215.93 116.92 216.705 118.549 216.609 118.667C216.468 118.728 216.318 118.763 216.166 118.771C216.079 118.574 215.976 118.383 215.858 118.202C215.808 118.112 215.912 118.413 216.019 118.793L215.748 118.832C215.576 118.404 215.349 118.001 215.072 117.633C214.965 117.497 215.233 118.213 215.354 118.893C214.101 119.058 212.871 119.361 211.685 119.799C211.352 119.931 211.074 120.056 210.834 120.178C210.723 119.871 210.597 119.57 210.455 119.276C210.49 119.613 210.556 119.946 210.652 120.271L210.295 120.465C209.959 119.791 209.802 118.549 209.766 118.764C209.668 119.426 209.696 120.1 209.848 120.751C209.423 121.052 209.333 121.198 209.266 121.084C208.81 119.667 208.87 118.135 209.437 116.759C210.388 114.504 213.461 112.682 216.33 114.253C216.33 114.253 218.27 114.572 219.189 116.043C220.107 117.515 220.271 120.085 219.507 120.393Z" fill="#263238"/>
<path d="M218.142 120.93C218.142 120.93 218.499 118.742 219.425 118.782C220.35 118.821 220.65 121.614 219.939 122.362C219.855 122.467 219.75 122.554 219.631 122.616C219.511 122.679 219.381 122.716 219.246 122.725C219.112 122.735 218.977 122.716 218.851 122.671C218.724 122.625 218.608 122.554 218.51 122.462L218.142 120.93Z" fill="#F7A9A0"/>
<path d="M219.489 119.591C219.489 119.591 219.514 119.591 219.489 119.612C218.999 120.153 218.953 120.876 219.01 121.571C219.016 121.492 219.038 121.416 219.076 121.347C219.114 121.279 219.166 121.219 219.23 121.173C219.293 121.126 219.365 121.095 219.442 121.079C219.519 121.064 219.598 121.065 219.675 121.084C219.696 121.084 219.692 121.119 219.675 121.123C219.551 121.141 219.437 121.196 219.346 121.282C219.256 121.368 219.195 121.48 219.171 121.603C219.13 121.808 219.112 122.017 219.117 122.226C219.117 122.294 219.003 122.315 218.992 122.226C218.603 121.456 218.696 120.074 219.489 119.591Z" fill="#263238"/>
<path d="M213.414 143.47H189.998V169.446H213.414V143.47Z" fill="#B93800"/>
<path opacity="0.1" d="M213.414 143.47H189.998V169.446H213.414V143.47Z" fill="black"/>
<path d="M177.909 169.45H189.998V143.473H177.909V169.45Z" fill="#B93800"/>
<path d="M199.718 149.083H200.214H200.586L200.8 148.65L201.097 149.083L201.501 148.195L201.883 149.083H202.98H203.48L203.662 148.489L203.83 149.083H204.156V143.47H199.718V149.083Z" fill="white"/>
<g opacity="0.1">
<path d="M178.742 167.66C179.635 165.813 180.523 163.96 181.404 162.1L184.027 156.516L186.614 150.906C187.474 149.03 188.325 147.149 189.165 145.264C188.27 147.111 187.382 148.964 186.503 150.823L183.881 156.412L181.29 162.022C180.437 163.895 179.588 165.775 178.742 167.66Z" fill="black"/>
<path d="M178.742 145.26C179.583 147.148 180.432 149.027 181.29 150.898L183.881 156.515L186.503 162.104C187.382 163.96 188.27 165.814 189.165 167.663C188.322 165.778 187.472 163.897 186.614 162.021L184.027 156.411L181.404 150.823C180.525 148.964 179.638 147.109 178.742 145.26Z" fill="black"/>
</g>
<path d="M217.298 149.087H193.886L190.002 143.47H213.414L217.298 149.087Z" fill="#B93800"/>
<g opacity="0.2">
<path d="M217.298 149.087H193.886L190.002 143.47H213.414L217.298 149.087Z" fill="black"/>
</g>
<path d="M186.114 149.09H174.061L177.945 143.47H190.002L186.114 149.09Z" fill="#B93800"/>
<path opacity="0.1" d="M186.114 149.09H174.061L177.945 143.47H190.002L186.114 149.09Z" fill="black"/>
<path d="M226.464 132.733C228.858 138.078 232.996 149.366 231.638 153.497C229.852 158.907 221.658 164.52 219.239 166.192C218.167 166.908 212.939 160.185 213.261 158.849C213.582 157.514 222.165 152.08 222.694 151.203C223.223 150.325 222.248 139.081 221.869 134.122C221.376 127.875 224.42 128.212 226.464 132.733Z" fill="#F7A9A0"/>
<path d="M210.82 162.451C211.106 161.86 210.799 161.706 209.748 162.215C208.697 162.723 205.003 165.626 204.102 164.244C203.202 162.863 208.483 158.849 210.284 158.137C212.085 157.425 215.254 156.902 215.254 156.902C214.39 157.89 212.503 160.489 210.82 162.451Z" fill="#F7A9A0"/>
<path d="M221.776 164.087C219.221 166.783 216.201 170.291 212.178 171.444C211.735 171.583 211.258 171.569 210.824 171.404C209.037 171.952 208.229 171.268 208.229 171.268C206.403 171.268 205.685 170.456 205.685 170.456C205.685 170.456 203.57 171.079 202.984 169.861C202.319 168.497 205.417 167.892 206.914 166.514C210.352 163.36 214.358 157.922 215.258 156.902L221.776 164.087Z" fill="#F7A9A0"/>
<path d="M212.839 165.744C211.843 166.678 210.784 167.541 209.669 168.329C208.399 169.118 207.072 169.811 205.699 170.402C205.69 170.405 205.683 170.412 205.679 170.421C205.675 170.429 205.675 170.439 205.678 170.448C205.681 170.457 205.688 170.465 205.697 170.469C205.705 170.473 205.715 170.473 205.724 170.47C208.489 169.591 210.961 167.971 212.871 165.784C212.925 165.741 212.885 165.698 212.839 165.744Z" fill="#263238"/>
<path d="M215.029 167.545C213.979 168.372 212.121 169.818 208.201 171.229C208.201 171.229 208.201 171.258 208.201 171.254C210.787 170.703 213.17 169.443 215.083 167.613C215.144 167.538 215.112 167.491 215.029 167.545Z" fill="#263238"/>
<path d="M216.208 168.537C214.368 169.876 213.035 170.488 210.827 171.401C210.827 171.401 210.827 171.43 210.827 171.422C213.446 170.66 214.311 170.084 216.255 168.601C216.33 168.541 216.28 168.483 216.208 168.537Z" fill="#263238"/>
<path d="M230.302 141.1L221.797 142.31C221.797 142.31 221.286 135.783 221.508 132.35C221.729 128.917 223.72 126.98 226.289 131.555C228.472 135.443 230.302 141.1 230.302 141.1Z" fill="#37474F"/>
<path d="M172.914 198.258H143.409V226.228H172.914V198.258Z" fill="#B93800"/>
<path d="M186.303 198.258H172.914V226.232H186.303V198.258Z" fill="#B93800"/>
<path opacity="0.1" d="M186.303 198.258H172.914V226.232H186.303V198.258Z" fill="black"/>
<path d="M185.371 224.306C184.377 222.316 183.395 220.32 182.423 218.32L179.517 212.302L176.659 206.259C175.706 204.245 174.764 202.216 173.832 200.173C174.826 202.161 175.808 204.157 176.78 206.159L179.685 212.173L182.544 218.217C183.504 220.245 184.446 222.275 185.371 224.306Z" fill="#B93800"/>
<path d="M185.371 200.191C184.439 202.22 183.498 204.248 182.548 206.277L179.689 212.32L176.795 218.32C175.823 220.322 174.84 222.318 173.847 224.306C174.778 222.272 175.72 220.244 176.673 218.22L179.532 212.177L182.437 206.162C183.406 204.165 184.384 202.174 185.371 200.191Z" fill="#B93800"/>
<path d="M160.554 204.304H160.018H159.618L159.389 203.839L159.067 204.304L158.631 203.345L158.22 204.304H157.038H156.502L156.305 203.664L156.123 204.304H155.773V198.258H160.554V204.304Z" fill="white"/>
<path d="M207.632 198.258H182.423V226.228H207.632V198.258Z" fill="#B93800"/>
<path d="M220.65 198.258H207.632V226.228H220.65V198.258Z" fill="#B93800"/>
<path opacity="0.1" d="M220.65 198.258H207.632V226.228H220.65V198.258Z" fill="black"/>
<path d="M197.166 204.304H196.634H196.23L196.001 203.839L195.683 204.304L195.247 203.345L194.833 204.304H193.654H193.114L192.921 203.664L192.739 204.304H192.385V198.258H197.166V204.304Z" fill="white"/>
<path d="M219.753 224.302C218.788 222.314 217.836 220.319 216.895 218.316L214.072 212.302L211.274 206.277C210.352 204.258 209.437 202.229 208.529 200.191C209.494 202.179 210.447 204.174 211.388 206.177L214.211 212.191L217.002 218.234C217.928 220.251 218.846 222.274 219.753 224.302Z" fill="#B93800"/>
<path d="M219.753 200.191C218.846 202.22 217.931 204.248 217.009 206.277L214.218 212.32L211.395 218.334C210.442 220.339 209.489 222.334 208.536 224.32C209.444 222.291 210.359 220.263 211.281 218.234L214.072 212.191L216.895 206.177C217.835 204.169 218.788 202.174 219.753 200.191Z" fill="#B93800"/>
<path d="M192.196 170.287H166.986V198.258H192.196V170.287Z" fill="#B93800"/>
<path d="M205.213 170.287H192.196V198.258H205.213V170.287Z" fill="#B93800"/>
<path opacity="0.1" d="M205.213 170.287H192.196V198.258H205.213V170.287Z" fill="black"/>
<path d="M181.729 176.334H181.197H180.793L180.564 175.868L180.246 176.334L179.81 175.374L179.396 176.334H178.217H177.677L177.484 175.693L177.302 176.334H176.952V170.287H181.729V176.334Z" fill="white"/>
<path d="M204.309 196.332C203.356 194.344 202.403 192.348 201.451 190.346L198.628 184.332L195.837 178.289C194.915 176.27 194 174.241 193.093 172.203C194.045 174.191 194.998 176.186 195.951 178.188L198.774 184.203L201.565 190.246C202.492 192.275 203.406 194.303 204.309 196.332Z" fill="#B93800"/>
<path d="M204.309 172.217C203.402 174.245 202.487 176.274 201.565 178.303L198.774 184.346L195.951 190.36C194.998 192.365 194.045 194.36 193.093 196.346C194 194.317 194.915 192.289 195.837 190.26L198.628 184.217L201.451 178.203C202.403 176.198 203.356 174.203 204.309 172.217Z" fill="#B93800"/>
<path d="M162.798 176.337H188.008L192.192 170.287H166.986L162.798 176.337Z" fill="#B93800"/>
<path opacity="0.1" d="M162.798 176.337H188.008L192.192 170.287H166.986L162.798 176.337Z" fill="black"/>
<path d="M196.377 176.337H209.358L205.174 170.287H192.192L196.377 176.337Z" fill="#B93800"/>
<path d="M117.409 198.261H92.1995V226.232H117.409V198.261Z" fill="#DBDBDB"/>
<path d="M130.427 198.261H117.409V226.232H130.427V198.261Z" fill="#C7C7C7"/>
<path d="M106.943 204.304H106.411H106.01L105.782 203.839L105.46 204.304L105.024 203.345L104.613 204.304H103.43H102.894L102.698 203.663L102.516 204.304H102.166V198.261H106.943V204.304Z" fill="white"/>
<path d="M129.53 224.306C128.577 222.315 127.624 220.32 126.671 218.32L123.849 212.302L121.051 206.277C120.126 204.263 119.21 202.234 118.303 200.191C119.268 202.179 120.22 204.174 121.161 206.177L123.988 212.191L126.775 218.234C127.707 220.251 128.625 222.275 129.53 224.306Z" fill="#DBDBDB"/>
<path d="M129.53 200.191C128.625 202.22 127.71 204.248 126.786 206.277L123.999 212.32L121.172 218.338C120.219 220.34 119.266 222.336 118.313 224.324C119.221 222.29 120.137 220.262 121.061 218.238L123.849 212.195L126.672 206.18C127.615 204.175 128.568 202.179 129.53 200.191Z" fill="#DBDBDB"/>
<path d="M112.732 170.284H87.522V198.254H112.732V170.284Z" fill="#DBDBDB"/>
<path d="M125.75 170.287H112.732V198.258H125.75V170.287Z" fill="#C7C7C7"/>
<path d="M102.266 176.33H101.733H101.333L101.104 175.865L100.783 176.33L100.347 175.374L99.9358 176.33H98.753H98.217L98.0205 175.693L97.8382 176.33H97.488V170.287H102.266V176.33Z" fill="white"/>
<path d="M124.856 196.332C123.903 194.342 122.95 192.346 121.998 190.346L119.175 184.328L116.387 178.285C115.463 176.271 114.547 174.242 113.64 172.199C114.604 174.19 115.557 176.185 116.498 178.185L119.321 184.203L122.108 190.246C123.035 192.272 123.951 194.301 124.856 196.332Z" fill="#DBDBDB"/>
<path d="M124.856 172.213C123.949 174.242 123.033 176.271 122.108 178.299L119.321 184.342L116.498 190.36C115.545 192.36 114.592 194.356 113.64 196.346C114.547 194.317 115.463 192.289 116.387 190.26L119.175 184.217L121.998 178.199C122.936 176.199 123.889 174.204 124.856 172.213Z" fill="#DBDBDB"/>
<path d="M83.3376 176.334H108.544L112.732 170.284H87.522L83.3376 176.334Z" fill="#C7C7C7"/>
<path d="M116.916 176.337H129.895L125.71 170.287H112.732L116.916 176.337Z" fill="#DBDBDB"/>
<path d="M96.2696 233.36C95.4478 233.629 72.0889 233.324 71.2098 232.744C70.8525 232.533 70.7167 229.118 70.6488 224.99C70.6488 224.947 70.6488 224.904 70.6488 224.861C70.6488 224.009 70.6238 223.132 70.6202 222.244C70.6202 222.122 70.6202 222.001 70.6202 221.886L71.7387 209.739L87.3649 209.897L85.8248 221.922L85.8069 222.398L85.7104 224.904V225.162C85.7104 225.162 94.5973 229.286 95.5014 230.024C96.4054 230.761 97.0879 233.099 96.2696 233.36Z" fill="#AD6359"/>
<path d="M96.2696 233.36C95.4478 233.629 72.0889 233.324 71.2098 232.744C70.8525 232.533 70.7167 229.118 70.6488 224.99C70.6488 224.947 70.6488 224.904 70.6488 224.861C70.6488 224.009 70.6238 223.132 70.6202 222.244C70.6202 222.123 70.6202 222.001 70.6202 221.886L85.8391 221.929L85.8212 222.405L85.7247 224.911V225.169C85.7247 225.169 94.6116 229.293 95.5156 230.031C96.4197 230.768 97.0879 233.099 96.2696 233.36Z" fill="#EBEBEB"/>
<path d="M96.2696 233.36C95.8479 233.496 89.5017 233.481 83.2984 233.36C82.0513 233.335 80.797 233.306 79.6286 233.274C75.2048 233.152 71.5492 232.97 71.2098 232.748C70.8703 232.526 70.7202 229.218 70.6523 225.165C70.6523 225.108 70.6523 225.051 70.6523 224.993C70.6523 224.936 70.6523 224.904 70.6523 224.861L85.7068 224.889V225.147C85.7068 225.147 94.5973 229.268 95.4977 230.005C96.3982 230.743 97.0879 233.098 96.2696 233.36Z" fill="#B93800"/>
<path d="M96.0159 232.451C92.0852 232.304 76.1874 232.093 72.2854 232.232C72.2532 232.232 72.2532 232.254 72.2854 232.257C76.1839 232.49 92.0745 232.583 96.0159 232.515C96.098 232.515 96.098 232.454 96.0159 232.451Z" fill="#263238"/>
<path d="M87.397 224.954C85.8497 224.643 83.9523 224.857 82.7516 225.946C82.7052 225.989 82.7516 226.053 82.8195 226.039C84.3061 225.581 85.8369 225.282 87.3863 225.147C87.4118 225.149 87.437 225.14 87.456 225.123C87.4751 225.106 87.4867 225.082 87.4881 225.056C87.4895 225.03 87.4807 225.005 87.4636 224.986C87.4465 224.967 87.4226 224.956 87.397 224.954Z" fill="#263238"/>
<path d="M88.5047 225.641C86.961 225.334 85.06 225.545 83.8594 226.637C83.8129 226.68 83.8594 226.744 83.9237 226.73C85.411 226.27 86.9432 225.971 88.494 225.838C88.5172 225.835 88.5387 225.824 88.5546 225.807C88.5706 225.79 88.58 225.768 88.5813 225.744C88.5825 225.721 88.5756 225.698 88.5616 225.679C88.5476 225.66 88.5275 225.647 88.5047 225.641Z" fill="#263238"/>
<path d="M89.6053 226.325C88.0581 226.014 86.1606 226.228 84.96 227.32C84.9135 227.363 84.96 227.428 85.0243 227.413C86.5149 226.954 88.0509 226.657 89.6053 226.529C89.6323 226.529 89.6582 226.518 89.6773 226.499C89.6964 226.48 89.7072 226.454 89.7072 226.427C89.7072 226.4 89.6964 226.374 89.6773 226.355C89.6582 226.336 89.6323 226.325 89.6053 226.325Z" fill="#263238"/>
<path d="M83.2984 233.356C82.0513 233.331 80.797 233.303 79.6286 233.27C75.2048 233.149 71.5492 232.966 71.2098 232.744C70.8703 232.522 70.7202 229.214 70.6523 225.162C70.6523 225.104 70.6523 225.047 70.6523 224.99C70.6523 224.933 70.6523 224.9 70.6523 224.857C72.7249 226.325 79.993 231.155 83.2984 233.356Z" fill="#263238"/>
<path d="M86.7466 224.94H69.9198C69.9198 224.94 73.3073 185.56 73.1751 184.887C73.0072 184.006 72.0138 180.021 70.6738 174.816C70.2593 173.187 69.8126 171.44 69.3481 169.629C68.1117 164.749 66.736 159.379 65.5246 154.725C63.7165 147.748 62.3086 142.328 62.3086 142.328H76.5662C76.5662 142.328 78.2278 147.605 80.3218 154.471C83.7343 165.63 88.2939 180.988 88.7441 184.722C89.4695 190.747 86.7466 224.94 86.7466 224.94Z" fill="#37474F"/>
<path d="M85.9999 222.065C83.4307 222.011 84.1668 221.99 81.5975 221.965C80.3397 221.965 72.0782 221.879 70.9025 222.076C70.8775 222.076 70.8775 222.122 70.9025 222.13C72.0782 222.323 80.3397 222.251 81.5975 222.237C84.1668 222.216 83.4307 222.194 85.9999 222.14C86.032 222.137 86.032 222.065 85.9999 222.065Z" fill="#263238"/>
<path d="M76.3411 182.481C75.7908 180.043 74.9654 177.655 74.2471 175.264C72.7892 170.402 71.3229 165.546 69.8484 160.697C69.1122 158.269 68.3726 155.842 67.6293 153.415C67.2505 152.191 66.8753 150.966 66.493 149.745C66.1106 148.525 65.6926 147.361 65.3567 146.165C65.2173 145.675 65.1423 145.943 65.3174 146.57C65.6747 147.827 66.032 149.076 66.3894 150.336C67.104 152.821 67.833 155.303 68.5762 157.783C70.0342 162.723 71.5052 167.657 72.9893 172.586L75.2191 180.004C75.5941 181.177 75.8972 182.373 76.1267 183.584C76.3248 184.853 76.3752 186.141 76.2768 187.421C76.1124 190.003 75.8158 192.577 75.58 195.151C75.3441 197.725 75.1012 200.306 74.8653 202.883C74.3889 208.015 73.9184 213.146 73.4538 218.277C73.3967 218.925 73.3395 219.577 73.2895 220.228C73.2716 220.447 73.6004 220.429 73.6254 220.228C74.1792 215.156 74.6045 210.065 75.0797 204.981C75.555 199.898 76.0267 194.871 76.5091 189.816C76.627 188.545 76.7592 187.275 76.7628 185.997C76.754 184.813 76.6126 183.633 76.3411 182.481Z" fill="#263238"/>
<path d="M74.9547 142.324C73.9649 149.996 72.0781 164.381 70.7024 174.816C67.4864 162.172 62.3158 142.324 62.3158 142.324H74.9547Z" fill="#263238"/>
<path d="M78.4458 233.585C77.6275 233.854 54.2686 233.636 53.386 233.063C53.0287 232.848 52.8786 229.436 52.7964 225.308C52.7964 225.265 52.7964 225.222 52.7964 225.18C52.7964 224.327 52.7643 223.454 52.7607 222.566C52.7607 222.444 52.7607 222.319 52.7607 222.208C52.7071 216.251 53.118 210.068 53.118 210.068L68.3869 210.169L67.9616 222.197V222.674L67.8759 225.18V225.437C67.8759 225.437 76.7806 229.526 77.6847 230.263C78.5887 231.001 79.2641 233.324 78.4458 233.585Z" fill="#AD6359"/>
<path d="M78.4459 233.586C77.6276 233.854 54.2687 233.636 53.3861 233.063C53.0287 232.848 52.8787 229.437 52.7965 225.309C52.7965 225.266 52.7965 225.223 52.7965 225.18C52.7965 224.328 52.7643 223.454 52.7607 222.566C52.7607 222.445 52.7607 222.319 52.7607 222.208H67.9796V222.685L67.8938 225.191V225.448C67.8938 225.448 76.7986 229.537 77.7026 230.274C78.6067 231.012 79.2642 233.324 78.4459 233.586Z" fill="#EBEBEB"/>
<path d="M78.4458 233.585C77.6275 233.854 54.2686 233.635 53.386 233.063C53.0287 232.848 52.8786 229.436 52.7964 225.308C52.7964 225.265 52.7964 225.222 52.7964 225.18L67.8687 225.151V225.409C67.8687 225.409 76.7735 229.497 77.6775 230.234C78.5816 230.972 79.2641 233.324 78.4458 233.585Z" fill="#B93800"/>
<path d="M78.1921 232.676C74.2615 232.544 58.3637 232.376 54.4616 232.544C54.4295 232.544 54.4295 232.569 54.4616 232.569C58.3601 232.787 74.2507 232.827 78.1886 232.741C78.2743 232.741 78.2743 232.68 78.1921 232.676Z" fill="#263238"/>
<path d="M69.5446 225.212C67.9974 224.908 66.1 225.126 64.8993 226.222C64.8529 226.265 64.8993 226.329 64.9636 226.315C66.4479 225.849 67.9777 225.545 69.5268 225.405C69.5394 225.407 69.5522 225.405 69.5644 225.402C69.5765 225.398 69.5878 225.392 69.5976 225.383C69.6074 225.375 69.6155 225.365 69.6214 225.354C69.6274 225.343 69.631 225.33 69.6322 225.318C69.6334 225.305 69.632 225.292 69.6283 225.28C69.6245 225.268 69.6184 225.257 69.6102 225.247C69.6021 225.237 69.5921 225.229 69.5809 225.223C69.5696 225.217 69.5573 225.213 69.5446 225.212Z" fill="#263238"/>
<path d="M70.6667 225.896C69.1195 225.591 67.222 225.813 66.0214 226.909C65.9749 226.952 66.0214 227.016 66.0857 227.002C67.5757 226.535 69.1116 226.23 70.6667 226.092C70.6896 226.088 70.7102 226.076 70.725 226.058C70.7398 226.04 70.7479 226.017 70.7479 225.994C70.7479 225.971 70.7398 225.948 70.725 225.93C70.7102 225.912 70.6896 225.9 70.6667 225.896Z" fill="#263238"/>
<path d="M71.7673 226.583C70.22 226.279 68.3226 226.497 67.122 227.593C67.0755 227.636 67.122 227.7 67.1863 227.686C68.6715 227.22 70.2026 226.916 71.753 226.78C71.7764 226.778 71.7982 226.767 71.8146 226.75C71.831 226.733 71.8409 226.711 71.8426 226.688C71.8443 226.664 71.8377 226.641 71.8239 226.622C71.8101 226.603 71.7901 226.589 71.7673 226.583Z" fill="#263238"/>
<path d="M76.1017 142.324C76.1017 142.324 75.773 149.159 74.2114 154.572C74.0863 155.019 73.9506 155.459 73.804 155.882C72.3729 156.46 70.9974 157.169 69.6947 157.998C69.6947 157.998 69.5303 163.496 69.366 169.629C69.1837 176.485 69.0086 184.132 69.0336 185.739C69.1766 191.807 68.2761 225.173 68.2761 225.173L51.4564 225.251C51.4564 225.251 54.4973 187.991 54.4759 185.768C54.4437 182.188 55.2906 166.403 55.9445 154.887C56.3447 147.791 56.6592 142.321 56.6592 142.321L76.1017 142.324Z" fill="#37474F"/>
<path d="M67.7008 222.19C65.1316 222.147 65.8677 222.122 63.2985 222.108C62.0407 222.108 53.7791 222.065 52.6035 222.265C52.5785 222.265 52.5785 222.312 52.6035 222.319C53.7791 222.509 62.0442 222.401 63.302 222.384C65.8713 222.348 65.1316 222.33 67.7008 222.265C67.7473 222.262 67.7473 222.19 67.7008 222.19Z" fill="#263238"/>
<path d="M58.0885 144.766C57.7777 154.167 57.4489 163.571 57.0165 172.969C56.5842 182.366 56.0267 191.821 55.2299 201.229C54.7904 206.485 54.3758 213.877 53.8005 219.129C53.8005 219.165 53.8506 219.179 53.8541 219.129C55.0798 209.803 55.7623 198.272 56.3555 188.885C56.9486 179.499 57.4096 170.119 57.7276 160.711C57.9063 155.395 58.0457 150.075 58.2029 144.758C58.2065 144.701 58.0885 144.701 58.0885 144.766Z" fill="#263238"/>
<path d="M74.5045 155.474C72.8318 156.168 71.2225 157.006 69.6948 157.98C69.634 158.015 69.6948 158.112 69.7448 158.08C71.3671 157.289 73.0251 156.53 74.6009 155.649C74.6148 155.632 74.6234 155.612 74.6255 155.59C74.6276 155.569 74.6231 155.547 74.6127 155.528C74.6022 155.509 74.5863 155.494 74.567 155.484C74.5477 155.474 74.5259 155.471 74.5045 155.474Z" fill="#263238"/>
<path d="M69.2767 120.797C69.8377 129.239 72.9107 138.16 74.19 139.567C76.1696 141.748 85.8248 144.49 89.6161 144.937C90.856 145.084 92.4104 136.589 91.4706 135.629C90.5308 134.67 80.0645 132.848 79.3963 132.375C79.039 132.125 75.6157 125.502 73.1823 121.216C70.9132 117.235 69.1051 118.238 69.2767 120.797Z" fill="#DD6A57"/>
<path d="M88.0795 134.641C88.0795 134.641 90.8524 132.801 92.2495 132.261C93.6467 131.72 99.5892 131.627 99.6821 132.912C99.8 134.57 96.3803 135.304 94.658 135.44C94.658 135.44 94.9403 139.277 92.5997 140.337C90.2592 141.397 88.0795 134.641 88.0795 134.641Z" fill="#DD6A57"/>
<path d="M89.5446 144.93C90.7738 145.288 96.5447 146.362 98.217 146.309C99.8894 146.255 104.695 145.74 104.781 144.451C104.867 143.162 103.448 143.201 103.448 143.201C103.448 143.201 105.442 142.661 105.414 141.358C105.385 140.054 103.177 140.183 103.177 140.183C103.177 140.183 105.185 139.467 105.064 138.182C104.942 136.897 102.744 137.387 102.744 137.387C102.744 137.387 104.61 136.829 104.059 135.801C103.395 134.566 100.072 135.98 98.2206 135.905C97.799 135.887 89.7197 134.946 89.7197 134.946L89.5446 144.93Z" fill="#DD6A57"/>
<path d="M103.448 143.201C103.448 143.201 104.878 143.162 104.781 144.451C104.685 145.739 99.8894 146.241 98.2171 146.309C96.5448 146.377 90.8238 145.285 89.5625 144.934C88.2182 144.746 86.8856 144.482 85.571 144.143L86.7681 134.169C87.2791 134.291 87.7794 134.409 88.251 134.527C88.8764 134.119 91.0597 132.715 92.2496 132.257C93.6432 131.717 99.5892 131.624 99.6821 132.909C99.7004 133.216 99.6007 133.518 99.4034 133.754C98.5887 135.164 96.7055 135.365 95.1654 135.569C96.727 135.748 98.0563 135.894 98.2206 135.902C100.072 135.977 103.395 134.563 104.059 135.798C104.578 136.764 102.955 137.316 102.762 137.38L102.923 137.348C102.937 137.341 102.952 137.337 102.968 137.337C102.983 137.337 102.999 137.341 103.012 137.348C103.609 137.258 104.956 137.18 105.053 138.189C105.149 139.199 103.927 139.861 103.402 140.097C103.459 140.097 103.473 140.144 103.445 140.19C104.038 140.19 105.378 140.348 105.403 141.365C105.442 142.661 103.448 143.201 103.448 143.201Z" fill="#DBDBDB"/>
<path d="M102.934 137.348C100.486 138.383 99.239 138.422 96.6591 137.985C96.6091 137.985 96.5841 138.05 96.6341 138.061C99.1354 138.709 100.697 138.902 102.987 137.463C103.102 137.391 103.048 137.298 102.934 137.348Z" fill="#263238"/>
<path d="M103.37 140.097C100.736 140.949 99.382 140.992 96.6484 140.745C96.6091 140.745 96.5983 140.806 96.6484 140.813C99.3105 141.282 100.883 141.436 103.402 140.237C103.506 140.183 103.491 140.047 103.37 140.097Z" fill="#263238"/>
<path d="M103.309 143.183C100.701 143.824 99.2176 143.935 96.5947 143.355C96.5836 143.355 96.5725 143.358 96.5633 143.364C96.5541 143.37 96.5473 143.38 96.544 143.39C96.5407 143.401 96.5411 143.413 96.5451 143.423C96.5491 143.434 96.5565 143.443 96.5662 143.448C99.1854 144.304 101.036 144.164 103.32 143.266C103.477 143.201 103.473 143.144 103.309 143.183Z" fill="#263238"/>
<path d="M99.5642 133.378C98.5852 134.971 96.3125 135.007 94.6509 135.268C94.6261 135.27 94.6023 135.279 94.5816 135.293C94.5608 135.306 94.5438 135.325 94.5321 135.347C94.5204 135.369 94.5144 135.394 94.5145 135.419C94.5147 135.444 94.521 135.468 94.533 135.49C94.533 137.105 94.0863 139.389 92.6963 140.373C92.688 140.379 92.6821 140.387 92.6799 140.397C92.6776 140.407 92.6791 140.417 92.6841 140.426C92.6891 140.434 92.6972 140.441 92.7068 140.444C92.7164 140.447 92.7267 140.446 92.7356 140.441C94.3722 139.589 95.0011 137.38 94.8796 135.612C96.5877 135.372 98.8639 135.236 99.5857 133.389L99.5642 133.378Z" fill="#263238"/>
<path d="M69.952 132.393L77.9134 129.171C77.9134 129.171 75.0869 123.268 73.1788 120.407C71.2706 117.547 68.5799 116.87 68.6442 122.122C68.6942 126.576 69.952 132.393 69.952 132.393Z" fill="#37474F"/>
<path d="M55.3013 149.119C55.3013 149.119 79.5821 149.001 79.5821 149.005C79.5821 149.481 74.315 121.797 71.7779 118.499C71.2348 117.783 67.5256 116.892 65.8497 118.457C58.5173 125.301 55.3013 149.427 55.3013 149.119Z" fill="#18424B"/>
<path d="M70.8489 120.98C69.6912 121.26 67.2756 119.906 66.443 118.252C66.3894 118.138 66.5967 116.974 66.8004 115.542C66.9076 114.676 67.0112 113.706 67.0398 112.814C67.0398 112.632 72.5749 114.361 72.5749 114.361C72.2191 115.464 71.9995 116.606 71.9209 117.762C71.9187 117.882 71.9271 118.001 71.946 118.12C71.9481 118.14 71.9481 118.16 71.946 118.181C72.0281 118.89 72.096 120.68 70.8489 120.98Z" fill="#DD6A57"/>
<path d="M71.9352 118.13C71.9352 118.13 71.9352 118.17 71.9352 118.191C71.7449 118.206 71.5537 118.206 71.3634 118.191C68.0831 118.009 67.3541 113.863 67.2219 112.821C68.2082 112.997 72.5569 114.357 72.5569 114.357C72.2013 115.461 71.9818 116.604 71.903 117.762C71.9022 117.885 71.913 118.009 71.9352 118.13Z" fill="#263238"/>
<path d="M66.225 105.844C65.6176 107.827 66.6502 113.555 68.0581 114.833C70.0949 116.688 73.4181 116.87 75.0083 114.418C76.5341 112.037 75.0512 104.595 73.4825 103.435C71.1705 101.72 67.1219 102.919 66.225 105.844Z" fill="#DD6A57"/>
<path d="M71.7923 109.284C71.7923 109.284 71.7673 109.306 71.7708 109.324C71.8494 109.707 71.878 110.158 71.5529 110.347C71.5529 110.347 71.5529 110.372 71.5529 110.369C71.9745 110.236 71.9316 109.635 71.7923 109.284Z" fill="#263238"/>
<path d="M71.3813 108.941C70.756 109.002 70.924 110.258 71.5064 110.201C72.0889 110.144 71.9066 108.901 71.3813 108.941Z" fill="#263238"/>
<path d="M74.0471 109.041C74.0471 109.041 74.0792 109.041 74.0828 109.07C74.1221 109.46 74.2329 109.9 74.6045 109.983V110.004C74.165 110 74.022 109.417 74.0471 109.041Z" fill="#263238"/>
<path d="M74.34 108.586C74.9546 108.454 75.1762 109.703 74.6044 109.825C74.0327 109.946 73.8219 108.697 74.34 108.586Z" fill="#263238"/>
<path d="M70.806 108.432C70.9643 108.363 71.1182 108.284 71.267 108.196C71.4456 108.103 71.5957 108.049 71.6922 107.867C71.7147 107.811 71.7185 107.75 71.703 107.693C71.6875 107.635 71.6536 107.584 71.6064 107.548C71.5023 107.492 71.3852 107.465 71.2671 107.469C71.1491 107.474 71.0343 107.509 70.9346 107.573C70.7134 107.67 70.5362 107.846 70.4379 108.067C70.418 108.119 70.4134 108.175 70.4249 108.229C70.4363 108.283 70.4632 108.332 70.5024 108.371C70.5415 108.41 70.591 108.436 70.645 108.447C70.6989 108.458 70.7549 108.453 70.806 108.432Z" fill="#263238"/>
<path d="M74.7367 107.888C74.5701 107.878 74.4042 107.857 74.24 107.827C74.0556 107.831 73.8749 107.775 73.7255 107.666C73.6855 107.623 73.6611 107.567 73.6559 107.508C73.6508 107.449 73.6652 107.39 73.6969 107.34C73.7741 107.251 73.8738 107.184 73.9857 107.146C74.0975 107.108 74.2174 107.101 74.3329 107.126C74.5747 107.139 74.8026 107.243 74.9725 107.415C75.0112 107.458 75.0361 107.511 75.044 107.567C75.0519 107.624 75.0425 107.682 75.0169 107.733C74.9914 107.784 74.9509 107.827 74.9009 107.854C74.8508 107.882 74.7936 107.894 74.7367 107.888Z" fill="#263238"/>
<path d="M72.1746 111.718C72.2942 111.859 72.4412 111.973 72.6065 112.053C72.7719 112.134 72.9521 112.18 73.1359 112.187C73.2967 112.196 73.458 112.182 73.6147 112.145C73.6449 112.139 73.6748 112.132 73.704 112.123L73.7862 112.098C73.8069 112.091 73.8247 112.077 73.837 112.059C73.8492 112.041 73.8553 112.02 73.8541 111.998C73.8561 111.985 73.8561 111.971 73.8541 111.958V111.923C73.8219 111.625 73.7326 111.174 73.7326 111.174C73.847 111.214 74.4473 111.389 74.408 111.232C74.1899 109.887 73.8367 108.567 73.3538 107.294C73.3491 107.287 73.3423 107.282 73.3345 107.279C73.3267 107.276 73.3183 107.276 73.3104 107.279C73.3025 107.281 73.2955 107.286 73.2905 107.292C73.2854 107.299 73.2826 107.307 73.2824 107.315C73.4789 108.557 73.8898 109.757 74.1042 111.002C73.8935 110.937 73.6745 110.902 73.4539 110.899C73.4146 110.899 73.6469 111.769 73.6504 111.905C73.4083 111.963 73.1569 111.972 72.9113 111.931C72.6657 111.89 72.4309 111.799 72.2211 111.665C72.1746 111.661 72.1461 111.69 72.1746 111.718Z" fill="#263238"/>
<path d="M73.4182 112.016C73.2825 112.251 73.0895 112.448 72.8571 112.589C72.7277 112.661 72.5791 112.691 72.4319 112.675C72.1103 112.635 72.0746 112.352 72.0746 112.102C72.088 111.967 72.118 111.835 72.1639 111.708C72.5378 111.944 72.9779 112.052 73.4182 112.016Z" fill="#263238"/>
<path d="M72.8571 112.589C72.7277 112.661 72.5791 112.691 72.4319 112.675C72.1103 112.635 72.0746 112.352 72.0746 112.102C72.2414 112.077 72.4114 112.113 72.5546 112.202C72.6978 112.291 72.805 112.428 72.8571 112.589Z" fill="#FF99BA"/>
<path d="M74.5688 105.225C74.2901 104.763 73.9756 104.297 73.6683 104.24C73.361 104.183 73.261 104.931 72.5963 105.067C71.6958 105.253 71.142 104.473 69.8556 104.555C68.0117 104.677 67.4114 106.313 67.7116 108.919C67.9831 111.243 66.611 111.651 66.611 111.651C66.611 111.651 65.078 106.639 66.2894 104.759C67.5007 102.88 70.706 101.677 73.1395 102.994C74.0328 103.478 74.5688 105.225 74.5688 105.225Z" fill="#263238"/>
<path d="M67.6615 110.58C67.6615 110.58 66.3357 108.751 65.5175 109.231C64.6992 109.71 65.7104 112.374 66.7002 112.721C66.8242 112.775 66.9578 112.803 67.0929 112.804C67.2281 112.805 67.362 112.778 67.4865 112.725C67.6111 112.673 67.7237 112.596 67.8177 112.498C67.9116 112.401 67.9849 112.286 68.0331 112.159L67.6615 110.58Z" fill="#DD6A57"/>
<path d="M65.8176 109.975V110C66.5323 110.269 66.8896 110.902 67.1576 111.565C67.1161 111.496 67.0602 111.437 66.9938 111.392C66.9273 111.347 66.8519 111.317 66.7727 111.304C66.6935 111.291 66.6125 111.295 66.5352 111.317C66.4579 111.338 66.3862 111.377 66.325 111.429C66.325 111.429 66.325 111.468 66.3465 111.464C66.4674 111.424 66.5978 111.422 66.72 111.458C66.8422 111.495 66.9501 111.568 67.029 111.668C67.158 111.837 67.2694 112.018 67.3613 112.209C67.397 112.273 67.5078 112.238 67.4828 112.166V112.148C67.4685 111.278 66.7646 110.057 65.8176 109.975Z" fill="#263238"/>
<path d="M104.042 122.369H78.8318V150.34H104.042V122.369Z" fill="#B93800"/>
<path d="M117.063 122.369H104.045V150.34H117.063V122.369Z" fill="#B93800"/>
<path opacity="0.1" d="M117.063 122.369H104.045V150.34H117.063V122.369Z" fill="black"/>
<path d="M93.5788 128.412H93.0428H92.6426L92.4139 127.947L92.0923 128.412L91.66 127.456L91.2455 128.412H90.0663H89.5267L89.3337 127.775L89.1479 128.412H88.7977V122.369H93.5788V128.412Z" fill="white"/>
<path d="M116.166 148.414C115.201 146.423 114.248 144.428 113.307 142.428L110.481 136.41L107.686 130.381C106.76 128.362 105.845 126.334 104.942 124.295C105.907 126.286 106.86 128.281 107.801 130.281L110.624 136.299L113.411 142.342C114.34 144.359 115.258 146.383 116.166 148.414Z" fill="#B93800"/>
<path d="M116.166 124.295C115.258 126.324 114.342 128.353 113.418 130.381L110.631 136.421L107.808 142.439C106.855 144.441 105.902 146.437 104.949 148.425C105.852 146.394 106.767 144.365 107.694 142.339L110.481 136.296L113.307 130.278C114.246 128.278 115.199 126.284 116.166 124.295Z" fill="#B93800"/>
<path d="M63.9202 124.098C63.7237 129.952 64.156 141.97 66.9718 145.267C70.6666 149.595 80.3718 151.689 83.2448 152.319C84.4954 152.591 86.8181 144.368 86.0034 143.255C85.1887 142.141 75.2048 140.366 74.3829 139.754C73.561 139.141 70.22 128.362 68.6977 123.644C66.7753 117.661 64.0917 119.144 63.9202 124.098Z" fill="#DD6A57"/>
<path d="M89.6053 145.679C89.1193 145.242 89.3445 144.984 90.5022 145.059C91.66 145.135 96.1838 146.416 96.4947 144.798C96.8056 143.18 90.42 141.465 88.4654 141.487C86.5108 141.508 83.3984 142.228 83.3984 142.228C84.5812 142.811 87.3112 144.504 89.6053 145.679Z" fill="#DD6A57"/>
<path d="M80.0859 151.35C83.4699 152.875 87.5899 154.98 91.7493 154.521C92.2126 154.482 92.6494 154.288 92.9892 153.97C94.8581 153.798 95.3369 152.864 95.3369 152.864C97.0271 152.169 97.388 151.145 97.388 151.145C97.388 151.145 99.5785 150.92 99.6642 149.57C99.7607 148.056 96.6662 148.672 94.7545 147.963C90.3843 146.345 84.6169 142.822 83.402 142.235L80.0859 151.35Z" fill="#DD6A57"/>
<path d="M88.9836 149.495C90.2579 149.984 91.564 150.384 92.8928 150.694C94.3672 150.942 95.8577 151.08 97.3524 151.11C97.3618 151.11 97.3709 151.113 97.3776 151.12C97.3843 151.127 97.3881 151.136 97.3881 151.145C97.3881 151.155 97.3843 151.164 97.3776 151.171C97.3709 151.177 97.3618 151.181 97.3524 151.181C94.4595 151.419 91.5571 150.855 88.9622 149.552C88.8907 149.524 88.9193 149.473 88.9836 149.495Z" fill="#263238"/>
<path d="M87.6257 151.997C88.9121 152.355 91.174 153 95.337 152.817C95.337 152.817 95.3548 152.842 95.337 152.842C92.7368 153.306 90.0589 153.035 87.6043 152.058C87.5292 152.03 87.5399 151.972 87.6257 151.997Z" fill="#263238"/>
<path d="M86.9218 153.357C89.1301 153.898 90.5916 153.959 92.9786 153.963V153.988C90.2665 154.27 89.2481 154.066 86.9039 153.429C86.811 153.408 86.8325 153.336 86.9218 153.357Z" fill="#263238"/>
<path d="M63.52 133.302L71.8495 131.197C71.8495 131.197 69.8556 124.965 68.3548 121.889C66.854 118.814 64.2812 117.754 63.6308 122.963C63.0698 127.37 63.52 133.302 63.52 133.302Z" fill="#37474F"/>
</g>
<path d="M30.185 42.168C28.217 42.168 26.601 41.704 25.337 40.776C24.073 39.832 23.393 38.488 23.297 36.744H28.313C28.361 37.336 28.537 37.768 28.841 38.04C29.145 38.312 29.537 38.448 30.017 38.448C30.449 38.448 30.801 38.344 31.073 38.136C31.361 37.912 31.505 37.608 31.505 37.224C31.505 36.728 31.273 36.344 30.809 36.072C30.345 35.8 29.593 35.496 28.553 35.16C27.449 34.792 26.553 34.44 25.865 34.104C25.193 33.752 24.601 33.248 24.089 32.592C23.593 31.92 23.345 31.048 23.345 29.976C23.345 28.888 23.617 27.96 24.161 27.192C24.705 26.408 25.457 25.816 26.417 25.416C27.377 25.016 28.465 24.816 29.681 24.816C31.649 24.816 33.217 25.28 34.385 26.208C35.569 27.12 36.201 28.408 36.281 30.072H31.169C31.153 29.56 30.993 29.176 30.689 28.92C30.401 28.664 30.025 28.536 29.561 28.536C29.209 28.536 28.921 28.64 28.697 28.848C28.473 29.056 28.361 29.352 28.361 29.736C28.361 30.056 28.481 30.336 28.721 30.576C28.977 30.8 29.289 31 29.657 31.176C30.025 31.336 30.569 31.544 31.289 31.8C32.361 32.168 33.241 32.536 33.929 32.904C34.633 33.256 35.233 33.76 35.729 34.416C36.241 35.056 36.497 35.872 36.497 36.864C36.497 37.872 36.241 38.776 35.729 39.576C35.233 40.376 34.505 41.008 33.545 41.472C32.601 41.936 31.481 42.168 30.185 42.168ZM52.4598 28.536V42H47.7318V40.08C47.3318 40.688 46.7798 41.184 46.0758 41.568C45.3718 41.936 44.5638 42.12 43.6518 42.12C42.0838 42.12 40.8438 41.608 39.9318 40.584C39.0358 39.544 38.5878 38.136 38.5878 36.36V28.536H43.2678V35.76C43.2678 36.528 43.4678 37.136 43.8678 37.584C44.2838 38.016 44.8278 38.232 45.4998 38.232C46.1878 38.232 46.7318 38.016 47.1318 37.584C47.5318 37.136 47.7318 36.528 47.7318 35.76V28.536H52.4598ZM54.369 35.256C54.369 33.864 54.617 32.648 55.113 31.608C55.625 30.568 56.313 29.768 57.177 29.208C58.057 28.648 59.033 28.368 60.105 28.368C61.033 28.368 61.833 28.552 62.505 28.92C63.177 29.288 63.697 29.784 64.065 30.408V28.536H68.769V42H64.065V40.128C63.697 40.752 63.169 41.248 62.481 41.616C61.809 41.984 61.017 42.168 60.105 42.168C59.033 42.168 58.057 41.888 57.177 41.328C56.313 40.768 55.625 39.968 55.113 38.928C54.617 37.872 54.369 36.648 54.369 35.256ZM64.065 35.256C64.065 34.392 63.825 33.712 63.345 33.216C62.881 32.72 62.305 32.472 61.617 32.472C60.913 32.472 60.329 32.72 59.865 33.216C59.401 33.696 59.169 34.376 59.169 35.256C59.169 36.12 59.401 36.808 59.865 37.32C60.329 37.816 60.913 38.064 61.617 38.064C62.305 38.064 62.881 37.816 63.345 37.32C63.825 36.824 64.065 36.136 64.065 35.256ZM88.9072 35.112C88.9072 35.48 88.8832 35.848 88.8352 36.216H79.9312C79.9792 36.952 80.1792 37.504 80.5312 37.872C80.8992 38.224 81.3632 38.4 81.9232 38.4C82.7072 38.4 83.2672 38.048 83.6032 37.344H88.6192C88.4112 38.272 88.0032 39.104 87.3952 39.84C86.8032 40.56 86.0512 41.128 85.1392 41.544C84.2272 41.96 83.2192 42.168 82.1152 42.168C80.7872 42.168 79.6032 41.888 78.5632 41.328C77.5392 40.768 76.7312 39.968 76.1392 38.928C75.5632 37.888 75.2752 36.664 75.2752 35.256C75.2752 33.848 75.5632 32.632 76.1392 31.608C76.7152 30.568 77.5152 29.768 78.5392 29.208C79.5792 28.648 80.7712 28.368 82.1152 28.368C83.4432 28.368 84.6192 28.64 85.6432 29.184C86.6672 29.728 87.4672 30.512 88.0432 31.536C88.6192 32.544 88.9072 33.736 88.9072 35.112ZM84.1072 33.936C84.1072 33.36 83.9152 32.912 83.5312 32.592C83.1472 32.256 82.6672 32.088 82.0912 32.088C81.5152 32.088 81.0432 32.248 80.6752 32.568C80.3072 32.872 80.0672 33.328 79.9552 33.936H84.1072ZM108.424 28.416C110.12 28.416 111.448 28.928 112.408 29.952C113.384 30.976 113.872 32.376 113.872 34.152V42H109.168V34.776C109.168 34.056 108.968 33.496 108.568 33.096C108.168 32.696 107.624 32.496 106.936 32.496C106.248 32.496 105.704 32.696 105.304 33.096C104.904 33.496 104.704 34.056 104.704 34.776V42H100V34.776C100 34.056 99.8003 33.496 99.4003 33.096C99.0163 32.696 98.4803 32.496 97.7923 32.496C97.0883 32.496 96.5363 32.696 96.1363 33.096C95.7363 33.496 95.5363 34.056 95.5363 34.776V42H90.8323V28.536H95.5363V30.312C95.9523 29.736 96.4883 29.28 97.1443 28.944C97.8163 28.592 98.5843 28.416 99.4483 28.416C100.44 28.416 101.32 28.632 102.088 29.064C102.872 29.496 103.488 30.104 103.936 30.888C104.416 30.152 105.048 29.56 105.832 29.112C106.616 28.648 107.48 28.416 108.424 28.416ZM121.153 30.408C121.521 29.784 122.041 29.288 122.713 28.92C123.385 28.552 124.177 28.368 125.089 28.368C126.161 28.368 127.129 28.648 127.993 29.208C128.873 29.768 129.561 30.568 130.057 31.608C130.569 32.648 130.825 33.864 130.825 35.256C130.825 36.648 130.569 37.872 130.057 38.928C129.561 39.968 128.873 40.768 127.993 41.328C127.129 41.888 126.161 42.168 125.089 42.168C124.177 42.168 123.385 41.984 122.713 41.616C122.057 41.248 121.537 40.752 121.153 40.128V48.432H116.449V28.536H121.153V30.408ZM126.049 35.256C126.049 34.376 125.809 33.696 125.329 33.216C124.865 32.72 124.289 32.472 123.601 32.472C122.913 32.472 122.329 32.72 121.849 33.216C121.385 33.712 121.153 34.392 121.153 35.256C121.153 36.136 121.385 36.824 121.849 37.32C122.329 37.816 122.913 38.064 123.601 38.064C124.289 38.064 124.865 37.816 125.329 37.32C125.809 36.808 126.049 36.12 126.049 35.256ZM137.466 30.912C137.994 30.144 138.634 29.536 139.386 29.088C140.138 28.64 140.946 28.416 141.81 28.416V33.432H140.49C139.466 33.432 138.706 33.632 138.21 34.032C137.714 34.432 137.466 35.128 137.466 36.12V42H132.762V28.536H137.466V30.912ZM156.36 35.112C156.36 35.48 156.336 35.848 156.288 36.216H147.384C147.432 36.952 147.632 37.504 147.984 37.872C148.352 38.224 148.816 38.4 149.376 38.4C150.16 38.4 150.72 38.048 151.056 37.344H156.072C155.864 38.272 155.456 39.104 154.848 39.84C154.256 40.56 153.504 41.128 152.592 41.544C151.68 41.96 150.672 42.168 149.568 42.168C148.24 42.168 147.056 41.888 146.016 41.328C144.992 40.768 144.184 39.968 143.592 38.928C143.016 37.888 142.728 36.664 142.728 35.256C142.728 33.848 143.016 32.632 143.592 31.608C144.168 30.568 144.968 29.768 145.992 29.208C147.032 28.648 148.224 28.368 149.568 28.368C150.896 28.368 152.072 28.64 153.096 29.184C154.12 29.728 154.92 30.512 155.496 31.536C156.072 32.544 156.36 33.736 156.36 35.112ZM151.56 33.936C151.56 33.36 151.368 32.912 150.984 32.592C150.6 32.256 150.12 32.088 149.544 32.088C148.968 32.088 148.496 32.248 148.128 32.568C147.76 32.872 147.52 33.328 147.408 33.936H151.56ZM164.021 42.168C162.805 42.168 161.717 41.968 160.757 41.568C159.813 41.152 159.061 40.592 158.501 39.888C157.957 39.168 157.653 38.36 157.589 37.464H162.149C162.213 37.896 162.413 38.232 162.749 38.472C163.085 38.712 163.501 38.832 163.997 38.832C164.381 38.832 164.685 38.752 164.909 38.592C165.133 38.432 165.245 38.224 165.245 37.968C165.245 37.632 165.061 37.384 164.693 37.224C164.325 37.064 163.717 36.888 162.869 36.696C161.909 36.504 161.109 36.288 160.469 36.048C159.829 35.808 159.269 35.416 158.789 34.872C158.325 34.328 158.093 33.592 158.093 32.664C158.093 31.864 158.309 31.144 158.741 30.504C159.173 29.848 159.805 29.328 160.637 28.944C161.485 28.56 162.501 28.368 163.685 28.368C165.445 28.368 166.829 28.8 167.837 29.664C168.845 30.528 169.429 31.664 169.589 33.072H165.341C165.261 32.64 165.069 32.312 164.765 32.088C164.477 31.848 164.085 31.728 163.589 31.728C163.205 31.728 162.909 31.8 162.701 31.944C162.509 32.088 162.413 32.288 162.413 32.544C162.413 32.864 162.597 33.112 162.965 33.288C163.333 33.448 163.925 33.616 164.741 33.792C165.717 34 166.525 34.232 167.165 34.488C167.821 34.744 168.389 35.16 168.869 35.736C169.365 36.296 169.613 37.064 169.613 38.04C169.613 38.824 169.381 39.528 168.917 40.152C168.469 40.776 167.821 41.272 166.973 41.64C166.141 41.992 165.157 42.168 164.021 42.168ZM171.158 35.256C171.158 33.864 171.406 32.648 171.902 31.608C172.414 30.568 173.102 29.768 173.966 29.208C174.846 28.648 175.822 28.368 176.894 28.368C177.822 28.368 178.622 28.552 179.294 28.92C179.966 29.288 180.486 29.784 180.854 30.408V28.536H185.558V42H180.854V40.128C180.486 40.752 179.958 41.248 179.27 41.616C178.598 41.984 177.806 42.168 176.894 42.168C175.822 42.168 174.846 41.888 173.966 41.328C173.102 40.768 172.414 39.968 171.902 38.928C171.406 37.872 171.158 36.648 171.158 35.256ZM180.854 35.256C180.854 34.392 180.614 33.712 180.134 33.216C179.67 32.72 179.094 32.472 178.406 32.472C177.702 32.472 177.118 32.72 176.654 33.216C176.19 33.696 175.958 34.376 175.958 35.256C175.958 36.12 176.19 36.808 176.654 37.32C177.118 37.816 177.702 38.064 178.406 38.064C179.094 38.064 179.67 37.816 180.134 37.32C180.614 36.824 180.854 36.136 180.854 35.256ZM197.8 28.368C198.712 28.368 199.504 28.552 200.176 28.92C200.864 29.288 201.392 29.784 201.76 30.408V28.536H206.464V41.856C206.464 43.12 206.224 44.256 205.744 45.264C205.264 46.288 204.512 47.104 203.488 47.712C202.48 48.32 201.2 48.624 199.648 48.624C197.568 48.624 195.904 48.136 194.656 47.16C193.408 46.184 192.696 44.856 192.52 43.176H197.152C197.248 43.608 197.488 43.944 197.872 44.184C198.256 44.424 198.752 44.544 199.36 44.544C200.96 44.544 201.76 43.648 201.76 41.856V40.128C201.392 40.752 200.864 41.248 200.176 41.616C199.504 41.984 198.712 42.168 197.8 42.168C196.728 42.168 195.752 41.888 194.872 41.328C194.008 40.768 193.32 39.968 192.808 38.928C192.312 37.872 192.064 36.648 192.064 35.256C192.064 33.864 192.312 32.648 192.808 31.608C193.32 30.568 194.008 29.768 194.872 29.208C195.752 28.648 196.728 28.368 197.8 28.368ZM201.76 35.256C201.76 34.392 201.52 33.712 201.04 33.216C200.576 32.72 200 32.472 199.312 32.472C198.608 32.472 198.024 32.72 197.56 33.216C197.096 33.696 196.864 34.376 196.864 35.256C196.864 36.12 197.096 36.808 197.56 37.32C198.024 37.816 198.608 38.064 199.312 38.064C200 38.064 200.576 37.816 201.04 37.32C201.52 36.824 201.76 36.136 201.76 35.256ZM215.409 42.168C214.065 42.168 212.857 41.888 211.785 41.328C210.729 40.768 209.897 39.968 209.289 38.928C208.681 37.888 208.377 36.664 208.377 35.256C208.377 33.864 208.681 32.648 209.289 31.608C209.913 30.568 210.753 29.768 211.809 29.208C212.881 28.648 214.089 28.368 215.433 28.368C216.777 28.368 217.977 28.648 219.033 29.208C220.105 29.768 220.945 30.568 221.553 31.608C222.177 32.648 222.489 33.864 222.489 35.256C222.489 36.648 222.177 37.872 221.553 38.928C220.945 39.968 220.105 40.768 219.033 41.328C217.961 41.888 216.753 42.168 215.409 42.168ZM215.409 38.088C216.065 38.088 216.609 37.848 217.041 37.368C217.489 36.872 217.713 36.168 217.713 35.256C217.713 34.344 217.489 33.648 217.041 33.168C216.609 32.688 216.073 32.448 215.433 32.448C214.793 32.448 214.257 32.688 213.825 33.168C213.393 33.648 213.177 34.344 213.177 35.256C213.177 36.184 213.385 36.888 213.801 37.368C214.217 37.848 214.753 38.088 215.409 38.088ZM230.139 42.168C228.923 42.168 227.835 41.968 226.875 41.568C225.931 41.152 225.179 40.592 224.619 39.888C224.075 39.168 223.771 38.36 223.707 37.464H228.267C228.331 37.896 228.531 38.232 228.867 38.472C229.203 38.712 229.619 38.832 230.115 38.832C230.499 38.832 230.803 38.752 231.027 38.592C231.251 38.432 231.363 38.224 231.363 37.968C231.363 37.632 231.179 37.384 230.811 37.224C230.443 37.064 229.835 36.888 228.987 36.696C228.027 36.504 227.227 36.288 226.587 36.048C225.947 35.808 225.387 35.416 224.907 34.872C224.443 34.328 224.211 33.592 224.211 32.664C224.211 31.864 224.427 31.144 224.859 30.504C225.291 29.848 225.923 29.328 226.755 28.944C227.603 28.56 228.619 28.368 229.803 28.368C231.563 28.368 232.947 28.8 233.955 29.664C234.963 30.528 235.547 31.664 235.707 33.072H231.459C231.379 32.64 231.187 32.312 230.883 32.088C230.595 31.848 230.203 31.728 229.707 31.728C229.323 31.728 229.027 31.8 228.819 31.944C228.627 32.088 228.531 32.288 228.531 32.544C228.531 32.864 228.715 33.112 229.083 33.288C229.451 33.448 230.043 33.616 230.859 33.792C231.835 34 232.643 34.232 233.283 34.488C233.939 34.744 234.507 35.16 234.987 35.736C235.483 36.296 235.731 37.064 235.731 38.04C235.731 38.824 235.499 39.528 235.035 40.152C234.587 40.776 233.939 41.272 233.091 41.64C232.259 41.992 231.275 42.168 230.139 42.168ZM245.987 37.992V42H243.947C240.507 42 238.787 40.296 238.787 36.888V32.448H237.131V28.536H238.787V25.272H243.515V28.536H245.963V32.448H243.515V36.96C243.515 37.328 243.595 37.592 243.755 37.752C243.931 37.912 244.219 37.992 244.619 37.992H245.987ZM247.377 35.256C247.377 33.864 247.625 32.648 248.121 31.608C248.633 30.568 249.321 29.768 250.185 29.208C251.065 28.648 252.041 28.368 253.113 28.368C254.041 28.368 254.841 28.552 255.513 28.92C256.185 29.288 256.705 29.784 257.073 30.408V28.536H261.777V42H257.073V40.128C256.705 40.752 256.177 41.248 255.489 41.616C254.817 41.984 254.025 42.168 253.113 42.168C252.041 42.168 251.065 41.888 250.185 41.328C249.321 40.768 248.633 39.968 248.121 38.928C247.625 37.872 247.377 36.648 247.377 35.256ZM257.073 35.256C257.073 34.392 256.833 33.712 256.353 33.216C255.889 32.72 255.313 32.472 254.625 32.472C253.921 32.472 253.337 32.72 252.873 33.216C252.409 33.696 252.177 34.376 252.177 35.256C252.177 36.12 252.409 36.808 252.873 37.32C253.337 37.816 253.921 38.064 254.625 38.064C255.313 38.064 255.889 37.816 256.353 37.32C256.833 36.824 257.073 36.136 257.073 35.256ZM269.161 30.912C269.689 30.144 270.329 29.536 271.081 29.088C271.833 28.64 272.641 28.416 273.505 28.416V33.432H272.185C271.161 33.432 270.401 33.632 269.905 34.032C269.409 34.432 269.161 35.128 269.161 36.12V42H264.457V28.536H269.161V30.912ZM277.568 27.288C276.736 27.288 276.064 27.064 275.552 26.616C275.056 26.152 274.808 25.576 274.808 24.888C274.808 24.184 275.056 23.6 275.552 23.136C276.064 22.672 276.736 22.44 277.568 22.44C278.384 22.44 279.04 22.672 279.536 23.136C280.048 23.6 280.304 24.184 280.304 24.888C280.304 25.576 280.048 26.152 279.536 26.616C279.04 27.064 278.384 27.288 277.568 27.288ZM279.896 28.536V42H275.192V28.536H279.896ZM281.806 35.256C281.806 33.864 282.054 32.648 282.55 31.608C283.062 30.568 283.75 29.768 284.614 29.208C285.494 28.648 286.47 28.368 287.542 28.368C288.47 28.368 289.27 28.552 289.942 28.92C290.614 29.288 291.134 29.784 291.502 30.408V28.536H296.206V42H291.502V40.128C291.134 40.752 290.606 41.248 289.918 41.616C289.246 41.984 288.454 42.168 287.542 42.168C286.47 42.168 285.494 41.888 284.614 41.328C283.75 40.768 283.062 39.968 282.55 38.928C282.054 37.872 281.806 36.648 281.806 35.256ZM291.502 35.256C291.502 34.392 291.262 33.712 290.782 33.216C290.318 32.72 289.742 32.472 289.054 32.472C288.35 32.472 287.766 32.72 287.302 33.216C286.838 33.696 286.606 34.376 286.606 35.256C286.606 36.12 286.838 36.808 287.302 37.32C287.766 37.816 288.35 38.064 289.054 38.064C289.742 38.064 290.318 37.816 290.782 37.32C291.262 36.824 291.502 36.136 291.502 35.256ZM32.1502 64.256C32.1502 62.864 32.3982 61.648 32.8942 60.608C33.4062 59.568 34.1022 58.768 34.9822 58.208C35.8622 57.648 36.8382 57.368 37.9102 57.368C38.7742 57.368 39.5422 57.552 40.2142 57.92C40.9022 58.272 41.4382 58.76 41.8222 59.384V53.24H46.5502V71H41.8222V69.128C41.4542 69.752 40.9342 70.248 40.2622 70.616C39.5902 70.984 38.7982 71.168 37.8862 71.168C36.8142 71.168 35.8382 70.888 34.9582 70.328C34.0942 69.768 33.4062 68.968 32.8942 67.928C32.3982 66.872 32.1502 65.648 32.1502 64.256ZM41.8462 64.256C41.8462 63.392 41.6062 62.712 41.1262 62.216C40.6622 61.72 40.0862 61.472 39.3982 61.472C38.6942 61.472 38.1102 61.72 37.6462 62.216C37.1822 62.696 36.9502 63.376 36.9502 64.256C36.9502 65.12 37.1822 65.808 37.6462 66.32C38.1102 66.816 38.6942 67.064 39.3982 67.064C40.0862 67.064 40.6622 66.816 41.1262 66.32C41.6062 65.824 41.8462 65.136 41.8462 64.256ZM62.0947 64.112C62.0947 64.48 62.0707 64.848 62.0227 65.216H53.1187C53.1667 65.952 53.3667 66.504 53.7187 66.872C54.0867 67.224 54.5507 67.4 55.1107 67.4C55.8947 67.4 56.4547 67.048 56.7907 66.344H61.8067C61.5987 67.272 61.1907 68.104 60.5827 68.84C59.9907 69.56 59.2387 70.128 58.3267 70.544C57.4147 70.96 56.4067 71.168 55.3027 71.168C53.9747 71.168 52.7907 70.888 51.7507 70.328C50.7267 69.768 49.9187 68.968 49.3267 67.928C48.7507 66.888 48.4627 65.664 48.4627 64.256C48.4627 62.848 48.7507 61.632 49.3267 60.608C49.9027 59.568 50.7027 58.768 51.7267 58.208C52.7667 57.648 53.9587 57.368 55.3027 57.368C56.6307 57.368 57.8067 57.64 58.8307 58.184C59.8547 58.728 60.6547 59.512 61.2307 60.536C61.8067 61.544 62.0947 62.736 62.0947 64.112ZM57.2947 62.936C57.2947 62.36 57.1027 61.912 56.7187 61.592C56.3347 61.256 55.8547 61.088 55.2787 61.088C54.7027 61.088 54.2307 61.248 53.8627 61.568C53.4947 61.872 53.2547 62.328 53.1427 62.936H57.2947ZM75.8855 61.448H73.7735V71H69.0455V61.448H67.5815V57.536H69.0455V57.416C69.0455 55.688 69.5495 54.368 70.5575 53.456C71.5815 52.528 73.0455 52.064 74.9495 52.064C75.3335 52.064 75.6295 52.072 75.8375 52.088V56.096C75.7095 56.08 75.5335 56.072 75.3095 56.072C74.7975 56.072 74.4215 56.192 74.1815 56.432C73.9415 56.656 73.8055 57.024 73.7735 57.536H75.8855V61.448ZM76.7987 64.256C76.7987 62.864 77.0467 61.648 77.5427 60.608C78.0547 59.568 78.7427 58.768 79.6067 58.208C80.4867 57.648 81.4627 57.368 82.5347 57.368C83.4627 57.368 84.2627 57.552 84.9347 57.92C85.6067 58.288 86.1267 58.784 86.4947 59.408V57.536H91.1987V71H86.4947V69.128C86.1267 69.752 85.5987 70.248 84.9107 70.616C84.2387 70.984 83.4467 71.168 82.5347 71.168C81.4627 71.168 80.4867 70.888 79.6067 70.328C78.7427 69.768 78.0547 68.968 77.5427 67.928C77.0467 66.872 76.7987 65.648 76.7987 64.256ZM86.4947 64.256C86.4947 63.392 86.2547 62.712 85.7747 62.216C85.3107 61.72 84.7347 61.472 84.0467 61.472C83.3427 61.472 82.7587 61.72 82.2947 62.216C81.8307 62.696 81.5987 63.376 81.5987 64.256C81.5987 65.12 81.8307 65.808 82.2947 66.32C82.7587 66.816 83.3427 67.064 84.0467 67.064C84.7347 67.064 85.3107 66.816 85.7747 66.32C86.2547 65.824 86.4947 65.136 86.4947 64.256ZM98.3432 67.088H104.079V71H93.1592V67.28L98.5112 61.448H93.2072V57.536H103.887V61.256L98.3432 67.088ZM118.907 64.112C118.907 64.48 118.883 64.848 118.835 65.216H109.931C109.979 65.952 110.179 66.504 110.531 66.872C110.899 67.224 111.363 67.4 111.923 67.4C112.707 67.4 113.267 67.048 113.603 66.344H118.619C118.411 67.272 118.003 68.104 117.395 68.84C116.803 69.56 116.051 70.128 115.139 70.544C114.227 70.96 113.219 71.168 112.115 71.168C110.787 71.168 109.603 70.888 108.563 70.328C107.539 69.768 106.731 68.968 106.139 67.928C105.563 66.888 105.275 65.664 105.275 64.256C105.275 62.848 105.563 61.632 106.139 60.608C106.715 59.568 107.515 58.768 108.539 58.208C109.579 57.648 110.771 57.368 112.115 57.368C113.443 57.368 114.619 57.64 115.643 58.184C116.667 58.728 117.467 59.512 118.043 60.536C118.619 61.544 118.907 62.736 118.907 64.112ZM114.107 62.936C114.107 62.36 113.915 61.912 113.531 61.592C113.147 61.256 112.667 61.088 112.091 61.088C111.515 61.088 111.043 61.248 110.675 61.568C110.307 61.872 110.067 62.328 109.955 62.936H114.107ZM125.536 59.912C126.064 59.144 126.704 58.536 127.456 58.088C128.208 57.64 129.016 57.416 129.88 57.416V62.432H128.56C127.536 62.432 126.776 62.632 126.28 63.032C125.784 63.432 125.536 64.128 125.536 65.12V71H120.832V57.536H125.536V59.912ZM149.936 57.536V71H145.208V69.08C144.808 69.688 144.256 70.184 143.552 70.568C142.848 70.936 142.04 71.12 141.128 71.12C139.56 71.12 138.32 70.608 137.408 69.584C136.512 68.544 136.064 67.136 136.064 65.36V57.536H140.744V64.76C140.744 65.528 140.944 66.136 141.344 66.584C141.76 67.016 142.304 67.232 142.976 67.232C143.664 67.232 144.208 67.016 144.608 66.584C145.008 66.136 145.208 65.528 145.208 64.76V57.536H149.936ZM170.206 57.416C171.902 57.416 173.23 57.928 174.19 58.952C175.166 59.976 175.654 61.376 175.654 63.152V71H170.95V63.776C170.95 63.056 170.75 62.496 170.35 62.096C169.95 61.696 169.406 61.496 168.718 61.496C168.03 61.496 167.486 61.696 167.086 62.096C166.686 62.496 166.486 63.056 166.486 63.776V71H161.782V63.776C161.782 63.056 161.582 62.496 161.182 62.096C160.798 61.696 160.262 61.496 159.574 61.496C158.87 61.496 158.318 61.696 157.918 62.096C157.518 62.496 157.318 63.056 157.318 63.776V71H152.614V57.536H157.318V59.312C157.734 58.736 158.27 58.28 158.926 57.944C159.598 57.592 160.366 57.416 161.23 57.416C162.222 57.416 163.102 57.632 163.87 58.064C164.654 58.496 165.27 59.104 165.718 59.888C166.198 59.152 166.83 58.56 167.614 58.112C168.398 57.648 169.262 57.416 170.206 57.416ZM182.056 64.256C182.056 62.864 182.304 61.648 182.8 60.608C183.312 59.568 184.008 58.768 184.888 58.208C185.768 57.648 186.744 57.368 187.816 57.368C188.68 57.368 189.448 57.552 190.12 57.92C190.808 58.272 191.344 58.76 191.728 59.384V53.24H196.456V71H191.728V69.128C191.36 69.752 190.84 70.248 190.168 70.616C189.496 70.984 188.704 71.168 187.792 71.168C186.72 71.168 185.744 70.888 184.864 70.328C184 69.768 183.312 68.968 182.8 67.928C182.304 66.872 182.056 65.648 182.056 64.256ZM191.752 64.256C191.752 63.392 191.512 62.712 191.032 62.216C190.568 61.72 189.992 61.472 189.304 61.472C188.6 61.472 188.016 61.72 187.552 62.216C187.088 62.696 186.856 63.376 186.856 64.256C186.856 65.12 187.088 65.808 187.552 66.32C188.016 66.816 188.6 67.064 189.304 67.064C189.992 67.064 190.568 66.816 191.032 66.32C191.512 65.824 191.752 65.136 191.752 64.256ZM205.401 71.168C204.057 71.168 202.849 70.888 201.777 70.328C200.721 69.768 199.889 68.968 199.281 67.928C198.673 66.888 198.369 65.664 198.369 64.256C198.369 62.864 198.673 61.648 199.281 60.608C199.905 59.568 200.745 58.768 201.801 58.208C202.873 57.648 204.081 57.368 205.425 57.368C206.769 57.368 207.969 57.648 209.025 58.208C210.097 58.768 210.937 59.568 211.545 60.608C212.169 61.648 212.481 62.864 212.481 64.256C212.481 65.648 212.169 66.872 211.545 67.928C210.937 68.968 210.097 69.768 209.025 70.328C207.953 70.888 206.745 71.168 205.401 71.168ZM205.401 67.088C206.057 67.088 206.601 66.848 207.033 66.368C207.481 65.872 207.705 65.168 207.705 64.256C207.705 63.344 207.481 62.648 207.033 62.168C206.601 61.688 206.065 61.448 205.425 61.448C204.785 61.448 204.249 61.688 203.817 62.168C203.385 62.648 203.169 63.344 203.169 64.256C203.169 65.184 203.377 65.888 203.793 66.368C204.209 66.848 204.745 67.088 205.401 67.088ZM213.627 64.256C213.627 62.864 213.875 61.648 214.371 60.608C214.883 59.568 215.571 58.768 216.435 58.208C217.315 57.648 218.291 57.368 219.363 57.368C220.291 57.368 221.091 57.552 221.763 57.92C222.435 58.288 222.955 58.784 223.323 59.408V57.536H228.027V71H223.323V69.128C222.955 69.752 222.427 70.248 221.739 70.616C221.067 70.984 220.275 71.168 219.363 71.168C218.291 71.168 217.315 70.888 216.435 70.328C215.571 69.768 214.883 68.968 214.371 67.928C213.875 66.872 213.627 65.648 213.627 64.256ZM223.323 64.256C223.323 63.392 223.083 62.712 222.603 62.216C222.139 61.72 221.563 61.472 220.875 61.472C220.171 61.472 219.587 61.72 219.123 62.216C218.659 62.696 218.427 63.376 218.427 64.256C218.427 65.12 218.659 65.808 219.123 66.32C219.587 66.816 220.171 67.064 220.875 67.064C221.563 67.064 222.139 66.816 222.603 66.32C223.083 65.824 223.323 65.136 223.323 64.256ZM236.659 67.16C237.507 67.16 238.067 66.72 238.339 65.84H243.331C243.043 67.264 242.443 68.432 241.531 69.344C240.635 70.24 239.507 70.808 238.147 71.048V71.888C238.931 71.888 239.643 72.12 240.283 72.584C240.939 73.048 241.267 73.76 241.267 74.72C241.267 75.696 240.923 76.416 240.235 76.88C239.547 77.344 238.731 77.576 237.787 77.576H233.875V75.104H237.235C237.763 75.104 238.027 74.936 238.027 74.6C238.027 74.264 237.763 74.096 237.235 74.096H235.363V71.048C233.715 70.776 232.395 70.04 231.403 68.84C230.427 67.64 229.939 66.112 229.939 64.256C229.939 62.864 230.227 61.648 230.803 60.608C231.379 59.568 232.179 58.768 233.203 58.208C234.243 57.648 235.427 57.368 236.755 57.368C238.467 57.368 239.907 57.84 241.075 58.784C242.243 59.712 242.995 61.016 243.331 62.696H238.339C238.051 61.816 237.491 61.376 236.659 61.376C236.067 61.376 235.595 61.624 235.243 62.12C234.907 62.6 234.739 63.312 234.739 64.256C234.739 65.2 234.907 65.92 235.243 66.416C235.595 66.912 236.067 67.16 236.659 67.16ZM244.517 64.256C244.517 62.864 244.765 61.648 245.261 60.608C245.773 59.568 246.461 58.768 247.325 58.208C248.205 57.648 249.181 57.368 250.253 57.368C251.181 57.368 251.981 57.552 252.653 57.92C253.325 58.288 253.845 58.784 254.213 59.408V57.536H258.917V71H254.213V69.128C253.845 69.752 253.317 70.248 252.629 70.616C251.957 70.984 251.165 71.168 250.253 71.168C249.181 71.168 248.205 70.888 247.325 70.328C246.461 69.768 245.773 68.968 245.261 67.928C244.765 66.872 244.517 65.648 244.517 64.256ZM254.213 64.256C254.213 63.392 253.973 62.712 253.493 62.216C253.029 61.72 252.453 61.472 251.765 61.472C251.061 61.472 250.477 61.72 250.013 62.216C249.549 62.696 249.317 63.376 249.317 64.256C249.317 65.12 249.549 65.808 250.013 66.32C250.477 66.816 251.061 67.064 251.765 67.064C252.453 67.064 253.029 66.816 253.493 66.32C253.973 65.824 254.213 65.136 254.213 64.256ZM246.989 56.528C247.437 53.92 248.637 52.616 250.589 52.616C250.957 52.616 251.285 52.672 251.573 52.784C251.877 52.896 252.221 53.056 252.605 53.264C252.877 53.408 253.109 53.52 253.301 53.6C253.493 53.68 253.685 53.72 253.877 53.72C254.469 53.72 254.821 53.352 254.933 52.616H257.309C257.085 53.976 256.661 54.968 256.037 55.592C255.429 56.2 254.653 56.504 253.709 56.504C253.357 56.504 253.037 56.456 252.749 56.36C252.461 56.248 252.109 56.088 251.693 55.88C251.421 55.736 251.189 55.624 250.997 55.544C250.805 55.464 250.613 55.424 250.421 55.424C249.845 55.424 249.485 55.792 249.341 56.528H246.989ZM267.862 71.168C266.518 71.168 265.31 70.888 264.238 70.328C263.182 69.768 262.35 68.968 261.742 67.928C261.134 66.888 260.83 65.664 260.83 64.256C260.83 62.864 261.134 61.648 261.742 60.608C262.366 59.568 263.206 58.768 264.262 58.208C265.334 57.648 266.542 57.368 267.886 57.368C269.23 57.368 270.43 57.648 271.486 58.208C272.558 58.768 273.398 59.568 274.006 60.608C274.63 61.648 274.942 62.864 274.942 64.256C274.942 65.648 274.63 66.872 274.006 67.928C273.398 68.968 272.558 69.768 271.486 70.328C270.414 70.888 269.206 71.168 267.862 71.168ZM267.862 67.088C268.518 67.088 269.062 66.848 269.494 66.368C269.942 65.872 270.166 65.168 270.166 64.256C270.166 63.344 269.942 62.648 269.494 62.168C269.062 61.688 268.526 61.448 267.886 61.448C267.246 61.448 266.71 61.688 266.278 62.168C265.846 62.648 265.63 63.344 265.63 64.256C265.63 65.184 265.838 65.888 266.254 66.368C266.67 66.848 267.206 67.088 267.862 67.088ZM281.992 52.832C283.736 52.832 285.136 53.28 286.192 54.176C287.248 55.072 287.776 56.352 287.776 58.016C287.776 59.472 287.288 60.624 286.312 61.472C285.352 62.32 284.08 62.76 282.496 62.792L282.376 64.544H278.224L278.08 59.768H279.808C280.896 59.768 281.728 59.648 282.304 59.408C282.88 59.152 283.168 58.704 283.168 58.064C283.168 57.632 283.048 57.296 282.808 57.056C282.584 56.8 282.272 56.672 281.872 56.672C281.424 56.672 281.08 56.808 280.84 57.08C280.616 57.336 280.504 57.688 280.504 58.136H276.064C276.032 57.16 276.232 56.272 276.664 55.472C277.112 54.656 277.784 54.016 278.68 53.552C279.576 53.072 280.68 52.832 281.992 52.832ZM280.336 71.192C279.504 71.192 278.832 70.968 278.32 70.52C277.824 70.056 277.576 69.472 277.576 68.768C277.576 68.064 277.824 67.48 278.32 67.016C278.832 66.552 279.504 66.32 280.336 66.32C281.152 66.32 281.808 66.552 282.304 67.016C282.816 67.48 283.072 68.064 283.072 68.768C283.072 69.456 282.816 70.032 282.304 70.496C281.808 70.96 281.152 71.192 280.336 71.192Z" fill="#B93800"/>
<defs>
<linearGradient id="paint0_linear_36_2514" x1="156" y1="18.8291" x2="156" y2="278.829" gradientUnits="userSpaceOnUse">
<stop stop-color="#F2F2F2" stop-opacity="0"/>
<stop offset="0.730769" stop-color="#F2F2F2"/>
</linearGradient>
<clipPath id="clip0_36_2514">
<rect width="268" height="179" fill="white" transform="translate(26 78.8291)"/>
</clipPath>
</defs>
</svg>
