<svg width="338" height="226" viewBox="0 0 338 226" fill="none" xmlns="http://www.w3.org/2000/svg">
<g clip-path="url(#clip0_103_4649)">
<path d="M-32.791 128.726L10.709 128.469L54.2036 128.376L141.193 128.212L228.182 128.376L271.682 128.469L315.177 128.726L271.682 128.973L228.182 129.065L141.193 129.23L54.2036 129.065L10.709 128.973L-32.791 128.726Z" fill="#263238"/>
<path d="M200.547 169.012C201.588 169.324 231.034 168.347 232.134 167.597C232.553 167.317 232.661 163.005 232.643 157.793V157.63C232.643 156.555 229.295 138.57 229.295 138.57L209.592 139.162L213.648 158.046V158.367C213.648 158.367 202.543 163.791 201.421 164.754C200.299 165.717 199.528 168.7 200.547 169.012Z" fill="#F7A9A0"/>
<path d="M232.148 167.597C231.057 168.347 201.606 169.328 200.569 169.012C199.533 168.695 200.339 165.703 201.448 164.754C202.079 164.216 205.869 162.263 209.064 160.659C206.915 161.798 202.498 165.703 215.905 163.421C224.977 161.875 230.192 160.573 232.661 159.872C232.643 164.108 232.513 167.358 232.148 167.597Z" fill="#263238"/>
<path d="M209.673 157.653L234.825 155.551C234.825 155.551 227.208 125.123 228.579 123.066C229.178 122.162 252.239 126.438 260.995 116.928C269.003 108.227 260.995 90.6622 260.995 90.6622H239.363C239.363 90.6622 239.593 98.2919 238.272 101.085C237.705 102.283 211.683 99.996 207.379 107.865C201.656 118.374 209.673 157.653 209.673 157.653Z" fill="#37474F"/>
<path d="M231.846 150.692C229.074 150.823 226.289 150.932 223.518 151.144C220.746 151.357 217.965 151.596 215.198 151.926L212.855 152.202C212.481 152.247 212.111 152.292 211.737 152.347C211.36 152.383 210.985 152.441 210.615 152.523C210.574 152.523 210.588 152.586 210.615 152.591C211.325 152.618 212.035 152.595 212.742 152.523L214.752 152.41C216.131 152.329 217.51 152.238 218.889 152.139C221.652 151.94 224.401 151.655 227.154 151.357L231.841 150.837C231.941 150.823 231.941 150.688 231.846 150.692Z" fill="#263238"/>
<path d="M258.566 95.0872C258.489 94.3595 258.431 93.6273 258.399 92.895C258.396 92.886 258.39 92.8781 258.383 92.8725C258.375 92.867 258.366 92.864 258.356 92.864C258.347 92.864 258.338 92.867 258.33 92.8725C258.322 92.8781 258.316 92.886 258.314 92.895C258.314 98.4501 260.238 104.059 258.733 109.569C258.091 111.983 256.627 114.095 254.596 115.54C252.459 116.975 250.014 117.884 247.461 118.193C244.564 118.614 241.603 118.532 238.696 118.514L229.597 118.469H227.344C226.635 118.426 225.925 118.426 225.217 118.469C224.963 118.479 224.72 118.573 224.525 118.736C224.331 118.9 224.197 119.124 224.144 119.373C224.054 120.02 224.045 120.676 224.117 121.326C224.204 124.261 224.411 127.185 224.739 130.099C225.395 135.907 226.522 141.651 228.11 147.275C228.308 147.971 228.515 148.667 228.727 149.359C228.733 149.376 228.745 149.391 228.761 149.399C228.777 149.408 228.796 149.409 228.813 149.404C228.83 149.399 228.845 149.387 228.853 149.37C228.862 149.354 228.863 149.336 228.858 149.318C227.265 143.646 226.087 137.865 225.334 132.02C224.964 129.114 224.712 126.189 224.554 123.26C224.515 122.537 224.483 121.814 224.459 121.091C224.459 120.738 224.432 120.381 224.428 120.029C224.398 119.727 224.453 119.424 224.586 119.152C224.694 119.021 224.834 118.921 224.991 118.858C225.148 118.796 225.319 118.774 225.487 118.795C225.884 118.795 226.28 118.795 226.677 118.795H228.93L238.029 118.853C240.945 118.853 243.888 118.966 246.781 118.627C249.317 118.394 251.775 117.624 253.992 116.367C256.061 115.173 257.69 113.338 258.633 111.138C260.779 105.98 259.134 100.403 258.566 95.0872Z" fill="#263238"/>
<path d="M260.995 116.928C255.587 122.804 244.658 123.419 236.997 123.256L245.762 90.6802H260.995C260.995 90.6802 269.003 108.227 260.995 116.928Z" fill="#263238"/>
<path d="M305.52 167.751C305.403 166.67 293.001 139.862 291.883 139.144C291.464 138.863 287.462 140.45 282.685 142.502L282.536 142.57C281.55 142.99 263.37 147.89 263.37 147.89L271.428 165.432L290.356 159.954L290.644 159.809C290.644 159.809 299.964 167.945 301.28 168.601C302.596 169.256 305.647 168.831 305.52 167.751Z" fill="#F7A9A0"/>
<path d="M285.065 141.476C288.733 139.944 291.537 138.895 291.884 139.13C293.006 139.849 305.404 166.652 305.521 167.733C305.638 168.813 302.578 169.238 301.271 168.582C300.473 168.18 296.697 165.003 293.866 162.584C295.89 164.175 300.306 166.124 293.695 154.95C289.617 148.071 286.75 143.835 285.065 141.476Z" fill="#263238"/>
<path d="M239.511 90.6622C239.511 90.6622 239.845 101.171 241.418 106.347C241.418 106.347 243.13 107.251 243.644 107.571C243.644 107.571 230.629 138.827 231.368 150.855C231.611 154.796 236.064 161.274 240.561 164.081C248.52 169.053 287.359 164.691 287.359 164.691L281.725 141.268C281.725 141.268 257.168 142.624 256.546 141.309C255.758 139.618 260.648 126.47 264.555 115.789C264.947 114.709 268.877 110.731 268.417 103.526C268.067 99.0698 266.922 94.7127 265.037 90.6622H239.511Z" fill="#37474F"/>
<path d="M243.599 103.897C243.549 103.151 243.495 102.405 243.428 101.664C243.279 99.9689 243.103 98.2693 242.806 96.5924C242.806 96.4613 242.598 96.5111 242.612 96.6376C242.725 97.9529 242.873 99.2683 242.999 100.584C243.126 101.899 243.279 103.21 243.301 104.52C243.301 104.914 243.301 105.583 242.797 105.691C242.148 105.84 241.841 104.982 241.688 104.516C241.315 103.345 241.042 102.144 240.872 100.927C240.656 99.5711 240.543 98.1473 240.422 96.7551C240.422 96.7054 240.332 96.7145 240.332 96.7551C240.332 99.5169 240.363 102.405 241.391 105.013C241.465 105.281 241.61 105.524 241.81 105.716C242.011 105.908 242.26 106.041 242.531 106.102C242.531 106.102 242.531 106.102 242.558 106.102C242.585 106.102 242.558 106.134 242.558 106.152C242.558 106.17 242.589 106.306 242.603 106.383C242.612 106.448 242.625 106.513 242.643 106.577C242.67 106.713 242.689 106.848 242.72 106.979C242.725 107.003 242.738 107.024 242.756 107.039C242.775 107.054 242.798 107.062 242.821 107.062C242.845 107.062 242.868 107.054 242.887 107.039C242.905 107.024 242.918 107.003 242.923 106.979C242.939 106.974 242.954 106.962 242.963 106.948C242.973 106.933 242.978 106.916 242.977 106.898C242.965 106.629 242.906 106.364 242.801 106.116C242.96 106.083 243.108 106.011 243.231 105.906C243.355 105.801 243.45 105.666 243.509 105.515C243.667 104.99 243.698 104.436 243.599 103.897Z" fill="#263238"/>
<path d="M241.616 106.356C243.724 107.233 245.752 108.292 247.677 109.52C247.754 109.565 247.677 109.687 247.614 109.646C245.568 108.647 243.477 107.689 241.49 106.577C241.472 106.556 241.461 106.53 241.458 106.502C241.456 106.474 241.462 106.446 241.475 106.422C241.489 106.398 241.51 106.378 241.535 106.366C241.56 106.355 241.589 106.351 241.616 106.356Z" fill="#263238"/>
<path d="M258.98 101.551C258.449 101.552 257.918 101.509 257.394 101.424C256.943 101.338 256.465 101.207 256.015 101.076C255.163 100.823 254.126 100.525 253.505 99.8468C252.903 99.1083 252.422 98.2782 252.08 97.3879C251.654 96.457 251.371 95.4663 251.242 94.4499C251.244 94.4445 251.245 94.4386 251.244 94.4328C251.243 94.427 251.241 94.4215 251.238 94.4167C251.235 94.4119 251.23 94.408 251.225 94.4053C251.22 94.4026 251.214 94.4012 251.208 94.4012C251.203 94.4012 251.197 94.4026 251.192 94.4053C251.187 94.408 251.182 94.4119 251.179 94.4167C251.175 94.4215 251.173 94.427 251.173 94.4328C251.172 94.4386 251.173 94.4445 251.175 94.4499C251.239 95.5003 251.412 96.5411 251.693 97.5552C251.85 98.0602 252.044 98.5527 252.274 99.0287C252.483 99.5058 252.76 99.9491 253.099 100.344C253.784 101.09 254.902 101.451 255.871 101.646C256.905 101.836 257.964 101.836 258.998 101.646C259.066 101.655 259.043 101.551 258.98 101.551Z" fill="#263238"/>
<path d="M275.357 143.998C270.004 143.899 267.511 144.229 262.153 144.233H256.091C255.622 144.245 255.154 144.203 254.694 144.107C254.269 144.033 253.885 143.805 253.617 143.465C253.261 142.931 253.451 142.253 253.577 141.657C253.843 140.396 254.149 139.139 254.478 137.892C255.83 132.816 257.588 127.857 259.246 122.876L261.806 115.192C262.018 114.568 262.225 113.945 262.486 113.339C262.734 112.786 263.015 112.248 263.329 111.73C263.932 110.734 264.419 109.673 264.78 108.566C266.231 103.788 264.839 98.8434 263.144 94.3369C262.915 93.7313 262.694 93.1301 262.432 92.5289C262.432 92.4883 262.351 92.5289 262.369 92.5515C263.91 97.3111 265.754 102.26 264.717 107.336C264.476 108.531 264.058 109.683 263.478 110.754C263.18 111.3 262.856 111.829 262.577 112.376C262.287 112.935 262.037 113.513 261.828 114.107C260.927 116.63 260.116 119.192 259.269 121.737C257.574 126.791 255.794 131.835 254.383 136.979C254.032 138.258 253.707 139.546 253.419 140.843C253.207 141.801 252.729 143.103 253.559 143.894C254.167 144.473 255.127 144.545 255.92 144.55C257.272 144.55 258.593 144.55 259.927 144.55C265.362 144.55 274.704 144.206 275.375 144.193C275.401 144.19 275.425 144.178 275.441 144.158C275.458 144.138 275.466 144.112 275.463 144.086C275.461 144.061 275.448 144.037 275.429 144.02C275.409 144.004 275.383 143.996 275.357 143.998Z" fill="#263238"/>
<path d="M283.235 163.624C282.708 160.889 282.208 158.141 281.604 155.42C281 152.699 280.342 149.974 279.639 147.284C279.441 146.52 279.233 145.761 279.031 144.997C278.937 144.635 278.838 144.274 278.733 143.912C278.642 143.542 278.531 143.177 278.4 142.818C278.4 142.782 278.332 142.818 278.332 142.841C278.408 143.548 278.532 144.248 278.702 144.938C278.837 145.603 278.963 146.263 279.098 146.923C279.378 148.279 279.665 149.635 279.959 150.991C280.549 153.703 281.225 156.415 281.91 159.086C282.304 160.614 282.699 162.14 283.096 163.665C283.118 163.71 283.253 163.692 283.235 163.624Z" fill="#263238"/>
<path d="M225.897 79.3486L229.588 79.4435C230.672 77.3606 231.086 74.9921 230.773 72.6635C230.71 72.1256 231.967 75.1992 231.463 79.5068C235.361 79.6062 240.661 79.7373 245.294 79.8051C245.384 77.9971 245.55 76.3157 245.55 76.3157C245.697 77.5046 245.947 78.6783 246.299 79.8232L248.151 79.8503C248.125 77.271 248.241 74.6922 248.498 72.1256C248.832 74.8161 249.604 77.4333 250.783 79.8729C253.721 79.8729 255.659 79.8413 255.533 79.7012C251.089 74.58 254.347 71.6375 253.09 67.131C251.576 61.7342 246.938 60.8708 247.078 56.8164C247.186 53.5168 247.601 47.5323 243.446 46.2486C242.323 45.1442 240.9 44.3962 239.356 44.0979C237.811 43.7997 236.213 43.9645 234.761 44.5717C228.191 47.0848 230.782 57.2639 230.331 59.334C229.691 62.2856 228.285 63.3297 227.235 66.6971C226.185 70.0645 227.686 72.3742 227.884 74.6885C228.083 77.0027 225.158 79.3441 225.897 79.3486Z" fill="#263238"/>
<path d="M255.664 78.9508C255.057 78.0591 254.578 77.087 254.239 76.0626C253.906 75.0591 254.05 74.0286 254.239 72.9664C254.475 71.89 254.656 70.8023 254.78 69.7074C254.903 68.5644 254.794 67.4082 254.46 66.3084C254.103 65.2091 253.499 64.207 252.694 63.3794C251.913 62.5936 251.069 61.8739 250.17 61.2279C249.3 60.609 248.515 59.878 247.835 59.0538C247.184 58.1968 246.777 57.178 246.659 56.1068C246.617 57.223 246.913 58.3258 247.506 59.2708C248.133 60.1942 248.892 61.0198 249.76 61.7206C250.589 62.3982 251.373 63.1289 252.108 63.9083C252.803 64.6717 253.326 65.5767 253.64 66.5615C253.928 67.5588 254.032 68.6004 253.946 69.6351C253.883 70.6883 253.685 71.7505 253.545 72.8443C253.466 73.4012 253.43 73.9633 253.437 74.5258C253.459 75.1024 253.584 75.6704 253.807 76.2027C254.256 77.223 254.885 78.1539 255.664 78.9508Z" fill="#263238"/>
<path d="M231.043 48.3324C230.584 49.6028 230.281 50.925 230.142 52.2693C229.975 53.6253 229.872 54.9496 229.782 56.2876L229.637 58.2854C229.598 58.9295 229.497 59.5682 229.335 60.1928C228.944 61.4283 228.333 62.5828 227.533 63.6009C227.136 64.162 226.778 64.7495 226.46 65.3592C226.142 65.9862 225.895 66.6473 225.726 67.3299C225.577 68.0069 225.48 68.6945 225.437 69.3865C225.387 70.0829 225.424 70.7828 225.545 71.4702C225.667 72.1618 225.856 72.8262 226.018 73.45C226.183 74.0834 226.286 74.7313 226.325 75.3846C226.344 76.04 226.208 76.6906 225.926 77.2825C225.645 77.8744 225.227 78.3905 224.707 78.7881C225.301 78.4336 225.798 77.9365 226.152 77.3416C226.507 76.7466 226.709 76.0726 226.74 75.38C226.754 74.6936 226.698 74.0075 226.573 73.3325C226.456 72.659 226.289 72.0126 226.217 71.3708C226.084 70.0836 226.188 68.7829 226.523 67.5333C226.694 66.9176 226.926 66.3208 227.217 65.7524C227.524 65.1762 227.871 64.622 228.254 64.0936C228.628 63.5422 229.015 62.9772 229.349 62.3624C229.689 61.7453 229.951 61.0878 230.129 60.4053C230.285 59.7257 230.374 59.0323 230.394 58.3351C230.431 57.6616 230.444 56.9791 230.458 56.3192C230.485 54.9632 230.498 53.6388 230.561 52.3054C230.587 50.9681 230.748 49.6368 231.043 48.3324Z" fill="#263238"/>
<path d="M243.631 67.8859C243.698 75.3077 242.459 87.5117 239.3 92.7459C236.781 96.9404 225.135 103.594 218.862 105.33C216.649 105.94 215.545 96.7009 216.609 94.4364C217.262 93.0804 230.273 87.7513 231.481 85.9388C233.315 83.1906 235.816 74.1416 238.561 67.461C240.03 63.958 243.59 63.28 243.631 67.8859Z" fill="#F7A9A0"/>
<path d="M220.502 92.3391C220.502 92.3391 217.028 91.9187 215.459 92.0724C213.891 92.2261 208.249 94.9516 208.785 96.2037C209.452 97.8218 213.012 96.8907 214.693 96.2037C214.693 96.2037 216.239 99.9462 218.938 99.8197C221.638 99.6931 220.502 92.3391 220.502 92.3391Z" fill="#F7A9A0"/>
<path d="M220.921 104.557C219.695 105.108 213.864 107.133 212.111 107.332C210.358 107.531 205.288 107.734 204.999 106.428C204.711 105.122 206.193 104.918 206.193 104.918C206.193 104.918 204.035 104.665 203.868 103.3C203.701 101.935 206.013 101.736 206.013 101.736C206.013 101.736 203.818 101.311 203.76 99.9282C203.701 98.5451 206.049 98.7439 206.049 98.7439C206.049 98.7439 204.021 98.4501 204.44 97.293C204.941 95.9054 208.614 96.8681 210.529 96.502C210.98 96.4207 219.222 94.1923 219.222 94.1923L220.921 104.557Z" fill="#F7A9A0"/>
<path d="M225.18 102.839C223.152 103.851 221.041 104.687 218.871 105.339C216.617 106.139 213.355 107.187 212.111 107.327C210.362 107.526 205.288 107.73 204.999 106.423C204.711 105.117 206.194 104.914 206.194 104.914C206.194 104.914 204.035 104.661 203.868 103.296C203.737 102.238 205.103 101.881 205.72 101.772C205.684 101.732 205.698 101.677 205.765 101.668C205.193 101.515 203.805 101.022 203.746 99.9372C203.688 98.8524 205.098 98.7439 205.743 98.7439C205.756 98.7379 205.769 98.7348 205.783 98.7348C205.797 98.7348 205.811 98.7379 205.824 98.7439H205.851H206.027C206.027 98.7439 203.999 98.4501 204.418 97.293C204.805 96.2127 207.122 96.5562 209.028 96.5879C208.92 96.4789 208.835 96.3499 208.776 96.2082C208.258 94.9562 213.886 92.2306 215.45 92.0769C216.98 92.031 218.511 92.1035 220.029 92.2939C220.48 92.0588 220.953 91.8193 221.444 91.5707L225.18 102.839Z" fill="#DBDBDB"/>
<path d="M205.833 98.7258C208.537 99.4264 209.839 99.2637 212.458 98.423C212.507 98.423 212.544 98.4772 212.494 98.4998C210.006 99.5575 208.397 100 205.793 98.8569C205.666 98.7982 205.702 98.6942 205.833 98.7258Z" fill="#263238"/>
<path d="M205.801 101.659C208.672 102.138 210.087 101.976 212.89 101.298C212.931 101.298 212.954 101.352 212.913 101.366C210.209 102.27 208.605 102.667 205.797 101.818C205.671 101.768 205.666 101.637 205.801 101.659Z" fill="#263238"/>
<path d="M206.333 104.864C209.15 105.131 210.709 105.018 213.35 104.005C213.363 104 213.377 104 213.39 104.005C213.402 104.01 213.413 104.02 213.418 104.032C213.423 104.045 213.424 104.059 213.418 104.072C213.413 104.085 213.403 104.095 213.391 104.1C210.8 105.397 208.853 105.551 206.338 104.95C206.167 104.905 206.158 104.864 206.333 104.864Z" fill="#263238"/>
<path d="M209.11 96.5879C210.782 97.623 212.931 96.5879 214.612 96.0364C214.637 96.0279 214.663 96.0254 214.689 96.029C214.715 96.0326 214.74 96.0422 214.761 96.0572C214.783 96.0722 214.801 96.092 214.813 96.1151C214.826 96.1382 214.832 96.1639 214.833 96.1901C215.586 97.7179 217.086 99.6479 218.858 99.9146C218.868 99.9146 218.879 99.9189 218.886 99.9265C218.894 99.9341 218.898 99.9445 218.898 99.9553C218.898 99.9661 218.894 99.9764 218.886 99.984C218.879 99.9917 218.868 99.996 218.858 99.996C216.92 99.9688 215.288 98.188 214.572 96.4658C212.855 97.0489 210.651 98.0026 209.101 96.606C209.11 96.5969 209.11 96.5834 209.11 96.5879Z" fill="#263238"/>
<path d="M233.044 79.3848L243.775 80.8718C243.775 80.8718 244.388 72.6274 244.095 68.2927C243.802 63.958 241.283 61.5127 238.06 67.3164C235.325 72.2296 233.044 79.3848 233.044 79.3848Z" fill="#37474F"/>
<path d="M237.051 86.445L237.402 101.727C237.402 101.727 261.693 97.98 267.638 96.5336C267.638 96.5336 258.034 69.486 250.377 63.5376C246.515 60.568 242.774 61.472 240.769 64.3422C240.26 65.0699 234.586 75.9993 234.46 79.8277C234.315 83.2087 237.051 86.445 237.051 86.445Z" fill="#112C32"/>
<path d="M246.596 62.828C246.596 63.3252 244.942 66.8644 242.756 67.2034C242.044 67.3118 241.283 63.4382 241.283 63.4382L241.161 63.167L239.462 59.3476L243.518 55.3836L244.117 54.8457C244.117 54.8457 244.514 55.9214 244.992 57.2684C245.014 57.3317 245.037 57.3905 245.059 57.4583C245.082 57.5261 245.118 57.6029 245.14 57.6752C245.217 57.8741 245.289 58.082 245.361 58.2854C245.433 58.4888 245.469 58.5928 245.519 58.76C245.568 58.9272 245.627 59.0854 245.681 59.2527C246.067 60.4221 246.373 61.6167 246.596 62.828Z" fill="#F7A9A0"/>
<path d="M245.01 57.2684C244.83 58.4686 244.392 59.6154 243.728 60.6298C243.063 61.6442 242.188 62.5021 241.161 63.1444L239.462 59.325L243.518 55.361L244.117 54.8231C244.117 54.8231 244.532 55.9214 245.01 57.2684Z" fill="#263238"/>
<path d="M232.026 55.596C234.306 62.5658 238.727 61.9828 240.228 61.472C241.58 61.02 246.163 59.316 244.613 52.1427C243.063 44.9695 239.106 43.844 235.942 44.7209C232.779 45.5978 229.741 48.6307 232.026 55.596Z" fill="#F7A9A0"/>
<path d="M232.815 53.5394C232.972 53.4671 233.103 53.3722 233.265 53.2863C233.431 53.2183 233.571 53.0977 233.662 52.9428C233.681 52.8884 233.681 52.8292 233.664 52.7745C233.646 52.7198 233.61 52.6725 233.563 52.6399C233.459 52.5895 233.344 52.5679 233.229 52.5775C233.114 52.587 233.003 52.6273 232.909 52.6942C232.702 52.8018 232.542 52.9819 232.459 53.2004C232.446 53.2491 232.446 53.3004 232.46 53.3489C232.473 53.3974 232.5 53.4413 232.536 53.476C232.573 53.5107 232.618 53.5349 232.667 53.5461C232.716 53.5572 232.767 53.5549 232.815 53.5394Z" fill="#263238"/>
<path d="M237.411 52.0794C237.246 52.1082 237.079 52.1278 236.911 52.1382C236.737 52.1827 236.552 52.1668 236.388 52.093C236.341 52.0605 236.305 52.0132 236.287 51.9584C236.27 51.9037 236.27 51.8445 236.289 51.7902C236.343 51.6885 236.424 51.6034 236.522 51.5438C236.62 51.4841 236.733 51.4521 236.848 51.4512C237.079 51.4096 237.317 51.4564 237.515 51.5822C237.559 51.6131 237.594 51.6564 237.614 51.7068C237.634 51.7571 237.638 51.8123 237.627 51.8653C237.616 51.9184 237.59 51.967 237.551 52.005C237.513 52.0431 237.464 52.069 237.411 52.0794Z" fill="#263238"/>
<path d="M237.051 54.1451C237.051 54.1451 237.096 54.1451 237.1 54.1767C237.231 54.6604 237.461 55.1892 237.939 55.2208V55.248C237.402 55.3338 237.105 54.6242 237.051 54.1451Z" fill="#263238"/>
<path d="M237.335 53.5168C238.087 53.2275 238.61 54.7508 237.916 55.022C237.222 55.2932 236.708 53.7609 237.335 53.5168Z" fill="#263238"/>
<path d="M237.664 53.4942C237.826 53.5349 238.006 53.6434 238.173 53.6027C238.34 53.562 238.448 53.3496 238.52 53.1507C238.52 53.1507 238.52 53.1507 238.552 53.1507C238.623 53.2825 238.642 53.4366 238.604 53.5817C238.566 53.7269 238.475 53.8523 238.349 53.9326C238.078 54.0728 237.786 53.8829 237.61 53.6162C237.578 53.5756 237.596 53.4761 237.664 53.4942Z" fill="#263238"/>
<path d="M234.297 54.9768C234.297 54.9768 234.27 55.0129 234.297 55.031C234.482 55.483 234.608 56.0616 234.239 56.387C234.239 56.387 234.239 56.4186 234.239 56.4096C234.721 56.1384 234.545 55.3881 234.297 54.9768Z" fill="#263238"/>
<path d="M233.707 54.6332C232.927 54.8457 233.405 56.387 234.126 56.1881C234.847 55.9892 234.347 54.457 233.707 54.6332Z" fill="#263238"/>
<path d="M233.418 54.8366C233.319 54.9542 233.247 55.1395 233.103 55.1937C232.959 55.248 232.765 55.1304 232.607 55.0039C232.688 55.3022 232.882 55.5779 233.18 55.5463C233.477 55.5146 233.563 55.2073 233.545 54.8909C233.522 54.8547 233.445 54.7869 233.418 54.8366Z" fill="#263238"/>
<path d="M235.663 56.952C235.728 57.3145 235.81 57.6736 235.911 58.0278C235.911 58.0594 236.005 58.0278 236.118 58.0278C236.423 57.9865 236.711 57.8612 236.95 57.6657C237.189 57.4702 237.369 57.2122 237.47 56.9204C237.47 56.8797 237.429 56.8616 237.407 56.8887C237.079 57.325 236.619 57.6423 236.096 57.7927C236.041 57.7068 235.906 56.5136 235.852 56.5271C235.601 56.636 235.366 56.7789 235.154 56.952C234.82 55.4197 234.739 53.8422 234.392 52.319C234.389 52.3089 234.383 52.3 234.374 52.2938C234.366 52.2875 234.355 52.2841 234.345 52.2841C234.334 52.2841 234.324 52.2875 234.315 52.2938C234.307 52.3 234.301 52.3089 234.297 52.319C234.332 54.0106 234.536 55.6945 234.906 57.3452C234.946 57.5125 235.546 57.0334 235.663 56.952Z" fill="#263238"/>
<path d="M244.05 52.4772C242.387 53.1462 239.678 48.3007 239.354 47.7041C239.539 48.0928 240.516 50.1494 240.395 50.2986C240.218 50.3749 240.028 50.4192 239.836 50.4296C239.726 50.1801 239.597 49.9397 239.448 49.711C239.385 49.598 239.516 49.9776 239.651 50.4568L239.309 50.5065C239.092 49.9665 238.806 49.4574 238.457 48.9923C238.322 48.8205 238.66 49.7245 238.813 50.5833C237.233 50.7913 235.68 51.1748 234.185 51.7269C233.766 51.8941 233.414 52.0523 233.112 52.206C232.972 51.8185 232.813 51.4383 232.634 51.067C232.678 51.4926 232.761 51.9132 232.882 52.3235L232.432 52.5676C232.008 51.7179 231.81 50.1494 231.765 50.4206C231.641 51.2559 231.676 52.107 231.868 52.9292C231.332 53.3089 231.219 53.4942 231.134 53.3496C230.559 51.5613 230.635 49.6263 231.35 47.8894C232.549 45.0418 236.424 42.7411 240.043 44.7254C240.043 44.7254 242.49 45.1277 243.649 46.9854C244.807 48.8431 245.014 52.0885 244.05 52.4772Z" fill="#263238"/>
<path d="M242.328 53.1552C242.328 53.1552 242.779 50.3935 243.946 50.4432C245.113 50.4929 245.492 54.0185 244.595 54.9632C244.489 55.096 244.356 55.2053 244.206 55.2842C244.056 55.3632 243.891 55.4101 243.721 55.422C243.552 55.4338 243.382 55.4105 243.222 55.3533C243.062 55.2961 242.916 55.2064 242.792 55.0898L242.328 53.1552Z" fill="#F7A9A0"/>
<path d="M244.027 51.4647C244.027 51.4647 244.059 51.4647 244.027 51.4918C243.41 52.1744 243.351 53.0874 243.423 53.9643C243.43 53.8654 243.459 53.7693 243.507 53.6826C243.554 53.5958 243.62 53.5206 243.7 53.4621C243.78 53.4036 243.872 53.3632 243.968 53.3438C244.065 53.3244 244.165 53.3263 244.261 53.3496C244.288 53.3496 244.284 53.3948 244.261 53.3993C244.106 53.4217 243.961 53.492 243.847 53.6005C243.734 53.709 243.656 53.8504 243.626 54.005C243.574 54.2638 243.552 54.5276 243.558 54.7914C243.558 54.8773 243.414 54.9044 243.401 54.7914C242.909 53.8196 243.027 52.0749 244.027 51.4647Z" fill="#263238"/>
<path d="M236.366 81.6131H206.833V114.41H236.366V81.6131Z" fill="#B93800"/>
<path opacity="0.1" d="M236.366 81.6131H206.833V114.41H236.366V81.6131Z" fill="black"/>
<path d="M191.587 114.415H206.833V81.6176H191.587V114.415Z" fill="#B93800"/>
<path d="M219.092 88.7005H219.718H220.187L220.457 88.1536L220.831 88.7005L221.341 87.5795L221.823 88.7005H223.206H223.837L224.067 87.9502L224.279 88.7005H224.689V81.6131H219.092V88.7005Z" fill="white"/>
<g opacity="0.1">
<path d="M192.638 112.155C193.764 109.823 194.884 107.483 195.995 105.135L199.303 98.0843L202.566 91.0014C203.65 88.6329 204.723 86.2584 205.784 83.8779C204.654 86.2102 203.535 88.5501 202.426 90.8975L199.118 97.9532L195.851 105.036C194.775 107.401 193.704 109.774 192.638 112.155Z" fill="black"/>
<path d="M192.638 83.8731C193.698 86.2567 194.769 88.6297 195.851 90.9921L199.118 98.084L202.426 105.14C203.535 107.484 204.654 109.824 205.784 112.159C204.72 109.779 203.647 107.404 202.566 105.036L199.303 97.9529L195.995 90.8972C194.887 88.5498 193.767 86.2084 192.638 83.8731Z" fill="black"/>
</g>
<path d="M241.264 88.705H211.737L206.838 81.6131H236.366L241.264 88.705Z" fill="#B93800"/>
<g opacity="0.2">
<path d="M241.264 88.705H211.737L206.838 81.6131H236.366L241.264 88.705Z" fill="black"/>
</g>
<path d="M201.935 88.7095H186.734L191.633 81.6131H206.838L201.935 88.7095Z" fill="#B93800"/>
<path opacity="0.1" d="M201.935 88.7095H186.734L191.633 81.6131H206.838L201.935 88.7095Z" fill="black"/>
<path d="M252.824 68.0576C255.844 74.806 261.063 89.0576 259.35 94.2736C257.097 101.103 246.763 108.191 243.712 110.302C242.36 111.206 235.767 102.717 236.172 101.031C236.578 99.3451 247.403 92.4837 248.07 91.3763C248.737 90.2689 247.507 76.0716 247.029 69.8114C246.407 61.924 250.247 62.3489 252.824 68.0576Z" fill="#F7A9A0"/>
<path d="M233.094 105.578C233.454 104.832 233.067 104.638 231.742 105.28C230.417 105.922 225.757 109.587 224.621 107.843C223.486 106.098 230.147 101.031 232.418 100.132C234.689 99.2321 238.687 98.5722 238.687 98.5722C237.596 99.8197 235.217 103.101 233.094 105.578Z" fill="#F7A9A0"/>
<path d="M246.912 107.644C243.689 111.047 239.881 115.477 234.807 116.932C234.248 117.108 233.646 117.09 233.099 116.883C230.845 117.574 229.827 116.711 229.827 116.711C227.524 116.711 226.618 115.685 226.618 115.685C226.618 115.685 223.95 116.471 223.211 114.935C222.373 113.212 226.28 112.449 228.168 110.708C232.504 106.726 237.556 99.8604 238.691 98.5722L246.912 107.644Z" fill="#F7A9A0"/>
<path d="M235.64 109.737C234.384 110.915 233.048 112.005 231.643 113C230.041 113.996 228.367 114.871 226.636 115.617C226.624 115.621 226.615 115.63 226.61 115.641C226.605 115.652 226.605 115.664 226.609 115.676C226.613 115.687 226.621 115.696 226.632 115.702C226.643 115.707 226.656 115.707 226.667 115.703C230.154 114.594 233.272 112.547 235.681 109.786C235.748 109.732 235.699 109.678 235.64 109.737Z" fill="#263238"/>
<path d="M238.403 112.01C237.078 113.054 234.734 114.88 229.791 116.661C229.791 116.661 229.791 116.697 229.791 116.693C233.053 115.997 236.058 114.406 238.47 112.096C238.547 112.001 238.506 111.942 238.403 112.01Z" fill="#263238"/>
<path d="M239.89 113.262C237.569 114.953 235.888 115.726 233.103 116.878C233.103 116.878 233.103 116.914 233.103 116.905C236.406 115.943 237.497 115.215 239.949 113.344C240.043 113.267 239.98 113.194 239.89 113.262Z" fill="#263238"/>
<path d="M257.665 78.6209L246.939 80.1486C246.939 80.1486 246.294 71.9087 246.574 67.574C246.853 63.2393 249.363 60.794 252.604 66.5706C255.357 71.4793 257.665 78.6209 257.665 78.6209Z" fill="#37474F"/>
<path d="M185.287 150.787H148.076V186.102H185.287V150.787Z" fill="#B93800"/>
<path d="M202.174 150.787H185.287V186.106H202.174V150.787Z" fill="#B93800"/>
<path opacity="0.1" d="M202.174 150.787H185.287V186.106H202.174V150.787Z" fill="black"/>
<path d="M200.997 183.675C199.744 181.162 198.505 178.642 197.279 176.117L193.615 168.519L190.01 160.889C188.808 158.346 187.62 155.785 186.445 153.205C187.698 155.716 188.937 158.235 190.163 160.763L193.827 168.356L197.433 175.986C198.643 178.548 199.832 181.11 200.997 183.675Z" fill="#B93800"/>
<path d="M200.997 153.228C199.823 155.789 198.636 158.351 197.437 160.912L193.832 168.542L190.181 176.117C188.956 178.645 187.716 181.165 186.463 183.675C187.638 181.107 188.826 178.546 190.028 175.991L193.633 168.361L197.297 160.767C198.52 158.245 199.754 155.732 200.997 153.228Z" fill="#B93800"/>
<path d="M169.698 158.421H169.022H168.518L168.229 157.834L167.824 158.421L167.274 157.21L166.756 158.421H165.264H164.588L164.34 157.612L164.11 158.421H163.668V150.787H169.698V158.421Z" fill="white"/>
<path d="M229.074 150.787H197.279V186.102H229.074V150.787Z" fill="#B93800"/>
<path d="M245.492 150.787H229.074V186.102H245.492V150.787Z" fill="#B93800"/>
<path opacity="0.1" d="M245.492 150.787H229.074V186.102H245.492V150.787Z" fill="black"/>
<path d="M215.874 158.421H215.202H214.693L214.404 157.834L214.003 158.421L213.454 157.21L212.931 158.421H211.444H210.763L210.52 157.612L210.29 158.421H209.844V150.787H215.874V158.421Z" fill="white"/>
<path d="M244.361 183.67C243.144 181.16 241.942 178.641 240.755 176.113L237.195 168.519L233.666 160.912C232.503 158.363 231.35 155.801 230.205 153.228C231.422 155.738 232.624 158.257 233.81 160.785L237.371 168.379L240.89 176.009C242.059 178.555 243.216 181.109 244.361 183.67Z" fill="#B93800"/>
<path d="M244.36 153.228C243.216 155.789 242.062 158.351 240.899 160.912L237.379 168.542L233.819 176.135C232.617 178.667 231.416 181.186 230.214 183.693C231.359 181.131 232.512 178.57 233.675 176.009L237.195 168.379L240.755 160.785C241.942 158.251 243.143 155.732 244.36 153.228Z" fill="#B93800"/>
<path d="M209.605 115.472H177.811V150.787H209.605V115.472Z" fill="#B93800"/>
<path d="M226.023 115.472H209.605V150.787H226.023V115.472Z" fill="#B93800"/>
<path opacity="0.1" d="M226.023 115.472H209.605V150.787H226.023V115.472Z" fill="black"/>
<path d="M196.405 123.107H195.733H195.224L194.936 122.519L194.535 123.107L193.985 121.895L193.462 123.107H191.975H191.294L191.051 122.298L190.821 123.107H190.379V115.472H196.405V123.107Z" fill="white"/>
<path d="M224.883 148.355C223.681 145.845 222.479 143.326 221.277 140.798L217.717 133.204L214.197 125.575C213.035 123.025 211.881 120.464 210.736 117.891C211.938 120.401 213.14 122.92 214.342 125.448L217.902 133.042L221.422 140.671C222.59 143.233 223.744 145.794 224.883 148.355Z" fill="#B93800"/>
<path d="M224.883 117.909C223.738 120.47 222.584 123.031 221.422 125.593L217.902 133.222L214.342 140.816C213.14 143.347 211.938 145.866 210.736 148.374C211.881 145.812 213.035 143.251 214.197 140.69L217.717 133.06L221.277 125.466C222.479 122.935 223.681 120.416 224.883 117.909Z" fill="#B93800"/>
<path d="M172.529 123.111H204.323L209.601 115.472H177.811L172.529 123.111Z" fill="#B93800"/>
<path opacity="0.1" d="M172.529 123.111H204.323L209.601 115.472H177.811L172.529 123.111Z" fill="black"/>
<path d="M214.878 123.111H231.251L225.973 115.472H209.601L214.878 123.111Z" fill="#B93800"/>
<path d="M115.285 150.792H83.4907V186.106H115.285V150.792Z" fill="#DBDBDB"/>
<path d="M131.703 150.792H115.285V186.106H131.703V150.792Z" fill="#C7C7C7"/>
<path d="M102.085 158.421H101.413H100.909L100.62 157.834L100.215 158.421L99.6649 157.21L99.1466 158.421H97.6549H96.9789L96.7311 157.612L96.5012 158.421H96.0596V150.792H102.085V158.421Z" fill="white"/>
<path d="M130.572 183.675C129.37 181.162 128.168 178.642 126.966 176.117L123.406 168.519L119.877 160.912C118.712 158.369 117.556 155.807 116.412 153.228C117.628 155.738 118.83 158.257 120.017 160.785L123.582 168.379L127.097 176.009C128.272 178.555 129.43 181.11 130.572 183.675Z" fill="#DBDBDB"/>
<path d="M130.572 153.228C129.43 155.789 128.276 158.351 127.111 160.912L123.595 168.542L120.031 176.14C118.829 178.668 117.627 181.187 116.425 183.697C117.57 181.13 118.725 178.569 119.891 176.013L123.406 168.384L126.966 160.79C128.156 158.259 129.358 155.738 130.572 153.228Z" fill="#DBDBDB"/>
<path d="M109.386 115.468H77.5913V150.783H109.386V115.468Z" fill="#DBDBDB"/>
<path d="M125.804 115.472H109.386V150.787H125.804V115.472Z" fill="#C7C7C7"/>
<path d="M96.1856 123.102H95.5141H95.0093L94.7209 122.515L94.3153 123.102L93.7655 121.895L93.2472 123.102H91.7555H91.0795L90.8317 122.298L90.6018 123.102H90.1602V115.472H96.1856V123.102Z" fill="white"/>
<path d="M124.677 148.355C123.475 145.842 122.273 143.323 121.071 140.798L117.511 133.2L113.996 125.57C112.83 123.027 111.675 120.466 110.53 117.886C111.747 120.399 112.949 122.918 114.136 125.444L117.696 133.042L121.211 140.671C122.38 143.23 123.535 145.791 124.677 148.355Z" fill="#DBDBDB"/>
<path d="M124.677 117.904C123.532 120.466 122.377 123.027 121.211 125.588L117.696 133.218L114.136 140.816C112.934 143.341 111.732 145.86 110.53 148.374C111.675 145.812 112.83 143.251 113.996 140.69L117.511 133.06L121.071 125.462C122.255 122.936 123.457 120.417 124.677 117.904Z" fill="#DBDBDB"/>
<path d="M72.314 123.107H104.104L109.386 115.468H77.5913L72.314 123.107Z" fill="#C7C7C7"/>
<path d="M114.663 123.111H131.031L125.754 115.472H109.386L114.663 123.111Z" fill="#DBDBDB"/>
<path d="M88.6238 195.106C87.5872 195.445 58.1271 195.061 57.0185 194.328C56.5678 194.062 56.3966 189.75 56.311 184.538C56.311 184.484 56.311 184.43 56.311 184.375C56.311 183.3 56.2794 182.192 56.2749 181.071C56.2749 180.918 56.2749 180.764 56.2749 180.619L57.6855 165.283L77.3931 165.482L75.4508 180.664L75.4282 181.266L75.3066 184.43V184.755C75.3066 184.755 86.5146 189.962 87.6548 190.893C88.795 191.824 89.6558 194.776 88.6238 195.106Z" fill="#AD6359"/>
<path d="M88.6238 195.106C87.5872 195.445 58.1271 195.061 57.0185 194.328C56.5678 194.062 56.3966 189.75 56.311 184.538C56.311 184.484 56.311 184.43 56.311 184.375C56.311 183.3 56.2794 182.192 56.2749 181.071C56.2749 180.918 56.2749 180.764 56.2749 180.619L75.4688 180.673L75.4463 181.275L75.3246 184.439V184.764C75.3246 184.764 86.5327 189.971 87.6728 190.902C88.813 191.833 89.6558 194.776 88.6238 195.106Z" fill="#EBEBEB"/>
<path d="M88.6237 195.106C88.0919 195.278 80.0881 195.259 72.2645 195.106C70.6917 195.074 69.1099 195.038 67.6362 194.997C62.0569 194.844 57.4466 194.613 57.0185 194.333C56.5903 194.053 56.4011 189.876 56.3154 184.76C56.3154 184.687 56.3154 184.615 56.3154 184.543C56.3154 184.47 56.3154 184.43 56.3154 184.375L75.302 184.411V184.737C75.302 184.737 86.5146 189.939 87.6503 190.871C88.786 191.802 89.6557 194.776 88.6237 195.106Z" fill="#B93800"/>
<path d="M88.3034 193.958C83.3461 193.772 63.2959 193.506 58.3747 193.682C58.3341 193.682 58.3341 193.709 58.3747 193.714C63.2914 194.007 83.3326 194.125 88.3034 194.039C88.4071 194.039 88.4071 193.962 88.3034 193.958Z" fill="#263238"/>
<path d="M77.4336 184.493C75.4822 184.1 73.0891 184.371 71.5749 185.745C71.5163 185.799 71.5749 185.88 71.6605 185.862C73.5353 185.284 75.466 184.907 77.42 184.737C77.4523 184.739 77.484 184.728 77.5081 184.706C77.5322 184.684 77.5467 184.654 77.5485 184.622C77.5503 184.589 77.5392 184.558 77.5176 184.533C77.4961 184.509 77.4658 184.495 77.4336 184.493Z" fill="#263238"/>
<path d="M78.8306 185.361C76.8838 184.972 74.4862 185.239 72.972 186.617C72.9134 186.671 72.972 186.753 73.0531 186.735C74.9289 186.154 76.8613 185.777 78.8171 185.609C78.8464 185.606 78.8734 185.592 78.8936 185.57C78.9137 185.548 78.9255 185.52 78.9272 185.491C78.9288 185.461 78.92 185.432 78.9024 185.408C78.8847 185.384 78.8593 185.368 78.8306 185.361Z" fill="#263238"/>
<path d="M80.2188 186.224C78.2674 185.831 75.8744 186.102 74.3602 187.481C74.3016 187.535 74.3602 187.616 74.4413 187.598C76.3212 187.017 78.2584 186.643 80.2188 186.482C80.2529 186.482 80.2856 186.468 80.3096 186.444C80.3337 186.42 80.3473 186.387 80.3473 186.353C80.3473 186.319 80.3337 186.286 80.3096 186.262C80.2856 186.238 80.2529 186.224 80.2188 186.224Z" fill="#263238"/>
<path d="M72.2645 195.101C70.6917 195.07 69.1099 195.033 67.6362 194.993C62.0569 194.839 57.4466 194.609 57.0185 194.328C56.5903 194.048 56.4011 189.872 56.3154 184.755C56.3154 184.683 56.3154 184.61 56.3154 184.538C56.3154 184.466 56.3154 184.425 56.3154 184.371C58.9293 186.224 68.0959 192.321 72.2645 195.101Z" fill="#263238"/>
<path d="M76.6131 184.475H55.3912C55.3912 184.475 59.6635 134.755 59.4968 133.905C59.285 132.793 58.0321 127.762 56.3421 121.19C55.8193 119.134 55.256 116.928 54.6701 114.641C53.1108 108.48 51.3758 101.7 49.848 95.824C47.5676 87.0145 45.792 80.1712 45.792 80.1712H63.7736C63.7736 80.1712 65.8692 86.8337 68.5101 95.5031C72.814 109.592 78.5645 128.983 79.1323 133.697C80.0472 141.304 76.6131 184.475 76.6131 184.475Z" fill="#37474F"/>
<path d="M75.6713 180.845C72.431 180.777 73.3593 180.75 70.119 180.719C68.5327 180.719 58.1133 180.61 56.6306 180.859C56.599 180.859 56.599 180.918 56.6306 180.927C58.1133 181.171 68.5327 181.08 70.119 181.062C73.3593 181.035 72.431 181.008 75.6713 180.94C75.7118 180.936 75.7118 180.845 75.6713 180.845Z" fill="#263238"/>
<path d="M63.4898 130.868C62.7957 127.789 61.7547 124.775 60.8489 121.755C59.0101 115.617 57.1609 109.486 55.3011 103.363C54.3728 100.299 53.4399 97.2342 52.5025 94.1697C52.0248 92.6238 51.5516 91.078 51.0694 89.5367C50.5872 87.9953 50.0599 86.5263 49.6363 85.0167C49.4605 84.3974 49.3659 84.7364 49.5867 85.5274C50.0374 87.1139 50.488 88.6914 50.9387 90.2825C51.84 93.4194 52.7594 96.5532 53.6968 99.6841C55.5355 105.922 57.3907 112.152 59.2625 118.374L62.0747 127.74C62.5477 129.222 62.93 130.731 63.2194 132.26C63.4692 133.862 63.5328 135.488 63.4086 137.105C63.2013 140.364 62.8273 143.614 62.5298 146.864C62.2324 150.114 61.9259 153.373 61.6285 156.627C61.0276 163.106 60.4342 169.584 59.8484 176.063C59.7763 176.881 59.7042 177.704 59.6411 178.526C59.6185 178.802 60.0331 178.78 60.0647 178.526C60.7632 172.122 61.2995 165.694 61.8989 159.276C62.4983 152.857 63.0932 146.511 63.7016 140.129C63.8503 138.524 64.017 136.92 64.0215 135.306C64.0105 133.811 63.8322 132.322 63.4898 130.868Z" fill="#263238"/>
<path d="M61.7413 80.1667C60.493 89.8531 58.1135 108.014 56.3784 121.19C52.3224 105.226 45.8013 80.1667 45.8013 80.1667H61.7413Z" fill="#263238"/>
<path d="M66.1441 195.391C65.1121 195.73 35.652 195.454 34.5389 194.731C34.0882 194.459 33.8989 190.152 33.7953 184.94C33.7953 184.886 33.7953 184.832 33.7953 184.778C33.7953 183.702 33.7547 182.599 33.7502 181.478C33.7502 181.324 33.7502 181.166 33.7502 181.026C33.6826 173.505 34.2009 165.699 34.2009 165.699L53.4579 165.825L52.9216 181.012V181.614L52.8134 184.778V185.103C52.8134 185.103 64.044 190.265 65.1842 191.196C66.3244 192.127 67.1762 195.061 66.1441 195.391Z" fill="#AD6359"/>
<path d="M66.1444 195.391C65.1124 195.73 35.6523 195.454 34.5392 194.731C34.0885 194.459 33.8992 190.152 33.7956 184.94C33.7956 184.886 33.7956 184.832 33.7956 184.778C33.7956 183.702 33.755 182.599 33.7505 181.478C33.7505 181.324 33.7505 181.166 33.7505 181.026H52.9444V181.627L52.8362 184.791V185.117C52.8362 185.117 64.0668 190.278 65.207 191.21C66.3472 192.141 67.1764 195.061 66.1444 195.391Z" fill="#EBEBEB"/>
<path d="M66.1443 195.391C65.1122 195.73 35.6522 195.454 34.539 194.731C34.0883 194.459 33.8991 190.152 33.7954 184.94C33.7954 184.886 33.7954 184.832 33.7954 184.778L52.8045 184.741V185.067C52.8045 185.067 64.0351 190.229 65.1753 191.16C66.3155 192.091 67.1763 195.061 66.1443 195.391Z" fill="#B93800"/>
<path d="M65.8244 194.242C60.8671 194.075 40.8169 193.863 35.8957 194.075C35.8551 194.075 35.8551 194.107 35.8957 194.107C40.8124 194.383 60.8536 194.432 65.8199 194.324C65.9281 194.324 65.9281 194.247 65.8244 194.242Z" fill="#263238"/>
<path d="M54.918 184.818C52.9667 184.434 50.5736 184.71 49.0594 186.093C49.0008 186.147 49.0594 186.228 49.1405 186.21C51.0125 185.623 52.9418 185.238 54.8955 185.062C54.9115 185.064 54.9276 185.062 54.9429 185.057C54.9583 185.053 54.9725 185.045 54.9848 185.035C54.9972 185.024 55.0074 185.012 55.0149 184.997C55.0224 184.983 55.027 184.968 55.0285 184.952C55.0299 184.936 55.0283 184.919 55.0235 184.904C55.0188 184.889 55.011 184.874 55.0008 184.862C54.9905 184.85 54.9779 184.839 54.9637 184.832C54.9496 184.824 54.934 184.82 54.918 184.818Z" fill="#263238"/>
<path d="M56.3331 185.682C54.3817 185.297 51.9887 185.578 50.4744 186.961C50.4158 187.015 50.4744 187.096 50.5555 187.078C52.4348 186.489 54.3718 186.104 56.3331 185.93C56.3619 185.925 56.3879 185.909 56.4066 185.887C56.4253 185.864 56.4355 185.835 56.4355 185.806C56.4355 185.776 56.4253 185.748 56.4066 185.725C56.3879 185.703 56.3619 185.687 56.3331 185.682Z" fill="#263238"/>
<path d="M57.7213 186.549C55.7699 186.165 53.3768 186.441 51.8626 187.824C51.804 187.878 51.8626 187.96 51.9437 187.942C53.8168 187.353 55.7479 186.97 57.7032 186.798C57.7327 186.795 57.7602 186.782 57.7809 186.76C57.8016 186.739 57.814 186.711 57.8162 186.681C57.8183 186.652 57.81 186.622 57.7927 186.598C57.7753 186.574 57.75 186.557 57.7213 186.549Z" fill="#263238"/>
<path d="M63.188 80.1667C63.188 80.1667 62.7733 88.7954 60.8039 95.6296C60.6462 96.1946 60.4749 96.7506 60.2902 97.284C58.4852 98.0144 56.7504 98.9086 55.1075 99.9553C55.1075 99.9553 54.9002 106.898 54.6929 114.641C54.463 123.297 54.2422 132.951 54.2738 134.981C54.454 142.642 53.3183 184.769 53.3183 184.769L32.1055 184.868C32.1055 184.868 35.9406 137.824 35.9136 135.017C35.873 130.497 36.9411 110.568 37.7658 96.0274C38.2706 87.0688 38.6672 80.1622 38.6672 80.1622L63.188 80.1667Z" fill="#37474F"/>
<path d="M52.5926 181.003C49.3524 180.949 50.2807 180.917 47.0404 180.899C45.4541 180.899 35.0347 180.845 33.552 181.098C33.5204 181.098 33.5204 181.157 33.552 181.166C35.0347 181.406 45.4586 181.27 47.0449 181.247C50.2852 181.202 49.3524 181.18 52.5926 181.098C52.6512 181.094 52.6512 181.003 52.5926 181.003Z" fill="#263238"/>
<path d="M40.47 83.2494C40.0779 95.1189 39.6633 106.993 39.118 118.858C38.5727 130.723 37.8697 142.66 36.8647 154.539C36.3104 161.174 35.7876 170.508 35.062 177.139C35.062 177.184 35.1251 177.202 35.1296 177.139C36.6754 165.364 37.5362 150.805 38.2843 138.954C39.0324 127.102 39.6137 115.26 40.0148 103.381C40.2402 96.6692 40.4159 89.9525 40.6142 83.2403C40.6187 83.168 40.47 83.168 40.47 83.2494Z" fill="#263238"/>
<path d="M61.1733 96.7687C59.0637 97.6452 57.0341 98.7038 55.1073 99.9327C55.0307 99.9779 55.1073 100.1 55.1704 100.059C57.2164 99.0603 59.3075 98.1021 61.2949 96.9902C61.3124 96.9692 61.3232 96.9434 61.3259 96.9162C61.3285 96.889 61.3229 96.8616 61.3097 96.8376C61.2966 96.8137 61.2765 96.7943 61.2521 96.782C61.2278 96.7696 61.2003 96.765 61.1733 96.7687Z" fill="#263238"/>
<path d="M54.5801 52.988C55.2877 63.6461 59.1634 74.91 60.7768 76.6863C63.2735 79.439 75.4505 82.9013 80.2321 83.4663C81.7959 83.6516 83.7563 72.9257 82.571 71.7143C81.3858 70.503 68.1858 68.2023 67.343 67.6056C66.8923 67.2892 62.575 58.9272 59.5059 53.5168C56.6442 48.4906 54.3638 49.7562 54.5801 52.988Z" fill="#DD6A57"/>
<path d="M78.2944 70.4668C78.2944 70.4668 81.7916 68.1435 83.5537 67.461C85.3158 66.7785 92.8104 66.661 92.9276 68.2836C93.0763 70.3764 88.7634 71.303 86.5912 71.4748C86.5912 71.4748 86.9472 76.3202 83.9954 77.6581C81.0435 78.996 78.2944 70.4668 78.2944 70.4668Z" fill="#DD6A57"/>
<path d="M80.1421 83.4573C81.6924 83.9093 88.9707 85.2653 91.0798 85.1975C93.1889 85.1297 99.2504 84.4788 99.3585 82.8516C99.4667 81.2244 97.6775 81.2741 97.6775 81.2741C97.6775 81.2741 100.192 80.5916 100.156 78.9463C100.12 77.301 97.335 77.4638 97.335 77.4638C97.335 77.4638 99.8678 76.5598 99.7145 74.9371C99.5613 73.3144 96.7897 73.9336 96.7897 73.9336C96.7897 73.9336 99.1422 73.2285 98.4482 71.9313C97.6099 70.3719 93.4187 72.1573 91.0843 72.0624C90.5525 72.0398 80.3629 70.851 80.3629 70.851L80.1421 83.4573Z" fill="#DD6A57"/>
<path d="M97.6777 81.2741C97.6777 81.2741 99.4804 81.2244 99.3587 82.8516C99.237 84.4788 93.1891 85.1116 91.08 85.1975C88.9708 85.2833 81.7557 83.9047 80.1648 83.4618C78.4694 83.224 76.7888 82.8905 75.1309 82.4629L76.6406 69.8701C77.285 70.0238 77.916 70.173 78.5109 70.3221C79.2995 69.8069 82.0531 68.035 83.5538 67.4565C85.3114 66.7739 92.8105 66.6564 92.9277 68.2791C92.9508 68.6667 92.825 69.0484 92.5762 69.3458C91.5486 71.1267 89.1736 71.3798 87.2313 71.6375C89.2007 71.8635 90.8771 72.0488 91.0845 72.0578C93.4189 72.1527 97.6101 70.3673 98.4483 71.9267C99.1018 73.1471 97.0558 73.8432 96.8124 73.9246L97.0152 73.8839C97.0327 73.8752 97.052 73.8706 97.0716 73.8706C97.0911 73.8706 97.1104 73.8752 97.1279 73.8839C97.8805 73.7709 99.5795 73.6715 99.7012 74.9461C99.8229 76.2207 98.2816 77.0569 97.6191 77.3553C97.6912 77.3553 97.7093 77.414 97.6732 77.4728C98.4213 77.4728 100.111 77.6717 100.143 78.9553C100.192 80.5916 97.6777 81.2741 97.6777 81.2741Z" fill="#DBDBDB"/>
<path d="M97.0285 73.8839C93.9414 75.1902 92.3686 75.2399 89.1148 74.6885C89.0517 74.6885 89.0201 74.7698 89.0832 74.7834C92.2379 75.6015 94.2073 75.8456 97.0961 74.0286C97.2403 73.9382 97.1727 73.8206 97.0285 73.8839Z" fill="#263238"/>
<path d="M97.5785 77.3553C94.2571 78.431 92.5491 78.4853 89.1015 78.1734C89.0519 78.1734 89.0384 78.2502 89.1015 78.2593C92.4589 78.8514 94.4419 79.0458 97.6191 77.5316C97.7498 77.4638 97.7317 77.292 97.5785 77.3553Z" fill="#263238"/>
<path d="M97.5017 81.2515C94.2118 82.0606 92.3415 82.2007 89.0336 81.4685C89.0195 81.4676 89.0055 81.4716 88.9939 81.4797C88.9823 81.4877 88.9737 81.4995 88.9696 81.513C88.9654 81.5266 88.9659 81.5411 88.971 81.5544C88.9761 81.5676 88.9854 81.5787 88.9976 81.586C92.301 82.6663 94.6354 82.49 97.5152 81.3555C97.7135 81.2741 97.709 81.2018 97.5017 81.2515Z" fill="#263238"/>
<path d="M92.7786 68.8712C91.5437 70.8826 88.6775 70.9278 86.5819 71.2578C86.5506 71.2607 86.5206 71.2713 86.4944 71.2887C86.4683 71.3062 86.4469 71.3298 86.4321 71.3576C86.4174 71.3854 86.4097 71.4165 86.4099 71.448C86.4101 71.4795 86.4181 71.5104 86.4332 71.538C86.4332 73.5766 85.8698 76.4603 84.1168 77.7033C84.1063 77.7103 84.0989 77.7211 84.096 77.7334C84.0932 77.7457 84.0951 77.7586 84.1014 77.7696C84.1077 77.7805 84.1179 77.7886 84.13 77.7923C84.1421 77.7959 84.155 77.7948 84.1663 77.7892C86.2304 76.7134 87.0236 73.9246 86.8703 71.6917C89.0245 71.3889 91.8953 71.2171 92.8056 68.8848L92.7786 68.8712Z" fill="#263238"/>
<path d="M55.4321 67.6282L65.473 63.5602C65.473 63.5602 61.9082 56.1067 59.5016 52.4953C57.0951 48.8838 53.7016 48.0295 53.7827 54.6603C53.8458 60.2832 55.4321 67.6282 55.4321 67.6282Z" fill="#37474F"/>
<path d="M36.9546 88.7457C36.9546 88.7457 67.5774 88.5965 67.5774 88.601C67.5774 89.2022 60.9346 54.249 57.7348 50.0861C57.0498 49.1821 52.3719 48.0566 50.2583 50.0319C41.0106 58.6741 36.9546 89.1344 36.9546 88.7457Z" fill="#18424B"/>
<path d="M56.5631 53.2185C55.103 53.571 52.0565 51.8625 51.0064 49.7742C50.9388 49.6296 51.2002 48.1606 51.4571 46.3526C51.5923 45.2588 51.723 44.0338 51.759 42.9084C51.759 42.6778 58.7399 44.861 58.7399 44.861C58.2912 46.2532 58.0142 47.6953 57.9151 49.155C57.9124 49.3063 57.9229 49.4576 57.9467 49.607C57.9494 49.6325 57.9494 49.6583 57.9467 49.6838C58.0503 50.5788 58.136 52.8388 56.5631 53.2185Z" fill="#DD6A57"/>
<path d="M57.9331 49.6206C57.9331 49.6206 57.9331 49.6703 57.9331 49.6974C57.6931 49.7159 57.452 49.7159 57.212 49.6974C53.0749 49.4669 52.1555 44.2327 51.9888 42.9174C53.2326 43.1389 58.7172 44.8565 58.7172 44.8565C58.2688 46.2503 57.9918 47.6938 57.8925 49.155C57.8916 49.3111 57.9051 49.467 57.9331 49.6206Z" fill="#263238"/>
<path d="M50.7315 34.1079C49.9654 36.612 51.2678 43.844 53.0435 45.4576C55.6123 47.799 59.8035 48.0295 61.8089 44.9333C63.7333 41.9275 61.863 32.5304 59.8846 31.066C56.9688 28.9009 51.8627 30.4151 50.7315 34.1079Z" fill="#DD6A57"/>
<path d="M57.7531 38.4516C57.7531 38.4516 57.7216 38.4787 57.7261 38.5013C57.8252 38.985 57.8613 39.5545 57.4512 39.7941C57.4512 39.7941 57.4512 39.8257 57.4512 39.8212C57.983 39.6539 57.9289 38.8946 57.7531 38.4516Z" fill="#263238"/>
<path d="M57.2345 38.0177C56.4459 38.0946 56.6577 39.6811 57.3923 39.6088C58.1269 39.5364 57.897 37.968 57.2345 38.0177Z" fill="#263238"/>
<path d="M60.5967 38.1443C60.5967 38.1443 60.6373 38.1443 60.6418 38.1804C60.6914 38.6731 60.8311 39.2291 61.2998 39.333V39.3602C60.7454 39.3556 60.5652 38.6189 60.5967 38.1443Z" fill="#263238"/>
<path d="M60.9664 37.5702C61.7415 37.403 62.0209 38.9805 61.2999 39.1341C60.5788 39.2878 60.3129 37.7103 60.9664 37.5702Z" fill="#263238"/>
<path d="M56.509 37.3759C56.7086 37.2883 56.9027 37.1886 57.0903 37.0776C57.3157 36.96 57.5049 36.8922 57.6266 36.6617C57.655 36.592 57.6598 36.5149 57.6403 36.4423C57.6207 36.3696 57.5779 36.3053 57.5185 36.2594C57.3872 36.1887 57.2395 36.1543 57.0905 36.1599C56.9416 36.1655 56.7969 36.2107 56.6712 36.2911C56.3922 36.4134 56.1687 36.6359 56.0448 36.9148C56.0196 36.9797 56.0139 37.0506 56.0283 37.1187C56.0427 37.1868 56.0767 37.2492 56.126 37.2981C56.1753 37.3471 56.2379 37.3806 56.3059 37.3944C56.3739 37.4082 56.4445 37.4018 56.509 37.3759Z" fill="#263238"/>
<path d="M61.4664 36.6888C61.2563 36.6757 61.0471 36.6501 60.84 36.612C60.6073 36.6169 60.3795 36.5455 60.191 36.4086C60.1407 36.3536 60.1099 36.2834 60.1033 36.2091C60.0968 36.1347 60.115 36.0602 60.155 35.9973C60.2524 35.8844 60.3781 35.7997 60.5192 35.752C60.6603 35.7043 60.8115 35.6953 60.9572 35.7261C61.262 35.7435 61.5496 35.874 61.7638 36.0922C61.8126 36.1455 61.844 36.2124 61.854 36.284C61.864 36.3556 61.8521 36.4285 61.8198 36.4932C61.7876 36.5578 61.7366 36.6112 61.6734 36.6461C61.6103 36.681 61.5381 36.6959 61.4664 36.6888Z" fill="#263238"/>
<path d="M58.2351 41.5252C58.3858 41.7021 58.5713 41.8459 58.7798 41.9478C58.9884 42.0497 59.2156 42.1074 59.4474 42.1174C59.6503 42.1285 59.8537 42.1103 60.0513 42.0631C60.0894 42.0567 60.1271 42.0477 60.164 42.036L60.2676 42.0044C60.2937 41.9955 60.3162 41.9784 60.3317 41.9555C60.3471 41.9327 60.3547 41.9054 60.3533 41.8778C60.3558 41.8613 60.3558 41.8446 60.3533 41.8281V41.7829C60.3127 41.4077 60.2 40.8382 60.2 40.8382C60.3442 40.8879 61.1014 41.1094 61.0518 40.9105C60.7767 39.2125 60.3313 37.5467 59.7223 35.9385C59.7163 35.93 59.7078 35.9235 59.698 35.9201C59.6881 35.9167 59.6775 35.9165 59.6675 35.9195C59.6575 35.9225 59.6487 35.9285 59.6424 35.9368C59.6361 35.9451 59.6325 35.9552 59.6322 35.9656C59.8801 37.5341 60.3983 39.0483 60.6687 40.6212C60.4029 40.5386 60.1267 40.4945 59.8485 40.4902C59.7989 40.4902 60.0919 41.5885 60.0964 41.7603C59.7911 41.8343 59.474 41.8456 59.1642 41.7936C58.8544 41.7415 58.5583 41.6272 58.2937 41.4574C58.2351 41.4529 58.1991 41.4891 58.2351 41.5252Z" fill="#263238"/>
<path d="M59.8034 41.9004C59.6323 42.1976 59.3889 42.4464 59.0958 42.6236C58.9326 42.7146 58.7452 42.7525 58.5596 42.7321C58.154 42.6824 58.1089 42.3253 58.1089 42.0089C58.1258 41.8391 58.1636 41.6721 58.2216 41.5117C58.6931 41.8093 59.2481 41.9457 59.8034 41.9004Z" fill="#263238"/>
<path d="M59.0958 42.6236C58.9326 42.7146 58.7452 42.7525 58.5596 42.7321C58.154 42.6824 58.1089 42.3253 58.1089 42.0089C58.3193 41.9781 58.5337 42.023 58.7143 42.1355C58.8949 42.248 59.03 42.4208 59.0958 42.6236Z" fill="#FF99BA"/>
<path d="M61.2548 33.326C60.9033 32.7429 60.5067 32.1553 60.1191 32.083C59.7315 32.0106 59.6053 32.9553 58.7671 33.1271C57.6314 33.3621 56.9329 32.3768 55.3105 32.4807C52.9851 32.6344 52.2279 34.7 52.6065 37.9906C52.949 40.9241 51.2184 41.4394 51.2184 41.4394C51.2184 41.4394 49.2851 35.1114 50.8128 32.7384C52.3406 30.3654 56.3831 28.8466 59.4521 30.51C60.5788 31.1202 61.2548 33.326 61.2548 33.326Z" fill="#263238"/>
<path d="M52.543 40.0879C52.543 40.0879 50.8711 37.7782 49.839 38.3838C48.807 38.9895 50.0824 42.3524 51.3308 42.7908C51.4871 42.8589 51.6556 42.8944 51.826 42.8953C51.9965 42.8963 52.1653 42.8626 52.3224 42.7962C52.4795 42.7299 52.6216 42.6324 52.7401 42.5095C52.8585 42.3866 52.9509 42.2409 53.0117 42.0812L52.543 40.0879Z" fill="#DD6A57"/>
<path d="M50.2178 39.324V39.3556C51.1191 39.6946 51.5698 40.4947 51.9078 41.3309C51.8555 41.244 51.7849 41.1696 51.7011 41.1127C51.6173 41.0559 51.5222 41.018 51.4223 41.0017C51.3224 40.9853 51.2202 40.991 51.1228 41.0181C51.0253 41.0453 50.9348 41.0934 50.8577 41.1591C50.8577 41.1591 50.8577 41.2088 50.8848 41.2043C51.0372 41.153 51.2018 41.1502 51.3559 41.1963C51.51 41.2424 51.6461 41.3352 51.7455 41.462C51.9082 41.6744 52.0487 41.9031 52.1647 42.1445C52.2097 42.2258 52.3494 42.1806 52.3179 42.0902V42.0676C52.2999 40.9693 51.412 39.4279 50.2178 39.324Z" fill="#263238"/>
<path d="M98.4254 54.9722H66.6309V90.287H98.4254V54.9722Z" fill="#B93800"/>
<path d="M114.848 54.9722H98.4302V90.287H114.848V54.9722Z" fill="#B93800"/>
<path opacity="0.1" d="M114.848 54.9722H98.4302V90.287H114.848V54.9722Z" fill="black"/>
<path d="M85.2301 62.602H84.5541H84.0494L83.7609 62.0144L83.3553 62.602L82.81 61.3951L82.2873 62.602H80.8001H80.1196L79.8762 61.7974L79.6418 62.602H79.2002V54.9722H85.2301V62.602Z" fill="white"/>
<path d="M113.716 87.8552C112.5 85.3421 111.298 82.823 110.111 80.2978L106.546 72.6997L103.022 65.088C101.853 62.5387 100.7 59.9774 99.561 57.404C100.778 59.9171 101.98 62.4363 103.166 64.9614L106.727 72.5596L110.242 80.1893C111.414 82.7356 112.572 85.2909 113.716 87.8552Z" fill="#B93800"/>
<path d="M113.717 57.404C112.572 59.9653 111.417 62.5267 110.251 65.088L106.736 72.7132L103.176 80.3113C101.974 82.8395 100.772 85.3587 99.5703 87.8688C100.709 85.3044 101.863 82.7431 103.031 80.1848L106.547 72.555L110.111 64.9569C111.295 62.4317 112.497 59.9141 113.717 57.404Z" fill="#B93800"/>
<path d="M47.8246 57.1554C47.5767 64.5456 48.122 79.7192 51.6732 83.8822C56.3331 89.3468 68.5732 91.991 72.1966 92.7866C73.7739 93.1301 76.7033 82.7476 75.6758 81.3419C74.6482 79.9362 62.0566 77.6943 61.0201 76.9213C59.9835 76.1484 55.7698 62.5387 53.85 56.5814C51.4254 49.0284 48.0409 50.8997 47.8246 57.1554Z" fill="#DD6A57"/>
<path d="M80.2187 84.4019C79.6058 83.8505 79.8897 83.5251 81.3499 83.62C82.81 83.7149 88.5155 85.3331 88.9076 83.29C89.2996 81.247 81.2462 79.0819 78.7811 79.109C76.3159 79.1361 72.3906 80.0447 72.3906 80.0447C73.8823 80.7814 77.3254 82.9194 80.2187 84.4019Z" fill="#DD6A57"/>
<path d="M68.2129 91.5616C72.4807 93.4872 77.6769 96.1449 82.9227 95.5663C83.507 95.5168 84.0578 95.2717 84.4865 94.8703C86.8435 94.6533 87.4473 93.4736 87.4473 93.4736C89.579 92.5967 90.0342 91.304 90.0342 91.304C90.0342 91.304 92.7968 91.0192 92.9049 89.3152C93.0266 87.4032 89.1238 88.1807 86.7128 87.2857C81.2011 85.2427 73.9273 80.795 72.3951 80.0537L68.2129 91.5616Z" fill="#DD6A57"/>
<path d="M79.4344 89.2203C81.0414 89.8372 82.6887 90.3431 84.3646 90.7345C86.2241 91.0467 88.1039 91.222 89.989 91.2588C90.0009 91.2588 90.0124 91.2636 90.0208 91.272C90.0293 91.2805 90.034 91.292 90.034 91.304C90.034 91.316 90.0293 91.3275 90.0208 91.336C90.0124 91.3444 90.0009 91.3492 89.989 91.3492C86.3405 91.6492 82.68 90.9378 79.4073 89.2926C79.3172 89.2564 79.3532 89.1932 79.4344 89.2203Z" fill="#263238"/>
<path d="M77.7222 92.3798C79.3446 92.8318 82.1973 93.6454 87.4475 93.4148C87.4475 93.4148 87.4701 93.4465 87.4475 93.4465C84.1682 94.0323 80.791 93.6895 77.6951 92.4566C77.6005 92.4204 77.614 92.3481 77.7222 92.3798Z" fill="#263238"/>
<path d="M76.8343 94.0974C79.6194 94.7799 81.4626 94.8567 84.4731 94.8612V94.8929C81.0525 95.25 79.7681 94.9923 76.8118 94.1878C76.6946 94.1606 76.7216 94.0702 76.8343 94.0974Z" fill="#263238"/>
<path d="M47.3201 68.7763L57.8251 66.1185C57.8251 66.1185 55.3104 58.2492 53.4176 54.3665C51.5248 50.4839 48.28 49.1459 47.4598 55.7225C46.7522 61.2867 47.3201 68.7763 47.3201 68.7763Z" fill="#37474F"/>
</g>
<defs>
<clipPath id="clip0_103_4649">
<rect width="338" height="226" fill="white"/>
</clipPath>
</defs>
</svg>
