<svg width="54" height="37" viewBox="0 0 54 37" fill="none" xmlns="http://www.w3.org/2000/svg">
<path d="M24.2781 2.12354C24.2978 2.10383 24.3175 2.08632 24.3349 2.0688C24.4005 1.99436 24.4639 1.91992 24.5317 1.84329C23.561 1.28718 21.0184 0.496809 19.5515 0.218754C17.3106 -0.203801 14.9976 0.0151394 12.7195 0.623794C11.6286 0.914985 10.5879 1.30032 9.61505 1.77323C8.99416 2.07537 8.3995 2.41254 7.83108 2.78255C6.37724 3.73275 5.08299 4.88 3.98769 6.18708C2.89239 7.49415 1.99603 8.95449 1.32267 10.5265C1.08218 11.0892 0.872307 11.6693 0.693036 12.2605C0.376032 13.3114 0.161781 14.3995 0.0480971 15.5139L0 16.0022L3.01919 16.2715C5.51805 16.4948 7.87699 15.0892 8.88266 12.7859C9.16906 12.1269 9.49043 11.527 9.83586 11.122C11.0886 9.63977 12.7129 8.62607 14.6587 8.105C15.9245 7.76783 17.186 7.6912 18.4146 7.88387C19.0486 7.98239 19.8422 7.99771 20.7277 8.25388C20.8894 7.65617 21.0884 7.0716 21.3311 6.50454C22.0438 4.84059 23.032 3.36712 24.2759 2.12135L24.2781 2.12354Z" fill="#B93800"/>
<path d="M52.9244 8.41155C52.2117 6.7476 51.2213 5.27194 49.9795 4.02836C48.7355 2.78259 47.262 1.7886 45.6027 1.07923C43.939 0.363293 42.1309 0.00204086 40.2289 0.00204086C38.3269 0.00204086 36.5233 0.365482 34.8573 1.07923C33.222 1.77984 31.7704 2.75412 30.5374 3.97362C30.5177 3.99333 30.498 4.01084 30.4805 4.02836C29.2365 5.27413 28.2462 6.7476 27.5357 8.41155C27.293 8.97861 27.094 9.56318 26.9323 10.1609C26.6196 11.3213 26.4578 12.5364 26.4578 13.7909V19.1506C26.4578 20.4642 26.213 21.7056 25.7255 22.8485C25.2401 23.9892 24.558 25.0051 23.7032 25.8611C22.8462 26.7194 21.8296 27.4112 20.6884 27.917C19.5515 28.4183 18.3119 28.6745 17.0024 28.6745C14.9211 28.6745 13.0628 28.0702 11.4734 26.8814C10.9662 26.5026 10.4153 25.8589 9.90588 25.1583C8.5373 23.282 6.1084 22.5179 3.91998 23.2908L0.655937 24.4446C0.655937 24.4446 2.22347 28.1293 3.27504 29.5284C4.32881 30.9274 5.58152 32.1535 6.99382 33.1694C8.4105 34.1896 9.99333 34.9888 11.6964 35.5514C13.3995 36.1141 15.2031 36.4009 17.0549 36.4009C19.4138 36.4009 21.67 35.9477 23.7557 35.0566C25.8435 34.1677 27.6909 32.9241 29.2497 31.3631C30.8106 29.7999 32.0524 27.9476 32.9378 25.8611C33.8276 23.7724 34.2802 21.5151 34.2802 19.1506C34.2802 18.7083 34.2583 18.2704 34.2277 17.8348V13.7931C34.2277 12.9765 34.3851 12.1883 34.6934 11.4548C35.0038 10.717 35.4345 10.0711 35.9723 9.53253C36.5101 8.99393 37.1551 8.56481 37.8918 8.25172C39.3588 7.63212 41.0947 7.63212 42.566 8.25172C42.566 8.25172 42.5682 8.25172 42.5726 8.25391C43.3071 8.56481 43.9499 8.99612 44.4855 9.53253C45.0233 10.0711 45.4518 10.717 45.7645 11.4548C46.0727 12.1883 46.2301 12.9743 46.2301 13.7931V31.8689C46.2301 34.0167 47.9704 35.7594 50.1151 35.7594C52.2598 35.7594 54 34.0167 54 31.8689V13.7887C54 11.8883 53.6371 10.0777 52.9244 8.40936V8.41155Z" fill="#18424B"/>
</svg>
