<svg width="149" height="101" viewBox="0 0 149 101" fill="none" xmlns="http://www.w3.org/2000/svg">
<path d="M66.7545 5.83932C66.8086 5.78514 66.8628 5.73698 66.9108 5.68882C67.0912 5.48414 67.2655 5.27947 67.4519 5.06877C64.7829 3.5397 57.7918 1.3665 53.7583 0.60197C47.5968 -0.559879 41.2369 0.0421153 34.9732 1.71566C31.9737 2.51631 29.1123 3.57582 26.4373 4.87613C24.7301 5.70688 23.0951 6.63395 21.5322 7.65132C17.5347 10.264 13.9761 13.4184 10.9645 17.0123C7.95284 20.6062 5.48824 24.6215 3.63679 28.9439C2.97555 30.491 2.39847 32.0863 1.90556 33.7117C1.03393 36.6012 0.44483 39.5931 0.132247 42.6573L0 43.9997L8.30149 44.7402C15.1723 45.3542 21.6584 41.4894 24.4236 35.1564C25.211 33.3444 26.0947 31.695 27.0445 30.5813C30.4889 26.5058 34.9552 23.7186 40.3052 22.2858C43.7857 21.3587 47.2542 21.148 50.6325 21.6778C52.3757 21.9487 54.5578 21.9908 56.9923 22.6952C57.4372 21.0517 57.9842 19.4444 58.6514 17.8852C60.6111 13.3101 63.3282 9.25865 66.7485 5.8333L66.7545 5.83932Z" fill="white"/>
<path d="M145.52 23.1287C143.56 18.5536 140.837 14.4961 137.423 11.0768C134.002 7.65143 129.951 4.91838 125.388 2.96792C120.814 0.999394 115.842 0.00610352 110.613 0.00610352C105.383 0.00610352 100.424 1.00541 95.843 2.96792C91.3466 4.8943 87.3552 7.57317 83.9649 10.9263C83.9108 10.9805 83.8567 11.0286 83.8086 11.0768C80.3882 14.5021 77.6651 18.5536 75.7115 23.1287C75.0442 24.6879 74.4972 26.2952 74.0524 27.9386C73.1928 31.1292 72.7479 34.4703 72.7479 37.9197V52.6565C72.7479 56.2685 72.0747 59.6818 70.7342 62.8242C69.3997 65.9606 67.5242 68.7539 65.1738 71.1077C62.8174 73.4675 60.0222 75.3698 56.8843 76.7604C53.7585 78.139 50.3501 78.8433 46.7494 78.8433C41.0267 78.8433 35.9172 77.1818 31.5471 73.913C30.1525 72.8715 28.6376 71.1016 27.237 69.1753C23.474 64.0162 16.7955 61.9152 10.7783 64.0402L1.80357 67.2128C1.80357 67.2128 6.11361 77.3443 9.005 81.1911C11.9024 85.0378 15.3468 88.409 19.2301 91.2022C23.1253 94.0075 27.4775 96.2048 32.1602 97.7519C36.8429 99.2991 41.8022 100.088 46.8937 100.088C53.3798 100.088 59.5834 98.8415 65.3181 96.3914C71.0588 93.9473 76.1383 90.528 80.4242 86.2358C84.7163 81.9375 88.1306 76.8447 90.5652 71.1077C93.0117 65.3646 94.2561 59.1581 94.2561 52.6565C94.2561 51.4405 94.1959 50.2365 94.1118 49.0385V37.9257C94.1118 35.6803 94.5446 33.5131 95.3922 31.4964C96.2458 29.4677 97.43 27.6918 98.9087 26.2109C100.387 24.73 102.161 23.5501 104.187 22.6893C108.22 20.9856 112.993 20.9856 117.039 22.6893C117.039 22.6893 117.045 22.6893 117.057 22.6953C119.076 23.5501 120.844 24.736 122.316 26.2109C123.795 27.6918 124.973 29.4677 125.833 31.4964C126.681 33.5131 127.113 35.6743 127.113 37.9257V87.6264C127.113 93.532 131.898 98.3238 137.795 98.3238C143.692 98.3238 148.477 93.532 148.477 87.6264V37.9137C148.477 32.6884 147.479 27.7099 145.52 23.1227V23.1287Z" fill="white"/>
</svg>
