<svg width="119" height="127" viewBox="0 0 119 127" fill="none" xmlns="http://www.w3.org/2000/svg">
<path d="M103.32 89.4599C103.919 89.5421 104.565 89.6126 105.258 89.6713C105.857 89.73 106.538 89.777 107.301 89.8122C108.077 89.8475 108.893 89.8651 109.75 89.8651C110.89 89.8651 111.794 89.7946 112.464 89.6537C113.133 89.501 113.644 89.2837 113.996 89.0018C114.349 88.7082 114.572 88.3499 114.666 87.9271C114.772 87.5042 114.824 87.0168 114.824 86.4648C114.824 86.0302 114.801 85.6367 114.754 85.2843C114.719 84.9202 114.625 84.5972 114.472 84.3153C114.319 84.0334 114.102 83.7926 113.82 83.593C113.538 83.3816 113.151 83.2112 112.657 83.082L107.53 81.743C106.72 81.5316 106.033 81.2497 105.469 80.8974C104.905 80.5333 104.447 80.0752 104.095 79.5231C103.754 78.9711 103.502 78.3075 103.337 77.5323C103.185 76.7453 103.108 75.8233 103.108 74.7662C103.108 73.5212 103.296 72.4464 103.672 71.542C104.048 70.6259 104.576 69.8742 105.258 69.2869C105.951 68.6996 106.785 68.265 107.76 67.9831C108.734 67.7012 109.821 67.5603 111.019 67.5603C112.017 67.5603 112.928 67.619 113.75 67.7365C114.584 67.8422 115.3 67.9597 115.899 68.0889C116.604 68.2415 117.244 68.4119 117.82 68.5998V71.8592C117.291 71.7887 116.733 71.7241 116.146 71.6654C115.641 71.6066 115.071 71.5597 114.437 71.5244C113.814 71.4774 113.168 71.454 112.499 71.454C111.453 71.454 110.596 71.4892 109.927 71.5597C109.257 71.6301 108.729 71.777 108.341 72.0001C107.953 72.2233 107.683 72.5404 107.53 72.9515C107.378 73.3626 107.301 73.9088 107.301 74.59C107.301 74.9659 107.319 75.3006 107.354 75.5943C107.401 75.8879 107.495 76.1463 107.636 76.3695C107.789 76.5926 108 76.7864 108.27 76.9509C108.552 77.1153 108.928 77.268 109.398 77.4089L114.173 78.7832C114.783 78.9594 115.324 79.1473 115.793 79.347C116.275 79.5349 116.692 79.7639 117.044 80.0341C117.397 80.2925 117.696 80.5979 117.943 80.9502C118.201 81.3026 118.407 81.7254 118.56 82.2187C118.712 82.7003 118.824 83.27 118.894 83.9277C118.965 84.5855 119 85.3431 119 86.2005C119 87.5395 118.883 88.6905 118.648 89.6537C118.424 90.6051 117.996 91.3861 117.361 91.9969C116.727 92.5959 115.852 93.0364 114.736 93.3183C113.632 93.6119 112.199 93.7587 110.437 93.7587C109.075 93.7587 107.942 93.6941 107.037 93.5649C106.145 93.4475 105.416 93.3124 104.852 93.1597C104.206 92.9835 103.696 92.7839 103.32 92.5607V89.4599Z" fill="#24313A"/>
<path d="M84.151 68.0713H99.2675V72.0002H88.3794V78.607H97.5057V82.4655H88.3794V89.2837H99.567V93.2126H84.151V68.0713Z" fill="#24313A"/>
<path d="M54.1235 68.0713H61.4527L66.1039 83.223H66.2449L71.0547 68.0713H78.2606V93.2126H74.0498V72.0002H73.9441L73.4684 73.5858C73.3392 74.0322 73.1982 74.502 73.0455 74.9953C72.8929 75.4769 72.7578 75.8938 72.6403 76.2462L69.3986 86.3943H63.0736L59.7613 76.1757C59.6439 75.8233 59.5088 75.4123 59.3561 74.9424C59.2034 74.4609 59.0625 74.0028 58.9333 73.5682C58.7806 73.0631 58.622 72.5405 58.4576 72.0002H58.3519V93.2126H54.1235V68.0713Z" fill="#24313A"/>
<path fill-rule="evenodd" clip-rule="evenodd" d="M24.8968 92.7016C23.7742 91.5891 23.7742 89.7855 24.8968 88.6731L43.828 69.9129C44.9506 68.8005 46.7707 68.8005 47.8933 69.9129C49.0159 71.0254 49.0159 72.829 47.8933 73.9414L28.962 92.7016C27.8395 93.814 26.0194 93.814 24.8968 92.7016Z" fill="#24313A"/>
<path fill-rule="evenodd" clip-rule="evenodd" d="M47.8935 92.457C46.7709 93.5694 44.9508 93.5694 43.8282 92.457L24.897 73.6968C23.7744 72.5844 23.7744 70.7808 24.897 69.6683C26.0196 68.5559 27.8397 68.5559 28.9623 69.6683L47.8935 88.4285C49.0161 89.5409 49.0161 91.3445 47.8935 92.457Z" fill="#24313A"/>
<path d="M0 80.4041C0 77.9962 0.258402 75.976 0.775206 74.3434C1.30376 72.699 2.0496 71.3776 3.01273 70.3792C3.98761 69.3691 5.15629 68.6468 6.51878 68.2122C7.88126 67.7776 9.40818 67.5603 11.0995 67.5603C12.2389 67.5603 13.2548 67.619 14.1475 67.7365C15.0519 67.8539 15.8271 67.9831 16.4731 68.1241C17.2131 68.2885 17.8767 68.4706 18.464 68.6703V71.8592C17.8297 71.7887 17.1485 71.73 16.4203 71.683C15.7978 71.636 15.0872 71.5949 14.2885 71.5597C13.4898 71.5127 12.6676 71.4892 11.8219 71.4892C10.3537 71.4892 9.13803 71.6478 8.1749 71.9649C7.21177 72.2703 6.4483 72.7753 5.88452 73.4801C5.32073 74.1848 4.92138 75.1068 4.68647 76.2461C4.46331 77.3737 4.35172 78.7597 4.35172 80.4041C4.35172 82.0837 4.46918 83.5225 4.70409 84.7205C4.95075 85.9068 5.3501 86.8817 5.90214 87.6452C6.45418 88.4086 7.1824 88.9724 8.08681 89.3365C8.99122 89.6889 10.107 89.8651 11.4343 89.8651C12.0098 89.8651 12.5325 89.8475 13.0023 89.8122C13.4721 89.777 13.8715 89.73 14.2004 89.6713C14.588 89.6126 14.9286 89.5421 15.2222 89.4599V82.9939H10.6415V79.1355H19.4154V92.0145C18.7224 92.3434 17.9648 92.637 17.1426 92.8954C16.4379 93.1186 15.604 93.3183 14.6408 93.4945C13.6894 93.6707 12.6558 93.7587 11.54 93.7587C9.71944 93.7587 8.09268 93.5532 6.65972 93.1421C5.23851 92.731 4.0346 92.0145 3.04797 90.9927C2.06134 89.9708 1.30376 88.6024 0.775206 86.8876C0.258402 85.1727 0 83.0116 0 80.4041Z" fill="#24313A"/>
<path d="M86.3356 36.0823H91.9383L100.166 61.2236H95.4972L93.383 54.4053H84.8205L82.7943 61.2236H78.1783L86.3356 36.0823ZM92.2201 50.6174L89.1193 39.9759H89.0488L85.948 50.6174H92.2201Z" fill="#24313A"/>
<path d="M54.1235 34.5789H64.3181C65.0477 34.5789 65.7581 34.6294 66.4492 34.7306C67.1532 34.8191 67.8124 34.9834 68.4267 35.2236C69.0539 35.4638 69.6235 35.7926 70.1354 36.2098C70.6474 36.6143 71.089 37.139 71.4602 37.7838C71.8442 38.4286 72.1385 39.1998 72.3433 40.0974C72.5481 40.995 72.6505 42.0507 72.6505 43.2644C72.6505 44.0735 72.5801 44.8005 72.4393 45.4453C72.3113 46.0774 72.1321 46.64 71.9018 47.1331C71.6842 47.6261 71.4282 48.056 71.1338 48.4226C70.8522 48.7893 70.5642 49.1053 70.2698 49.3708C69.5659 49.9777 68.7723 50.4012 67.8892 50.6414V50.6794L73.6681 61.6406H68.4075L63.2814 51.7034H58.7312V61.6406H54.1235V34.5789ZM64.2797 47.4175C66.686 47.4175 67.8892 45.9447 67.8892 42.9989C67.8892 42.2277 67.7996 41.5766 67.6204 41.0456C67.454 40.502 67.2044 40.0658 66.8716 39.7371C66.5516 39.4084 66.1613 39.1745 65.7005 39.0354C65.2397 38.8837 64.7277 38.8078 64.1646 38.8078H58.7312V47.4175H64.2797Z" fill="#24313A"/>
<path d="M9.02057 34.5789H13.5309V61.6406H9.02057V34.5789Z" fill="#24313A"/>
<path d="M33.1734 36.0823C34.3308 34.0777 37.2241 34.0777 38.3815 36.0823L50.0996 56.3786C51.2569 58.3832 49.8102 60.8889 47.4955 60.8889H24.0594C21.7447 60.8889 20.298 58.3832 21.4554 56.3786L33.1734 36.0823Z" fill="#24313A"/>
<circle cx="35.3306" cy="14.2826" r="14.2826" fill="#276D3C"/>
<path d="M22.5515 102.73C22.5515 101.625 23.4469 100.73 24.5515 100.73H46.1098C47.2143 100.73 48.1098 101.625 48.1098 102.73V124.288C48.1098 125.393 47.2143 126.288 46.1098 126.288H24.5515C23.4469 126.288 22.5515 125.393 22.5515 124.288V102.73Z" fill="#EEA142"/>
</svg>
