<svg width="38" height="39" viewBox="0 0 38 39" fill="none" xmlns="http://www.w3.org/2000/svg">
<g clip-path="url(#clip0_498_669)">
<path d="M19 9.64404C17.8257 9.64404 16.6777 9.99227 15.7013 10.6447C14.7249 11.2971 13.9639 12.2244 13.5145 13.3094C13.0651 14.3943 12.9475 15.5881 13.1766 16.7399C13.4057 17.8917 13.9712 18.9496 14.8016 19.78C15.6319 20.6104 16.6899 21.1759 17.8417 21.405C18.9934 21.6341 20.1873 21.5165 21.2722 21.0671C22.3571 20.6177 23.2844 19.8567 23.9369 18.8802C24.5893 17.9038 24.9375 16.7559 24.9375 15.5815C24.9375 14.0068 24.3119 12.4966 23.1985 11.3831C22.085 10.2696 20.5747 9.64404 19 9.64404ZM19 19.144C18.2954 19.144 17.6066 18.9351 17.0208 18.5437C16.4349 18.1522 15.9783 17.5958 15.7087 16.9449C15.439 16.2939 15.3685 15.5776 15.506 14.8865C15.6434 14.1955 15.9827 13.5607 16.4809 13.0625C16.9792 12.5642 17.6139 12.225 18.305 12.0875C18.9961 11.95 19.7124 12.0206 20.3633 12.2902C21.0143 12.5599 21.5707 13.0165 21.9621 13.6023C22.3536 14.1882 22.5625 14.8769 22.5625 15.5815C22.5614 16.526 22.1858 17.4316 21.5179 18.0994C20.85 18.7673 19.9445 19.143 19 19.144Z" fill="#161616"/>
<path d="M19 2.51904C15.7119 2.51904 12.4976 3.49408 9.76365 5.32086C7.02968 7.14764 4.89882 9.74411 3.64051 12.7819C2.3822 15.8198 2.05297 19.1625 2.69445 22.3874C3.33593 25.6124 4.91931 28.5746 7.24436 30.8997C9.5694 33.2247 12.5317 34.8081 15.7566 35.4496C18.9816 36.0911 22.3243 35.7618 25.3621 34.5035C28.3999 33.2452 30.9964 31.1144 32.8232 28.3804C34.65 25.6464 35.625 22.4322 35.625 19.144C35.62 14.7363 33.8669 10.5106 30.7502 7.39388C27.6335 4.27716 23.4077 2.52401 19 2.51904ZM11.875 31.4661V29.8315C11.876 28.887 12.2517 27.9815 12.9196 27.3136C13.5875 26.6457 14.493 26.2701 15.4375 26.269H22.5625C23.507 26.2701 24.4126 26.6457 25.0804 27.3136C25.7483 27.9815 26.124 28.887 26.125 29.8315V31.4661C23.9628 32.7287 21.5039 33.394 19 33.394C16.4961 33.394 14.0372 32.7287 11.875 31.4661ZM28.4911 29.7434C28.4675 28.1857 27.8328 26.6997 26.7238 25.6055C25.6149 24.5113 24.1204 23.8967 22.5625 23.894H15.4375C13.8796 23.8967 12.3852 24.5113 11.2762 25.6055C10.1672 26.6997 9.53252 28.1857 9.50891 29.7434C7.35546 27.8206 5.83684 25.289 5.15415 22.4838C4.47147 19.6787 4.65691 16.7324 5.68592 14.035C6.71494 11.3376 8.53899 9.01641 10.9165 7.37873C13.2941 5.74105 16.113 4.86415 19 4.86415C21.887 4.86415 24.7059 5.74105 27.0835 7.37873C29.461 9.01641 31.2851 11.3376 32.3141 14.035C33.3431 16.7324 33.5285 19.6787 32.8459 22.4838C32.1632 25.289 30.6446 27.8206 28.4911 29.7434Z" fill="#161616"/>
</g>
<defs>
<clipPath id="clip0_498_669">
<rect width="38" height="38" fill="white" transform="translate(0 0.144043)"/>
</clipPath>
</defs>
</svg>
