<?xml version="1.0" encoding="UTF-8"?>
<svg id="Layer_2" data-name="Layer 2" xmlns="http://www.w3.org/2000/svg" xmlns:xlink="http://www.w3.org/1999/xlink" viewBox="0 0 725.46 479.32">
  <defs>
    <style>
      .cls-1 {
        stroke: #15193e;
      }

      .cls-1, .cls-2 {
        opacity: .8;
      }

      .cls-1, .cls-3 {
        fill: none;
        stroke-miterlimit: 10;
      }

      .cls-4, .cls-5, .cls-6, .cls-7 {
        fill: #faa836;
      }

      .cls-8 {
        fill: url(#Degradado_sin_nombre_5-8);
      }

      .cls-8, .cls-9, .cls-10, .cls-11, .cls-12, .cls-13, .cls-5, .cls-3, .cls-14, .cls-15, .cls-16, .cls-17, .cls-18 {
        opacity: .7;
      }

      .cls-9 {
        fill: url(#Degradado_sin_nombre_5-9);
      }

      .cls-10 {
        fill: url(#Degradado_sin_nombre_5-7);
      }

      .cls-11 {
        fill: url(#Degradado_sin_nombre_5-6);
      }

      .cls-12 {
        fill: url(#Degradado_sin_nombre_2-5);
      }

      .cls-13 {
        fill: url(#Degradado_sin_nombre_2-6);
      }

      .cls-19 {
        fill: url(#Degradado_sin_nombre_4-6);
      }

      .cls-19, .cls-20, .cls-21, .cls-22, .cls-23, .cls-24, .cls-25, .cls-7 {
        opacity: .2;
      }

      .cls-20 {
        fill: url(#Degradado_sin_nombre_4-4);
      }

      .cls-21 {
        fill: url(#Degradado_sin_nombre_4-8);
      }

      .cls-22 {
        fill: url(#Degradado_sin_nombre_4-7);
      }

      .cls-23 {
        fill: url(#Degradado_sin_nombre_2-2);
      }

      .cls-24 {
        fill: url(#Degradado_sin_nombre_2-3);
      }

      .cls-26 {
        fill: url(#Degradado_sin_nombre_4-5);
      }

      .cls-26, .cls-27, .cls-28, .cls-29, .cls-30, .cls-31, .cls-32, .cls-33, .cls-34 {
        opacity: .1;
      }

      .cls-27 {
        fill: url(#Degradado_sin_nombre_4-9);
      }

      .cls-28 {
        fill: url(#Degradado_sin_nombre_5-5);
      }

      .cls-29 {
        fill: url(#Degradado_sin_nombre_5-4);
      }

      .cls-30 {
        fill: url(#Degradado_sin_nombre_5-2);
      }

      .cls-31 {
        fill: url(#Degradado_sin_nombre_5-3);
      }

      .cls-32 {
        fill: url(#Degradado_sin_nombre_2-4);
      }

      .cls-2, .cls-35, .cls-33, .cls-25, .cls-36 {
        fill: #15193e;
      }

      .cls-35, .cls-6 {
        opacity: .3;
      }

      .cls-37 {
        fill: url(#Degradado_sin_nombre_4-13);
      }

      .cls-38 {
        fill: url(#Degradado_sin_nombre_4-12);
      }

      .cls-39 {
        fill: url(#Degradado_sin_nombre_4-11);
      }

      .cls-40 {
        fill: url(#radial-gradient);
        opacity: .6;
      }

      .cls-41 {
        fill: url(#Degradado_sin_nombre_4-2);
      }

      .cls-42 {
        fill: url(#Degradado_sin_nombre_4-3);
      }

      .cls-43 {
        fill: url(#Degradado_sin_nombre_4);
      }

      .cls-3 {
        stroke: #faa836;
      }

      .cls-14 {
        fill: url(#Degradado_sin_nombre_2);
      }

      .cls-15 {
        fill: url(#Degradado_sin_nombre_5);
      }

      .cls-34 {
        fill: url(#Degradado_sin_nombre_4-10);
      }

      .cls-16 {
        fill: url(#Degradado_sin_nombre_5-12);
      }

      .cls-17 {
        fill: url(#Degradado_sin_nombre_5-11);
      }

      .cls-18 {
        fill: url(#Degradado_sin_nombre_5-10);
      }
    </style>
    <radialGradient id="radial-gradient" cx="351.58" cy="237.79" fx="351.58" fy="237.79" r="414.91" gradientTransform="translate(63.44 104.99) scale(.85 .56)" gradientUnits="userSpaceOnUse">
      <stop offset="0" stop-color="#202a66" stop-opacity=".3"/>
      <stop offset="1" stop-color="#210240" stop-opacity="0"/>
    </radialGradient>
    <linearGradient id="Degradado_sin_nombre_4" data-name="Degradado sin nombre 4" x1="76.9" y1="306.02" x2="76.9" y2="246.89" gradientUnits="userSpaceOnUse">
      <stop offset="0" stop-color="#15193e"/>
      <stop offset="1" stop-color="#210240" stop-opacity="0"/>
    </linearGradient>
    <linearGradient id="Degradado_sin_nombre_4-2" data-name="Degradado sin nombre 4" x1="270.6" y1="103.58" x2="270.6" y2="44.46" xlink:href="#Degradado_sin_nombre_4"/>
    <linearGradient id="Degradado_sin_nombre_4-3" data-name="Degradado sin nombre 4" x1="422.93" y1="261.3" x2="422.93" y2="202.17" xlink:href="#Degradado_sin_nombre_4"/>
    <linearGradient id="Degradado_sin_nombre_5" data-name="Degradado sin nombre 5" x1="205.06" y1="245.94" x2="205.06" y2="218.89" gradientUnits="userSpaceOnUse">
      <stop offset="0" stop-color="#faa836"/>
      <stop offset="1" stop-color="#210240" stop-opacity="0"/>
    </linearGradient>
    <linearGradient id="Degradado_sin_nombre_5-2" data-name="Degradado sin nombre 5" x1="73.53" y1="141.06" x2="73.53" y2="114" xlink:href="#Degradado_sin_nombre_5"/>
    <linearGradient id="Degradado_sin_nombre_5-3" data-name="Degradado sin nombre 5" x1="200" y1="44.39" x2="200" y2="17.33" xlink:href="#Degradado_sin_nombre_5"/>
    <linearGradient id="Degradado_sin_nombre_5-4" data-name="Degradado sin nombre 5" x1="336.97" y1="77.09" x2="336.97" y2="50.03" xlink:href="#Degradado_sin_nombre_5"/>
    <linearGradient id="Degradado_sin_nombre_5-5" data-name="Degradado sin nombre 5" x1="610.44" y1="47.16" x2="610.44" y2="20.1" xlink:href="#Degradado_sin_nombre_5"/>
    <linearGradient id="Degradado_sin_nombre_5-6" data-name="Degradado sin nombre 5" x1="364.9" y1="424.81" x2="364.9" y2="397.75" xlink:href="#Degradado_sin_nombre_5"/>
    <linearGradient id="Degradado_sin_nombre_5-7" data-name="Degradado sin nombre 5" x1="493.15" y1="145.26" x2="493.15" y2="118.2" xlink:href="#Degradado_sin_nombre_5"/>
    <linearGradient id="Degradado_sin_nombre_5-8" data-name="Degradado sin nombre 5" x1="601.92" y1="272.95" x2="601.92" y2="245.89" xlink:href="#Degradado_sin_nombre_5"/>
    <linearGradient id="Degradado_sin_nombre_5-9" data-name="Degradado sin nombre 5" x1="97.36" y1="391.51" x2="97.36" y2="364.45" xlink:href="#Degradado_sin_nombre_5"/>
    <linearGradient id="Degradado_sin_nombre_4-4" data-name="Degradado sin nombre 4" x1="287.05" y1="315.11" x2="287.05" y2="255.99" xlink:href="#Degradado_sin_nombre_4"/>
    <linearGradient id="Degradado_sin_nombre_4-5" data-name="Degradado sin nombre 4" x1="95.67" y1="78.89" x2="95.67" y2="19.76" xlink:href="#Degradado_sin_nombre_4"/>
    <linearGradient id="Degradado_sin_nombre_4-6" data-name="Degradado sin nombre 4" x1="10.67" y1="371.43" x2="10.67" y2="312.3" xlink:href="#Degradado_sin_nombre_4"/>
    <linearGradient id="Degradado_sin_nombre_4-7" data-name="Degradado sin nombre 4" x1="675.27" y1="364.38" x2="675.27" y2="305.25" xlink:href="#Degradado_sin_nombre_4"/>
    <linearGradient id="Degradado_sin_nombre_5-10" data-name="Degradado sin nombre 5" x1="708.48" y1="476.44" x2="708.48" y2="417.31" xlink:href="#Degradado_sin_nombre_5"/>
    <linearGradient id="Degradado_sin_nombre_5-11" data-name="Degradado sin nombre 5" x1="48.68" y1="474.28" x2="48.68" y2="415.15" xlink:href="#Degradado_sin_nombre_5"/>
    <linearGradient id="Degradado_sin_nombre_5-12" data-name="Degradado sin nombre 5" x1="491.47" y1="360.6" x2="491.47" y2="301.48" xlink:href="#Degradado_sin_nombre_5"/>
    <linearGradient id="Degradado_sin_nombre_4-8" data-name="Degradado sin nombre 4" x1="550.52" y1="171.28" x2="550.52" y2="112.15" xlink:href="#Degradado_sin_nombre_4"/>
    <linearGradient id="Degradado_sin_nombre_4-9" data-name="Degradado sin nombre 4" x1="404.55" y1="73.32" x2="404.55" y2="14.19" xlink:href="#Degradado_sin_nombre_4"/>
    <linearGradient id="Degradado_sin_nombre_4-10" data-name="Degradado sin nombre 4" x1="710.16" y1="70.88" x2="710.16" y2="11.75" xlink:href="#Degradado_sin_nombre_4"/>
    <linearGradient id="Degradado_sin_nombre_4-11" data-name="Degradado sin nombre 4" x1="201.69" y1="450.58" x2="201.69" y2="391.45" xlink:href="#Degradado_sin_nombre_4"/>
    <linearGradient id="Degradado_sin_nombre_4-12" data-name="Degradado sin nombre 4" x1="660.24" y1="147.06" x2="660.24" y2="87.93" xlink:href="#Degradado_sin_nombre_4"/>
    <linearGradient id="Degradado_sin_nombre_4-13" data-name="Degradado sin nombre 4" x1="552.2" y1="450.58" x2="552.2" y2="391.45" xlink:href="#Degradado_sin_nombre_4"/>
    <radialGradient id="Degradado_sin_nombre_2" data-name="Degradado sin nombre 2" cx="400.24" cy="356.4" fx="400.24" fy="356.4" r="24.23" gradientUnits="userSpaceOnUse">
      <stop offset="0" stop-color="#202a66"/>
      <stop offset=".05" stop-color="#202763" stop-opacity=".94"/>
      <stop offset=".7" stop-color="#200c4a" stop-opacity=".27"/>
      <stop offset="1" stop-color="#210240" stop-opacity="0"/>
    </radialGradient>
    <radialGradient id="Degradado_sin_nombre_2-2" data-name="Degradado sin nombre 2" cx="279.28" cy="315.08" fx="279.28" fy="315.08" r="42.53" gradientTransform="translate(81.49 -56.61) rotate(13.53)" xlink:href="#Degradado_sin_nombre_2"/>
    <radialGradient id="Degradado_sin_nombre_2-3" data-name="Degradado sin nombre 2" cx="676.95" cy="366.17" fx="676.95" fy="366.17" r="42.53" gradientTransform="translate(726.84 -401.85) rotate(65.31)" xlink:href="#Degradado_sin_nombre_2"/>
    <radialGradient id="Degradado_sin_nombre_2-4" data-name="Degradado sin nombre 2" cx="108.95" cy="323.63" fx="108.95" fy="323.63" r="42.53" xlink:href="#Degradado_sin_nombre_2"/>
    <radialGradient id="Degradado_sin_nombre_2-5" data-name="Degradado sin nombre 2" cx="594.23" cy="434.06" fx="594.23" fy="434.06" r="24.23" gradientTransform="translate(763.42 -282.11) rotate(67.14)" xlink:href="#Degradado_sin_nombre_2"/>
    <radialGradient id="Degradado_sin_nombre_2-6" data-name="Degradado sin nombre 2" cx="133.18" cy="439.53" fx="133.18" fy="439.53" r="24.23" xlink:href="#Degradado_sin_nombre_2"/>
  </defs>
  <g id="OBJECTS">
    <ellipse class="cls-40" cx="362.73" cy="237.79" rx="362.73" ry="237.79"/>
    <g>
      <path class="cls-43" d="M76.9,242.4h0c-.93,0-1.69.75-1.69,1.69v62.04c0,.93.75,1.69,1.69,1.69h0c.93,0,1.69-.75,1.69-1.69v-62.04c0-.93-.75-1.69-1.69-1.69Z"/>
      <path class="cls-41" d="M270.6,39.97h0c-.93,0-1.69.75-1.69,1.69v62.04c0,.93.75,1.69,1.69,1.69h0c.93,0,1.69-.75,1.69-1.69v-62.04c0-.93-.75-1.69-1.69-1.69Z"/>
      <path class="cls-42" d="M422.93,197.68h0c-.93,0-1.69.75-1.69,1.69v62.04c0,.93.75,1.69,1.69,1.69h0c.93,0,1.69-.75,1.69-1.69v-62.04c0-.93-.75-1.69-1.69-1.69Z"/>
      <path class="cls-15" d="M205.06,216.83h0c-.93,0-1.69.75-1.69,1.69v26.56c0,.93.75,1.69,1.69,1.69h0c.93,0,1.69-.75,1.69-1.69v-26.56c0-.93-.75-1.69-1.69-1.69Z"/>
      <path class="cls-30" d="M73.53,111.95h0c-.93,0-1.69.75-1.69,1.69v26.56c0,.93.75,1.69,1.69,1.69h0c.93,0,1.69-.75,1.69-1.69v-26.56c0-.93-.75-1.69-1.69-1.69Z"/>
      <path class="cls-31" d="M200,15.27h0c-.93,0-1.69.75-1.69,1.69v26.56c0,.93.75,1.69,1.69,1.69h0c.93,0,1.69-.75,1.69-1.69v-26.56c0-.93-.75-1.69-1.69-1.69Z"/>
      <path class="cls-29" d="M336.97,47.98h0c-.93,0-1.69.75-1.69,1.69v26.56c0,.93.75,1.69,1.69,1.69h0c.93,0,1.69-.75,1.69-1.69v-26.56c0-.93-.75-1.69-1.69-1.69Z"/>
      <path class="cls-28" d="M610.44,18.04h0c-.93,0-1.69.75-1.69,1.69v26.56c0,.93.75,1.69,1.69,1.69h0c.93,0,1.69-.75,1.69-1.69v-26.56c0-.93-.75-1.69-1.69-1.69Z"/>
      <path class="cls-11" d="M364.9,395.7h0c-.93,0-1.69.75-1.69,1.69v26.56c0,.93.75,1.69,1.69,1.69h0c.93,0,1.69-.75,1.69-1.69v-26.56c0-.93-.75-1.69-1.69-1.69Z"/>
      <path class="cls-10" d="M493.15,116.14h0c-.93,0-1.69.75-1.69,1.69v26.56c0,.93.75,1.69,1.69,1.69h0c.93,0,1.69-.75,1.69-1.69v-26.56c0-.93-.75-1.69-1.69-1.69Z"/>
      <rect class="cls-8" x="600.23" y="243.84" width="3.37" height="29.93" rx="1.69" ry="1.69"/>
      <path class="cls-9" d="M97.36,362.39h0c-.93,0-1.69.75-1.69,1.69v26.56c0,.93.75,1.69,1.69,1.69h0c.93,0,1.69-.75,1.69-1.69v-26.56c0-.93-.75-1.69-1.69-1.69Z"/>
      <path class="cls-20" d="M287.05,251.5h0c-.93,0-1.69.75-1.69,1.69v62.04c0,.93.75,1.69,1.69,1.69h0c.93,0,1.69-.75,1.69-1.69v-62.04c0-.93-.75-1.69-1.69-1.69Z"/>
      <path class="cls-26" d="M95.67,15.27h0c-.93,0-1.69.75-1.69,1.69v62.04c0,.93.75,1.69,1.69,1.69h0c.93,0,1.69-.75,1.69-1.69V16.96c0-.93-.75-1.69-1.69-1.69Z"/>
      <path class="cls-19" d="M10.67,307.81h0c-.93,0-1.69.75-1.69,1.69v62.04c0,.93.75,1.69,1.69,1.69h0c.93,0,1.69-.75,1.69-1.69v-62.04c0-.93-.75-1.69-1.69-1.69Z"/>
      <rect class="cls-22" x="673.58" y="300.76" width="3.37" height="65.41" rx="1.69" ry="1.69"/>
      <path class="cls-18" d="M708.48,412.82h0c-.93,0-1.69.75-1.69,1.69v62.04c0,.93.75,1.69,1.69,1.69h0c.93,0,1.69-.75,1.69-1.69v-62.04c0-.93-.75-1.69-1.69-1.69Z"/>
      <path class="cls-17" d="M48.68,410.66h0c-.93,0-1.69.75-1.69,1.69v62.04c0,.93.75,1.69,1.69,1.69h0c.93,0,1.69-.75,1.69-1.69v-62.04c0-.93-.75-1.69-1.69-1.69Z"/>
      <path class="cls-16" d="M491.47,296.99h0c-.93,0-1.69.75-1.69,1.69v62.04c0,.93.75,1.69,1.69,1.69h0c.93,0,1.69-.75,1.69-1.69v-62.04c0-.93-.75-1.69-1.69-1.69Z"/>
      <path class="cls-21" d="M550.52,107.66h0c-.93,0-1.69.75-1.69,1.69v62.04c0,.93.75,1.69,1.69,1.69h0c.93,0,1.69-.75,1.69-1.69v-62.04c0-.93-.75-1.69-1.69-1.69Z"/>
      <path class="cls-27" d="M404.55,9.7h0c-.93,0-1.69.75-1.69,1.69v62.04c0,.93.75,1.69,1.69,1.69h0c.93,0,1.69-.75,1.69-1.69V11.39c0-.93-.75-1.69-1.69-1.69Z"/>
      <path class="cls-34" d="M710.16,7.26h0c-.93,0-1.69.75-1.69,1.69v62.04c0,.93.75,1.69,1.69,1.69h0c.93,0,1.69-.75,1.69-1.69V8.95c0-.93-.75-1.69-1.69-1.69Z"/>
      <path class="cls-39" d="M201.69,386.96h0c-.93,0-1.69.75-1.69,1.69v62.04c0,.93.75,1.69,1.69,1.69h0c.93,0,1.69-.75,1.69-1.69v-62.04c0-.93-.75-1.69-1.69-1.69Z"/>
      <path class="cls-38" d="M660.24,83.44h0c-.93,0-1.69.75-1.69,1.69v62.04c0,.93.75,1.69,1.69,1.69h0c.93,0,1.69-.75,1.69-1.69v-62.04c0-.93-.75-1.69-1.69-1.69Z"/>
      <path class="cls-37" d="M552.2,386.96h0c-.93,0-1.69.75-1.69,1.69v62.04c0,.93.75,1.69,1.69,1.69h0c.93,0,1.69-.75,1.69-1.69v-62.04c0-.93-.75-1.69-1.69-1.69Z"/>
    </g>
    <g>
      <rect class="cls-4" x="162.79" y="350.4" width="11.99" height="11.99"/>
      <rect class="cls-5" x="40.99" y="202.46" width="11.99" height="11.99"/>
      <rect class="cls-4" x="40.99" y="225.8" width="11.99" height="11.99"/>
      <rect class="cls-4" x="336.97" y="224.39" width="11.99" height="11.99"/>
      <rect class="cls-7" x="248.59" y="364.24" width="6" height="6"/>
      <rect class="cls-25" x="324.43" y="322.52" width="6" height="6"/>
      <rect class="cls-25" x="382" y="104.99" width="6" height="6"/>
      <rect class="cls-25" x="382" y="128.11" width="6" height="6"/>
      <rect class="cls-25" x="622.54" y="80.44" width="6" height="6"/>
      <rect class="cls-25" x="622.54" y="96.76" width="6" height="6"/>
      <rect class="cls-25" x="622.54" y="159.3" width="6" height="6"/>
      <rect class="cls-25" x="703.79" y="116.14" width="6" height="6"/>
      <rect class="cls-25" x="703.79" y="156.3" width="6" height="6"/>
      <rect class="cls-25" x="324.43" y="340.51" width="6" height="6"/>
      <rect class="cls-25" x="324.43" y="389.33" width="6" height="6"/>
      <rect class="cls-25" x="295.28" y="224.39" width="6" height="6"/>
      <rect class="cls-25" x="295.28" y="206.68" width="6" height="6"/>
      <rect class="cls-25" x="130.18" y="90.77" width="6" height="6"/>
      <rect class="cls-25" x="130.18" y="110.99" width="6" height="6"/>
      <rect class="cls-25" x="16.28" y="148.53" width="6" height="6"/>
      <rect class="cls-25" x="16.28" y="170.07" width="6" height="6"/>
      <rect class="cls-25" x="16.28" y="228.8" width="6" height="6"/>
      <rect class="cls-7" x="136.18" y="196.84" width="6" height="6"/>
      <rect class="cls-7" x="136.18" y="213.83" width="6" height="6"/>
      <rect class="cls-7" x="136.18" y="254.1" width="6" height="6"/>
      <rect class="cls-7" x="276.29" y="134.11" width="6" height="6"/>
      <rect class="cls-7" x="518.03" y="93.76" width="6" height="6"/>
      <rect class="cls-7" x="248.59" y="377.63" width="6" height="6"/>
      <rect class="cls-7" x="408.85" y="294.76" width="6" height="6"/>
      <rect class="cls-7" x="408.85" y="312.08" width="6" height="6"/>
      <rect class="cls-7" x="567" y="363.17" width="6" height="6"/>
      <rect class="cls-7" x="567" y="380.71" width="6" height="6"/>
      <rect class="cls-7" x="248.59" y="407.67" width="6" height="6"/>
      <rect class="cls-3" x="334.35" y="251.86" width="17.23" height="17.23"/>
      <rect class="cls-1" x="160.18" y="308.29" width="17.23" height="17.23"/>
      <rect class="cls-1" x="307.21" y="461.59" width="17.23" height="17.23"/>
      <rect class="cls-1" x="10.67" y="424.92" width="17.23" height="17.23"/>
      <rect class="cls-1" x="334.35" y="137.46" width="17.23" height="17.23"/>
      <rect class="cls-1" x="557.57" y="90.77" width="17.23" height="17.23"/>
      <rect class="cls-3" x="174.19" y="146.08" width="17.23" height="17.23"/>
      <rect class="cls-3" x="23.13" y="96.76" width="17.23" height="17.23"/>
      <rect class="cls-3" x="418.63" y="199.84" width="17.23" height="17.23"/>
      <rect class="cls-3" x="38.38" y="306.47" width="17.23" height="17.23"/>
      <rect class="cls-3" x="470.81" y="315.08" width="17.23" height="17.23"/>
      <rect class="cls-3" x="391.62" y="389.6" width="17.23" height="17.23"/>
      <rect class="cls-3" x="632.4" y="375.1" width="17.23" height="17.23"/>
      <rect class="cls-2" x="421.24" y="131.11" width="11.99" height="11.99"/>
      <rect class="cls-2" x="421.24" y="162.3" width="11.99" height="11.99"/>
      <circle class="cls-14" cx="400.24" cy="356.4" r="24.23"/>
      <circle class="cls-23" cx="279.28" cy="315.08" r="42.53" transform="translate(-65.98 74.1) rotate(-13.53)"/>
      <circle class="cls-24" cx="676.95" cy="366.17" r="42.53" transform="translate(61.47 828.25) rotate(-65.31)"/>
      <circle class="cls-32" cx="108.95" cy="323.63" r="42.53"/>
      <circle class="cls-12" cx="594.23" cy="434.06" r="24.23" transform="translate(-36.55 813.05) rotate(-67.14)"/>
      <rect class="cls-36" x="394.24" y="350.4" width="11.99" height="11.99"/>
      <rect class="cls-36" x="588.24" y="427.54" width="11.99" height="11.99"/>
      <rect class="cls-2" x="176.8" y="62.94" width="11.99" height="11.99"/>
      <rect class="cls-35" x="287.05" y="9.28" width="11.99" height="11.99"/>
      <rect class="cls-35" x="475.61" y="15.27" width="11.99" height="11.99"/>
      <rect class="cls-35" x="687.26" y="3.7" width="11.99" height="11.99"/>
      <rect class="cls-2" x="25.75" y="45.21" width="11.99" height="11.99"/>
      <rect class="cls-2" x="675.27" y="191.69" width="11.99" height="11.99"/>
      <rect class="cls-2" x="220.99" y="252.81" width="11.99" height="11.99"/>
      <rect class="cls-33" x="256.92" y="183.22" width="26.46" height="26.46"/>
      <rect class="cls-33" x="535.6" y="218.57" width="26.46" height="26.46"/>
      <rect class="cls-33" x="535.6" y="261.88" width="26.46" height="26.46"/>
      <rect class="cls-33" x="446.97" y="406.44" width="26.46" height="26.46"/>
      <rect class="cls-33" x="106.72" y="287.53" width="26.46" height="26.46"/>
      <rect class="cls-33" x="468.38" y="37.97" width="26.46" height="26.46"/>
      <rect class="cls-33" x="687.26" y="255.86" width="26.46" height="26.46"/>
      <rect class="cls-33" x="119.95" y="17.01" width="26.46" height="26.46"/>
      <rect class="cls-2" x="127.18" y="406.83" width="11.99" height="11.99"/>
      <circle class="cls-13" cx="133.18" cy="439.53" r="24.23"/>
      <rect class="cls-36" x="127.18" y="433.54" width="11.99" height="11.99"/>
      <rect class="cls-4" x="309.83" y="439.53" width="11.99" height="11.99"/>
      <rect class="cls-5" x="473.43" y="257.09" width="11.99" height="11.99"/>
      <rect class="cls-5" x="473.43" y="225.8" width="11.99" height="11.99"/>
      <rect class="cls-5" x="370.01" y="47.98" width="11.99" height="11.99"/>
      <rect class="cls-5" x="635.01" y="294.76" width="11.99" height="11.99"/>
      <rect class="cls-5" x="594.23" y="173.07" width="11.99" height="11.99"/>
      <rect class="cls-4" x="635.01" y="323.69" width="11.99" height="11.99"/>
      <rect class="cls-5" x="176.8" y="93.38" width="11.99" height="11.99"/>
      <rect class="cls-6" x="76.9" y="9.28" width="11.99" height="11.99"/>
      <rect class="cls-6" x="236.75" y="39.21" width="11.99" height="11.99"/>
      <rect class="cls-6" x="412.63" y="9.28" width="11.99" height="11.99"/>
      <rect class="cls-6" x="654.24" y="33.97" width="11.99" height="11.99"/>
      <rect class="cls-5" x="560.19" y="36.41" width="11.99" height="11.99"/>
      <rect class="cls-5" x="560.19" y="56.95" width="11.99" height="11.99"/>
    </g>
  </g>
</svg>